<?xml version="1.0" encoding="UTF-8" standalone="no"?>
<!DOCTYPE svg PUBLIC "-//W3C//DTD SVG 1.1//EN"
 "http://www.w3.org/Graphics/SVG/1.1/DTD/svg11.dtd">
<!-- Generated by graphviz version 9.0.0 (20230911.1827)
 -->
<!-- Title: rosgraph Pages: 1 -->
<svg width="802pt" height="900pt"
 viewBox="0.00 0.00 802.25 900.00" xmlns="http://www.w3.org/2000/svg" xmlns:xlink="http://www.w3.org/1999/xlink">
<g id="graph0" class="graph" transform="scale(1 1) rotate(0) translate(72 828)">
<title>rosgraph</title>
<polygon fill="white" stroke="none" points="-72,72 -72,-828 730.25,-828 730.25,72 -72,72"/>
<!-- /waffle_topology_generate_topology -->
<g id="node1" class="node">
<title>/waffle_topology_generate_topology</title>
<ellipse fill="limegreen" stroke="black" cx="310.25" cy="-558" rx="147.57" ry="18"/>
<text text-anchor="middle" x="310.25" y="-552.95" font-family="Times,serif" font-size="14.00">/waffle_topology_generate_topology</text>
</g>
<!-- rt/topology/edges -->
<g id="node4" class="node">
<title>rt/topology/edges</title>
<polygon fill="gold" stroke="black" points="110.5,-756 0,-756 0,-720 110.5,-720 110.5,-756"/>
<text text-anchor="middle" x="55.25" y="-732.95" font-family="Times,serif" font-size="14.00">rt/topology/edges</text>
</g>
<!-- /waffle_topology_generate_topology&#45;&gt;rt/topology/edges -->
<g id="edge3" class="edge">
<title>/waffle_topology_generate_topology&#45;&gt;rt/topology/edges</title>
<path fill="none" stroke="black" d="M285.8,-576.07C240.03,-608.02 141.35,-676.9 89.18,-713.32"/>
<polygon fill="black" stroke="black" points="87.44,-710.26 81.24,-718.86 91.45,-716 87.44,-710.26"/>
</g>
<!-- rt/topology/nodes -->
<g id="node8" class="node">
<title>rt/topology/nodes</title>
<polygon fill="gold" stroke="black" points="365.88,-756 254.62,-756 254.62,-720 365.88,-720 365.88,-756"/>
<text text-anchor="middle" x="310.25" y="-732.95" font-family="Times,serif" font-size="14.00">rt/topology/nodes</text>
</g>
<!-- /waffle_topology_generate_topology&#45;&gt;rt/topology/nodes -->
<g id="edge1" class="edge">
<title>/waffle_topology_generate_topology&#45;&gt;rt/topology/nodes</title>
<path fill="none" stroke="black" d="M310.25,-576.39C310.25,-607.1 310.25,-671.19 310.25,-708.46"/>
<polygon fill="black" stroke="black" points="306.75,-708.02 310.25,-718.02 313.75,-708.02 306.75,-708.02"/>
</g>
<!-- rt/topology/intersections -->
<g id="node9" class="node">
<title>rt/topology/intersections</title>
<polygon fill="gold" stroke="black" points="658.25,-756 510.25,-756 510.25,-720 658.25,-720 658.25,-756"/>
<text text-anchor="middle" x="584.25" y="-732.95" font-family="Times,serif" font-size="14.00">rt/topology/intersections</text>
</g>
<!-- /waffle_topology_generate_topology&#45;&gt;rt/topology/intersections -->
<g id="edge2" class="edge">
<title>/waffle_topology_generate_topology&#45;&gt;rt/topology/intersections</title>
<path fill="none" stroke="black" d="M336.52,-576.07C385.8,-608.08 492.17,-677.18 548.14,-713.54"/>
<polygon fill="black" stroke="black" points="546.09,-716.39 556.39,-718.9 549.91,-710.52 546.09,-716.39"/>
</g>
<!-- /waffle_topology_deproject_scan -->
<g id="node2" class="node">
<title>/waffle_topology_deproject_scan</title>
<ellipse fill="limegreen" stroke="black" cx="199.25" cy="-198" rx="134.26" ry="18"/>
<text text-anchor="middle" x="199.25" y="-192.95" font-family="Times,serif" font-size="14.00">/waffle_topology_deproject_scan</text>
</g>
<!-- rt/topology/area -->
<g id="node3" class="node">
<title>rt/topology/area</title>
<polygon fill="gold" stroke="black" points="129.38,-396 27.12,-396 27.12,-360 129.38,-360 129.38,-396"/>
<text text-anchor="middle" x="78.25" y="-372.95" font-family="Times,serif" font-size="14.00">rt/topology/area</text>
</g>
<!-- /waffle_topology_deproject_scan&#45;&gt;rt/topology/area -->
<g id="edge6" class="edge">
<title>/waffle_topology_deproject_scan&#45;&gt;rt/topology/area</title>
<path fill="none" stroke="black" d="M187.43,-216.39C166.19,-247.63 121.47,-313.42 96.35,-350.37"/>
<polygon fill="black" stroke="black" points="93.7,-348.05 90.97,-358.29 99.49,-351.98 93.7,-348.05"/>
</g>
<!-- rt/scan/sample -->
<g id="node6" class="node">
<title>rt/scan/sample</title>
<polygon fill="gold" stroke="black" points="368.62,-396 273.88,-396 273.88,-360 368.62,-360 368.62,-396"/>
<text text-anchor="middle" x="321.25" y="-372.95" font-family="Times,serif" font-size="14.00">rt/scan/sample</text>
</g>
<!-- /waffle_topology_deproject_scan&#45;&gt;rt/scan/sample -->
<g id="edge7" class="edge">
<title>/waffle_topology_deproject_scan&#45;&gt;rt/scan/sample</title>
<path fill="none" stroke="black" d="M211.17,-216.39C232.58,-247.63 277.67,-313.42 303,-350.37"/>
<polygon fill="black" stroke="black" points="299.89,-352.02 308.43,-358.29 305.66,-348.06 299.89,-352.02"/>
</g>
<!-- rt/topology/area&#45;&gt;/waffle_topology_generate_topology -->
<g id="edge4" class="edge">
<title>rt/topology/area&#45;&gt;/waffle_topology_generate_topology</title>
<path fill="none" stroke="black" d="M100.92,-396.39C142.61,-428.38 231.5,-496.58 278.93,-532.97"/>
<polygon fill="black" stroke="black" points="276.57,-535.57 286.63,-538.88 280.83,-530.01 276.57,-535.57"/>
</g>
<!-- rt/odom -->
<g id="node5" class="node">
<title>rt/odom</title>
<polygon fill="gold" stroke="black" points="572,-396 512.5,-396 512.5,-360 572,-360 572,-396"/>
<text text-anchor="middle" x="542.25" y="-372.95" font-family="Times,serif" font-size="14.00">rt/odom</text>
</g>
<!-- rt/odom&#45;&gt;/waffle_topology_generate_topology -->
<g id="edge5" class="edge">
<title>rt/odom&#45;&gt;/waffle_topology_generate_topology</title>
<path fill="none" stroke="black" d="M519.58,-396.39C477.89,-428.38 389,-496.58 341.57,-532.97"/>
<polygon fill="black" stroke="black" points="339.67,-530.01 333.87,-538.88 343.93,-535.57 339.67,-530.01"/>
</g>
<!-- rt/scan -->
<g id="node7" class="node">
<title>rt/scan</title>
<polygon fill="gold" stroke="black" points="226.25,-36 172.25,-36 172.25,0 226.25,0 226.25,-36"/>
<text text-anchor="middle" x="199.25" y="-12.95" font-family="Times,serif" font-size="14.00">rt/scan</text>
</g>
<!-- rt/scan&#45;&gt;/waffle_topology_deproject_scan -->
<g id="edge8" class="edge">
<title>rt/scan&#45;&gt;/waffle_topology_deproject_scan</title>
<path fill="none" stroke="black" d="M199.25,-36.39C199.25,-67.1 199.25,-131.19 199.25,-168.46"/>
<polygon fill="black" stroke="black" points="195.75,-168.02 199.25,-178.02 202.75,-168.02 195.75,-168.02"/>
</g>
</g>
</svg>
