<?xml version="1.0" encoding="UTF-8" standalone="no"?>
<!DOCTYPE svg PUBLIC "-//W3C//DTD SVG 1.1//EN"
 "http://www.w3.org/Graphics/SVG/1.1/DTD/svg11.dtd">
<!-- Generated by graphviz version 10.0.1 (20240210.2158)
 -->
<!-- Title: rosgraph Pages: 1 -->
<svg width="2705pt" height="900pt"
 viewBox="0.00 0.00 2704.88 900.00" xmlns="http://www.w3.org/2000/svg" xmlns:xlink="http://www.w3.org/1999/xlink">
<g id="graph0" class="graph" transform="scale(1 1) rotate(0) translate(72 828)">
<title>rosgraph</title>
<polygon fill="white" stroke="none" points="-72,72 -72,-828 2632.88,-828 2632.88,72 -72,72"/>
<g id="clust1" class="cluster">
<title>cluster_0</title>
<polygon fill="lightskyblue" stroke="black" stroke-width="2" points="8,-327.5 8,-404 638,-404 638,-327.5 8,-327.5"/>
<text text-anchor="middle" x="323" y="-334.7" font-family="Times,serif" font-size="14.00">/perception/image_buoy_stereo</text>
</g>
<g id="clust2" class="cluster">
<title>cluster_1</title>
<polygon fill="lightskyblue" stroke="black" stroke-width="2" points="765,-327.5 765,-404 1145,-404 1145,-327.5 765,-327.5"/>
<text text-anchor="middle" x="955" y="-334.7" font-family="Times,serif" font-size="14.00">/channel</text>
</g>
<g id="clust3" class="cluster">
<title>cluster_2</title>
<polygon fill="lightskyblue" stroke="black" stroke-width="2" points="1273,-327.5 1273,-404 1807,-404 1807,-327.5 1273,-327.5"/>
<text text-anchor="middle" x="1540" y="-334.7" font-family="Times,serif" font-size="14.00">/perception/lidar_buoy</text>
</g>
<!-- /perception_classify_buoys -->
<g id="node1" class="node">
<title>/perception_classify_buoys</title>
<ellipse fill="limegreen" stroke="black" cx="2210" cy="-558" rx="111.74" ry="18"/>
<text text-anchor="middle" x="2210" y="-552.95" font-family="Times,serif" font-size="14.00">/perception_classify_buoys</text>
</g>
<!-- rt/buoys/classified -->
<g id="node6" class="node">
<title>rt/buoys/classified</title>
<polygon fill="gold" stroke="black" points="2267.5,-756 2152.5,-756 2152.5,-720 2267.5,-720 2267.5,-756"/>
<text text-anchor="middle" x="2210" y="-732.95" font-family="Times,serif" font-size="14.00">rt/buoys/classified</text>
</g>
<!-- /perception_classify_buoys&#45;&gt;rt/buoys/classified -->
<g id="edge1" class="edge">
<title>/perception_classify_buoys&#45;&gt;rt/buoys/classified</title>
<path fill="none" stroke="black" d="M2210,-576.39C2210,-607.1 2210,-671.19 2210,-708.46"/>
<polygon fill="black" stroke="black" points="2206.5,-708.02 2210,-718.02 2213.5,-708.02 2206.5,-708.02"/>
</g>
<!-- /perception_buoy_lidar -->
<g id="node2" class="node">
<title>/perception_buoy_lidar</title>
<ellipse fill="limegreen" stroke="black" cx="1702" cy="-198" rx="96.9" ry="18"/>
<text text-anchor="middle" x="1702" y="-192.95" font-family="Times,serif" font-size="14.00">/perception_buoy_lidar</text>
</g>
<!-- rt/buoys/bounding_boxes -->
<g id="node5" class="node">
<title>rt/buoys/bounding_boxes</title>
<polygon fill="gold" stroke="black" points="2096.62,-396 1943.38,-396 1943.38,-360 2096.62,-360 2096.62,-396"/>
<text text-anchor="middle" x="2020" y="-372.95" font-family="Times,serif" font-size="14.00">rt/buoys/bounding_boxes</text>
</g>
<!-- /perception_buoy_lidar&#45;&gt;rt/buoys/bounding_boxes -->
<g id="edge4" class="edge">
<title>/perception_buoy_lidar&#45;&gt;rt/buoys/bounding_boxes</title>
<path fill="none" stroke="black" d="M1731.63,-215.59C1788.71,-247.54 1914,-317.67 1979.03,-354.07"/>
<polygon fill="black" stroke="black" points="1977.17,-357.04 1987.61,-358.87 1980.59,-350.93 1977.17,-357.04"/>
</g>
<!-- rr/perception/lidar_buoyReply -->
<g id="node13" class="node">
<title>rr/perception/lidar_buoyReply</title>
<polygon fill="gold" stroke="black" points="1461.12,-396 1280.88,-396 1280.88,-360 1461.12,-360 1461.12,-396"/>
<text text-anchor="middle" x="1371" y="-372.95" font-family="Times,serif" font-size="14.00">rr/perception/lidar_buoyReply</text>
</g>
<!-- /perception_buoy_lidar&#45;&gt;rr/perception/lidar_buoyReply -->
<g id="edge6" class="edge">
<title>/perception_buoy_lidar&#45;&gt;rr/perception/lidar_buoyReply</title>
<path fill="none" stroke="black" d="M1671.45,-215.43C1612.08,-247.35 1481.03,-317.83 1413.32,-354.24"/>
<polygon fill="black" stroke="black" points="1411.9,-351.03 1404.75,-358.85 1415.21,-357.2 1411.9,-351.03"/>
</g>
<!-- /perception_channel -->
<g id="node3" class="node">
<title>/perception_channel</title>
<ellipse fill="limegreen" stroke="black" cx="952" cy="-198" rx="85.64" ry="18"/>
<text text-anchor="middle" x="952" y="-192.95" font-family="Times,serif" font-size="14.00">/perception_channel</text>
</g>
<!-- rq/perception/image_buoy_stereoRequest -->
<g id="node10" class="node">
<title>rq/perception/image_buoy_stereoRequest</title>
<polygon fill="gold" stroke="black" points="629.88,-396 388.12,-396 388.12,-360 629.88,-360 629.88,-396"/>
<text text-anchor="middle" x="509" y="-372.95" font-family="Times,serif" font-size="14.00">rq/perception/image_buoy_stereoRequest</text>
</g>
<!-- /perception_channel&#45;&gt;rq/perception/image_buoy_stereoRequest -->
<g id="edge11" class="edge">
<title>/perception_channel&#45;&gt;rq/perception/image_buoy_stereoRequest</title>
<path fill="none" stroke="black" d="M913.46,-214.48C834.37,-246.26 653.55,-318.92 562.9,-355.34"/>
<polygon fill="black" stroke="black" points="561.68,-352.06 553.71,-359.04 564.29,-358.56 561.68,-352.06"/>
</g>
<!-- rr/channelReply -->
<g id="node11" class="node">
<title>rr/channelReply</title>
<polygon fill="gold" stroke="black" points="876.5,-396 773.5,-396 773.5,-360 876.5,-360 876.5,-396"/>
<text text-anchor="middle" x="825" y="-372.95" font-family="Times,serif" font-size="14.00">rr/channelReply</text>
</g>
<!-- /perception_channel&#45;&gt;rr/channelReply -->
<g id="edge9" class="edge">
<title>/perception_channel&#45;&gt;rr/channelReply</title>
<path fill="none" stroke="black" d="M939.82,-216.07C917.6,-247.22 870.31,-313.49 843.88,-350.54"/>
<polygon fill="black" stroke="black" points="841.17,-348.32 838.21,-358.49 846.86,-352.38 841.17,-348.32"/>
</g>
<!-- rq/perception/lidar_buoyRequest -->
<g id="node14" class="node">
<title>rq/perception/lidar_buoyRequest</title>
<polygon fill="gold" stroke="black" points="1798.88,-396 1605.12,-396 1605.12,-360 1798.88,-360 1798.88,-396"/>
<text text-anchor="middle" x="1702" y="-372.95" font-family="Times,serif" font-size="14.00">rq/perception/lidar_buoyRequest</text>
</g>
<!-- /perception_channel&#45;&gt;rq/perception/lidar_buoyRequest -->
<g id="edge14" class="edge">
<title>/perception_channel&#45;&gt;rq/perception/lidar_buoyRequest</title>
<path fill="none" stroke="black" d="M1012.54,-210.99C1118.53,-232.29 1344.39,-279.08 1533,-327.5 1566.91,-336.2 1604.29,-347.03 1635.26,-356.33"/>
<polygon fill="black" stroke="black" points="1633.89,-359.57 1644.48,-359.11 1635.92,-352.87 1633.89,-359.57"/>
</g>
<!-- rt/localization/odometry -->
<g id="node4" class="node">
<title>rt/localization/odometry</title>
<polygon fill="gold" stroke="black" points="1025.62,-36 878.38,-36 878.38,0 1025.62,0 1025.62,-36"/>
<text text-anchor="middle" x="952" y="-12.95" font-family="Times,serif" font-size="14.00">rt/localization/odometry</text>
</g>
<!-- rt/localization/odometry&#45;&gt;/perception_channel -->
<g id="edge8" class="edge">
<title>rt/localization/odometry&#45;&gt;/perception_channel</title>
<path fill="none" stroke="black" d="M952,-36.39C952,-67.1 952,-131.19 952,-168.46"/>
<polygon fill="black" stroke="black" points="948.5,-168.02 952,-178.02 955.5,-168.02 948.5,-168.02"/>
</g>
<!-- rt/buoys/bounding_boxes&#45;&gt;/perception_classify_buoys -->
<g id="edge2" class="edge">
<title>rt/buoys/bounding_boxes&#45;&gt;/perception_classify_buoys</title>
<path fill="none" stroke="black" d="M2038.56,-396.39C2072.42,-428.11 2144.3,-495.45 2183.37,-532.05"/>
<polygon fill="black" stroke="black" points="2180.85,-534.48 2190.54,-538.77 2185.63,-529.37 2180.85,-534.48"/>
</g>
<!-- rt/perception/lidar/bounding_boxes -->
<g id="node7" class="node">
<title>rt/perception/lidar/bounding_boxes</title>
<polygon fill="gold" stroke="black" points="1805.25,-36 1598.75,-36 1598.75,0 1805.25,0 1805.25,-36"/>
<text text-anchor="middle" x="1702" y="-12.95" font-family="Times,serif" font-size="14.00">rt/perception/lidar/bounding_boxes</text>
</g>
<!-- rt/perception/lidar/bounding_boxes&#45;&gt;/perception_buoy_lidar -->
<g id="edge5" class="edge">
<title>rt/perception/lidar/bounding_boxes&#45;&gt;/perception_buoy_lidar</title>
<path fill="none" stroke="black" d="M1702,-36.39C1702,-67.1 1702,-131.19 1702,-168.46"/>
<polygon fill="black" stroke="black" points="1698.5,-168.02 1702,-178.02 1705.5,-168.02 1698.5,-168.02"/>
</g>
<!-- rt/wamv/sensors/cameras/front_left_camera/image_raw -->
<g id="node8" class="node">
<title>rt/wamv/sensors/cameras/front_left_camera/image_raw</title>
<polygon fill="gold" stroke="black" points="2560.88,-396 2241.12,-396 2241.12,-360 2560.88,-360 2560.88,-396"/>
<text text-anchor="middle" x="2401" y="-372.95" font-family="Times,serif" font-size="14.00">rt/wamv/sensors/cameras/front_left_camera/image_raw</text>
</g>
<!-- rt/wamv/sensors/cameras/front_left_camera/image_raw&#45;&gt;/perception_classify_buoys -->
<g id="edge3" class="edge">
<title>rt/wamv/sensors/cameras/front_left_camera/image_raw&#45;&gt;/perception_classify_buoys</title>
<path fill="none" stroke="black" d="M2382.34,-396.39C2348.3,-428.11 2276.05,-495.45 2236.77,-532.05"/>
<polygon fill="black" stroke="black" points="2234.49,-529.39 2229.56,-538.77 2239.27,-534.51 2234.49,-529.39"/>
</g>
<!-- rr/perception/image_buoy_stereoReply -->
<g id="node9" class="node">
<title>rr/perception/image_buoy_stereoReply</title>
<polygon fill="gold" stroke="black" points="244.12,-396 15.87,-396 15.87,-360 244.12,-360 244.12,-396"/>
<text text-anchor="middle" x="130" y="-372.95" font-family="Times,serif" font-size="14.00">rr/perception/image_buoy_stereoReply</text>
</g>
<!-- rr/perception/image_buoy_stereoReply&#45;&gt;/perception_channel -->
<g id="edge12" class="edge">
<title>rr/perception/image_buoy_stereoReply&#45;&gt;/perception_channel</title>
<path fill="none" stroke="black" d="M191.76,-359.55C227.85,-349.61 274.35,-337.24 316,-327.5 517.9,-280.29 758.25,-234.54 877.39,-212.55"/>
<polygon fill="black" stroke="black" points="877.85,-216.03 887.05,-210.77 876.58,-209.14 877.85,-216.03"/>
</g>
<!-- rq/channelRequest -->
<g id="node12" class="node">
<title>rq/channelRequest</title>
<polygon fill="gold" stroke="black" points="1137.25,-396 1020.75,-396 1020.75,-360 1137.25,-360 1137.25,-396"/>
<text text-anchor="middle" x="1079" y="-372.95" font-family="Times,serif" font-size="14.00">rq/channelRequest</text>
</g>
<!-- rq/channelRequest&#45;&gt;/perception_channel -->
<g id="edge10" class="edge">
<title>rq/channelRequest&#45;&gt;/perception_channel</title>
<path fill="none" stroke="black" d="M1066.67,-359.72C1044.33,-328.41 997.04,-262.13 970.7,-225.21"/>
<polygon fill="black" stroke="black" points="973.71,-223.41 965.06,-217.3 968.02,-227.47 973.71,-223.41"/>
</g>
<!-- rr/perception/lidar_buoyReply&#45;&gt;/perception_channel -->
<g id="edge13" class="edge">
<title>rr/perception/lidar_buoyReply&#45;&gt;/perception_channel</title>
<path fill="none" stroke="black" d="M1329.82,-359.51C1251.57,-326.27 1081.85,-254.16 999.17,-219.04"/>
<polygon fill="black" stroke="black" points="1000.78,-215.92 990.21,-215.23 998.04,-222.36 1000.78,-215.92"/>
</g>
<!-- rq/perception/lidar_buoyRequest&#45;&gt;/perception_buoy_lidar -->
<g id="edge7" class="edge">
<title>rq/perception/lidar_buoyRequest&#45;&gt;/perception_buoy_lidar</title>
<path fill="none" stroke="black" d="M1702,-359.54C1702,-328.78 1702,-264.68 1702,-227.46"/>
<polygon fill="black" stroke="black" points="1705.5,-227.9 1702,-217.91 1698.5,-227.91 1705.5,-227.9"/>
</g>
</g>
</svg>
