<?xml version="1.0" encoding="UTF-8" standalone="no"?>
<!DOCTYPE svg PUBLIC "-//W3C//DTD SVG 1.1//EN"
 "http://www.w3.org/Graphics/SVG/1.1/DTD/svg11.dtd">
<!-- Generated by graphviz version 9.0.0 (20230911.1827)
 -->
<!-- Title: rosgraph Pages: 1 -->
<svg width="5362pt" height="1260pt"
 viewBox="0.00 0.00 5362.14 1260.00" xmlns="http://www.w3.org/2000/svg" xmlns:xlink="http://www.w3.org/1999/xlink">
<g id="graph0" class="graph" transform="scale(1 1) rotate(0) translate(72 1188)">
<title>rosgraph</title>
<polygon fill="white" stroke="none" points="-72,72 -72,-1188 5290.14,-1188 5290.14,72 -72,72"/>
<!-- /joint_publisher -->
<g id="node1" class="node">
<title>/joint_publisher</title>
<ellipse fill="limegreen" stroke="black" cx="69.26" cy="-918" rx="69.26" ry="18"/>
<text text-anchor="middle" x="69.26" y="-912.95" font-family="Times,serif" font-size="14.00">/joint_publisher</text>
</g>
<!-- rt/joint_states -->
<g id="node25" class="node">
<title>rt/joint_states</title>
<polygon fill="gold" stroke="black" points="114.01,-1116 24.51,-1116 24.51,-1080 114.01,-1080 114.01,-1116"/>
<text text-anchor="middle" x="69.26" y="-1092.95" font-family="Times,serif" font-size="14.00">rt/joint_states</text>
</g>
<!-- /joint_publisher&#45;&gt;rt/joint_states -->
<g id="edge1" class="edge">
<title>/joint_publisher&#45;&gt;rt/joint_states</title>
<path fill="none" stroke="black" d="M69.26,-936.39C69.26,-967.1 69.26,-1031.19 69.26,-1068.46"/>
<polygon fill="black" stroke="black" points="65.76,-1068.02 69.26,-1078.02 72.76,-1068.02 65.76,-1068.02"/>
</g>
<!-- /joy_operation -->
<g id="node2" class="node">
<title>/joy_operation</title>
<ellipse fill="limegreen" stroke="black" cx="282.26" cy="-558" rx="64.66" ry="18"/>
<text text-anchor="middle" x="282.26" y="-552.95" font-family="Times,serif" font-size="14.00">/joy_operation</text>
</g>
<!-- rt/degpos_data -->
<g id="node18" class="node">
<title>rt/degpos_data</title>
<polygon fill="gold" stroke="black" points="347.01,-756 251.51,-756 251.51,-720 347.01,-720 347.01,-756"/>
<text text-anchor="middle" x="299.26" y="-732.95" font-family="Times,serif" font-size="14.00">rt/degpos_data</text>
</g>
<!-- /joy_operation&#45;&gt;rt/degpos_data -->
<g id="edge4" class="edge">
<title>/joy_operation&#45;&gt;rt/degpos_data</title>
<path fill="none" stroke="black" d="M283.93,-576.39C286.86,-607.1 292.98,-671.19 296.54,-708.46"/>
<polygon fill="black" stroke="black" points="293.02,-708.41 297.45,-718.03 299.99,-707.74 293.02,-708.41"/>
</g>
<!-- rt/pos_data -->
<g id="node30" class="node">
<title>rt/pos_data</title>
<polygon fill="gold" stroke="black" points="107.26,-756 31.26,-756 31.26,-720 107.26,-720 107.26,-756"/>
<text text-anchor="middle" x="69.26" y="-732.95" font-family="Times,serif" font-size="14.00">rt/pos_data</text>
</g>
<!-- /joy_operation&#45;&gt;rt/pos_data -->
<g id="edge3" class="edge">
<title>/joy_operation&#45;&gt;rt/pos_data</title>
<path fill="none" stroke="black" d="M262.61,-575.43C225.11,-606.76 143.17,-675.24 98.96,-712.19"/>
<polygon fill="black" stroke="black" points="96.71,-709.5 91.29,-718.6 101.2,-714.87 96.71,-709.5"/>
</g>
<!-- /state -->
<g id="node3" class="node">
<title>/state</title>
<ellipse fill="limegreen" stroke="black" cx="3258.26" cy="-918" rx="30.37" ry="18"/>
<text text-anchor="middle" x="3258.26" y="-912.95" font-family="Times,serif" font-size="14.00">/state</text>
</g>
<!-- rt/target_xy -->
<g id="node12" class="node">
<title>rt/target_xy</title>
<polygon fill="gold" stroke="black" points="1764.76,-1116 1685.76,-1116 1685.76,-1080 1764.76,-1080 1764.76,-1116"/>
<text text-anchor="middle" x="1725.26" y="-1092.95" font-family="Times,serif" font-size="14.00">rt/target_xy</text>
</g>
<!-- /state&#45;&gt;rt/target_xy -->
<g id="edge13" class="edge">
<title>/state&#45;&gt;rt/target_xy</title>
<path fill="none" stroke="black" d="M3228.33,-922.48C3039.88,-944.36 2017.77,-1063.04 1776.37,-1091.07"/>
<polygon fill="black" stroke="black" points="1776.18,-1087.56 1766.65,-1092.19 1776.99,-1094.52 1776.18,-1087.56"/>
</g>
<!-- rt/servo_cmd -->
<g id="node15" class="node">
<title>rt/servo_cmd</title>
<polygon fill="gold" stroke="black" points="3073.26,-1116 2985.26,-1116 2985.26,-1080 3073.26,-1080 3073.26,-1116"/>
<text text-anchor="middle" x="3029.26" y="-1092.95" font-family="Times,serif" font-size="14.00">rt/servo_cmd</text>
</g>
<!-- /state&#45;&gt;rt/servo_cmd -->
<g id="edge16" class="edge">
<title>/state&#45;&gt;rt/servo_cmd</title>
<path fill="none" stroke="black" d="M3240.3,-932.97C3201.37,-963.23 3108.85,-1035.14 3060.27,-1072.9"/>
<polygon fill="black" stroke="black" points="3058.39,-1069.93 3052.64,-1078.83 3062.69,-1075.45 3058.39,-1069.93"/>
</g>
<!-- rt/state_data -->
<g id="node19" class="node">
<title>rt/state_data</title>
<polygon fill="gold" stroke="black" points="3299.26,-1116 3217.26,-1116 3217.26,-1080 3299.26,-1080 3299.26,-1116"/>
<text text-anchor="middle" x="3258.26" y="-1092.95" font-family="Times,serif" font-size="14.00">rt/state_data</text>
</g>
<!-- /state&#45;&gt;rt/state_data -->
<g id="edge7" class="edge">
<title>/state&#45;&gt;rt/state_data</title>
<path fill="none" stroke="black" d="M3258.26,-936.39C3258.26,-967.1 3258.26,-1031.19 3258.26,-1068.46"/>
<polygon fill="black" stroke="black" points="3254.76,-1068.02 3258.26,-1078.02 3261.76,-1068.02 3254.76,-1068.02"/>
</g>
<!-- rt/init -->
<g id="node21" class="node">
<title>rt/init</title>
<polygon fill="gold" stroke="black" points="2301.26,-1116 2247.26,-1116 2247.26,-1080 2301.26,-1080 2301.26,-1116"/>
<text text-anchor="middle" x="2274.26" y="-1092.95" font-family="Times,serif" font-size="14.00">rt/init</text>
</g>
<!-- /state&#45;&gt;rt/init -->
<g id="edge17" class="edge">
<title>/state&#45;&gt;rt/init</title>
<path fill="none" stroke="black" d="M3229.35,-924.23C3088.28,-949.75 2472.62,-1061.12 2312.46,-1090.09"/>
<polygon fill="black" stroke="black" points="2312.01,-1086.61 2302.8,-1091.84 2313.26,-1093.5 2312.01,-1086.61"/>
</g>
<!-- rt/target_comp -->
<g id="node23" class="node">
<title>rt/target_comp</title>
<polygon fill="gold" stroke="black" points="3539.39,-1116 3443.14,-1116 3443.14,-1080 3539.39,-1080 3539.39,-1116"/>
<text text-anchor="middle" x="3491.26" y="-1092.95" font-family="Times,serif" font-size="14.00">rt/target_comp</text>
</g>
<!-- /state&#45;&gt;rt/target_comp -->
<g id="edge6" class="edge">
<title>/state&#45;&gt;rt/target_comp</title>
<path fill="none" stroke="black" d="M3246.71,-935.11C3262.18,-968.21 3360.39,-1043.7 3432.77,-1078.63"/>
<polygon fill="black" stroke="black" points="3430.89,-1081.62 3441.43,-1082.65 3433.83,-1075.27 3430.89,-1081.62"/>
</g>
<!-- rt/start -->
<g id="node24" class="node">
<title>rt/start</title>
<polygon fill="gold" stroke="black" points="2594.26,-1116 2540.26,-1116 2540.26,-1080 2594.26,-1080 2594.26,-1116"/>
<text text-anchor="middle" x="2567.26" y="-1092.95" font-family="Times,serif" font-size="14.00">rt/start</text>
</g>
<!-- /state&#45;&gt;rt/start -->
<g id="edge8" class="edge">
<title>/state&#45;&gt;rt/start</title>
<path fill="none" stroke="black" d="M3230.75,-926.09C3123.04,-953.83 2729.84,-1055.12 2605.34,-1087.19"/>
<polygon fill="black" stroke="black" points="2604.76,-1083.73 2595.95,-1089.61 2606.5,-1090.51 2604.76,-1083.73"/>
</g>
<!-- rt/stepper_cmd -->
<g id="node27" class="node">
<title>rt/stepper_cmd</title>
<polygon fill="gold" stroke="black" points="4501.14,-1116 4403.39,-1116 4403.39,-1080 4501.14,-1080 4501.14,-1116"/>
<text text-anchor="middle" x="4452.26" y="-1092.95" font-family="Times,serif" font-size="14.00">rt/stepper_cmd</text>
</g>
<!-- /state&#45;&gt;rt/stepper_cmd -->
<g id="edge10" class="edge">
<title>/state&#45;&gt;rt/stepper_cmd</title>
<path fill="none" stroke="black" d="M3287.78,-923.4C3444.07,-946.7 4176.05,-1055.82 4392.09,-1088.03"/>
<polygon fill="black" stroke="black" points="4391.28,-1091.45 4401.69,-1089.46 4392.31,-1084.52 4391.28,-1091.45"/>
</g>
<!-- rt/shooting_comp -->
<g id="node29" class="node">
<title>rt/shooting_comp</title>
<polygon fill="gold" stroke="black" points="3795.26,-1116 3683.26,-1116 3683.26,-1080 3795.26,-1080 3795.26,-1116"/>
<text text-anchor="middle" x="3739.26" y="-1092.95" font-family="Times,serif" font-size="14.00">rt/shooting_comp</text>
</g>
<!-- /state&#45;&gt;rt/shooting_comp -->
<g id="edge15" class="edge">
<title>/state&#45;&gt;rt/shooting_comp</title>
<path fill="none" stroke="black" d="M3269.16,-935.11C3333.71,-969.81 3554.03,-1051.06 3672.07,-1083.39"/>
<polygon fill="black" stroke="black" points="3671.13,-1086.76 3681.7,-1085.97 3672.94,-1080 3671.13,-1086.76"/>
</g>
<!-- rt/move_cmd -->
<g id="node32" class="node">
<title>rt/move_cmd</title>
<polygon fill="gold" stroke="black" points="4993.01,-1116 4903.51,-1116 4903.51,-1080 4993.01,-1080 4993.01,-1116"/>
<text text-anchor="middle" x="4948.26" y="-1092.95" font-family="Times,serif" font-size="14.00">rt/move_cmd</text>
</g>
<!-- /state&#45;&gt;rt/move_cmd -->
<g id="edge14" class="edge">
<title>/state&#45;&gt;rt/move_cmd</title>
<path fill="none" stroke="black" d="M3288.32,-922.17C3488.06,-943.2 4624.11,-1062.86 4891.78,-1091.05"/>
<polygon fill="black" stroke="black" points="4891.32,-1094.52 4901.63,-1092.09 4892.05,-1087.56 4891.32,-1094.52"/>
</g>
<!-- rt/release_cmd -->
<g id="node33" class="node">
<title>rt/release_cmd</title>
<polygon fill="gold" stroke="black" points="922.39,-1116 826.14,-1116 826.14,-1080 922.39,-1080 922.39,-1116"/>
<text text-anchor="middle" x="874.26" y="-1092.95" font-family="Times,serif" font-size="14.00">rt/release_cmd</text>
</g>
<!-- /state&#45;&gt;rt/release_cmd -->
<g id="edge11" class="edge">
<title>/state&#45;&gt;rt/release_cmd</title>
<path fill="none" stroke="black" d="M3228.12,-921.25C2980.1,-939.77 1276.58,-1066.96 934.15,-1092.53"/>
<polygon fill="black" stroke="black" points="934,-1089.03 924.28,-1093.27 934.52,-1096.01 934,-1089.03"/>
</g>
<!-- rt/ping -->
<g id="node34" class="node">
<title>rt/ping</title>
<polygon fill="gold" stroke="black" points="2841.26,-1116 2787.26,-1116 2787.26,-1080 2841.26,-1080 2841.26,-1116"/>
<text text-anchor="middle" x="2814.26" y="-1092.95" font-family="Times,serif" font-size="14.00">rt/ping</text>
</g>
<!-- /state&#45;&gt;rt/ping -->
<g id="edge12" class="edge">
<title>/state&#45;&gt;rt/ping</title>
<path fill="none" stroke="black" d="M3233.44,-928.95C3159.62,-958.55 2941.1,-1046.15 2852.36,-1081.73"/>
<polygon fill="black" stroke="black" points="2851.09,-1078.46 2843.11,-1085.43 2853.7,-1084.96 2851.09,-1078.46"/>
</g>
<!-- rt/shootingbox_xy -->
<g id="node35" class="node">
<title>rt/shootingbox_xy</title>
<polygon fill="gold" stroke="black" points="1371.76,-1116 1256.76,-1116 1256.76,-1080 1371.76,-1080 1371.76,-1116"/>
<text text-anchor="middle" x="1314.26" y="-1092.95" font-family="Times,serif" font-size="14.00">rt/shootingbox_xy</text>
</g>
<!-- /state&#45;&gt;rt/shootingbox_xy -->
<g id="edge9" class="edge">
<title>/state&#45;&gt;rt/shootingbox_xy</title>
<path fill="none" stroke="black" d="M3228.12,-921.76C3012.22,-941.53 1700.6,-1061.63 1383.32,-1090.68"/>
<polygon fill="black" stroke="black" points="1383.16,-1087.18 1373.52,-1091.57 1383.8,-1094.15 1383.16,-1087.18"/>
</g>
<!-- /index -->
<g id="node4" class="node">
<title>/index</title>
<ellipse fill="limegreen" stroke="black" cx="3711.26" cy="-198" rx="33.95" ry="18"/>
<text text-anchor="middle" x="3711.26" y="-192.95" font-family="Times,serif" font-size="14.00">/index</text>
</g>
<!-- rt/index -->
<g id="node22" class="node">
<title>rt/index</title>
<polygon fill="gold" stroke="black" points="3740.26,-396 3682.26,-396 3682.26,-360 3740.26,-360 3740.26,-396"/>
<text text-anchor="middle" x="3711.26" y="-372.95" font-family="Times,serif" font-size="14.00">rt/index</text>
</g>
<!-- /index&#45;&gt;rt/index -->
<g id="edge28" class="edge">
<title>/index&#45;&gt;rt/index</title>
<path fill="none" stroke="black" d="M3711.26,-216.39C3711.26,-247.1 3711.26,-311.19 3711.26,-348.46"/>
<polygon fill="black" stroke="black" points="3707.76,-348.02 3711.26,-358.02 3714.76,-348.02 3707.76,-348.02"/>
</g>
<!-- /cal -->
<g id="node5" class="node">
<title>/cal</title>
<ellipse fill="limegreen" stroke="black" cx="46.26" cy="-558" rx="27" ry="18"/>
<text text-anchor="middle" x="46.26" y="-552.95" font-family="Times,serif" font-size="14.00">/cal</text>
</g>
<!-- /cal&#45;&gt;rt/pos_data -->
<g id="edge29" class="edge">
<title>/cal&#45;&gt;rt/pos_data</title>
<path fill="none" stroke="black" d="M48.51,-576.39C52.48,-607.1 60.76,-671.19 65.58,-708.46"/>
<polygon fill="black" stroke="black" points="62.06,-708.57 66.81,-718.04 69,-707.67 62.06,-708.57"/>
</g>
<!-- /xy_to_rtheta -->
<g id="node6" class="node">
<title>/xy_to_rtheta</title>
<ellipse fill="limegreen" stroke="black" cx="2518.26" cy="-558" rx="60.05" ry="18"/>
<text text-anchor="middle" x="2518.26" y="-552.95" font-family="Times,serif" font-size="14.00">/xy_to_rtheta</text>
</g>
<!-- rt/target_error -->
<g id="node10" class="node">
<title>rt/target_error</title>
<polygon fill="gold" stroke="black" points="2827.14,-756 2735.39,-756 2735.39,-720 2827.14,-720 2827.14,-756"/>
<text text-anchor="middle" x="2781.26" y="-732.95" font-family="Times,serif" font-size="14.00">rt/target_error</text>
</g>
<!-- /xy_to_rtheta&#45;&gt;rt/target_error -->
<g id="edge33" class="edge">
<title>/xy_to_rtheta&#45;&gt;rt/target_error</title>
<path fill="none" stroke="black" d="M2541.6,-574.8C2587.97,-606.18 2691.92,-676.53 2746.41,-713.41"/>
<polygon fill="black" stroke="black" points="2744.17,-716.12 2754.42,-718.83 2748.1,-710.33 2744.17,-716.12"/>
</g>
<!-- rt/shooting_error -->
<g id="node11" class="node">
<title>rt/shooting_error</title>
<polygon fill="gold" stroke="black" points="1759.01,-756 1651.51,-756 1651.51,-720 1759.01,-720 1759.01,-756"/>
<text text-anchor="middle" x="1705.26" y="-732.95" font-family="Times,serif" font-size="14.00">rt/shooting_error</text>
</g>
<!-- /xy_to_rtheta&#45;&gt;rt/shooting_error -->
<g id="edge39" class="edge">
<title>/xy_to_rtheta&#45;&gt;rt/shooting_error</title>
<path fill="none" stroke="black" d="M2470.74,-569.4C2332.27,-599.72 1928.93,-688.03 1770.36,-722.75"/>
<polygon fill="black" stroke="black" points="1769.88,-719.27 1760.86,-724.83 1771.37,-726.11 1769.88,-719.27"/>
</g>
<!-- rt/target_comp_r -->
<g id="node14" class="node">
<title>rt/target_comp_r</title>
<polygon fill="gold" stroke="black" points="2011.01,-756 1903.51,-756 1903.51,-720 2011.01,-720 2011.01,-756"/>
<text text-anchor="middle" x="1957.26" y="-732.95" font-family="Times,serif" font-size="14.00">rt/target_comp_r</text>
</g>
<!-- /xy_to_rtheta&#45;&gt;rt/target_comp_r -->
<g id="edge37" class="edge">
<title>/xy_to_rtheta&#45;&gt;rt/target_comp_r</title>
<path fill="none" stroke="black" d="M2478.37,-571.66C2382.7,-602.01 2139.52,-679.17 2022.34,-716.35"/>
<polygon fill="black" stroke="black" points="2021.32,-713.01 2012.84,-719.37 2023.43,-719.68 2021.32,-713.01"/>
</g>
<!-- rt/shooting_pose -->
<g id="node16" class="node">
<title>rt/shooting_pose</title>
<polygon fill="gold" stroke="black" points="3311.26,-756 3205.26,-756 3205.26,-720 3311.26,-720 3311.26,-756"/>
<text text-anchor="middle" x="3258.26" y="-732.95" font-family="Times,serif" font-size="14.00">rt/shooting_pose</text>
</g>
<!-- /xy_to_rtheta&#45;&gt;rt/shooting_pose -->
<g id="edge38" class="edge">
<title>/xy_to_rtheta&#45;&gt;rt/shooting_pose</title>
<path fill="none" stroke="black" d="M2564,-570C2690.76,-600.49 3046.9,-686.16 3193.73,-721.48"/>
<polygon fill="black" stroke="black" points="3192.76,-724.84 3203.3,-723.78 3194.4,-718.04 3192.76,-724.84"/>
</g>
<!-- /xy_to_rtheta&#45;&gt;rt/degpos_data -->
<g id="edge35" class="edge">
<title>/xy_to_rtheta&#45;&gt;rt/degpos_data</title>
<path fill="none" stroke="black" d="M2460.62,-563.62C2149.46,-588.58 672.75,-707.04 358.25,-732.27"/>
<polygon fill="black" stroke="black" points="358.33,-728.75 348.64,-733.04 358.89,-735.73 358.33,-728.75"/>
</g>
<!-- /xy_to_rtheta&#45;&gt;rt/target_comp -->
<g id="edge32" class="edge">
<title>/xy_to_rtheta&#45;&gt;rt/target_comp</title>
<path fill="none" stroke="black" d="M2576.23,-563.16C2792.4,-579.27 3542.67,-640.56 3611.26,-720 3703.44,-826.75 3570.54,-1004.81 3514.33,-1071.1"/>
<polygon fill="black" stroke="black" points="3511.79,-1068.68 3507.93,-1078.54 3517.1,-1073.24 3511.79,-1068.68"/>
</g>
<!-- /xy_to_rtheta&#45;&gt;rt/shooting_comp -->
<g id="edge36" class="edge">
<title>/xy_to_rtheta&#45;&gt;rt/shooting_comp</title>
<path fill="none" stroke="black" d="M2576.76,-562.39C2808.2,-576.38 3651.03,-633.03 3729.26,-720 3818.47,-819.16 3772.03,-999.24 3749.35,-1068.66"/>
<polygon fill="black" stroke="black" points="3746.03,-1067.53 3746.16,-1078.12 3752.67,-1069.76 3746.03,-1067.53"/>
</g>
<!-- /xy_to_rtheta&#45;&gt;rt/pos_data -->
<g id="edge34" class="edge">
<title>/xy_to_rtheta&#45;&gt;rt/pos_data</title>
<path fill="none" stroke="black" d="M2458.91,-561.23C2192.88,-571.64 1083.9,-619.15 179.26,-720 159.46,-722.21 137.77,-725.39 118.92,-728.41"/>
<polygon fill="black" stroke="black" points="118.39,-724.95 109.09,-730.02 119.52,-731.86 118.39,-724.95"/>
</g>
<!-- rt/target_pose -->
<g id="node31" class="node">
<title>rt/target_pose</title>
<polygon fill="gold" stroke="black" points="3061.39,-756 2971.14,-756 2971.14,-720 3061.39,-720 3061.39,-756"/>
<text text-anchor="middle" x="3016.26" y="-732.95" font-family="Times,serif" font-size="14.00">rt/target_pose</text>
</g>
<!-- /xy_to_rtheta&#45;&gt;rt/target_pose -->
<g id="edge31" class="edge">
<title>/xy_to_rtheta&#45;&gt;rt/target_pose</title>
<path fill="none" stroke="black" d="M2555.7,-572.38C2642.45,-603.39 2857.66,-680.31 2960.21,-716.96"/>
<polygon fill="black" stroke="black" points="2958.94,-720.23 2969.53,-720.3 2961.29,-713.63 2958.94,-720.23"/>
</g>
<!-- /joy_subscriber -->
<g id="node7" class="node">
<title>/joy_subscriber</title>
<ellipse fill="limegreen" stroke="black" cx="282.26" cy="-198" rx="67.73" ry="18"/>
<text text-anchor="middle" x="282.26" y="-192.95" font-family="Times,serif" font-size="14.00">/joy_subscriber</text>
</g>
<!-- rt/joy_data -->
<g id="node17" class="node">
<title>rt/joy_data</title>
<polygon fill="gold" stroke="black" points="319.51,-396 245.01,-396 245.01,-360 319.51,-360 319.51,-396"/>
<text text-anchor="middle" x="282.26" y="-372.95" font-family="Times,serif" font-size="14.00">rt/joy_data</text>
</g>
<!-- /joy_subscriber&#45;&gt;rt/joy_data -->
<g id="edge52" class="edge">
<title>/joy_subscriber&#45;&gt;rt/joy_data</title>
<path fill="none" stroke="black" d="M282.26,-216.39C282.26,-247.1 282.26,-311.19 282.26,-348.46"/>
<polygon fill="black" stroke="black" points="278.76,-348.02 282.26,-358.02 285.76,-348.02 278.76,-348.02"/>
</g>
<!-- /shooting_index -->
<g id="node8" class="node">
<title>/shooting_index</title>
<ellipse fill="limegreen" stroke="black" cx="2833.26" cy="-198" rx="70.29" ry="18"/>
<text text-anchor="middle" x="2833.26" y="-192.95" font-family="Times,serif" font-size="14.00">/shooting_index</text>
</g>
<!-- rt/shooting_index -->
<g id="node20" class="node">
<title>rt/shooting_index</title>
<polygon fill="gold" stroke="black" points="2888.89,-396 2777.64,-396 2777.64,-360 2888.89,-360 2888.89,-396"/>
<text text-anchor="middle" x="2833.26" y="-372.95" font-family="Times,serif" font-size="14.00">rt/shooting_index</text>
</g>
<!-- /shooting_index&#45;&gt;rt/shooting_index -->
<g id="edge54" class="edge">
<title>/shooting_index&#45;&gt;rt/shooting_index</title>
<path fill="none" stroke="black" d="M2833.26,-216.39C2833.26,-247.1 2833.26,-311.19 2833.26,-348.46"/>
<polygon fill="black" stroke="black" points="2829.76,-348.02 2833.26,-358.02 2836.76,-348.02 2829.76,-348.02"/>
</g>
<!-- rt/cmd_state -->
<g id="node9" class="node">
<title>rt/cmd_state</title>
<polygon fill="gold" stroke="black" points="1778.01,-396 1694.51,-396 1694.51,-360 1778.01,-360 1778.01,-396"/>
<text text-anchor="middle" x="1736.26" y="-372.95" font-family="Times,serif" font-size="14.00">rt/cmd_state</text>
</g>
<!-- rt/cmd_state&#45;&gt;/state -->
<g id="edge22" class="edge">
<title>rt/cmd_state&#45;&gt;/state</title>
<path fill="none" stroke="black" d="M1717.58,-396.23C1657.17,-453.95 1476.75,-643.18 1579.26,-756 1692.92,-881.07 2966.84,-911.49 3216.11,-916.26"/>
<polygon fill="black" stroke="black" points="3215.94,-919.76 3226.01,-916.45 3216.07,-912.76 3215.94,-919.76"/>
</g>
<!-- rt/cmd_state&#45;&gt;/xy_to_rtheta -->
<g id="edge44" class="edge">
<title>rt/cmd_state&#45;&gt;/xy_to_rtheta</title>
<path fill="none" stroke="black" d="M1778.31,-388.57C1909.38,-418.41 2310.76,-509.77 2460.84,-543.93"/>
<polygon fill="black" stroke="black" points="2459.62,-547.24 2470.15,-546.05 2461.18,-540.42 2459.62,-547.24"/>
</g>
<!-- rt/target_error&#45;&gt;/state -->
<g id="edge25" class="edge">
<title>rt/target_error&#45;&gt;/state</title>
<path fill="none" stroke="black" d="M2827.43,-756.23C2922.2,-791.59 3136.91,-871.71 3222.28,-903.57"/>
<polygon fill="black" stroke="black" points="3220.96,-906.82 3231.56,-907.03 3223.41,-900.26 3220.96,-906.82"/>
</g>
<!-- rt/target_xy&#45;&gt;/xy_to_rtheta -->
<g id="edge46" class="edge">
<title>rt/target_xy&#45;&gt;/xy_to_rtheta</title>
<path fill="none" stroke="black" d="M1707.35,-1079.56C1650.3,-1021.99 1482.22,-835.1 1579.26,-720 1690.79,-587.73 2247.14,-564.12 2446.8,-559.91"/>
<polygon fill="black" stroke="black" points="2446.86,-563.41 2456.78,-559.71 2446.72,-556.41 2446.86,-563.41"/>
</g>
<!-- rt/joy -->
<g id="node13" class="node">
<title>rt/joy</title>
<polygon fill="gold" stroke="black" points="309.26,-36 255.26,-36 255.26,0 309.26,0 309.26,-36"/>
<text text-anchor="middle" x="282.26" y="-12.95" font-family="Times,serif" font-size="14.00">rt/joy</text>
</g>
<!-- rt/joy&#45;&gt;/joy_subscriber -->
<g id="edge53" class="edge">
<title>rt/joy&#45;&gt;/joy_subscriber</title>
<path fill="none" stroke="black" d="M282.26,-36.39C282.26,-67.1 282.26,-131.19 282.26,-168.46"/>
<polygon fill="black" stroke="black" points="278.76,-168.02 282.26,-178.02 285.76,-168.02 278.76,-168.02"/>
</g>
<!-- rt/shooting_pose&#45;&gt;/state -->
<g id="edge23" class="edge">
<title>rt/shooting_pose&#45;&gt;/state</title>
<path fill="none" stroke="black" d="M3258.26,-756.39C3258.26,-787.1 3258.26,-851.19 3258.26,-888.46"/>
<polygon fill="black" stroke="black" points="3254.76,-888.02 3258.26,-898.02 3261.76,-888.02 3254.76,-888.02"/>
</g>
<!-- rt/joy_data&#45;&gt;/joy_operation -->
<g id="edge5" class="edge">
<title>rt/joy_data&#45;&gt;/joy_operation</title>
<path fill="none" stroke="black" d="M282.26,-396.39C282.26,-427.1 282.26,-491.19 282.26,-528.46"/>
<polygon fill="black" stroke="black" points="278.76,-528.02 282.26,-538.02 285.76,-528.02 278.76,-528.02"/>
</g>
<!-- rt/joy_data&#45;&gt;/cal -->
<g id="edge30" class="edge">
<title>rt/joy_data&#45;&gt;/cal</title>
<path fill="none" stroke="black" d="M259.21,-396.39C215.24,-429.55 119.67,-501.64 72.99,-536.84"/>
<polygon fill="black" stroke="black" points="70.9,-534.04 65.02,-542.85 75.11,-539.63 70.9,-534.04"/>
</g>
<!-- rt/joy_data&#45;&gt;/xy_to_rtheta -->
<g id="edge49" class="edge">
<title>rt/joy_data&#45;&gt;/xy_to_rtheta</title>
<path fill="none" stroke="black" d="M319.67,-381.98C578.68,-402.6 2105.2,-524.12 2449.36,-551.51"/>
<polygon fill="black" stroke="black" points="2448.87,-554.99 2459.12,-552.29 2449.43,-548.01 2448.87,-554.99"/>
</g>
<!-- rt/shooting_index&#45;&gt;/state -->
<g id="edge26" class="edge">
<title>rt/shooting_index&#45;&gt;/state</title>
<path fill="none" stroke="black" d="M2889.24,-383.58C3038.17,-399.14 3444.16,-464.31 3611.26,-720 3691.19,-842.29 3407.73,-895.96 3299.01,-911.75"/>
<polygon fill="black" stroke="black" points="3298.75,-908.25 3289.34,-913.11 3299.73,-915.18 3298.75,-908.25"/>
</g>
<!-- rt/shooting_index&#45;&gt;/xy_to_rtheta -->
<g id="edge48" class="edge">
<title>rt/shooting_index&#45;&gt;/xy_to_rtheta</title>
<path fill="none" stroke="black" d="M2802.49,-396.39C2744.27,-429.29 2618.24,-500.51 2555.42,-536"/>
<polygon fill="black" stroke="black" points="2553.84,-532.88 2546.86,-540.84 2557.28,-538.97 2553.84,-532.88"/>
</g>
<!-- rt/init&#45;&gt;/xy_to_rtheta -->
<g id="edge42" class="edge">
<title>rt/init&#45;&gt;/xy_to_rtheta</title>
<path fill="none" stroke="black" d="M2282.2,-1079.5C2317.7,-1001.23 2462.11,-682.82 2505.73,-586.64"/>
<polygon fill="black" stroke="black" points="2508.85,-588.22 2509.8,-577.67 2502.48,-585.33 2508.85,-588.22"/>
</g>
<!-- rt/index&#45;&gt;/state -->
<g id="edge19" class="edge">
<title>rt/index&#45;&gt;/state</title>
<path fill="none" stroke="black" d="M3718.75,-396.49C3742.19,-454.24 3807.87,-641.62 3726.26,-756 3626.12,-896.36 3395.42,-915.6 3300.37,-917.36"/>
<polygon fill="black" stroke="black" points="3300.41,-913.86 3290.45,-917.48 3300.49,-920.86 3300.41,-913.86"/>
</g>
<!-- rt/index&#45;&gt;/xy_to_rtheta -->
<g id="edge43" class="edge">
<title>rt/index&#45;&gt;/xy_to_rtheta</title>
<path fill="none" stroke="black" d="M3681.77,-383.4C3526.58,-406.56 2803.31,-514.47 2582.47,-547.42"/>
<polygon fill="black" stroke="black" points="2581.97,-543.96 2572.6,-548.89 2583.01,-550.88 2581.97,-543.96"/>
</g>
<!-- rt/target_comp&#45;&gt;/state -->
<g id="edge24" class="edge">
<title>rt/target_comp&#45;&gt;/state</title>
<path fill="none" stroke="black" d="M3502.19,-1079.62C3483.27,-1042.75 3369.52,-957.71 3297.5,-928.81"/>
<polygon fill="black" stroke="black" points="3298.77,-925.55 3288.18,-925.35 3296.33,-932.11 3298.77,-925.55"/>
</g>
<!-- rt/start&#45;&gt;/xy_to_rtheta -->
<g id="edge51" class="edge">
<title>rt/start&#45;&gt;/xy_to_rtheta</title>
<path fill="none" stroke="black" d="M2565.67,-1079.5C2558.56,-1001.47 2529.72,-684.75 2520.86,-587.53"/>
<polygon fill="black" stroke="black" points="2524.37,-587.44 2519.98,-577.8 2517.4,-588.07 2524.37,-587.44"/>
</g>
<!-- rt/is_manual -->
<g id="node26" class="node">
<title>rt/is_manual</title>
<polygon fill="gold" stroke="black" points="3539.39,-756 3455.14,-756 3455.14,-720 3539.39,-720 3539.39,-756"/>
<text text-anchor="middle" x="3497.26" y="-732.95" font-family="Times,serif" font-size="14.00">rt/is_manual</text>
</g>
<!-- rt/is_manual&#45;&gt;/state -->
<g id="edge20" class="edge">
<title>rt/is_manual&#45;&gt;/state</title>
<path fill="none" stroke="black" d="M3473.91,-756.39C3429.52,-789.46 3333.15,-861.23 3285.74,-896.54"/>
<polygon fill="black" stroke="black" points="3283.81,-893.61 3277.88,-902.39 3287.99,-899.22 3283.81,-893.61"/>
</g>
<!-- rt/stepper_cmd&#45;&gt;/xy_to_rtheta -->
<g id="edge40" class="edge">
<title>rt/stepper_cmd&#45;&gt;/xy_to_rtheta</title>
<path fill="none" stroke="black" d="M4432.17,-1079.63C4359.68,-1018.06 4102.55,-809.21 3850.26,-720 3612.99,-636.1 2827.25,-579.13 2588,-563.4"/>
<polygon fill="black" stroke="black" points="2588.41,-559.92 2578.2,-562.76 2587.95,-566.91 2588.41,-559.92"/>
</g>
<!-- rt/real_pos -->
<g id="node28" class="node">
<title>rt/real_pos</title>
<polygon fill="gold" stroke="black" points="5218.14,-396 5144.39,-396 5144.39,-360 5218.14,-360 5218.14,-396"/>
<text text-anchor="middle" x="5181.26" y="-372.95" font-family="Times,serif" font-size="14.00">rt/real_pos</text>
</g>
<!-- rt/real_pos&#45;&gt;/state -->
<g id="edge18" class="edge">
<title>rt/real_pos&#45;&gt;/state</title>
<path fill="none" stroke="black" d="M5144.04,-389.58C4986.56,-434.31 4359.39,-612.27 3843.26,-756 3637.23,-813.38 3390.04,-881.01 3296.57,-906.54"/>
<polygon fill="black" stroke="black" points="3295.88,-903.11 3287.15,-909.12 3297.72,-909.86 3295.88,-903.11"/>
</g>
<!-- rt/real_pos&#45;&gt;/xy_to_rtheta -->
<g id="edge45" class="edge">
<title>rt/real_pos&#45;&gt;/xy_to_rtheta</title>
<path fill="none" stroke="black" d="M5144.13,-381.48C4855.76,-400.76 2975.19,-526.46 2587.93,-552.34"/>
<polygon fill="black" stroke="black" points="2587.9,-548.84 2578.16,-553 2588.37,-555.82 2587.9,-548.84"/>
</g>
<!-- rt/shooting_comp&#45;&gt;/state -->
<g id="edge21" class="edge">
<title>rt/shooting_comp&#45;&gt;/state</title>
<path fill="none" stroke="black" d="M3725.96,-1079.61C3652.93,-1041.31 3405.32,-951.09 3298.76,-925.73"/>
<polygon fill="black" stroke="black" points="3299.69,-922.35 3289.16,-923.56 3298.14,-929.18 3299.69,-922.35"/>
</g>
<!-- rt/pos_data&#45;&gt;/joint_publisher -->
<g id="edge2" class="edge">
<title>rt/pos_data&#45;&gt;/joint_publisher</title>
<path fill="none" stroke="black" d="M69.26,-756.39C69.26,-787.1 69.26,-851.19 69.26,-888.46"/>
<polygon fill="black" stroke="black" points="65.76,-888.02 69.26,-898.02 72.76,-888.02 65.76,-888.02"/>
</g>
<!-- rt/target_pose&#45;&gt;/state -->
<g id="edge27" class="edge">
<title>rt/target_pose&#45;&gt;/state</title>
<path fill="none" stroke="black" d="M3039.91,-756.39C3084.86,-789.46 3182.44,-861.23 3230.45,-896.54"/>
<polygon fill="black" stroke="black" points="3228.28,-899.29 3238.41,-902.4 3232.43,-893.65 3228.28,-899.29"/>
</g>
<!-- rt/move_cmd&#45;&gt;/xy_to_rtheta -->
<g id="edge47" class="edge">
<title>rt/move_cmd&#45;&gt;/xy_to_rtheta</title>
<path fill="none" stroke="black" d="M4914.4,-1079.66C4793.58,-1018.65 4370.92,-812.6 3997.26,-720 3467.99,-588.84 2805.83,-564.51 2589.91,-560.02"/>
<polygon fill="black" stroke="black" points="2590.03,-556.52 2579.96,-559.82 2589.89,-563.52 2590.03,-556.52"/>
</g>
<!-- rt/release_cmd&#45;&gt;/xy_to_rtheta -->
<g id="edge50" class="edge">
<title>rt/release_cmd&#45;&gt;/xy_to_rtheta</title>
<path fill="none" stroke="black" d="M893.43,-1079.86C962.57,-1019.06 1207.96,-812.47 1450.26,-720 1806.65,-583.99 2271.04,-562.47 2446.74,-559.37"/>
<polygon fill="black" stroke="black" points="2446.68,-562.87 2456.62,-559.21 2446.57,-555.88 2446.68,-562.87"/>
</g>
<!-- rt/shootingbox_xy&#45;&gt;/xy_to_rtheta -->
<g id="edge41" class="edge">
<title>rt/shootingbox_xy&#45;&gt;/xy_to_rtheta</title>
<path fill="none" stroke="black" d="M1318.13,-1079.92C1332.82,-1019.32 1391.16,-813.35 1524.26,-720 1674.5,-614.65 2246.74,-573.82 2447.86,-562.53"/>
<polygon fill="black" stroke="black" points="2447.84,-566.04 2457.63,-561.99 2447.46,-559.05 2447.84,-566.04"/>
</g>
</g>
</svg>
