<?xml version="1.0" encoding="UTF-8" standalone="no"?>
<!DOCTYPE svg PUBLIC "-//W3C//DTD SVG 1.1//EN"
 "http://www.w3.org/Graphics/SVG/1.1/DTD/svg11.dtd">
<!-- Generated by graphviz version 9.0.0 (20230911.1827)
 -->
<!-- Title: rosgraph Pages: 1 -->
<svg width="602pt" height="376pt"
 viewBox="0.00 0.00 602.00 376.00" xmlns="http://www.w3.org/2000/svg" xmlns:xlink="http://www.w3.org/1999/xlink">
<g id="graph0" class="graph" transform="scale(1 1) rotate(0) translate(72 304)">
<title>rosgraph</title>
<polygon fill="white" stroke="none" points="-72,72 -72,-304 530,-304 530,72 -72,72"/>
<g id="clust1" class="cluster">
<title>cluster_0</title>
<polygon fill="lightskyblue" stroke="black" stroke-width="2" points="8,-147.5 8,-224 450,-224 450,-147.5 8,-147.5"/>
<text text-anchor="middle" x="229" y="-154.7" font-family="Times,serif" font-size="14.00">/add_two_ints</text>
</g>
<!-- /minimal_client -->
<g id="node1" class="node">
<title>/minimal_client</title>
<ellipse fill="limegreen" stroke="black" cx="88" cy="-18" rx="70.29" ry="18"/>
<text text-anchor="middle" x="88" y="-12.95" font-family="Times,serif" font-size="14.00">/minimal_client</text>
</g>
<!-- rq/add_two_intsRequest -->
<g id="node4" class="node">
<title>rq/add_two_intsRequest</title>
<polygon fill="gold" stroke="black" points="163.62,-216 16.38,-216 16.38,-180 163.62,-180 163.62,-216"/>
<text text-anchor="middle" x="90" y="-192.95" font-family="Times,serif" font-size="14.00">rq/add_two_intsRequest</text>
</g>
<!-- /minimal_client&#45;&gt;rq/add_two_intsRequest -->
<g id="edge2" class="edge">
<title>/minimal_client&#45;&gt;rq/add_two_intsRequest</title>
<path fill="none" stroke="black" d="M88.2,-36.39C88.54,-67.1 89.26,-131.19 89.68,-168.46"/>
<polygon fill="black" stroke="black" points="86.17,-168.06 89.79,-178.02 93.17,-167.99 86.17,-168.06"/>
</g>
<!-- /minimal_service -->
<g id="node2" class="node">
<title>/minimal_service</title>
<ellipse fill="limegreen" stroke="black" cx="378" cy="-18" rx="75.92" ry="18"/>
<text text-anchor="middle" x="378" y="-12.95" font-family="Times,serif" font-size="14.00">/minimal_service</text>
</g>
<!-- rr/add_two_intsReply -->
<g id="node3" class="node">
<title>rr/add_two_intsReply</title>
<polygon fill="gold" stroke="black" points="441.88,-216 308.12,-216 308.12,-180 441.88,-180 441.88,-216"/>
<text text-anchor="middle" x="375" y="-192.95" font-family="Times,serif" font-size="14.00">rr/add_two_intsReply</text>
</g>
<!-- /minimal_service&#45;&gt;rr/add_two_intsReply -->
<g id="edge3" class="edge">
<title>/minimal_service&#45;&gt;rr/add_two_intsReply</title>
<path fill="none" stroke="black" d="M377.71,-36.39C377.19,-67.1 376.11,-131.19 375.48,-168.46"/>
<polygon fill="black" stroke="black" points="371.99,-167.97 375.32,-178.02 378.99,-168.09 371.99,-167.97"/>
</g>
<!-- rr/add_two_intsReply&#45;&gt;/minimal_client -->
<g id="edge1" class="edge">
<title>rr/add_two_intsReply&#45;&gt;/minimal_client</title>
<path fill="none" stroke="black" d="M347.19,-179.76C294.74,-147.22 181.26,-76.84 123.43,-40.97"/>
<polygon fill="black" stroke="black" points="125.6,-38.2 115.26,-35.91 121.92,-44.15 125.6,-38.2"/>
</g>
<!-- rq/add_two_intsRequest&#45;&gt;/minimal_service -->
<g id="edge4" class="edge">
<title>rq/add_two_intsRequest&#45;&gt;/minimal_service</title>
<path fill="none" stroke="black" d="M118.27,-179.53C170.99,-146.94 284.22,-76.96 342.19,-41.13"/>
<polygon fill="black" stroke="black" points="343.72,-44.3 350.39,-36.06 340.04,-38.34 343.72,-44.3"/>
</g>
</g>
</svg>
