<?xml version="1.0" encoding="UTF-8" standalone="no"?>
<!DOCTYPE svg PUBLIC "-//W3C//DTD SVG 1.1//EN"
 "http://www.w3.org/Graphics/SVG/1.1/DTD/svg11.dtd">
<!-- Generated by graphviz version 9.0.0 (20230911.1827)
 -->
<!-- Title: rosgraph Pages: 1 -->
<svg width="6897pt" height="1800pt"
 viewBox="0.00 0.00 6897.00 1800.00" xmlns="http://www.w3.org/2000/svg" xmlns:xlink="http://www.w3.org/1999/xlink">
<g id="graph0" class="graph" transform="scale(1 1) rotate(0) translate(72 1728)">
<title>rosgraph</title>
<polygon fill="white" stroke="none" points="-72,72 -72,-1728 6825,-1728 6825,72 -72,72"/>
<g id="clust1" class="cluster">
<title>cluster_0</title>
<polygon fill="lightskyblue" stroke="black" stroke-width="2" points="789,-1227.5 789,-1304 1260,-1304 1260,-1227.5 789,-1227.5"/>
<text text-anchor="middle" x="1024.5" y="-1234.7" font-family="Times,serif" font-size="14.00">/find_best_move</text>
</g>
<g id="clust2" class="cluster">
<title>cluster_1</title>
<polygon fill="lightskyblue" stroke="black" stroke-width="2" points="5635,-147.5 5635,-224 6089,-224 6089,-147.5 5635,-147.5"/>
<text text-anchor="middle" x="5862" y="-154.7" font-family="Times,serif" font-size="14.00">/add_three_ints</text>
</g>
<g id="clust3" class="cluster">
<title>cluster_2</title>
<polygon fill="lightskyblue" stroke="black" stroke-width="2" points="3809,-1227.5 3809,-1304 4337,-1304 4337,-1227.5 3809,-1227.5"/>
<text text-anchor="middle" x="4073" y="-1234.7" font-family="Times,serif" font-size="14.00">/command_pose_lock</text>
</g>
<g id="clust4" class="cluster">
<title>cluster_3</title>
<polygon fill="lightskyblue" stroke="black" stroke-width="2" points="675,-867.5 675,-944 1225,-944 1225,-867.5 675,-867.5"/>
<text text-anchor="middle" x="950" y="-874.7" font-family="Times,serif" font-size="14.00">/command_cluster_lock</text>
</g>
<g id="clust5" class="cluster">
<title>cluster_4</title>
<polygon fill="lightskyblue" stroke="black" stroke-width="2" points="6217,-147.5 6217,-224 6745,-224 6745,-147.5 6217,-147.5"/>
<text text-anchor="middle" x="6481" y="-154.7" font-family="Times,serif" font-size="14.00">/chessboard_detection</text>
</g>
<g id="clust6" class="cluster">
<title>cluster_5</title>
<polygon fill="lightskyblue" stroke="black" stroke-width="2" points="2928,-1227.5 2928,-1304 3425,-1304 3425,-1227.5 2928,-1227.5"/>
<text text-anchor="middle" x="3176.5" y="-1234.7" font-family="Times,serif" font-size="14.00">/execute_bestmove</text>
</g>
<g id="clust7" class="cluster">
<title>cluster_6</title>
<polygon fill="lightskyblue" stroke="black" stroke-width="2" points="2282,-1227.5 2282,-1304 2800,-1304 2800,-1227.5 2282,-1227.5"/>
<text text-anchor="middle" x="2541" y="-1234.7" font-family="Times,serif" font-size="14.00">/pseudo_board_setup</text>
</g>
<g id="clust8" class="cluster">
<title>cluster_7</title>
<polygon fill="lightskyblue" stroke="black" stroke-width="2" points="4311,-147.5 4311,-224 4815,-224 4815,-147.5 4311,-147.5"/>
<text text-anchor="middle" x="4563" y="-154.7" font-family="Times,serif" font-size="14.00">/chessboard_locator</text>
</g>
<!-- /encoder_publisher -->
<g id="node1" class="node">
<title>/encoder_publisher</title>
<ellipse fill="limegreen" stroke="black" cx="3415" cy="-18" rx="81.55" ry="18"/>
<text text-anchor="middle" x="3415" y="-12.95" font-family="Times,serif" font-size="14.00">/encoder_publisher</text>
</g>
<!-- rt/chessboard/encoder -->
<g id="node29" class="node">
<title>rt/chessboard/encoder</title>
<polygon fill="gold" stroke="black" points="3482.25,-216 3347.75,-216 3347.75,-180 3482.25,-180 3482.25,-216"/>
<text text-anchor="middle" x="3415" y="-192.95" font-family="Times,serif" font-size="14.00">rt/chessboard/encoder</text>
</g>
<!-- /encoder_publisher&#45;&gt;rt/chessboard/encoder -->
<g id="edge1" class="edge">
<title>/encoder_publisher&#45;&gt;rt/chessboard/encoder</title>
<path fill="none" stroke="black" d="M3415,-36.39C3415,-67.1 3415,-131.19 3415,-168.46"/>
<polygon fill="black" stroke="black" points="3411.5,-168.02 3415,-178.02 3418.5,-168.02 3411.5,-168.02"/>
</g>
<!-- /camera_publisher_sim -->
<g id="node2" class="node">
<title>/camera_publisher_sim</title>
<ellipse fill="limegreen" stroke="black" cx="2294" cy="-378" rx="97.93" ry="18"/>
<text text-anchor="middle" x="2294" y="-372.95" font-family="Times,serif" font-size="14.00">/camera_publisher_sim</text>
</g>
<!-- rt/chessboard/side/ImgPose -->
<g id="node39" class="node">
<title>rt/chessboard/side/ImgPose</title>
<polygon fill="gold" stroke="black" points="2556.62,-576 2391.38,-576 2391.38,-540 2556.62,-540 2556.62,-576"/>
<text text-anchor="middle" x="2474" y="-552.95" font-family="Times,serif" font-size="14.00">rt/chessboard/side/ImgPose</text>
</g>
<!-- /camera_publisher_sim&#45;&gt;rt/chessboard/side/ImgPose -->
<g id="edge2" class="edge">
<title>/camera_publisher_sim&#45;&gt;rt/chessboard/side/ImgPose</title>
<path fill="none" stroke="black" d="M2311.26,-396.07C2343.16,-427.62 2411.49,-495.19 2448.66,-531.94"/>
<polygon fill="black" stroke="black" points="2445.88,-534.12 2455.45,-538.66 2450.8,-529.14 2445.88,-534.12"/>
</g>
<!-- rt/chessboard/top/ImgPose -->
<g id="node40" class="node">
<title>rt/chessboard/top/ImgPose</title>
<polygon fill="gold" stroke="black" points="2247.38,-576 2086.62,-576 2086.62,-540 2247.38,-540 2247.38,-576"/>
<text text-anchor="middle" x="2167" y="-552.95" font-family="Times,serif" font-size="14.00">rt/chessboard/top/ImgPose</text>
</g>
<!-- /camera_publisher_sim&#45;&gt;rt/chessboard/top/ImgPose -->
<g id="edge3" class="edge">
<title>/camera_publisher_sim&#45;&gt;rt/chessboard/top/ImgPose</title>
<path fill="none" stroke="black" d="M2281.82,-396.07C2259.6,-427.22 2212.31,-493.49 2185.88,-530.54"/>
<polygon fill="black" stroke="black" points="2183.17,-528.32 2180.21,-538.49 2188.86,-532.38 2183.17,-528.32"/>
</g>
<!-- /fake_camera_publisher -->
<g id="node3" class="node">
<title>/fake_camera_publisher</title>
<ellipse fill="limegreen" stroke="black" cx="4001" cy="-18" rx="99.97" ry="18"/>
<text text-anchor="middle" x="4001" y="-12.95" font-family="Times,serif" font-size="14.00">/fake_camera_publisher</text>
</g>
<!-- rt/image -->
<g id="node17" class="node">
<title>rt/image</title>
<polygon fill="gold" stroke="black" points="3872.88,-216 3811.12,-216 3811.12,-180 3872.88,-180 3872.88,-216"/>
<text text-anchor="middle" x="3842" y="-192.95" font-family="Times,serif" font-size="14.00">rt/image</text>
</g>
<!-- /fake_camera_publisher&#45;&gt;rt/image -->
<g id="edge4" class="edge">
<title>/fake_camera_publisher&#45;&gt;rt/image</title>
<path fill="none" stroke="black" d="M3985.75,-36.07C3957.69,-67.48 3897.72,-134.62 3864.8,-171.48"/>
<polygon fill="black" stroke="black" points="3862.49,-168.8 3858.44,-178.59 3867.71,-173.47 3862.49,-168.8"/>
</g>
<!-- rt/info -->
<g id="node31" class="node">
<title>rt/info</title>
<polygon fill="gold" stroke="black" points="4071,-216 4017,-216 4017,-180 4071,-180 4071,-216"/>
<text text-anchor="middle" x="4044" y="-192.95" font-family="Times,serif" font-size="14.00">rt/info</text>
</g>
<!-- /fake_camera_publisher&#45;&gt;rt/info -->
<g id="edge5" class="edge">
<title>/fake_camera_publisher&#45;&gt;rt/info</title>
<path fill="none" stroke="black" d="M4005.2,-36.39C4012.62,-67.1 4028.1,-131.19 4037.1,-168.46"/>
<polygon fill="black" stroke="black" points="4033.68,-169.17 4039.43,-178.07 4040.48,-167.52 4033.68,-169.17"/>
</g>
<!-- /chessboard_classifier -->
<g id="node4" class="node">
<title>/chessboard_classifier</title>
<ellipse fill="limegreen" stroke="black" cx="2167" cy="-738" rx="92.3" ry="18"/>
<text text-anchor="middle" x="2167" y="-732.95" font-family="Times,serif" font-size="14.00">/chessboard_classifier</text>
</g>
<!-- rt/viz/cluster -->
<g id="node19" class="node">
<title>rt/viz/cluster</title>
<polygon fill="gold" stroke="black" points="2761.12,-936 2676.88,-936 2676.88,-900 2761.12,-900 2761.12,-936"/>
<text text-anchor="middle" x="2719" y="-912.95" font-family="Times,serif" font-size="14.00">rt/viz/cluster</text>
</g>
<!-- /chessboard_classifier&#45;&gt;rt/viz/cluster -->
<g id="edge11" class="edge">
<title>/chessboard_classifier&#45;&gt;rt/viz/cluster</title>
<path fill="none" stroke="black" d="M2221.99,-752.78C2305.67,-774.28 2469.58,-818.45 2605,-867.5 2627.29,-875.57 2651.44,-885.83 2671.75,-894.91"/>
<polygon fill="black" stroke="black" points="2670.06,-897.99 2680.61,-898.92 2672.94,-891.61 2670.06,-897.99"/>
</g>
<!-- rt/chessboard/fen -->
<g id="node21" class="node">
<title>rt/chessboard/fen</title>
<polygon fill="gold" stroke="black" points="3014.5,-936 2905.5,-936 2905.5,-900 3014.5,-900 3014.5,-936"/>
<text text-anchor="middle" x="2960" y="-912.95" font-family="Times,serif" font-size="14.00">rt/chessboard/fen</text>
</g>
<!-- /chessboard_classifier&#45;&gt;rt/chessboard/fen -->
<g id="edge7" class="edge">
<title>/chessboard_classifier&#45;&gt;rt/chessboard/fen</title>
<path fill="none" stroke="black" d="M2241.45,-748.87C2365.66,-766.33 2622.29,-806.65 2833,-867.5 2858.91,-874.98 2886.91,-885.61 2910.02,-895.1"/>
<polygon fill="black" stroke="black" points="2908.62,-898.31 2919.2,-898.93 2911.32,-891.85 2908.62,-898.31"/>
</g>
<!-- rt/viz/top_cnn -->
<g id="node22" class="node">
<title>rt/viz/top_cnn</title>
<polygon fill="gold" stroke="black" points="1710.88,-936 1619.12,-936 1619.12,-900 1710.88,-900 1710.88,-936"/>
<text text-anchor="middle" x="1665" y="-912.95" font-family="Times,serif" font-size="14.00">rt/viz/top_cnn</text>
</g>
<!-- /chessboard_classifier&#45;&gt;rt/viz/top_cnn -->
<g id="edge6" class="edge">
<title>/chessboard_classifier&#45;&gt;rt/viz/top_cnn</title>
<path fill="none" stroke="black" d="M2119.01,-753.8C2045.92,-776.62 1902.58,-822.48 1783,-867.5 1760.51,-875.97 1735.97,-886.11 1715.12,-895.01"/>
<polygon fill="black" stroke="black" points="1713.78,-891.77 1705.97,-898.94 1716.54,-898.21 1713.78,-891.77"/>
</g>
<!-- rt/chessboard/fen_binary -->
<g id="node23" class="node">
<title>rt/chessboard/fen_binary</title>
<polygon fill="gold" stroke="black" points="2533.12,-936 2382.88,-936 2382.88,-900 2533.12,-900 2533.12,-936"/>
<text text-anchor="middle" x="2458" y="-912.95" font-family="Times,serif" font-size="14.00">rt/chessboard/fen_binary</text>
</g>
<!-- /chessboard_classifier&#45;&gt;rt/chessboard/fen_binary -->
<g id="edge8" class="edge">
<title>/chessboard_classifier&#45;&gt;rt/chessboard/fen_binary</title>
<path fill="none" stroke="black" d="M2194.12,-755.59C2246.13,-787.4 2360.06,-857.09 2419.77,-893.61"/>
<polygon fill="black" stroke="black" points="2417.92,-896.58 2428.27,-898.82 2421.57,-890.61 2417.92,-896.58"/>
</g>
<!-- rt/viz/side_cnn -->
<g id="node27" class="node">
<title>rt/viz/side_cnn</title>
<polygon fill="gold" stroke="black" points="1951.12,-936 1854.88,-936 1854.88,-900 1951.12,-900 1951.12,-936"/>
<text text-anchor="middle" x="1903" y="-912.95" font-family="Times,serif" font-size="14.00">rt/viz/side_cnn</text>
</g>
<!-- /chessboard_classifier&#45;&gt;rt/viz/side_cnn -->
<g id="edge10" class="edge">
<title>/chessboard_classifier&#45;&gt;rt/viz/side_cnn</title>
<path fill="none" stroke="black" d="M2142.16,-755.75C2095.04,-787.52 1992.52,-856.64 1938.28,-893.21"/>
<polygon fill="black" stroke="black" points="1936.33,-890.31 1929.99,-898.8 1940.24,-896.11 1936.33,-890.31"/>
</g>
<!-- rt/chessboard/fen_color -->
<g id="node32" class="node">
<title>rt/chessboard/fen_color</title>
<polygon fill="gold" stroke="black" points="2238.75,-936 2095.25,-936 2095.25,-900 2238.75,-900 2238.75,-936"/>
<text text-anchor="middle" x="2167" y="-912.95" font-family="Times,serif" font-size="14.00">rt/chessboard/fen_color</text>
</g>
<!-- /chessboard_classifier&#45;&gt;rt/chessboard/fen_color -->
<g id="edge9" class="edge">
<title>/chessboard_classifier&#45;&gt;rt/chessboard/fen_color</title>
<path fill="none" stroke="black" d="M2167,-756.39C2167,-787.1 2167,-851.19 2167,-888.46"/>
<polygon fill="black" stroke="black" points="2163.5,-888.02 2167,-898.02 2170.5,-888.02 2163.5,-888.02"/>
</g>
<!-- rr/command_cluster_lockReply -->
<g id="node47" class="node">
<title>rr/command_cluster_lockReply</title>
<polygon fill="gold" stroke="black" points="1217.25,-936 1028.75,-936 1028.75,-900 1217.25,-900 1217.25,-936"/>
<text text-anchor="middle" x="1123" y="-912.95" font-family="Times,serif" font-size="14.00">rr/command_cluster_lockReply</text>
</g>
<!-- /chessboard_classifier&#45;&gt;rr/command_cluster_lockReply -->
<g id="edge15" class="edge">
<title>/chessboard_classifier&#45;&gt;rr/command_cluster_lockReply</title>
<path fill="none" stroke="black" d="M2099.3,-750.54C1921.97,-780.78 1442.82,-862.47 1228.78,-898.96"/>
<polygon fill="black" stroke="black" points="1228.31,-895.49 1219.04,-900.63 1229.49,-902.39 1228.31,-895.49"/>
</g>
<!-- /psuedo_state_controller -->
<g id="node5" class="node">
<title>/psuedo_state_controller</title>
<ellipse fill="limegreen" stroke="black" cx="2458" cy="-1098" rx="101.51" ry="18"/>
<text text-anchor="middle" x="2458" y="-1092.95" font-family="Times,serif" font-size="14.00">/psuedo_state_controller</text>
</g>
<!-- rt/chessboard/turn -->
<g id="node16" class="node">
<title>rt/chessboard/turn</title>
<polygon fill="gold" stroke="black" points="3673.75,-1296 3560.25,-1296 3560.25,-1260 3673.75,-1260 3673.75,-1296"/>
<text text-anchor="middle" x="3617" y="-1272.95" font-family="Times,serif" font-size="14.00">rt/chessboard/turn</text>
</g>
<!-- /psuedo_state_controller&#45;&gt;rt/chessboard/turn -->
<g id="edge16" class="edge">
<title>/psuedo_state_controller&#45;&gt;rt/chessboard/turn</title>
<path fill="none" stroke="black" d="M2551.61,-1105.35C2730.16,-1118.69 3131.01,-1154.63 3461,-1227.5 3493.97,-1234.78 3529.94,-1245.97 3559.02,-1255.86"/>
<polygon fill="black" stroke="black" points="3557.79,-1259.14 3568.38,-1259.09 3560.07,-1252.52 3557.79,-1259.14"/>
</g>
<!-- rt/chessboard/pseudo_fen -->
<g id="node18" class="node">
<title>rt/chessboard/pseudo_fen</title>
<polygon fill="gold" stroke="black" points="1550,-1296 1396,-1296 1396,-1260 1550,-1260 1550,-1296"/>
<text text-anchor="middle" x="1473" y="-1272.95" font-family="Times,serif" font-size="14.00">rt/chessboard/pseudo_fen</text>
</g>
<!-- /psuedo_state_controller&#45;&gt;rt/chessboard/pseudo_fen -->
<g id="edge20" class="edge">
<title>/psuedo_state_controller&#45;&gt;rt/chessboard/pseudo_fen</title>
<path fill="none" stroke="black" d="M2370.71,-1107.52C2217.6,-1123.56 1891.26,-1162.57 1622,-1227.5 1590.89,-1235 1556.97,-1246.04 1529.37,-1255.78"/>
<polygon fill="black" stroke="black" points="1528.39,-1252.41 1520.15,-1259.08 1530.75,-1259.01 1528.39,-1252.41"/>
</g>
<!-- rt/chessboard/AI_bestmove -->
<g id="node25" class="node">
<title>rt/chessboard/AI_bestmove</title>
<polygon fill="gold" stroke="black" points="1859.62,-1296 1694.38,-1296 1694.38,-1260 1859.62,-1260 1859.62,-1296"/>
<text text-anchor="middle" x="1777" y="-1272.95" font-family="Times,serif" font-size="14.00">rt/chessboard/AI_bestmove</text>
</g>
<!-- /psuedo_state_controller&#45;&gt;rt/chessboard/AI_bestmove -->
<g id="edge19" class="edge">
<title>/psuedo_state_controller&#45;&gt;rt/chessboard/AI_bestmove</title>
<path fill="none" stroke="black" d="M2396.09,-1112.66C2297.39,-1134.76 2098.5,-1180.64 1932,-1227.5 1901.27,-1236.15 1867.47,-1246.81 1839.3,-1256.01"/>
<polygon fill="black" stroke="black" points="1838.24,-1252.68 1829.83,-1259.12 1840.43,-1259.33 1838.24,-1252.68"/>
</g>
<!-- rt/chessboard/illegal_move -->
<g id="node26" class="node">
<title>rt/chessboard/illegal_move</title>
<polygon fill="gold" stroke="black" points="4636.5,-1296 4473.5,-1296 4473.5,-1260 4636.5,-1260 4636.5,-1296"/>
<text text-anchor="middle" x="4555" y="-1272.95" font-family="Times,serif" font-size="14.00">rt/chessboard/illegal_move</text>
</g>
<!-- /psuedo_state_controller&#45;&gt;rt/chessboard/illegal_move -->
<g id="edge17" class="edge">
<title>/psuedo_state_controller&#45;&gt;rt/chessboard/illegal_move</title>
<path fill="none" stroke="black" d="M2559.78,-1098.75C2846.94,-1099.57 3687.22,-1112.41 4373,-1227.5 4412.78,-1234.18 4456.41,-1245.89 4490.98,-1256.24"/>
<polygon fill="black" stroke="black" points="4489.83,-1259.55 4500.42,-1259.11 4491.87,-1252.85 4489.83,-1259.55"/>
</g>
<!-- rt/chessboard/AI_ready -->
<g id="node34" class="node">
<title>rt/chessboard/AI_ready</title>
<polygon fill="gold" stroke="black" points="2146.38,-1296 2003.62,-1296 2003.62,-1260 2146.38,-1260 2146.38,-1296"/>
<text text-anchor="middle" x="2075" y="-1272.95" font-family="Times,serif" font-size="14.00">rt/chessboard/AI_ready</text>
</g>
<!-- /psuedo_state_controller&#45;&gt;rt/chessboard/AI_ready -->
<g id="edge18" class="edge">
<title>/psuedo_state_controller&#45;&gt;rt/chessboard/AI_ready</title>
<path fill="none" stroke="black" d="M2423,-1115.27C2354.07,-1147.3 2200.7,-1218.58 2122.64,-1254.86"/>
<polygon fill="black" stroke="black" points="2121.56,-1251.5 2113.96,-1258.89 2124.51,-1257.85 2121.56,-1251.5"/>
</g>
<!-- rr/execute_bestmoveReply -->
<g id="node52" class="node">
<title>rr/execute_bestmoveReply</title>
<polygon fill="gold" stroke="black" points="3097.75,-1296 2936.25,-1296 2936.25,-1260 3097.75,-1260 3097.75,-1296"/>
<text text-anchor="middle" x="3017" y="-1272.95" font-family="Times,serif" font-size="14.00">rr/execute_bestmoveReply</text>
</g>
<!-- /psuedo_state_controller&#45;&gt;rr/execute_bestmoveReply -->
<g id="edge23" class="edge">
<title>/psuedo_state_controller&#45;&gt;rr/execute_bestmoveReply</title>
<path fill="none" stroke="black" d="M2505.66,-1114.18C2605.67,-1146.02 2837.57,-1219.86 2951.47,-1256.13"/>
<polygon fill="black" stroke="black" points="2950.09,-1259.37 2960.68,-1259.07 2952.21,-1252.7 2950.09,-1259.37"/>
</g>
<!-- rr/pseudo_board_setupReply -->
<g id="node54" class="node">
<title>rr/pseudo_board_setupReply</title>
<polygon fill="gold" stroke="black" points="2462,-1296 2290,-1296 2290,-1260 2462,-1260 2462,-1296"/>
<text text-anchor="middle" x="2376" y="-1272.95" font-family="Times,serif" font-size="14.00">rr/pseudo_board_setupReply</text>
</g>
<!-- /psuedo_state_controller&#45;&gt;rr/pseudo_board_setupReply -->
<g id="edge26" class="edge">
<title>/psuedo_state_controller&#45;&gt;rr/pseudo_board_setupReply</title>
<path fill="none" stroke="black" d="M2449.99,-1116.39C2435.72,-1147.36 2405.81,-1212.3 2388.71,-1249.42"/>
<polygon fill="black" stroke="black" points="2385.68,-1247.62 2384.68,-1258.16 2392.04,-1250.55 2385.68,-1247.62"/>
</g>
<!-- /minimal_publisher -->
<g id="node6" class="node">
<title>/minimal_publisher</title>
<ellipse fill="limegreen" stroke="black" cx="1777" cy="-1098" rx="84.11" ry="18"/>
<text text-anchor="middle" x="1777" y="-1092.95" font-family="Times,serif" font-size="14.00">/minimal_publisher</text>
</g>
<!-- /minimal_publisher&#45;&gt;rt/chessboard/pseudo_fen -->
<g id="edge28" class="edge">
<title>/minimal_publisher&#45;&gt;rt/chessboard/pseudo_fen</title>
<path fill="none" stroke="black" d="M1748.95,-1115.43C1694.64,-1147.22 1575.04,-1217.25 1512.64,-1253.79"/>
<polygon fill="black" stroke="black" points="1510.94,-1250.73 1504.08,-1258.8 1514.48,-1256.77 1510.94,-1250.73"/>
</g>
<!-- /minimal_publisher&#45;&gt;rt/chessboard/AI_bestmove -->
<g id="edge27" class="edge">
<title>/minimal_publisher&#45;&gt;rt/chessboard/AI_bestmove</title>
<path fill="none" stroke="black" d="M1777,-1116.39C1777,-1147.1 1777,-1211.19 1777,-1248.46"/>
<polygon fill="black" stroke="black" points="1773.5,-1248.02 1777,-1258.02 1780.5,-1248.02 1773.5,-1248.02"/>
</g>
<!-- /minimal_publisher&#45;&gt;rt/chessboard/AI_ready -->
<g id="edge29" class="edge">
<title>/minimal_publisher&#45;&gt;rt/chessboard/AI_ready</title>
<path fill="none" stroke="black" d="M1804.5,-1115.43C1857.73,-1147.22 1974.98,-1217.25 2036.14,-1253.79"/>
<polygon fill="black" stroke="black" points="2034.14,-1256.67 2044.52,-1258.79 2037.73,-1250.66 2034.14,-1256.67"/>
</g>
<!-- /test_chessboard_locator -->
<g id="node7" class="node">
<title>/test_chessboard_locator</title>
<ellipse fill="limegreen" stroke="black" cx="4511" cy="-18" rx="102.02" ry="18"/>
<text text-anchor="middle" x="4511" y="-12.95" font-family="Times,serif" font-size="14.00">/test_chessboard_locator</text>
</g>
<!-- rq/chessboard_locatorRequest -->
<g id="node56" class="node">
<title>rq/chessboard_locatorRequest</title>
<polygon fill="gold" stroke="black" points="4497.38,-216 4318.62,-216 4318.62,-180 4497.38,-180 4497.38,-216"/>
<text text-anchor="middle" x="4408" y="-192.95" font-family="Times,serif" font-size="14.00">rq/chessboard_locatorRequest</text>
</g>
<!-- /test_chessboard_locator&#45;&gt;rq/chessboard_locatorRequest -->
<g id="edge31" class="edge">
<title>/test_chessboard_locator&#45;&gt;rq/chessboard_locatorRequest</title>
<path fill="none" stroke="black" d="M4500.94,-36.39C4482.94,-67.5 4445.12,-132.86 4423.68,-169.89"/>
<polygon fill="black" stroke="black" points="4420.84,-167.82 4418.86,-178.23 4426.9,-171.33 4420.84,-167.82"/>
</g>
<!-- /chess_client_async -->
<g id="node8" class="node">
<title>/chess_client_async</title>
<ellipse fill="limegreen" stroke="black" cx="883" cy="-1098" rx="84.11" ry="18"/>
<text text-anchor="middle" x="883" y="-1092.95" font-family="Times,serif" font-size="14.00">/chess_client_async</text>
</g>
<!-- rq/find_best_moveRequest -->
<g id="node42" class="node">
<title>rq/find_best_moveRequest</title>
<polygon fill="gold" stroke="black" points="959.12,-1296 796.88,-1296 796.88,-1260 959.12,-1260 959.12,-1296"/>
<text text-anchor="middle" x="878" y="-1272.95" font-family="Times,serif" font-size="14.00">rq/find_best_moveRequest</text>
</g>
<!-- /chess_client_async&#45;&gt;rq/find_best_moveRequest -->
<g id="edge33" class="edge">
<title>/chess_client_async&#45;&gt;rq/find_best_moveRequest</title>
<path fill="none" stroke="black" d="M882.51,-1116.39C881.65,-1147.1 879.85,-1211.19 878.8,-1248.46"/>
<polygon fill="black" stroke="black" points="875.32,-1247.93 878.53,-1258.02 882.31,-1248.13 875.32,-1247.93"/>
</g>
<!-- /chessboard_tracker -->
<g id="node9" class="node">
<title>/chessboard_tracker</title>
<ellipse fill="limegreen" stroke="black" cx="2747" cy="-378" rx="84.62" ry="18"/>
<text text-anchor="middle" x="2747" y="-372.95" font-family="Times,serif" font-size="14.00">/chessboard_tracker</text>
</g>
<!-- rt/dope1/input -->
<g id="node28" class="node">
<title>rt/dope1/input</title>
<polygon fill="gold" stroke="black" points="3030.25,-576 2937.75,-576 2937.75,-540 3030.25,-540 3030.25,-576"/>
<text text-anchor="middle" x="2984" y="-552.95" font-family="Times,serif" font-size="14.00">rt/dope1/input</text>
</g>
<!-- /chessboard_tracker&#45;&gt;rt/dope1/input -->
<g id="edge37" class="edge">
<title>/chessboard_tracker&#45;&gt;rt/dope1/input</title>
<path fill="none" stroke="black" d="M2769.3,-395.75C2811.43,-427.39 2902.88,-496.07 2951.72,-532.76"/>
<polygon fill="black" stroke="black" points="2949.58,-535.53 2959.68,-538.74 2953.79,-529.93 2949.58,-535.53"/>
</g>
<!-- rt/dope0/input -->
<g id="node38" class="node">
<title>rt/dope0/input</title>
<polygon fill="gold" stroke="black" points="2793.25,-576 2700.75,-576 2700.75,-540 2793.25,-540 2793.25,-576"/>
<text text-anchor="middle" x="2747" y="-552.95" font-family="Times,serif" font-size="14.00">rt/dope0/input</text>
</g>
<!-- /chessboard_tracker&#45;&gt;rt/dope0/input -->
<g id="edge36" class="edge">
<title>/chessboard_tracker&#45;&gt;rt/dope0/input</title>
<path fill="none" stroke="black" d="M2747,-396.39C2747,-427.1 2747,-491.19 2747,-528.46"/>
<polygon fill="black" stroke="black" points="2743.5,-528.02 2747,-538.02 2750.5,-528.02 2743.5,-528.02"/>
</g>
<!-- /chessboard_tracker&#45;&gt;rt/chessboard/side/ImgPose -->
<g id="edge35" class="edge">
<title>/chessboard_tracker&#45;&gt;rt/chessboard/side/ImgPose</title>
<path fill="none" stroke="black" d="M2721.81,-395.43C2673.24,-427.09 2566.52,-496.68 2510.29,-533.34"/>
<polygon fill="black" stroke="black" points="2508.47,-530.35 2502,-538.74 2512.29,-536.21 2508.47,-530.35"/>
</g>
<!-- /chessboard_tracker&#45;&gt;rt/chessboard/top/ImgPose -->
<g id="edge34" class="edge">
<title>/chessboard_tracker&#45;&gt;rt/chessboard/top/ImgPose</title>
<path fill="none" stroke="black" d="M2700.03,-393.42C2597.51,-424.88 2353.4,-499.79 2234.46,-536.3"/>
<polygon fill="black" stroke="black" points="2233.67,-532.88 2225.14,-539.16 2235.73,-539.57 2233.67,-532.88"/>
</g>
<!-- /chess_engine -->
<g id="node10" class="node">
<title>/chess_engine</title>
<ellipse fill="limegreen" stroke="black" cx="1175" cy="-1098" rx="62.61" ry="18"/>
<text text-anchor="middle" x="1175" y="-1092.95" font-family="Times,serif" font-size="14.00">/chess_engine</text>
</g>
<!-- rr/find_best_moveReply -->
<g id="node41" class="node">
<title>rr/find_best_moveReply</title>
<polygon fill="gold" stroke="black" points="1252.38,-1296 1103.62,-1296 1103.62,-1260 1252.38,-1260 1252.38,-1296"/>
<text text-anchor="middle" x="1178" y="-1272.95" font-family="Times,serif" font-size="14.00">rr/find_best_moveReply</text>
</g>
<!-- /chess_engine&#45;&gt;rr/find_best_moveReply -->
<g id="edge43" class="edge">
<title>/chess_engine&#45;&gt;rr/find_best_moveReply</title>
<path fill="none" stroke="black" d="M1175.29,-1116.39C1175.81,-1147.1 1176.89,-1211.19 1177.52,-1248.46"/>
<polygon fill="black" stroke="black" points="1174.01,-1248.09 1177.68,-1258.02 1181.01,-1247.97 1174.01,-1248.09"/>
</g>
<!-- /chessboard_dope_decoder -->
<g id="node11" class="node">
<title>/chessboard_dope_decoder</title>
<ellipse fill="limegreen" stroke="black" cx="5388" cy="-198" rx="110.72" ry="18"/>
<text text-anchor="middle" x="5388" y="-192.95" font-family="Times,serif" font-size="14.00">/chessboard_dope_decoder</text>
</g>
<!-- rt/pose -->
<g id="node20" class="node">
<title>rt/pose</title>
<polygon fill="gold" stroke="black" points="5415,-396 5361,-396 5361,-360 5415,-360 5415,-396"/>
<text text-anchor="middle" x="5388" y="-372.95" font-family="Times,serif" font-size="14.00">rt/pose</text>
</g>
<!-- /chessboard_dope_decoder&#45;&gt;rt/pose -->
<g id="edge45" class="edge">
<title>/chessboard_dope_decoder&#45;&gt;rt/pose</title>
<path fill="none" stroke="black" d="M5388,-216.39C5388,-247.1 5388,-311.19 5388,-348.46"/>
<polygon fill="black" stroke="black" points="5384.5,-348.02 5388,-358.02 5391.5,-348.02 5384.5,-348.02"/>
</g>
<!-- /dataset_gatherer -->
<g id="node12" class="node">
<title>/dataset_gatherer</title>
<ellipse fill="limegreen" stroke="black" cx="3148" cy="-378" rx="73.87" ry="18"/>
<text text-anchor="middle" x="3148" y="-372.95" font-family="Times,serif" font-size="14.00">/dataset_gatherer</text>
</g>
<!-- /minimal_service -->
<g id="node13" class="node">
<title>/minimal_service</title>
<ellipse fill="limegreen" stroke="black" cx="5852" cy="-18" rx="75.92" ry="18"/>
<text text-anchor="middle" x="5852" y="-12.95" font-family="Times,serif" font-size="14.00">/minimal_service</text>
</g>
<!-- rr/add_three_intsReply -->
<g id="node44" class="node">
<title>rr/add_three_intsReply</title>
<polygon fill="gold" stroke="black" points="5783.25,-216 5642.75,-216 5642.75,-180 5783.25,-180 5783.25,-216"/>
<text text-anchor="middle" x="5713" y="-192.95" font-family="Times,serif" font-size="14.00">rr/add_three_intsReply</text>
</g>
<!-- /minimal_service&#45;&gt;rr/add_three_intsReply -->
<g id="edge50" class="edge">
<title>/minimal_service&#45;&gt;rr/add_three_intsReply</title>
<path fill="none" stroke="black" d="M5838.67,-36.07C5814.24,-67.35 5762.15,-134.06 5733.3,-171.01"/>
<polygon fill="black" stroke="black" points="5730.82,-168.49 5727.42,-178.53 5736.34,-172.8 5730.82,-168.49"/>
</g>
<!-- /chessboard_detector_fake -->
<g id="node14" class="node">
<title>/chessboard_detector_fake</title>
<ellipse fill="limegreen" stroke="black" cx="6484" cy="-18" rx="109.19" ry="18"/>
<text text-anchor="middle" x="6484" y="-12.95" font-family="Times,serif" font-size="14.00">/chessboard_detector_fake</text>
</g>
<!-- rr/chessboard_detectionReply -->
<g id="node49" class="node">
<title>rr/chessboard_detectionReply</title>
<polygon fill="gold" stroke="black" points="6736.62,-216 6559.38,-216 6559.38,-180 6736.62,-180 6736.62,-216"/>
<text text-anchor="middle" x="6648" y="-192.95" font-family="Times,serif" font-size="14.00">rr/chessboard_detectionReply</text>
</g>
<!-- /chessboard_detector_fake&#45;&gt;rr/chessboard_detectionReply -->
<g id="edge52" class="edge">
<title>/chessboard_detector_fake&#45;&gt;rr/chessboard_detectionReply</title>
<path fill="none" stroke="black" d="M6499.73,-36.07C6528.67,-67.48 6590.53,-134.62 6624.48,-171.48"/>
<polygon fill="black" stroke="black" points="6621.71,-173.63 6631.06,-178.61 6626.85,-168.88 6621.71,-173.63"/>
</g>
<!-- /game_controller -->
<g id="node15" class="node">
<title>/game_controller</title>
<ellipse fill="limegreen" stroke="black" cx="2225" cy="-1458" rx="74.38" ry="18"/>
<text text-anchor="middle" x="2225" y="-1452.95" font-family="Times,serif" font-size="14.00">/game_controller</text>
</g>
<!-- rt/chessboard/joint0 -->
<g id="node24" class="node">
<title>rt/chessboard/joint0</title>
<polygon fill="gold" stroke="black" points="2286.62,-1656 2163.38,-1656 2163.38,-1620 2286.62,-1620 2286.62,-1656"/>
<text text-anchor="middle" x="2225" y="-1632.95" font-family="Times,serif" font-size="14.00">rt/chessboard/joint0</text>
</g>
<!-- /game_controller&#45;&gt;rt/chessboard/joint0 -->
<g id="edge54" class="edge">
<title>/game_controller&#45;&gt;rt/chessboard/joint0</title>
<path fill="none" stroke="black" d="M2225,-1476.39C2225,-1507.1 2225,-1571.19 2225,-1608.46"/>
<polygon fill="black" stroke="black" points="2221.5,-1608.02 2225,-1618.02 2228.5,-1608.02 2221.5,-1608.02"/>
</g>
<!-- /game_controller&#45;&gt;rt/chessboard/encoder -->
<g id="edge55" class="edge">
<title>/game_controller&#45;&gt;rt/chessboard/encoder</title>
<path fill="none" stroke="black" d="M2298.77,-1455.26C2701.13,-1445.43 4621.65,-1394.06 4869,-1304 5012.24,-1251.84 5144,-1251.45 5144,-1099 5144,-557 5144,-557 5144,-557 5144,-386.12 3832.33,-241.32 3493.9,-206.81"/>
<polygon fill="black" stroke="black" points="3494.32,-203.33 3484.02,-205.8 3493.61,-210.29 3494.32,-203.33"/>
</g>
<!-- /game_controller&#45;&gt;rq/find_best_moveRequest -->
<g id="edge69" class="edge">
<title>/game_controller&#45;&gt;rq/find_best_moveRequest</title>
<path fill="none" stroke="black" d="M2158.94,-1449.31C1978.26,-1428.12 1460.79,-1366.28 1032,-1304 1012.1,-1301.11 990.78,-1297.79 970.55,-1294.54"/>
<polygon fill="black" stroke="black" points="971.37,-1291.13 960.94,-1292.98 970.25,-1298.04 971.37,-1291.13"/>
</g>
<!-- rq/command_pose_lockRequest -->
<g id="node45" class="node">
<title>rq/command_pose_lockRequest</title>
<polygon fill="gold" stroke="black" points="4329.38,-1296 4138.62,-1296 4138.62,-1260 4329.38,-1260 4329.38,-1296"/>
<text text-anchor="middle" x="4234" y="-1272.95" font-family="Times,serif" font-size="14.00">rq/command_pose_lockRequest</text>
</g>
<!-- /game_controller&#45;&gt;rq/command_pose_lockRequest -->
<g id="edge68" class="edge">
<title>/game_controller&#45;&gt;rq/command_pose_lockRequest</title>
<path fill="none" stroke="black" d="M2296.71,-1452.75C2543.41,-1437.75 3379.7,-1383.9 4067,-1304 4086.44,-1301.74 4107.1,-1298.96 4127.02,-1296.08"/>
<polygon fill="black" stroke="black" points="4127.44,-1299.56 4136.83,-1294.65 4126.43,-1292.63 4127.44,-1299.56"/>
</g>
<!-- rq/command_cluster_lockRequest -->
<g id="node48" class="node">
<title>rq/command_cluster_lockRequest</title>
<polygon fill="gold" stroke="black" points="885,-936 683,-936 683,-900 885,-900 885,-936"/>
<text text-anchor="middle" x="784" y="-912.95" font-family="Times,serif" font-size="14.00">rq/command_cluster_lockRequest</text>
</g>
<!-- /game_controller&#45;&gt;rq/command_cluster_lockRequest -->
<g id="edge61" class="edge">
<title>/game_controller&#45;&gt;rq/command_cluster_lockRequest</title>
<path fill="none" stroke="black" d="M2151.05,-1455.51C1853.38,-1448.76 753.93,-1416.33 652,-1304 585.06,-1230.23 625.35,-1173.4 660,-1080 680.41,-1024.97 726.66,-973.47 756.55,-944.16"/>
<polygon fill="black" stroke="black" points="758.64,-947 763.41,-937.54 753.78,-941.96 758.64,-947"/>
</g>
<!-- rq/execute_bestmoveRequest -->
<g id="node51" class="node">
<title>rq/execute_bestmoveRequest</title>
<polygon fill="gold" stroke="black" points="3416.5,-1296 3241.5,-1296 3241.5,-1260 3416.5,-1260 3416.5,-1296"/>
<text text-anchor="middle" x="3329" y="-1272.95" font-family="Times,serif" font-size="14.00">rq/execute_bestmoveRequest</text>
</g>
<!-- /game_controller&#45;&gt;rq/execute_bestmoveRequest -->
<g id="edge66" class="edge">
<title>/game_controller&#45;&gt;rq/execute_bestmoveRequest</title>
<path fill="none" stroke="black" d="M2285.6,-1447.23C2466.98,-1417.98 3006.88,-1330.94 3230.4,-1294.9"/>
<polygon fill="black" stroke="black" points="3230.64,-1298.4 3239.95,-1293.36 3229.52,-1291.49 3230.64,-1298.4"/>
</g>
<!-- rq/pseudo_board_setupRequest -->
<g id="node53" class="node">
<title>rq/pseudo_board_setupRequest</title>
<polygon fill="gold" stroke="black" points="2791.75,-1296 2606.25,-1296 2606.25,-1260 2791.75,-1260 2791.75,-1296"/>
<text text-anchor="middle" x="2699" y="-1272.95" font-family="Times,serif" font-size="14.00">rq/pseudo_board_setupRequest</text>
</g>
<!-- /game_controller&#45;&gt;rq/pseudo_board_setupRequest -->
<g id="edge64" class="edge">
<title>/game_controller&#45;&gt;rq/pseudo_board_setupRequest</title>
<path fill="none" stroke="black" d="M2264.07,-1442.33C2347.74,-1410.91 2544.59,-1336.99 2642.15,-1300.35"/>
<polygon fill="black" stroke="black" points="2643.14,-1303.72 2651.27,-1296.92 2640.68,-1297.16 2643.14,-1303.72"/>
</g>
<!-- rt/chessboard/pseudo_fen&#45;&gt;/game_controller -->
<g id="edge59" class="edge">
<title>rt/chessboard/pseudo_fen&#45;&gt;/game_controller</title>
<path fill="none" stroke="black" d="M1546.82,-1296.47C1694.54,-1331.44 2024.17,-1409.46 2162.25,-1442.15"/>
<polygon fill="black" stroke="black" points="2161.03,-1445.46 2171.57,-1444.35 2162.64,-1438.64 2161.03,-1445.46"/>
</g>
<!-- rt/chessboard/fen_binary&#45;&gt;/psuedo_state_controller -->
<g id="edge22" class="edge">
<title>rt/chessboard/fen_binary&#45;&gt;/psuedo_state_controller</title>
<path fill="none" stroke="black" d="M2458,-936.39C2458,-967.1 2458,-1031.19 2458,-1068.46"/>
<polygon fill="black" stroke="black" points="2454.5,-1068.02 2458,-1078.02 2461.5,-1068.02 2454.5,-1068.02"/>
</g>
<!-- rt/chessboard/AI_bestmove&#45;&gt;/game_controller -->
<g id="edge58" class="edge">
<title>rt/chessboard/AI_bestmove&#45;&gt;/game_controller</title>
<path fill="none" stroke="black" d="M1820.77,-1296.39C1905.1,-1329.9 2089.48,-1403.16 2177.02,-1437.94"/>
<polygon fill="black" stroke="black" points="2175.47,-1441.09 2186.05,-1441.53 2178.05,-1434.58 2175.47,-1441.09"/>
</g>
<!-- rt/chessboard/encoder&#45;&gt;/chessboard_tracker -->
<g id="edge41" class="edge">
<title>rt/chessboard/encoder&#45;&gt;/chessboard_tracker</title>
<path fill="none" stroke="black" d="M3349.43,-216.47C3220.51,-250.82 2935.65,-326.73 2809.37,-360.38"/>
<polygon fill="black" stroke="black" points="2808.6,-356.96 2799.84,-362.92 2810.41,-363.73 2808.6,-356.96"/>
</g>
<!-- rt/chessboard/encoder&#45;&gt;/dataset_gatherer -->
<g id="edge48" class="edge">
<title>rt/chessboard/encoder&#45;&gt;/dataset_gatherer</title>
<path fill="none" stroke="black" d="M3388.91,-216.39C3340.37,-248.76 3236.19,-318.21 3182.12,-354.25"/>
<polygon fill="black" stroke="black" points="3180.27,-351.28 3173.89,-359.74 3184.16,-357.1 3180.27,-351.28"/>
</g>
<!-- rt/camera0/image -->
<g id="node30" class="node">
<title>rt/camera0/image</title>
<polygon fill="gold" stroke="black" points="2704,-216 2592,-216 2592,-180 2704,-180 2704,-216"/>
<text text-anchor="middle" x="2648" y="-192.95" font-family="Times,serif" font-size="14.00">rt/camera0/image</text>
</g>
<!-- rt/camera0/image&#45;&gt;/chessboard_tracker -->
<g id="edge40" class="edge">
<title>rt/camera0/image&#45;&gt;/chessboard_tracker</title>
<path fill="none" stroke="black" d="M2657.67,-216.39C2675.02,-247.58 2711.51,-313.19 2732.08,-350.18"/>
<polygon fill="black" stroke="black" points="2728.78,-351.44 2736.7,-358.48 2734.9,-348.04 2728.78,-351.44"/>
</g>
<!-- rt/camera0/image&#45;&gt;/dataset_gatherer -->
<g id="edge47" class="edge">
<title>rt/camera0/image&#45;&gt;/dataset_gatherer</title>
<path fill="none" stroke="black" d="M2696.85,-216.39C2791.73,-250.17 3000.09,-324.34 3096.8,-358.77"/>
<polygon fill="black" stroke="black" points="3095.45,-362.01 3106.05,-362.07 3097.8,-355.41 3095.45,-362.01"/>
</g>
<!-- rt/camera0/image&#45;&gt;/game_controller -->
<g id="edge57" class="edge">
<title>rt/camera0/image&#45;&gt;/game_controller</title>
<path fill="none" stroke="black" d="M2591.74,-210.76C2569.46,-215.22 2543.57,-220.14 2520,-224 2241.27,-269.59 0,-274.57 0,-557 0,-557 0,-557 0,-1099 0,-1372.82 313.54,-1245.31 581,-1304 1167.02,-1432.59 1893.73,-1453.18 2139.35,-1456.42"/>
<polygon fill="black" stroke="black" points="2139.12,-1459.92 2149.16,-1456.54 2139.21,-1452.92 2139.12,-1459.92"/>
</g>
<!-- rt/chessboard/fen_color&#45;&gt;/psuedo_state_controller -->
<g id="edge21" class="edge">
<title>rt/chessboard/fen_color&#45;&gt;/psuedo_state_controller</title>
<path fill="none" stroke="black" d="M2195.43,-936.39C2248.43,-968.81 2362.25,-1038.43 2421.09,-1074.42"/>
<polygon fill="black" stroke="black" points="2419.08,-1077.3 2429.44,-1079.53 2422.73,-1071.33 2419.08,-1077.3"/>
</g>
<!-- rt/camera1/image -->
<g id="node33" class="node">
<title>rt/camera1/image</title>
<polygon fill="gold" stroke="black" points="3204,-216 3092,-216 3092,-180 3204,-180 3204,-216"/>
<text text-anchor="middle" x="3148" y="-192.95" font-family="Times,serif" font-size="14.00">rt/camera1/image</text>
</g>
<!-- rt/camera1/image&#45;&gt;/chessboard_tracker -->
<g id="edge38" class="edge">
<title>rt/camera1/image&#45;&gt;/chessboard_tracker</title>
<path fill="none" stroke="black" d="M3108.82,-216.39C3034.23,-249.5 2872.18,-321.43 2792.75,-356.69"/>
<polygon fill="black" stroke="black" points="2791.67,-353.34 2783.95,-360.6 2794.51,-359.74 2791.67,-353.34"/>
</g>
<!-- rt/camera1/image&#45;&gt;/dataset_gatherer -->
<g id="edge49" class="edge">
<title>rt/camera1/image&#45;&gt;/dataset_gatherer</title>
<path fill="none" stroke="black" d="M3148,-216.39C3148,-247.1 3148,-311.19 3148,-348.46"/>
<polygon fill="black" stroke="black" points="3144.5,-348.02 3148,-358.02 3151.5,-348.02 3144.5,-348.02"/>
</g>
<!-- rt/camera1/image&#45;&gt;/game_controller -->
<g id="edge60" class="edge">
<title>rt/camera1/image&#45;&gt;/game_controller</title>
<path fill="none" stroke="black" d="M3204.28,-210.04C3499.29,-268.02 4854,-535.43 4854,-557 4854,-557 4854,-557 4854,-1099 4854,-1210.6 4806.49,-1249.68 4709,-1304 4495.74,-1422.82 2722.96,-1451.09 2310.51,-1456.08"/>
<polygon fill="black" stroke="black" points="2310.75,-1452.58 2300.8,-1456.2 2310.84,-1459.58 2310.75,-1452.58"/>
</g>
<!-- rt/chessboard/AI_ready&#45;&gt;/game_controller -->
<g id="edge56" class="edge">
<title>rt/chessboard/AI_ready&#45;&gt;/game_controller</title>
<path fill="none" stroke="black" d="M2089.66,-1296.39C2116.23,-1327.92 2172.47,-1394.66 2203.43,-1431.4"/>
<polygon fill="black" stroke="black" points="2200.63,-1433.51 2209.75,-1438.9 2205.98,-1429 2200.63,-1433.51"/>
</g>
<!-- rt/dope0/output -->
<g id="node35" class="node">
<title>rt/dope0/output</title>
<polygon fill="gold" stroke="black" points="2947.62,-216 2848.38,-216 2848.38,-180 2947.62,-180 2947.62,-216"/>
<text text-anchor="middle" x="2898" y="-192.95" font-family="Times,serif" font-size="14.00">rt/dope0/output</text>
</g>
<!-- rt/dope0/output&#45;&gt;/chessboard_tracker -->
<g id="edge39" class="edge">
<title>rt/dope0/output&#45;&gt;/chessboard_tracker</title>
<path fill="none" stroke="black" d="M2883.25,-216.39C2856.57,-247.84 2800.17,-314.32 2768.95,-351.12"/>
<polygon fill="black" stroke="black" points="2766.37,-348.76 2762.57,-358.65 2771.71,-353.28 2766.37,-348.76"/>
</g>
<!-- rt/dope1/output -->
<g id="node36" class="node">
<title>rt/dope1/output</title>
<polygon fill="gold" stroke="black" points="2447.62,-216 2348.38,-216 2348.38,-180 2447.62,-180 2447.62,-216"/>
<text text-anchor="middle" x="2398" y="-192.95" font-family="Times,serif" font-size="14.00">rt/dope1/output</text>
</g>
<!-- rt/dope1/output&#45;&gt;/chessboard_tracker -->
<g id="edge42" class="edge">
<title>rt/dope1/output&#45;&gt;/chessboard_tracker</title>
<path fill="none" stroke="black" d="M2432.1,-216.39C2496.38,-249.18 2635.27,-320.01 2705.11,-355.63"/>
<polygon fill="black" stroke="black" points="2703.45,-358.72 2713.95,-360.14 2706.63,-352.48 2703.45,-358.72"/>
</g>
<!-- rt/tensor_sub -->
<g id="node37" class="node">
<title>rt/tensor_sub</title>
<polygon fill="gold" stroke="black" points="5431.25,-36 5344.75,-36 5344.75,0 5431.25,0 5431.25,-36"/>
<text text-anchor="middle" x="5388" y="-12.95" font-family="Times,serif" font-size="14.00">rt/tensor_sub</text>
</g>
<!-- rt/tensor_sub&#45;&gt;/chessboard_dope_decoder -->
<g id="edge46" class="edge">
<title>rt/tensor_sub&#45;&gt;/chessboard_dope_decoder</title>
<path fill="none" stroke="black" d="M5388,-36.39C5388,-67.1 5388,-131.19 5388,-168.46"/>
<polygon fill="black" stroke="black" points="5384.5,-168.02 5388,-178.02 5391.5,-168.02 5384.5,-168.02"/>
</g>
<!-- rt/chessboard/side/ImgPose&#45;&gt;/chessboard_classifier -->
<g id="edge13" class="edge">
<title>rt/chessboard/side/ImgPose&#45;&gt;/chessboard_classifier</title>
<path fill="none" stroke="black" d="M2444,-576.39C2387.84,-608.96 2266.9,-679.08 2205.08,-714.92"/>
<polygon fill="black" stroke="black" points="2203.53,-711.77 2196.64,-719.82 2207.04,-717.83 2203.53,-711.77"/>
</g>
<!-- rt/chessboard/top/ImgPose&#45;&gt;/chessboard_classifier -->
<g id="edge12" class="edge">
<title>rt/chessboard/top/ImgPose&#45;&gt;/chessboard_classifier</title>
<path fill="none" stroke="black" d="M2167,-576.39C2167,-607.1 2167,-671.19 2167,-708.46"/>
<polygon fill="black" stroke="black" points="2163.5,-708.02 2167,-718.02 2170.5,-708.02 2163.5,-708.02"/>
</g>
<!-- rr/find_best_moveReply&#45;&gt;/chess_client_async -->
<g id="edge32" class="edge">
<title>rr/find_best_moveReply&#45;&gt;/chess_client_async</title>
<path fill="none" stroke="black" d="M1149.11,-1259.57C1095.22,-1227.05 979.45,-1157.2 919.96,-1121.3"/>
<polygon fill="black" stroke="black" points="921.89,-1118.38 911.52,-1116.21 918.27,-1124.37 921.89,-1118.38"/>
</g>
<!-- rr/find_best_moveReply&#45;&gt;/game_controller -->
<g id="edge70" class="edge">
<title>rr/find_best_moveReply&#45;&gt;/game_controller</title>
<path fill="none" stroke="black" d="M1252.65,-1291.8C1275.54,-1295.72 1300.8,-1300.04 1324,-1304 1633.37,-1356.75 2002.56,-1419.33 2154.44,-1445.05"/>
<polygon fill="black" stroke="black" points="2153.49,-1448.44 2163.94,-1446.66 2154.66,-1441.54 2153.49,-1448.44"/>
</g>
<!-- rq/find_best_moveRequest&#45;&gt;/chess_engine -->
<g id="edge44" class="edge">
<title>rq/find_best_moveRequest&#45;&gt;/chess_engine</title>
<path fill="none" stroke="black" d="M906.9,-1259.68C961.42,-1227.01 1079.28,-1156.36 1138.9,-1120.63"/>
<polygon fill="black" stroke="black" points="1140.57,-1123.72 1147.34,-1115.57 1136.97,-1117.71 1140.57,-1123.72"/>
</g>
<!-- rq/add_three_intsRequest -->
<g id="node43" class="node">
<title>rq/add_three_intsRequest</title>
<polygon fill="gold" stroke="black" points="6081,-216 5927,-216 5927,-180 6081,-180 6081,-216"/>
<text text-anchor="middle" x="6004" y="-192.95" font-family="Times,serif" font-size="14.00">rq/add_three_intsRequest</text>
</g>
<!-- rq/add_three_intsRequest&#45;&gt;/minimal_service -->
<g id="edge51" class="edge">
<title>rq/add_three_intsRequest&#45;&gt;/minimal_service</title>
<path fill="none" stroke="black" d="M5989.25,-179.72C5962.4,-148.28 5905.43,-81.56 5873.98,-44.74"/>
<polygon fill="black" stroke="black" points="5876.71,-42.55 5867.56,-37.22 5871.39,-47.1 5876.71,-42.55"/>
</g>
<!-- rr/command_pose_lockReply -->
<g id="node46" class="node">
<title>rr/command_pose_lockReply</title>
<polygon fill="gold" stroke="black" points="3994.62,-1296 3817.38,-1296 3817.38,-1260 3994.62,-1260 3994.62,-1296"/>
<text text-anchor="middle" x="3906" y="-1272.95" font-family="Times,serif" font-size="14.00">rr/command_pose_lockReply</text>
</g>
<!-- rr/command_pose_lockReply&#45;&gt;/game_controller -->
<g id="edge67" class="edge">
<title>rr/command_pose_lockReply&#45;&gt;/game_controller</title>
<path fill="none" stroke="black" d="M3817.26,-1293.75C3794.1,-1297.36 3769.15,-1301.03 3746,-1304 3197.15,-1374.43 2533.4,-1431.63 2305.98,-1450.43"/>
<polygon fill="black" stroke="black" points="2305.7,-1446.94 2296.02,-1451.25 2306.27,-1453.91 2305.7,-1446.94"/>
</g>
<!-- rr/command_cluster_lockReply&#45;&gt;/game_controller -->
<g id="edge62" class="edge">
<title>rr/command_cluster_lockReply&#45;&gt;/game_controller</title>
<path fill="none" stroke="black" d="M1056.11,-936.48C953.53,-964.8 765.17,-1023.28 727,-1080 690.9,-1133.65 599.52,-1155.63 753,-1304 853.31,-1400.97 1843.08,-1443.53 2140.75,-1454.2"/>
<polygon fill="black" stroke="black" points="2140.26,-1457.69 2150.37,-1454.55 2140.5,-1450.69 2140.26,-1457.69"/>
</g>
<!-- rq/command_cluster_lockRequest&#45;&gt;/chessboard_classifier -->
<g id="edge14" class="edge">
<title>rq/command_cluster_lockRequest&#45;&gt;/chessboard_classifier</title>
<path fill="none" stroke="black" d="M836.05,-899.56C870.1,-888.78 915.76,-875.53 957,-867.5 1364.23,-788.24 1858.74,-754.96 2066.96,-743.76"/>
<polygon fill="black" stroke="black" points="2066.85,-747.28 2076.65,-743.25 2066.48,-740.29 2066.85,-747.28"/>
</g>
<!-- rq/chessboard_detectionRequest -->
<g id="node50" class="node">
<title>rq/chessboard_detectionRequest</title>
<polygon fill="gold" stroke="black" points="6415.38,-216 6224.62,-216 6224.62,-180 6415.38,-180 6415.38,-216"/>
<text text-anchor="middle" x="6320" y="-192.95" font-family="Times,serif" font-size="14.00">rq/chessboard_detectionRequest</text>
</g>
<!-- rq/chessboard_detectionRequest&#45;&gt;/chessboard_detector_fake -->
<g id="edge53" class="edge">
<title>rq/chessboard_detectionRequest&#45;&gt;/chessboard_detector_fake</title>
<path fill="none" stroke="black" d="M6335.92,-179.72C6365.01,-148.15 6426.88,-81 6460.71,-44.28"/>
<polygon fill="black" stroke="black" points="6463.05,-46.91 6467.25,-37.18 6457.9,-42.16 6463.05,-46.91"/>
</g>
<!-- rq/execute_bestmoveRequest&#45;&gt;/psuedo_state_controller -->
<g id="edge24" class="edge">
<title>rq/execute_bestmoveRequest&#45;&gt;/psuedo_state_controller</title>
<path fill="none" stroke="black" d="M3278.61,-1259.56C3247.56,-1249.26 3206.79,-1236.51 3170,-1227.5 2948.39,-1173.23 2682.81,-1131.28 2547.22,-1111.49"/>
<polygon fill="black" stroke="black" points="2547.99,-1108.06 2537.6,-1110.09 2546.99,-1114.99 2547.99,-1108.06"/>
</g>
<!-- rr/execute_bestmoveReply&#45;&gt;/game_controller -->
<g id="edge65" class="edge">
<title>rr/execute_bestmoveReply&#45;&gt;/game_controller</title>
<path fill="none" stroke="black" d="M2939.26,-1296.47C2782.95,-1331.6 2433.27,-1410.19 2289.06,-1442.6"/>
<polygon fill="black" stroke="black" points="2288.68,-1439.1 2279.69,-1444.71 2290.22,-1445.93 2288.68,-1439.1"/>
</g>
<!-- rq/pseudo_board_setupRequest&#45;&gt;/psuedo_state_controller -->
<g id="edge25" class="edge">
<title>rq/pseudo_board_setupRequest&#45;&gt;/psuedo_state_controller</title>
<path fill="none" stroke="black" d="M2675.5,-1259.65C2632.03,-1227.53 2539,-1158.82 2489.88,-1122.55"/>
<polygon fill="black" stroke="black" points="2492.01,-1119.77 2481.89,-1116.65 2487.85,-1125.4 2492.01,-1119.77"/>
</g>
<!-- rr/pseudo_board_setupReply&#45;&gt;/game_controller -->
<g id="edge63" class="edge">
<title>rr/pseudo_board_setupReply&#45;&gt;/game_controller</title>
<path fill="none" stroke="black" d="M2361.25,-1296.39C2334.5,-1327.92 2277.88,-1394.66 2246.71,-1431.4"/>
<polygon fill="black" stroke="black" points="2244.15,-1429.02 2240.35,-1438.91 2249.49,-1433.54 2244.15,-1429.02"/>
</g>
<!-- rr/chessboard_locatorReply -->
<g id="node55" class="node">
<title>rr/chessboard_locatorReply</title>
<polygon fill="gold" stroke="black" points="4806.62,-216 4641.38,-216 4641.38,-180 4806.62,-180 4806.62,-216"/>
<text text-anchor="middle" x="4724" y="-192.95" font-family="Times,serif" font-size="14.00">rr/chessboard_locatorReply</text>
</g>
<!-- rr/chessboard_locatorReply&#45;&gt;/test_chessboard_locator -->
<g id="edge30" class="edge">
<title>rr/chessboard_locatorReply&#45;&gt;/test_chessboard_locator</title>
<path fill="none" stroke="black" d="M4703.33,-179.72C4665.22,-147.88 4583.83,-79.86 4540.14,-43.36"/>
<polygon fill="black" stroke="black" points="4542.5,-40.76 4532.58,-37.04 4538.01,-46.14 4542.5,-40.76"/>
</g>
</g>
</svg>
