<?xml version="1.0" encoding="UTF-8" standalone="no"?>
<!DOCTYPE svg PUBLIC "-//W3C//DTD SVG 1.1//EN"
 "http://www.w3.org/Graphics/SVG/1.1/DTD/svg11.dtd">
<!-- Generated by graphviz version 9.0.0 (20230911.1827)
 -->
<!-- Title: rosgraph Pages: 1 -->
<svg width="4816pt" height="1080pt"
 viewBox="0.00 0.00 4816.00 1080.00" xmlns="http://www.w3.org/2000/svg" xmlns:xlink="http://www.w3.org/1999/xlink">
<g id="graph0" class="graph" transform="scale(1 1) rotate(0) translate(72 1008)">
<title>rosgraph</title>
<polygon fill="white" stroke="none" points="-72,72 -72,-1008 4744,-1008 4744,72 -72,72"/>
<!-- /camera -->
<g id="node1" class="node">
<title>/camera</title>
<ellipse fill="limegreen" stroke="black" cx="2315" cy="-18" rx="40.6" ry="18"/>
<text text-anchor="middle" x="2315" y="-12.95" font-family="Times,serif" font-size="14.00">/camera</text>
</g>
<!-- rt/camera_frame -->
<g id="node6" class="node">
<title>rt/camera_frame</title>
<polygon fill="gold" stroke="black" points="2368.38,-216 2261.62,-216 2261.62,-180 2368.38,-180 2368.38,-216"/>
<text text-anchor="middle" x="2315" y="-192.95" font-family="Times,serif" font-size="14.00">rt/camera_frame</text>
</g>
<!-- /camera&#45;&gt;rt/camera_frame -->
<g id="edge3" class="edge">
<title>/camera&#45;&gt;rt/camera_frame</title>
<path fill="none" stroke="black" d="M2315,-36.39C2315,-67.1 2315,-131.19 2315,-168.46"/>
<polygon fill="black" stroke="black" points="2311.5,-168.02 2315,-178.02 2318.5,-168.02 2311.5,-168.02"/>
</g>
<!-- rt/camera_sensor_settings -->
<g id="node14" class="node">
<title>rt/camera_sensor_settings</title>
<polygon fill="gold" stroke="black" points="2669.5,-216 2512.5,-216 2512.5,-180 2669.5,-180 2669.5,-216"/>
<text text-anchor="middle" x="2591" y="-192.95" font-family="Times,serif" font-size="14.00">rt/camera_sensor_settings</text>
</g>
<!-- /camera&#45;&gt;rt/camera_sensor_settings -->
<g id="edge1" class="edge">
<title>/camera&#45;&gt;rt/camera_sensor_settings</title>
<path fill="none" stroke="black" d="M2337.12,-33.27C2384.52,-63.84 2496.3,-135.92 2554.43,-173.42"/>
<polygon fill="black" stroke="black" points="2552.39,-176.26 2562.69,-178.74 2556.18,-170.38 2552.39,-176.26"/>
</g>
<!-- rt/keep_alive -->
<g id="node16" class="node">
<title>rt/keep_alive</title>
<polygon fill="gold" stroke="black" points="333.25,-936 246.75,-936 246.75,-900 333.25,-900 333.25,-936"/>
<text text-anchor="middle" x="290" y="-912.95" font-family="Times,serif" font-size="14.00">rt/keep_alive</text>
</g>
<!-- /camera&#45;&gt;rt/keep_alive -->
<g id="edge2" class="edge">
<title>/camera&#45;&gt;rt/keep_alive</title>
<path fill="none" stroke="black" d="M2274.82,-20.82C1967.41,-35.26 0,-137.05 0,-377 0,-377 0,-377 0,-559 0,-716.25 171.02,-843.1 250.4,-893.51"/>
<polygon fill="black" stroke="black" points="248.44,-896.42 258.77,-898.76 252.15,-890.49 248.44,-896.42"/>
</g>
<!-- /wifi_stats -->
<g id="node2" class="node">
<title>/wifi_stats</title>
<ellipse fill="limegreen" stroke="black" cx="1755" cy="-738" rx="49.3" ry="18"/>
<text text-anchor="middle" x="1755" y="-732.95" font-family="Times,serif" font-size="14.00">/wifi_stats</text>
</g>
<!-- rt/wifi_stats -->
<g id="node7" class="node">
<title>rt/wifi_stats</title>
<polygon fill="gold" stroke="black" points="661.25,-936 580.75,-936 580.75,-900 661.25,-900 661.25,-936"/>
<text text-anchor="middle" x="621" y="-912.95" font-family="Times,serif" font-size="14.00">rt/wifi_stats</text>
</g>
<!-- /wifi_stats&#45;&gt;rt/wifi_stats -->
<g id="edge8" class="edge">
<title>/wifi_stats&#45;&gt;rt/wifi_stats</title>
<path fill="none" stroke="black" d="M1710.2,-746.03C1530.68,-774.21 863.93,-878.87 672.62,-908.9"/>
<polygon fill="black" stroke="black" points="672.33,-905.4 662.99,-910.41 673.42,-912.32 672.33,-905.4"/>
</g>
<!-- /gui -->
<g id="node3" class="node">
<title>/gui</title>
<ellipse fill="limegreen" stroke="black" cx="2480" cy="-378" rx="27" ry="18"/>
<text text-anchor="middle" x="2480" y="-372.95" font-family="Times,serif" font-size="14.00">/gui</text>
</g>
<!-- rt/motors -->
<g id="node8" class="node">
<title>rt/motors</title>
<polygon fill="gold" stroke="black" points="2513.12,-576 2446.88,-576 2446.88,-540 2513.12,-540 2513.12,-576"/>
<text text-anchor="middle" x="2480" y="-552.95" font-family="Times,serif" font-size="14.00">rt/motors</text>
</g>
<!-- /gui&#45;&gt;rt/motors -->
<g id="edge16" class="edge">
<title>/gui&#45;&gt;rt/motors</title>
<path fill="none" stroke="black" d="M2480,-396.39C2480,-427.1 2480,-491.19 2480,-528.46"/>
<polygon fill="black" stroke="black" points="2476.5,-528.02 2480,-538.02 2483.5,-528.02 2476.5,-528.02"/>
</g>
<!-- rt/telemetry_data_log_enable -->
<g id="node9" class="node">
<title>rt/telemetry_data_log_enable</title>
<polygon fill="gold" stroke="black" points="1842.5,-576 1667.5,-576 1667.5,-540 1842.5,-540 1842.5,-576"/>
<text text-anchor="middle" x="1755" y="-552.95" font-family="Times,serif" font-size="14.00">rt/telemetry_data_log_enable</text>
</g>
<!-- /gui&#45;&gt;rt/telemetry_data_log_enable -->
<g id="edge13" class="edge">
<title>/gui&#45;&gt;rt/telemetry_data_log_enable</title>
<path fill="none" stroke="black" d="M2455.04,-385.13C2357.62,-409.05 2000.29,-496.78 1837.18,-536.82"/>
<polygon fill="black" stroke="black" points="1836.59,-533.36 1827.72,-539.15 1838.26,-540.16 1836.59,-533.36"/>
</g>
<!-- rt/set_period -->
<g id="node11" class="node">
<title>rt/set_period</title>
<polygon fill="gold" stroke="black" points="3611.12,-576 3526.88,-576 3526.88,-540 3611.12,-540 3611.12,-576"/>
<text text-anchor="middle" x="3569" y="-552.95" font-family="Times,serif" font-size="14.00">rt/set_period</text>
</g>
<!-- /gui&#45;&gt;rt/set_period -->
<g id="edge15" class="edge">
<title>/gui&#45;&gt;rt/set_period</title>
<path fill="none" stroke="black" d="M2506.11,-383.27C2647.24,-406.34 3319.69,-516.25 3515.43,-548.24"/>
<polygon fill="black" stroke="black" points="3514.63,-551.66 3525.06,-549.82 3515.76,-544.75 3514.63,-551.66"/>
</g>
<!-- rt/log_level -->
<g id="node17" class="node">
<title>rt/log_level</title>
<polygon fill="gold" stroke="black" points="2065.12,-576 1986.88,-576 1986.88,-540 2065.12,-540 2065.12,-576"/>
<text text-anchor="middle" x="2026" y="-552.95" font-family="Times,serif" font-size="14.00">rt/log_level</text>
</g>
<!-- /gui&#45;&gt;rt/log_level -->
<g id="edge12" class="edge">
<title>/gui&#45;&gt;rt/log_level</title>
<path fill="none" stroke="black" d="M2457.17,-387.95C2387.07,-415.44 2173.71,-499.09 2075.92,-537.43"/>
<polygon fill="black" stroke="black" points="2074.86,-534.08 2066.83,-540.99 2077.42,-540.6 2074.86,-534.08"/>
</g>
<!-- rt/play_buzzer -->
<g id="node18" class="node">
<title>rt/play_buzzer</title>
<polygon fill="gold" stroke="black" points="2303,-576 2209,-576 2209,-540 2303,-540 2303,-576"/>
<text text-anchor="middle" x="2256" y="-552.95" font-family="Times,serif" font-size="14.00">rt/play_buzzer</text>
</g>
<!-- /gui&#45;&gt;rt/play_buzzer -->
<g id="edge11" class="edge">
<title>/gui&#45;&gt;rt/play_buzzer</title>
<path fill="none" stroke="black" d="M2463.16,-392.38C2425.68,-422.17 2334.87,-494.33 2286.89,-532.46"/>
<polygon fill="black" stroke="black" points="2284.73,-529.7 2279.08,-538.66 2289.08,-535.18 2284.73,-529.7"/>
</g>
<!-- rt/enable_read -->
<g id="node20" class="node">
<title>rt/enable_read</title>
<polygon fill="gold" stroke="black" points="3848.62,-576 3755.38,-576 3755.38,-540 3848.62,-540 3848.62,-576"/>
<text text-anchor="middle" x="3802" y="-552.95" font-family="Times,serif" font-size="14.00">rt/enable_read</text>
</g>
<!-- /gui&#45;&gt;rt/enable_read -->
<g id="edge14" class="edge">
<title>/gui&#45;&gt;rt/enable_read</title>
<path fill="none" stroke="black" d="M2506.26,-382.43C2634.87,-399.23 3211.27,-474.74 3683,-540 3702.78,-542.74 3724.4,-545.8 3743.72,-548.57"/>
<polygon fill="black" stroke="black" points="3743.21,-552.03 3753.6,-549.99 3744.2,-545.1 3743.21,-552.03"/>
</g>
<!-- /serial_interface -->
<g id="node4" class="node">
<title>/serial_interface</title>
<ellipse fill="limegreen" stroke="black" cx="2256" cy="-738" rx="70.29" ry="18"/>
<text text-anchor="middle" x="2256" y="-732.95" font-family="Times,serif" font-size="14.00">/serial_interface</text>
</g>
<!-- rt/read_buzzer -->
<g id="node10" class="node">
<title>rt/read_buzzer</title>
<polygon fill="gold" stroke="black" points="1219,-936 1125,-936 1125,-900 1219,-900 1219,-936"/>
<text text-anchor="middle" x="1172" y="-912.95" font-family="Times,serif" font-size="14.00">rt/read_buzzer</text>
</g>
<!-- /serial_interface&#45;&gt;rt/read_buzzer -->
<g id="edge32" class="edge">
<title>/serial_interface&#45;&gt;rt/read_buzzer</title>
<path fill="none" stroke="black" d="M2198.1,-748.51C2010.31,-779.34 1419.35,-876.38 1230.58,-907.38"/>
<polygon fill="black" stroke="black" points="1230.06,-903.92 1220.75,-908.99 1231.19,-910.83 1230.06,-903.92"/>
</g>
<!-- rt/zumo_sensor_settings -->
<g id="node12" class="node">
<title>rt/zumo_sensor_settings</title>
<polygon fill="gold" stroke="black" points="1897,-936 1749,-936 1749,-900 1897,-900 1897,-936"/>
<text text-anchor="middle" x="1823" y="-912.95" font-family="Times,serif" font-size="14.00">rt/zumo_sensor_settings</text>
</g>
<!-- /serial_interface&#45;&gt;rt/zumo_sensor_settings -->
<g id="edge34" class="edge">
<title>/serial_interface&#45;&gt;rt/zumo_sensor_settings</title>
<path fill="none" stroke="black" d="M2219.83,-753.87C2143.36,-785.3 1965.02,-858.62 1875.8,-895.3"/>
<polygon fill="black" stroke="black" points="1874.69,-891.97 1866.77,-899.01 1877.35,-898.44 1874.69,-891.97"/>
</g>
<!-- rt/read_proximity_sensors -->
<g id="node13" class="node">
<title>rt/read_proximity_sensors</title>
<polygon fill="gold" stroke="black" points="2572.25,-936 2413.75,-936 2413.75,-900 2572.25,-900 2572.25,-936"/>
<text text-anchor="middle" x="2493" y="-912.95" font-family="Times,serif" font-size="14.00">rt/read_proximity_sensors</text>
</g>
<!-- /serial_interface&#45;&gt;rt/read_proximity_sensors -->
<g id="edge30" class="edge">
<title>/serial_interface&#45;&gt;rt/read_proximity_sensors</title>
<path fill="none" stroke="black" d="M2277.87,-755.43C2319.86,-786.96 2411.92,-856.1 2460.88,-892.88"/>
<polygon fill="black" stroke="black" points="2458.48,-895.45 2468.58,-898.66 2462.69,-889.85 2458.48,-895.45"/>
</g>
<!-- /serial_interface&#45;&gt;rt/keep_alive -->
<g id="edge33" class="edge">
<title>/serial_interface&#45;&gt;rt/keep_alive</title>
<path fill="none" stroke="black" d="M2190.59,-744.92C1887.79,-772.34 625.06,-886.66 345.12,-912.01"/>
<polygon fill="black" stroke="black" points="344.82,-908.52 335.18,-912.91 345.46,-915.49 344.82,-908.52"/>
</g>
<!-- rt/read_imu -->
<g id="node19" class="node">
<title>rt/read_imu</title>
<polygon fill="gold" stroke="black" points="2927.88,-936 2848.12,-936 2848.12,-900 2927.88,-900 2927.88,-936"/>
<text text-anchor="middle" x="2888" y="-912.95" font-family="Times,serif" font-size="14.00">rt/read_imu</text>
</g>
<!-- /serial_interface&#45;&gt;rt/read_imu -->
<g id="edge35" class="edge">
<title>/serial_interface&#45;&gt;rt/read_imu</title>
<path fill="none" stroke="black" d="M2301.96,-751.94C2416.98,-784.34 2716.64,-868.74 2836.93,-902.62"/>
<polygon fill="black" stroke="black" points="2835.97,-905.98 2846.54,-905.32 2837.87,-899.24 2835.97,-905.98"/>
</g>
<!-- rt/read_line_sensors -->
<g id="node23" class="node">
<title>rt/read_line_sensors</title>
<polygon fill="gold" stroke="black" points="3350.38,-936 3225.62,-936 3225.62,-900 3350.38,-900 3350.38,-936"/>
<text text-anchor="middle" x="3288" y="-912.95" font-family="Times,serif" font-size="14.00">rt/read_line_sensors</text>
</g>
<!-- /serial_interface&#45;&gt;rt/read_line_sensors -->
<g id="edge36" class="edge">
<title>/serial_interface&#45;&gt;rt/read_line_sensors</title>
<path fill="none" stroke="black" d="M2312.95,-748.82C2488,-779.01 3018.07,-870.44 3214.09,-904.25"/>
<polygon fill="black" stroke="black" points="3213.46,-907.69 3223.91,-905.95 3214.65,-900.8 3213.46,-907.69"/>
</g>
<!-- rt/read_encoders -->
<g id="node24" class="node">
<title>rt/read_encoders</title>
<polygon fill="gold" stroke="black" points="952,-936 846,-936 846,-900 952,-900 952,-936"/>
<text text-anchor="middle" x="899" y="-912.95" font-family="Times,serif" font-size="14.00">rt/read_encoders</text>
</g>
<!-- /serial_interface&#45;&gt;rt/read_encoders -->
<g id="edge31" class="edge">
<title>/serial_interface&#45;&gt;rt/read_encoders</title>
<path fill="none" stroke="black" d="M2194.61,-747.05C1969.84,-776.54 1192.94,-878.44 963.37,-908.56"/>
<polygon fill="black" stroke="black" points="963.17,-905.05 953.71,-909.82 964.08,-911.99 963.17,-905.05"/>
</g>
<!-- /ups_reading -->
<g id="node5" class="node">
<title>/ups_reading</title>
<ellipse fill="limegreen" stroke="black" cx="3790" cy="-738" rx="58.52" ry="18"/>
<text text-anchor="middle" x="3790" y="-732.95" font-family="Times,serif" font-size="14.00">/ups_reading</text>
</g>
<!-- rt/read_ups_charging -->
<g id="node15" class="node">
<title>rt/read_ups_charging</title>
<polygon fill="gold" stroke="black" points="3896.38,-936 3765.62,-936 3765.62,-900 3896.38,-900 3896.38,-936"/>
<text text-anchor="middle" x="3831" y="-912.95" font-family="Times,serif" font-size="14.00">rt/read_ups_charging</text>
</g>
<!-- /ups_reading&#45;&gt;rt/read_ups_charging -->
<g id="edge44" class="edge">
<title>/ups_reading&#45;&gt;rt/read_ups_charging</title>
<path fill="none" stroke="black" d="M3794.01,-756.39C3801.08,-787.1 3815.84,-851.19 3824.43,-888.46"/>
<polygon fill="black" stroke="black" points="3820.98,-889.1 3826.64,-898.06 3827.8,-887.53 3820.98,-889.1"/>
</g>
<!-- rt/read_ups_battery -->
<g id="node21" class="node">
<title>rt/read_ups_battery</title>
<polygon fill="gold" stroke="black" points="4309.5,-936 4188.5,-936 4188.5,-900 4309.5,-900 4309.5,-936"/>
<text text-anchor="middle" x="4249" y="-912.95" font-family="Times,serif" font-size="14.00">rt/read_ups_battery</text>
</g>
<!-- /ups_reading&#45;&gt;rt/read_ups_battery -->
<g id="edge43" class="edge">
<title>/ups_reading&#45;&gt;rt/read_ups_battery</title>
<path fill="none" stroke="black" d="M3825.25,-752.67C3904.59,-783.44 4097.69,-858.32 4193.37,-895.43"/>
<polygon fill="black" stroke="black" points="4191.99,-898.65 4202.58,-899 4194.52,-892.12 4191.99,-898.65"/>
</g>
<!-- rt/ups_sensor_settings -->
<g id="node22" class="node">
<title>rt/ups_sensor_settings</title>
<polygon fill="gold" stroke="black" points="4672,-936 4536,-936 4536,-900 4672,-900 4672,-936"/>
<text text-anchor="middle" x="4604" y="-912.95" font-family="Times,serif" font-size="14.00">rt/ups_sensor_settings</text>
</g>
<!-- /ups_reading&#45;&gt;rt/ups_sensor_settings -->
<g id="edge45" class="edge">
<title>/ups_reading&#45;&gt;rt/ups_sensor_settings</title>
<path fill="none" stroke="black" d="M3836.69,-749.21C3970.51,-778.47 4356.6,-862.9 4524.48,-899.61"/>
<polygon fill="black" stroke="black" points="4523.7,-903.02 4534.22,-901.74 4525.2,-896.18 4523.7,-903.02"/>
</g>
<!-- rt/camera_frame&#45;&gt;/gui -->
<g id="edge24" class="edge">
<title>rt/camera_frame&#45;&gt;/gui</title>
<path fill="none" stroke="black" d="M2331.12,-216.39C2361.02,-248.65 2425.08,-317.75 2458.58,-353.89"/>
<polygon fill="black" stroke="black" points="2456.01,-356.27 2465.37,-361.22 2461.14,-351.51 2456.01,-356.27"/>
</g>
<!-- rt/wifi_stats&#45;&gt;/gui -->
<g id="edge22" class="edge">
<title>rt/wifi_stats&#45;&gt;/gui</title>
<path fill="none" stroke="black" d="M646.09,-899.51C735.05,-838.44 1045.58,-633.34 1334,-540 1752.8,-404.47 2294.13,-383 2441.52,-379.62"/>
<polygon fill="black" stroke="black" points="2441.57,-383.12 2451.49,-379.41 2441.42,-376.12 2441.57,-383.12"/>
</g>
<!-- rt/motors&#45;&gt;/serial_interface -->
<g id="edge38" class="edge">
<title>rt/motors&#45;&gt;/serial_interface</title>
<path fill="none" stroke="black" d="M2458.11,-576.39C2417.64,-608.56 2331.07,-677.35 2285.48,-713.57"/>
<polygon fill="black" stroke="black" points="2283.5,-710.67 2277.85,-719.63 2287.86,-716.15 2283.5,-710.67"/>
</g>
<!-- rt/telemetry_data_log_enable&#45;&gt;/camera -->
<g id="edge5" class="edge">
<title>rt/telemetry_data_log_enable&#45;&gt;/camera</title>
<path fill="none" stroke="black" d="M1771.74,-539.77C1824.32,-485.78 1991.26,-315.41 2135,-180 2188.59,-129.51 2253.36,-72.53 2288.76,-41.72"/>
<polygon fill="black" stroke="black" points="2290.7,-44.66 2295.95,-35.46 2286.11,-39.38 2290.7,-44.66"/>
</g>
<!-- rt/telemetry_data_log_enable&#45;&gt;/wifi_stats -->
<g id="edge9" class="edge">
<title>rt/telemetry_data_log_enable&#45;&gt;/wifi_stats</title>
<path fill="none" stroke="black" d="M1755,-576.39C1755,-607.1 1755,-671.19 1755,-708.46"/>
<polygon fill="black" stroke="black" points="1751.5,-708.02 1755,-718.02 1758.5,-708.02 1751.5,-708.02"/>
</g>
<!-- rt/telemetry_data_log_enable&#45;&gt;/serial_interface -->
<g id="edge42" class="edge">
<title>rt/telemetry_data_log_enable&#45;&gt;/serial_interface</title>
<path fill="none" stroke="black" d="M1803.95,-576.39C1899.26,-610.25 2108.83,-684.71 2205.42,-719.03"/>
<polygon fill="black" stroke="black" points="2204.05,-722.26 2214.65,-722.31 2206.4,-715.66 2204.05,-722.26"/>
</g>
<!-- rt/telemetry_data_log_enable&#45;&gt;/ups_reading -->
<g id="edge47" class="edge">
<title>rt/telemetry_data_log_enable&#45;&gt;/ups_reading</title>
<path fill="none" stroke="black" d="M1842.99,-568.67C1866.39,-571.16 1891.64,-573.76 1915,-576 2621.31,-643.84 3478.66,-712.45 3722.45,-731.7"/>
<polygon fill="black" stroke="black" points="3721.84,-735.16 3732.08,-732.46 3722.39,-728.18 3721.84,-735.16"/>
</g>
<!-- rt/read_buzzer&#45;&gt;/gui -->
<g id="edge26" class="edge">
<title>rt/read_buzzer&#45;&gt;/gui</title>
<path fill="none" stroke="black" d="M1182.15,-899.82C1219.13,-838.92 1353.57,-632.02 1525,-540 1689.06,-451.94 2284.06,-395.74 2441.54,-382.19"/>
<polygon fill="black" stroke="black" points="2441.77,-385.68 2451.43,-381.35 2441.17,-378.71 2441.77,-385.68"/>
</g>
<!-- rt/set_period&#45;&gt;/camera -->
<g id="edge7" class="edge">
<title>rt/set_period&#45;&gt;/camera</title>
<path fill="none" stroke="black" d="M3533.06,-539.6C3418.55,-484.41 3051.62,-309.25 2741,-180 2601.68,-122.03 2433.3,-61.01 2356.64,-33.71"/>
<polygon fill="black" stroke="black" points="2358.03,-30.49 2347.44,-30.43 2355.69,-37.08 2358.03,-30.49"/>
</g>
<!-- rt/set_period&#45;&gt;/serial_interface -->
<g id="edge37" class="edge">
<title>rt/set_period&#45;&gt;/serial_interface</title>
<path fill="none" stroke="black" d="M3526.43,-564.77C3336.94,-590.46 2568.95,-694.57 2328.4,-727.18"/>
<polygon fill="black" stroke="black" points="2327.95,-723.71 2318.52,-728.52 2328.89,-730.65 2327.95,-723.71"/>
</g>
<!-- rt/set_period&#45;&gt;/ups_reading -->
<g id="edge48" class="edge">
<title>rt/set_period&#45;&gt;/ups_reading</title>
<path fill="none" stroke="black" d="M3590.59,-576.39C3630.54,-608.57 3716.01,-677.41 3760.98,-713.62"/>
<polygon fill="black" stroke="black" points="3758.76,-716.34 3768.75,-719.88 3763.15,-710.88 3758.76,-716.34"/>
</g>
<!-- rt/zumo_sensor_settings&#45;&gt;/gui -->
<g id="edge29" class="edge">
<title>rt/zumo_sensor_settings&#45;&gt;/gui</title>
<path fill="none" stroke="black" d="M1792.03,-899.6C1749.38,-873.96 1673.4,-821.84 1634,-756 1514.69,-556.64 1560.85,-580.92 1595,-540 1705.68,-407.37 2286.02,-383.73 2441.6,-379.76"/>
<polygon fill="black" stroke="black" points="2441.45,-383.27 2451.36,-379.53 2441.28,-376.27 2441.45,-383.27"/>
</g>
<!-- rt/read_proximity_sensors&#45;&gt;/gui -->
<g id="edge19" class="edge">
<title>rt/read_proximity_sensors&#45;&gt;/gui</title>
<path fill="none" stroke="black" d="M2503.83,-899.55C2535.9,-845.61 2625.7,-676.91 2585,-540 2568.63,-484.92 2526.78,-431.1 2501.13,-401.76"/>
<polygon fill="black" stroke="black" points="2504.01,-399.73 2494.74,-394.6 2498.79,-404.39 2504.01,-399.73"/>
</g>
<!-- rt/camera_sensor_settings&#45;&gt;/gui -->
<g id="edge18" class="edge">
<title>rt/camera_sensor_settings&#45;&gt;/gui</title>
<path fill="none" stroke="black" d="M2580.15,-216.39C2560.51,-247.9 2518.95,-314.54 2496.02,-351.31"/>
<polygon fill="black" stroke="black" points="2493.2,-349.21 2490.88,-359.55 2499.14,-352.91 2493.2,-349.21"/>
</g>
<!-- rt/read_ups_charging&#45;&gt;/gui -->
<g id="edge21" class="edge">
<title>rt/read_ups_charging&#45;&gt;/gui</title>
<path fill="none" stroke="black" d="M3844.3,-899.79C3887.81,-841.35 4017.68,-648.08 3921,-540 3824.49,-432.11 2738.07,-388.12 2518.53,-380.3"/>
<polygon fill="black" stroke="black" points="2518.94,-376.82 2508.82,-379.96 2518.69,-383.81 2518.94,-376.82"/>
</g>
<!-- rt/keep_alive&#45;&gt;/gui -->
<g id="edge20" class="edge">
<title>rt/keep_alive&#45;&gt;/gui</title>
<path fill="none" stroke="black" d="M323.14,-899.64C440.48,-839 848.62,-635.17 1210,-540 1684.44,-415.06 2284.98,-385.88 2441.38,-380.21"/>
<polygon fill="black" stroke="black" points="2441.3,-383.72 2451.17,-379.87 2441.06,-376.72 2441.3,-383.72"/>
</g>
<!-- rt/log_level&#45;&gt;/camera -->
<g id="edge6" class="edge">
<title>rt/log_level&#45;&gt;/camera</title>
<path fill="none" stroke="black" d="M2031.76,-539.73C2050.42,-484.92 2112.46,-310.77 2190,-180 2220.88,-127.92 2266.33,-73.53 2293.07,-43.19"/>
<polygon fill="black" stroke="black" points="2295.38,-45.86 2299.4,-36.06 2290.14,-41.21 2295.38,-45.86"/>
</g>
<!-- rt/log_level&#45;&gt;/wifi_stats -->
<g id="edge10" class="edge">
<title>rt/log_level&#45;&gt;/wifi_stats</title>
<path fill="none" stroke="black" d="M1999.52,-576.39C1949.62,-609.17 1841.81,-679.98 1787.56,-715.61"/>
<polygon fill="black" stroke="black" points="1785.79,-712.59 1779.35,-721.01 1789.63,-718.44 1785.79,-712.59"/>
</g>
<!-- rt/log_level&#45;&gt;/serial_interface -->
<g id="edge40" class="edge">
<title>rt/log_level&#45;&gt;/serial_interface</title>
<path fill="none" stroke="black" d="M2048.47,-576.39C2090.03,-608.56 2178.92,-677.35 2225.73,-713.57"/>
<polygon fill="black" stroke="black" points="2223.53,-716.3 2233.58,-719.65 2227.82,-710.76 2223.53,-716.3"/>
</g>
<!-- rt/log_level&#45;&gt;/ups_reading -->
<g id="edge46" class="edge">
<title>rt/log_level&#45;&gt;/ups_reading</title>
<path fill="none" stroke="black" d="M2065.48,-565.59C2086.65,-568.98 2113.21,-573.02 2137,-576 2751.1,-652.87 3497.47,-714.02 3722.6,-731.77"/>
<polygon fill="black" stroke="black" points="3722.11,-735.24 3732.36,-732.54 3722.66,-728.26 3722.11,-735.24"/>
</g>
<!-- rt/play_buzzer&#45;&gt;/serial_interface -->
<g id="edge41" class="edge">
<title>rt/play_buzzer&#45;&gt;/serial_interface</title>
<path fill="none" stroke="black" d="M2256,-576.39C2256,-607.1 2256,-671.19 2256,-708.46"/>
<polygon fill="black" stroke="black" points="2252.5,-708.02 2256,-718.02 2259.5,-708.02 2252.5,-708.02"/>
</g>
<!-- rt/read_imu&#45;&gt;/gui -->
<g id="edge23" class="edge">
<title>rt/read_imu&#45;&gt;/gui</title>
<path fill="none" stroke="black" d="M2882.5,-899.57C2863.96,-842.78 2799.13,-659.89 2698,-540 2642.98,-474.77 2556.49,-421.16 2510.75,-395.44"/>
<polygon fill="black" stroke="black" points="2512.6,-392.46 2502.16,-390.68 2509.21,-398.59 2512.6,-392.46"/>
</g>
<!-- rt/enable_read&#45;&gt;/camera -->
<g id="edge4" class="edge">
<title>rt/enable_read&#45;&gt;/camera</title>
<path fill="none" stroke="black" d="M3764.44,-539.54C3641.21,-482.67 3237.24,-299.55 2891,-180 2697.23,-113.09 2459.74,-53.63 2361.22,-29.92"/>
<polygon fill="black" stroke="black" points="2362.2,-26.55 2351.66,-27.63 2360.56,-33.36 2362.2,-26.55"/>
</g>
<!-- rt/enable_read&#45;&gt;/serial_interface -->
<g id="edge39" class="edge">
<title>rt/enable_read&#45;&gt;/serial_interface</title>
<path fill="none" stroke="black" d="M3755.13,-566.02C3733.24,-569.22 3706.81,-572.96 3683,-576 3167.28,-641.92 2544.85,-707.28 2331.78,-729.25"/>
<polygon fill="black" stroke="black" points="2331.53,-725.75 2321.95,-730.26 2332.25,-732.72 2331.53,-725.75"/>
</g>
<!-- rt/enable_read&#45;&gt;/ups_reading -->
<g id="edge49" class="edge">
<title>rt/enable_read&#45;&gt;/ups_reading</title>
<path fill="none" stroke="black" d="M3800.83,-576.39C3798.76,-607.1 3794.44,-671.19 3791.92,-708.46"/>
<polygon fill="black" stroke="black" points="3788.46,-707.82 3791.28,-718.03 3795.44,-708.29 3788.46,-707.82"/>
</g>
<!-- rt/read_ups_battery&#45;&gt;/gui -->
<g id="edge28" class="edge">
<title>rt/read_ups_battery&#45;&gt;/gui</title>
<path fill="none" stroke="black" d="M4245.41,-899.65C4231.67,-838.16 4176.26,-629.53 4041,-540 3909.87,-453.21 2745.69,-392.02 2518.38,-380.84"/>
<polygon fill="black" stroke="black" points="2518.77,-377.36 2508.61,-380.36 2518.42,-384.35 2518.77,-377.36"/>
</g>
<!-- rt/ups_sensor_settings&#45;&gt;/gui -->
<g id="edge17" class="edge">
<title>rt/ups_sensor_settings&#45;&gt;/gui</title>
<path fill="none" stroke="black" d="M4591,-899.79C4543.1,-837.87 4368.81,-625.56 4169,-540 3857.41,-406.58 2741.04,-382.93 2518.68,-379.51"/>
<polygon fill="black" stroke="black" points="2518.89,-376.02 2508.84,-379.37 2518.79,-383.01 2518.89,-376.02"/>
</g>
<!-- rt/read_line_sensors&#45;&gt;/gui -->
<g id="edge27" class="edge">
<title>rt/read_line_sensors&#45;&gt;/gui</title>
<path fill="none" stroke="black" d="M3270.04,-899.86C3210.03,-843.23 3009.59,-658.91 2820,-540 2714.04,-473.54 2576.35,-416.42 2513.69,-391.85"/>
<polygon fill="black" stroke="black" points="2515.24,-388.7 2504.65,-388.34 2512.7,-395.22 2515.24,-388.7"/>
</g>
<!-- rt/read_encoders&#45;&gt;/gui -->
<g id="edge25" class="edge">
<title>rt/read_encoders&#45;&gt;/gui</title>
<path fill="none" stroke="black" d="M916.75,-899.85C980.84,-839.03 1208.72,-632.37 1439,-540 1808.02,-391.98 2301.08,-379.26 2441.33,-378.78"/>
<polygon fill="black" stroke="black" points="2441.17,-382.28 2451.17,-378.77 2441.16,-375.28 2441.17,-382.28"/>
</g>
</g>
</svg>
