<?xml version="1.0" encoding="UTF-8" standalone="no"?>
<!DOCTYPE svg PUBLIC "-//W3C//DTD SVG 1.1//EN"
 "http://www.w3.org/Graphics/SVG/1.1/DTD/svg11.dtd">
<!-- Generated by graphviz version 9.0.0 (20230911.1827)
 -->
<!-- Title: rosgraph Pages: 1 -->
<svg width="1717pt" height="1260pt"
 viewBox="0.00 0.00 1717.32 1260.00" xmlns="http://www.w3.org/2000/svg" xmlns:xlink="http://www.w3.org/1999/xlink">
<g id="graph0" class="graph" transform="scale(1 1) rotate(0) translate(72 1188)">
<title>rosgraph</title>
<polygon fill="white" stroke="none" points="-72,72 -72,-1188 1645.32,-1188 1645.32,72 -72,72"/>
<g id="clust1" class="cluster">
<title>cluster_0</title>
<polygon fill="lightskyblue" stroke="black" stroke-width="2" points="1091,-327.5 1091,-404 1562,-404 1562,-327.5 1091,-327.5"/>
<text text-anchor="middle" x="1326.5" y="-334.7" font-family="Times,serif" font-size="14.00">/get_route_poses</text>
</g>
<!-- /vehicle_simulator -->
<g id="node1" class="node">
<title>/vehicle_simulator</title>
<ellipse fill="limegreen" stroke="black" cx="159" cy="-198" rx="80.01" ry="18"/>
<text text-anchor="middle" x="159" y="-192.95" font-family="Times,serif" font-size="14.00">/vehicle_simulator</text>
</g>
<!-- rt/vehicle_pose -->
<g id="node11" class="node">
<title>rt/vehicle_pose</title>
<polygon fill="gold" stroke="black" points="431.25,-396 332.75,-396 332.75,-360 431.25,-360 431.25,-396"/>
<text text-anchor="middle" x="382" y="-372.95" font-family="Times,serif" font-size="14.00">rt/vehicle_pose</text>
</g>
<!-- /vehicle_simulator&#45;&gt;rt/vehicle_pose -->
<g id="edge1" class="edge">
<title>/vehicle_simulator&#45;&gt;rt/vehicle_pose</title>
<path fill="none" stroke="black" d="M179.98,-215.75C219.54,-247.32 305.31,-315.78 351.34,-352.53"/>
<polygon fill="black" stroke="black" points="349.08,-355.2 359.08,-358.7 353.44,-349.73 349.08,-355.2"/>
</g>
<!-- /motion_spec_provider -->
<g id="node2" class="node">
<title>/motion_spec_provider</title>
<ellipse fill="limegreen" stroke="black" cx="638" cy="-198" rx="96.9" ry="18"/>
<text text-anchor="middle" x="638" y="-192.95" font-family="Times,serif" font-size="14.00">/motion_spec_provider</text>
</g>
<!-- rt/look_ahead_specs -->
<g id="node15" class="node">
<title>rt/look_ahead_specs</title>
<polygon fill="gold" stroke="black" points="701.12,-396 574.88,-396 574.88,-360 701.12,-360 701.12,-396"/>
<text text-anchor="middle" x="638" y="-372.95" font-family="Times,serif" font-size="14.00">rt/look_ahead_specs</text>
</g>
<!-- /motion_spec_provider&#45;&gt;rt/look_ahead_specs -->
<g id="edge4" class="edge">
<title>/motion_spec_provider&#45;&gt;rt/look_ahead_specs</title>
<path fill="none" stroke="black" d="M638,-216.39C638,-247.1 638,-311.19 638,-348.46"/>
<polygon fill="black" stroke="black" points="634.5,-348.02 638,-358.02 641.5,-348.02 634.5,-348.02"/>
</g>
<!-- /goal_pose_visualizer -->
<g id="node3" class="node">
<title>/goal_pose_visualizer</title>
<ellipse fill="limegreen" stroke="black" cx="779" cy="-918" rx="91.27" ry="18"/>
<text text-anchor="middle" x="779" y="-912.95" font-family="Times,serif" font-size="14.00">/goal_pose_visualizer</text>
</g>
<!-- rt/look_ahead_pose -->
<g id="node9" class="node">
<title>rt/look_ahead_pose</title>
<polygon fill="gold" stroke="black" points="711.88,-1116 590.12,-1116 590.12,-1080 711.88,-1080 711.88,-1116"/>
<text text-anchor="middle" x="651" y="-1092.95" font-family="Times,serif" font-size="14.00">rt/look_ahead_pose</text>
</g>
<!-- /goal_pose_visualizer&#45;&gt;rt/look_ahead_pose -->
<g id="edge5" class="edge">
<title>/goal_pose_visualizer&#45;&gt;rt/look_ahead_pose</title>
<path fill="none" stroke="black" d="M766.73,-936.07C744.33,-967.22 696.67,-1033.49 670.03,-1070.54"/>
<polygon fill="black" stroke="black" points="667.3,-1068.33 664.31,-1078.49 672.99,-1072.42 667.3,-1068.33"/>
</g>
<!-- rt/closest_point -->
<g id="node16" class="node">
<title>rt/closest_point</title>
<polygon fill="gold" stroke="black" points="955.62,-1116 856.38,-1116 856.38,-1080 955.62,-1080 955.62,-1116"/>
<text text-anchor="middle" x="906" y="-1092.95" font-family="Times,serif" font-size="14.00">rt/closest_point</text>
</g>
<!-- /goal_pose_visualizer&#45;&gt;rt/closest_point -->
<g id="edge6" class="edge">
<title>/goal_pose_visualizer&#45;&gt;rt/closest_point</title>
<path fill="none" stroke="black" d="M791.18,-936.07C813.4,-967.22 860.69,-1033.49 887.12,-1070.54"/>
<polygon fill="black" stroke="black" points="884.14,-1072.38 892.79,-1078.49 889.83,-1068.32 884.14,-1072.38"/>
</g>
<!-- /route_pose_visualizer -->
<g id="node4" class="node">
<title>/route_pose_visualizer</title>
<ellipse fill="limegreen" stroke="black" cx="1148" cy="-198" rx="94.34" ry="18"/>
<text text-anchor="middle" x="1148" y="-192.95" font-family="Times,serif" font-size="14.00">/route_pose_visualizer</text>
</g>
<!-- rt/route_pose_viz -->
<g id="node14" class="node">
<title>rt/route_pose_viz</title>
<polygon fill="gold" stroke="black" points="955.25,-396 844.75,-396 844.75,-360 955.25,-360 955.25,-396"/>
<text text-anchor="middle" x="900" y="-372.95" font-family="Times,serif" font-size="14.00">rt/route_pose_viz</text>
</g>
<!-- /route_pose_visualizer&#45;&gt;rt/route_pose_viz -->
<g id="edge8" class="edge">
<title>/route_pose_visualizer&#45;&gt;rt/route_pose_viz</title>
<path fill="none" stroke="black" d="M1124.67,-215.75C1080.49,-247.45 984.49,-316.36 933.46,-352.98"/>
<polygon fill="black" stroke="black" points="931.49,-350.09 925.41,-358.76 935.57,-355.78 931.49,-350.09"/>
</g>
<!-- rq/get_route_posesRequest -->
<g id="node17" class="node">
<title>rq/get_route_posesRequest</title>
<polygon fill="gold" stroke="black" points="1261.12,-396 1098.88,-396 1098.88,-360 1261.12,-360 1261.12,-396"/>
<text text-anchor="middle" x="1180" y="-372.95" font-family="Times,serif" font-size="14.00">rq/get_route_posesRequest</text>
</g>
<!-- /route_pose_visualizer&#45;&gt;rq/get_route_posesRequest -->
<g id="edge10" class="edge">
<title>/route_pose_visualizer&#45;&gt;rq/get_route_posesRequest</title>
<path fill="none" stroke="black" d="M1151.13,-216.39C1156.65,-247.1 1168.17,-311.19 1174.87,-348.46"/>
<polygon fill="black" stroke="black" points="1171.38,-348.83 1176.59,-358.05 1178.27,-347.59 1171.38,-348.83"/>
</g>
<!-- /route_pose_generator -->
<g id="node5" class="node">
<title>/route_pose_generator</title>
<ellipse fill="limegreen" stroke="black" cx="1480" cy="-198" rx="93.32" ry="18"/>
<text text-anchor="middle" x="1480" y="-192.95" font-family="Times,serif" font-size="14.00">/route_pose_generator</text>
</g>
<!-- rr/get_route_posesReply -->
<g id="node18" class="node">
<title>rr/get_route_posesReply</title>
<polygon fill="gold" stroke="black" points="1554.38,-396 1405.62,-396 1405.62,-360 1554.38,-360 1554.38,-396"/>
<text text-anchor="middle" x="1480" y="-372.95" font-family="Times,serif" font-size="14.00">rr/get_route_posesReply</text>
</g>
<!-- /route_pose_generator&#45;&gt;rr/get_route_posesReply -->
<g id="edge12" class="edge">
<title>/route_pose_generator&#45;&gt;rr/get_route_posesReply</title>
<path fill="none" stroke="black" d="M1480,-216.39C1480,-247.1 1480,-311.19 1480,-348.46"/>
<polygon fill="black" stroke="black" points="1476.5,-348.02 1480,-358.02 1483.5,-348.02 1476.5,-348.02"/>
</g>
<!-- /carrot_creator -->
<g id="node6" class="node">
<title>/carrot_creator</title>
<ellipse fill="limegreen" stroke="black" cx="780" cy="-558" rx="65.17" ry="18"/>
<text text-anchor="middle" x="780" y="-552.95" font-family="Times,serif" font-size="14.00">/carrot_creator</text>
</g>
<!-- rt/current_goal_pose -->
<g id="node12" class="node">
<title>rt/current_goal_pose</title>
<polygon fill="gold" stroke="black" points="842.88,-756 715.12,-756 715.12,-720 842.88,-720 842.88,-756"/>
<text text-anchor="middle" x="779" y="-732.95" font-family="Times,serif" font-size="14.00">rt/current_goal_pose</text>
</g>
<!-- /carrot_creator&#45;&gt;rt/current_goal_pose -->
<g id="edge13" class="edge">
<title>/carrot_creator&#45;&gt;rt/current_goal_pose</title>
<path fill="none" stroke="black" d="M779.9,-576.39C779.73,-607.1 779.37,-671.19 779.16,-708.46"/>
<polygon fill="black" stroke="black" points="775.66,-708 779.11,-718.02 782.66,-708.04 775.66,-708"/>
</g>
<!-- /carrot_creator&#45;&gt;rq/get_route_posesRequest -->
<g id="edge16" class="edge">
<title>/carrot_creator&#45;&gt;rq/get_route_posesRequest</title>
<path fill="none" stroke="black" d="M813.24,-542.21C883.59,-510.9 1047.81,-437.83 1130.53,-401.02"/>
<polygon fill="black" stroke="black" points="1131.82,-404.27 1139.54,-397.01 1128.98,-397.87 1131.82,-404.27"/>
</g>
<!-- /vehicle_controller -->
<g id="node7" class="node">
<title>/vehicle_controller</title>
<ellipse fill="limegreen" stroke="black" cx="381" cy="-918" rx="80.52" ry="18"/>
<text text-anchor="middle" x="381" y="-912.95" font-family="Times,serif" font-size="14.00">/vehicle_controller</text>
</g>
<!-- rt/vehicle_command_ackermann -->
<g id="node10" class="node">
<title>rt/vehicle_command_ackermann</title>
<polygon fill="gold" stroke="black" points="335.62,-1116 140.38,-1116 140.38,-1080 335.62,-1080 335.62,-1116"/>
<text text-anchor="middle" x="238" y="-1092.95" font-family="Times,serif" font-size="14.00">rt/vehicle_command_ackermann</text>
</g>
<!-- /vehicle_controller&#45;&gt;rt/vehicle_command_ackermann -->
<g id="edge18" class="edge">
<title>/vehicle_controller&#45;&gt;rt/vehicle_command_ackermann</title>
<path fill="none" stroke="black" d="M367.29,-936.07C342.16,-967.35 288.57,-1034.06 258.88,-1071.01"/>
<polygon fill="black" stroke="black" points="256.36,-1068.55 252.83,-1078.54 261.82,-1072.94 256.36,-1068.55"/>
</g>
<!-- rt/e_stop -->
<g id="node8" class="node">
<title>rt/e_stop</title>
<polygon fill="gold" stroke="black" points="280.62,-756 217.38,-756 217.38,-720 280.62,-720 280.62,-756"/>
<text text-anchor="middle" x="249" y="-732.95" font-family="Times,serif" font-size="14.00">rt/e_stop</text>
</g>
<!-- rt/e_stop&#45;&gt;/vehicle_controller -->
<g id="edge19" class="edge">
<title>rt/e_stop&#45;&gt;/vehicle_controller</title>
<path fill="none" stroke="black" d="M261.9,-756.39C285.12,-787.71 334.1,-853.76 361.46,-890.65"/>
<polygon fill="black" stroke="black" points="358.58,-892.64 367.34,-898.58 364.2,-888.47 358.58,-892.64"/>
</g>
<!-- rt/vehicle_command_ackermann&#45;&gt;/vehicle_simulator -->
<g id="edge3" class="edge">
<title>rt/vehicle_command_ackermann&#45;&gt;/vehicle_simulator</title>
<path fill="none" stroke="black" d="M215.18,-1079.65C155.61,-1032.21 0,-893.49 0,-739 0,-557 0,-557 0,-557 0,-422.32 95.16,-281.77 138.24,-225.03"/>
<polygon fill="black" stroke="black" points="140.91,-227.3 144.24,-217.24 135.37,-223.03 140.91,-227.3"/>
</g>
<!-- rt/vehicle_pose&#45;&gt;/carrot_creator -->
<g id="edge14" class="edge">
<title>rt/vehicle_pose&#45;&gt;/carrot_creator</title>
<path fill="none" stroke="black" d="M420.89,-396.39C495.43,-429.73 657.94,-502.41 736.19,-537.4"/>
<polygon fill="black" stroke="black" points="734.71,-540.58 745.27,-541.47 737.57,-534.19 734.71,-540.58"/>
</g>
<!-- rt/vehicle_pose&#45;&gt;/vehicle_controller -->
<g id="edge20" class="edge">
<title>rt/vehicle_pose&#45;&gt;/vehicle_controller</title>
<path fill="none" stroke="black" d="M381.97,-396.29C381.82,-473.91 381.23,-790.6 381.05,-888.22"/>
<polygon fill="black" stroke="black" points="377.55,-887.98 381.04,-897.99 384.55,-888 377.55,-887.98"/>
</g>
<!-- rt/current_goal_pose&#45;&gt;/goal_pose_visualizer -->
<g id="edge7" class="edge">
<title>rt/current_goal_pose&#45;&gt;/goal_pose_visualizer</title>
<path fill="none" stroke="black" d="M779,-756.39C779,-787.1 779,-851.19 779,-888.46"/>
<polygon fill="black" stroke="black" points="775.5,-888.02 779,-898.02 782.5,-888.02 775.5,-888.02"/>
</g>
<!-- rt/current_goal_pose&#45;&gt;/vehicle_controller -->
<g id="edge21" class="edge">
<title>rt/current_goal_pose&#45;&gt;/vehicle_controller</title>
<path fill="none" stroke="black" d="M740.11,-756.39C665.98,-789.54 504.84,-861.62 426.11,-896.83"/>
<polygon fill="black" stroke="black" points="425.1,-893.44 417.4,-900.72 427.96,-899.83 425.1,-893.44"/>
</g>
<!-- rt/vehicle_command_twist -->
<g id="node13" class="node">
<title>rt/vehicle_command_twist</title>
<polygon fill="gold" stroke="black" points="239.75,-36 78.25,-36 78.25,0 239.75,0 239.75,-36"/>
<text text-anchor="middle" x="159" y="-12.95" font-family="Times,serif" font-size="14.00">rt/vehicle_command_twist</text>
</g>
<!-- rt/vehicle_command_twist&#45;&gt;/vehicle_simulator -->
<g id="edge2" class="edge">
<title>rt/vehicle_command_twist&#45;&gt;/vehicle_simulator</title>
<path fill="none" stroke="black" d="M159,-36.39C159,-67.1 159,-131.19 159,-168.46"/>
<polygon fill="black" stroke="black" points="155.5,-168.02 159,-178.02 162.5,-168.02 155.5,-168.02"/>
</g>
<!-- rt/look_ahead_specs&#45;&gt;/carrot_creator -->
<g id="edge15" class="edge">
<title>rt/look_ahead_specs&#45;&gt;/carrot_creator</title>
<path fill="none" stroke="black" d="M651.87,-396.39C677.03,-427.92 730.27,-494.66 759.58,-531.4"/>
<polygon fill="black" stroke="black" points="756.57,-533.24 765.54,-538.88 762.04,-528.88 756.57,-533.24"/>
</g>
<!-- rq/get_route_posesRequest&#45;&gt;/route_pose_generator -->
<g id="edge11" class="edge">
<title>rq/get_route_posesRequest&#45;&gt;/route_pose_generator</title>
<path fill="none" stroke="black" d="M1209.31,-359.61C1264.12,-327.09 1382,-257.15 1442.5,-221.25"/>
<polygon fill="black" stroke="black" points="1443.93,-224.47 1450.74,-216.36 1440.36,-218.45 1443.93,-224.47"/>
</g>
<!-- rr/get_route_posesReply&#45;&gt;/route_pose_visualizer -->
<g id="edge9" class="edge">
<title>rr/get_route_posesReply&#45;&gt;/route_pose_visualizer</title>
<path fill="none" stroke="black" d="M1447.49,-359.57C1386.59,-326.92 1255.47,-256.62 1188.77,-220.86"/>
<polygon fill="black" stroke="black" points="1190.44,-217.78 1179.97,-216.14 1187.13,-223.95 1190.44,-217.78"/>
</g>
<!-- rr/get_route_posesReply&#45;&gt;/carrot_creator -->
<g id="edge17" class="edge">
<title>rr/get_route_posesReply&#45;&gt;/carrot_creator</title>
<path fill="none" stroke="black" d="M1411.29,-396.47C1273.52,-431.5 965.81,-509.75 837.7,-542.33"/>
<polygon fill="black" stroke="black" points="836.89,-538.92 828.06,-544.78 838.62,-545.71 836.89,-538.92"/>
</g>
</g>
</svg>
