<?xml version="1.0" encoding="UTF-8" standalone="no"?>
<!DOCTYPE svg PUBLIC "-//W3C//DTD SVG 1.1//EN"
 "http://www.w3.org/Graphics/SVG/1.1/DTD/svg11.dtd">
<!-- Generated by graphviz version 10.0.1 (20240210.2158)
 -->
<!-- Title: rosgraph Pages: 1 -->
<svg width="602pt" height="376pt"
 viewBox="0.00 0.00 602.00 376.00" xmlns="http://www.w3.org/2000/svg" xmlns:xlink="http://www.w3.org/1999/xlink">
<g id="graph0" class="graph" transform="scale(1 1) rotate(0) translate(72 304)">
<title>rosgraph</title>
<polygon fill="white" stroke="none" points="-72,72 -72,-304 530,-304 530,72 -72,72"/>
<g id="clust1" class="cluster">
<title>cluster_0</title>
<polygon fill="lightskyblue" stroke="black" stroke-width="2" points="8,-147.5 8,-224 450,-224 450,-147.5 8,-147.5"/>
<text text-anchor="middle" x="229" y="-154.7" font-family="Times,serif" font-size="14.00">/add_two_ints</text>
</g>
<!-- /minimal_service -->
<g id="node1" class="node">
<title>/minimal_service</title>
<ellipse fill="limegreen" stroke="black" cx="88" cy="-18" rx="75.92" ry="18"/>
<text text-anchor="middle" x="88" y="-12.95" font-family="Times,serif" font-size="14.00">/minimal_service</text>
</g>
<!-- rr/add_two_intsReply -->
<g id="node4" class="node">
<title>rr/add_two_intsReply</title>
<polygon fill="gold" stroke="black" points="441.88,-216 308.12,-216 308.12,-180 441.88,-180 441.88,-216"/>
<text text-anchor="middle" x="375" y="-192.95" font-family="Times,serif" font-size="14.00">rr/add_two_intsReply</text>
</g>
<!-- /minimal_service&#45;&gt;rr/add_two_intsReply -->
<g id="edge2" class="edge">
<title>/minimal_service&#45;&gt;rr/add_two_intsReply</title>
<path fill="none" stroke="black" d="M114.23,-35.27C165.25,-66.91 278,-136.84 337.13,-173.51"/>
<polygon fill="black" stroke="black" points="335.2,-176.43 345.54,-178.73 338.89,-170.49 335.2,-176.43"/>
</g>
<!-- /minimal_client -->
<g id="node2" class="node">
<title>/minimal_client</title>
<ellipse fill="limegreen" stroke="black" cx="378" cy="-18" rx="70.29" ry="18"/>
<text text-anchor="middle" x="378" y="-12.95" font-family="Times,serif" font-size="14.00">/minimal_client</text>
</g>
<!-- rq/add_two_intsRequest -->
<g id="node3" class="node">
<title>rq/add_two_intsRequest</title>
<polygon fill="gold" stroke="black" points="163.62,-216 16.38,-216 16.38,-180 163.62,-180 163.62,-216"/>
<text text-anchor="middle" x="90" y="-192.95" font-family="Times,serif" font-size="14.00">rq/add_two_intsRequest</text>
</g>
<!-- /minimal_client&#45;&gt;rq/add_two_intsRequest -->
<g id="edge4" class="edge">
<title>/minimal_client&#45;&gt;rq/add_two_intsRequest</title>
<path fill="none" stroke="black" d="M351.93,-35.11C300.76,-66.74 186.96,-137.07 127.63,-173.74"/>
<polygon fill="black" stroke="black" points="125.86,-170.72 119.19,-178.96 129.54,-176.68 125.86,-170.72"/>
</g>
<!-- rq/add_two_intsRequest&#45;&gt;/minimal_service -->
<g id="edge1" class="edge">
<title>rq/add_two_intsRequest&#45;&gt;/minimal_service</title>
<path fill="none" stroke="black" d="M89.8,-179.54C89.46,-148.78 88.74,-84.68 88.32,-47.46"/>
<polygon fill="black" stroke="black" points="91.82,-47.86 88.21,-37.9 84.83,-47.94 91.82,-47.86"/>
</g>
<!-- rr/add_two_intsReply&#45;&gt;/minimal_client -->
<g id="edge3" class="edge">
<title>rr/add_two_intsReply&#45;&gt;/minimal_client</title>
<path fill="none" stroke="black" d="M375.29,-179.54C375.81,-148.78 376.89,-84.68 377.52,-47.46"/>
<polygon fill="black" stroke="black" points="381.01,-47.96 377.68,-37.9 374.01,-47.84 381.01,-47.96"/>
</g>
</g>
</svg>
