<?xml version="1.0" encoding="UTF-8" standalone="no"?>
<!DOCTYPE svg PUBLIC "-//W3C//DTD SVG 1.1//EN"
 "http://www.w3.org/Graphics/SVG/1.1/DTD/svg11.dtd">
<!-- Generated by graphviz version 9.0.0 (20230911.1827)
 -->
<!-- Title: rosgraph Pages: 1 -->
<svg width="2853pt" height="540pt"
 viewBox="0.00 0.00 2853.00 540.00" xmlns="http://www.w3.org/2000/svg" xmlns:xlink="http://www.w3.org/1999/xlink">
<g id="graph0" class="graph" transform="scale(1 1) rotate(0) translate(72 468)">
<title>rosgraph</title>
<polygon fill="white" stroke="none" points="-72,72 -72,-468 2781,-468 2781,72 -72,72"/>
<g id="clust1" class="cluster">
<title>cluster_0</title>
<polygon fill="#ff83fa" stroke="black" stroke-width="2" points="8,-147.5 8,-224 2701,-224 2701,-147.5 8,-147.5"/>
<text text-anchor="middle" x="1354.5" y="-154.7" font-family="Times,serif" font-size="14.00">/fibonacci</text>
</g>
<!-- /minimal_action_client -->
<g id="node1" class="node">
<title>/minimal_action_client</title>
<ellipse fill="limegreen" stroke="black" cx="1358" cy="-378" rx="97.41" ry="18"/>
<text text-anchor="middle" x="1358" y="-372.95" font-family="Times,serif" font-size="14.00">/minimal_action_client</text>
</g>
<!-- rq/fibonacci/_action/cancel_goalRequest -->
<g id="node5" class="node">
<title>rq/fibonacci/_action/cancel_goalRequest</title>
<polygon fill="gold" stroke="black" points="2035.25,-216 1798.75,-216 1798.75,-180 2035.25,-180 2035.25,-216"/>
<text text-anchor="middle" x="1917" y="-192.95" font-family="Times,serif" font-size="14.00">rq/fibonacci/_action/cancel_goalRequest</text>
</g>
<!-- /minimal_action_client&#45;&gt;rq/fibonacci/_action/cancel_goalRequest -->
<g id="edge5" class="edge">
<title>/minimal_action_client&#45;&gt;rq/fibonacci/_action/cancel_goalRequest</title>
<path fill="none" stroke="black" d="M1405.56,-361.85C1505.52,-330.02 1737.54,-256.15 1851.48,-219.86"/>
<polygon fill="black" stroke="black" points="1852.22,-223.3 1860.69,-216.93 1850.09,-216.63 1852.22,-223.3"/>
</g>
<!-- rq/fibonacci/_action/send_goalRequest -->
<g id="node7" class="node">
<title>rq/fibonacci/_action/send_goalRequest</title>
<polygon fill="gold" stroke="black" points="1287.38,-216 1060.62,-216 1060.62,-180 1287.38,-180 1287.38,-216"/>
<text text-anchor="middle" x="1174" y="-192.95" font-family="Times,serif" font-size="14.00">rq/fibonacci/_action/send_goalRequest</text>
</g>
<!-- /minimal_action_client&#45;&gt;rq/fibonacci/_action/send_goalRequest -->
<g id="edge2" class="edge">
<title>/minimal_action_client&#45;&gt;rq/fibonacci/_action/send_goalRequest</title>
<path fill="none" stroke="black" d="M1340.49,-360.06C1307.97,-328.6 1238.12,-261.02 1200.04,-224.19"/>
<polygon fill="black" stroke="black" points="1202.69,-221.88 1193.07,-217.44 1197.82,-226.91 1202.69,-221.88"/>
</g>
<!-- rq/fibonacci/_action/get_resultRequest -->
<g id="node10" class="node">
<title>rq/fibonacci/_action/get_resultRequest</title>
<polygon fill="gold" stroke="black" points="241.62,-216 16.38,-216 16.38,-180 241.62,-180 241.62,-216"/>
<text text-anchor="middle" x="129" y="-192.95" font-family="Times,serif" font-size="14.00">rq/fibonacci/_action/get_resultRequest</text>
</g>
<!-- /minimal_action_client&#45;&gt;rq/fibonacci/_action/get_resultRequest -->
<g id="edge7" class="edge">
<title>/minimal_action_client&#45;&gt;rq/fibonacci/_action/get_resultRequest</title>
<path fill="none" stroke="black" d="M1283.29,-366.18C1078.51,-336.52 506.7,-253.7 252.97,-216.96"/>
<polygon fill="black" stroke="black" points="253.77,-213.53 243.37,-215.56 252.76,-220.46 253.77,-213.53"/>
</g>
<!-- /minimal_action_server -->
<g id="node2" class="node">
<title>/minimal_action_server</title>
<ellipse fill="limegreen" stroke="black" cx="1358" cy="-18" rx="99.46" ry="18"/>
<text text-anchor="middle" x="1358" y="-12.95" font-family="Times,serif" font-size="14.00">/minimal_action_server</text>
</g>
<!-- rr/fibonacci/_action/send_goalReply -->
<g id="node3" class="node">
<title>rr/fibonacci/_action/send_goalReply</title>
<polygon fill="gold" stroke="black" points="2692.62,-216 2479.38,-216 2479.38,-180 2692.62,-180 2692.62,-216"/>
<text text-anchor="middle" x="2586" y="-192.95" font-family="Times,serif" font-size="14.00">rr/fibonacci/_action/send_goalReply</text>
</g>
<!-- /minimal_action_server&#45;&gt;rr/fibonacci/_action/send_goalReply -->
<g id="edge13" class="edge">
<title>/minimal_action_server&#45;&gt;rr/fibonacci/_action/send_goalReply</title>
<path fill="none" stroke="black" d="M1448.87,-25.58C1631.65,-39.81 2056.28,-77.92 2407,-147.5 2445.1,-155.06 2486.98,-166.46 2520.64,-176.42"/>
<polygon fill="black" stroke="black" points="2519.23,-179.65 2529.82,-179.16 2521.24,-172.95 2519.23,-179.65"/>
</g>
<!-- rt/fibonacci/_action/status -->
<g id="node4" class="node">
<title>rt/fibonacci/_action/status</title>
<polygon fill="gold" stroke="black" points="2335.12,-216 2178.88,-216 2178.88,-180 2335.12,-180 2335.12,-216"/>
<text text-anchor="middle" x="2257" y="-192.95" font-family="Times,serif" font-size="14.00">rt/fibonacci/_action/status</text>
</g>
<!-- /minimal_action_server&#45;&gt;rt/fibonacci/_action/status -->
<g id="edge16" class="edge">
<title>/minimal_action_server&#45;&gt;rt/fibonacci/_action/status</title>
<path fill="none" stroke="black" d="M1438.9,-28.86C1577.14,-46.6 1867.13,-87.7 2107,-147.5 2138.01,-155.23 2171.87,-166.18 2199.56,-175.82"/>
<polygon fill="black" stroke="black" points="2198.21,-179.05 2208.81,-179.07 2200.54,-172.45 2198.21,-179.05"/>
</g>
<!-- rr/fibonacci/_action/cancel_goalReply -->
<g id="node6" class="node">
<title>rr/fibonacci/_action/cancel_goalReply</title>
<polygon fill="gold" stroke="black" points="1654.5,-216 1431.5,-216 1431.5,-180 1654.5,-180 1654.5,-216"/>
<text text-anchor="middle" x="1543" y="-192.95" font-family="Times,serif" font-size="14.00">rr/fibonacci/_action/cancel_goalReply</text>
</g>
<!-- /minimal_action_server&#45;&gt;rr/fibonacci/_action/cancel_goalReply -->
<g id="edge11" class="edge">
<title>/minimal_action_server&#45;&gt;rr/fibonacci/_action/cancel_goalReply</title>
<path fill="none" stroke="black" d="M1375.74,-36.07C1408.53,-67.62 1478.76,-135.19 1516.96,-171.94"/>
<polygon fill="black" stroke="black" points="1514.32,-174.26 1523.95,-178.67 1519.17,-169.22 1514.32,-174.26"/>
</g>
<!-- rt/fibonacci/_action/feedback -->
<g id="node8" class="node">
<title>rt/fibonacci/_action/feedback</title>
<polygon fill="gold" stroke="black" points="916.12,-216 741.88,-216 741.88,-180 916.12,-180 916.12,-216"/>
<text text-anchor="middle" x="829" y="-192.95" font-family="Times,serif" font-size="14.00">rt/fibonacci/_action/feedback</text>
</g>
<!-- /minimal_action_server&#45;&gt;rt/fibonacci/_action/feedback -->
<g id="edge14" class="edge">
<title>/minimal_action_server&#45;&gt;rt/fibonacci/_action/feedback</title>
<path fill="none" stroke="black" d="M1312.44,-34.33C1217.7,-66.21 999.33,-139.69 891.53,-175.96"/>
<polygon fill="black" stroke="black" points="890.62,-172.57 882.26,-179.08 892.85,-179.21 890.62,-172.57"/>
</g>
<!-- rr/fibonacci/_action/get_resultReply -->
<g id="node9" class="node">
<title>rr/fibonacci/_action/get_resultReply</title>
<polygon fill="gold" stroke="black" points="597.88,-216 386.12,-216 386.12,-180 597.88,-180 597.88,-216"/>
<text text-anchor="middle" x="492" y="-192.95" font-family="Times,serif" font-size="14.00">rr/fibonacci/_action/get_resultReply</text>
</g>
<!-- /minimal_action_server&#45;&gt;rr/fibonacci/_action/get_resultReply -->
<g id="edge10" class="edge">
<title>/minimal_action_server&#45;&gt;rr/fibonacci/_action/get_resultReply</title>
<path fill="none" stroke="black" d="M1284.76,-30.54C1158.55,-50.9 892.23,-95.95 670,-147.5 633.65,-155.93 593.57,-166.93 560.66,-176.41"/>
<polygon fill="black" stroke="black" points="559.88,-172.99 551.25,-179.14 561.83,-179.72 559.88,-172.99"/>
</g>
<!-- rr/fibonacci/_action/send_goalReply&#45;&gt;/minimal_action_client -->
<g id="edge4" class="edge">
<title>rr/fibonacci/_action/send_goalReply&#45;&gt;/minimal_action_client</title>
<path fill="none" stroke="black" d="M2478.9,-214.52C2239.1,-249.28 1662.9,-332.8 1444.18,-364.51"/>
<polygon fill="black" stroke="black" points="1443.68,-361.04 1434.29,-365.94 1444.69,-367.97 1443.68,-361.04"/>
</g>
<!-- rt/fibonacci/_action/status&#45;&gt;/minimal_action_client -->
<g id="edge1" class="edge">
<title>rt/fibonacci/_action/status&#45;&gt;/minimal_action_client</title>
<path fill="none" stroke="black" d="M2178.4,-214.56C2007.24,-248.45 1602.68,-328.55 1433.96,-361.96"/>
<polygon fill="black" stroke="black" points="1433.32,-358.52 1424.19,-363.89 1434.68,-365.39 1433.32,-358.52"/>
</g>
<!-- rq/fibonacci/_action/cancel_goalRequest&#45;&gt;/minimal_action_server -->
<g id="edge15" class="edge">
<title>rq/fibonacci/_action/cancel_goalRequest&#45;&gt;/minimal_action_server</title>
<path fill="none" stroke="black" d="M1862.12,-179.52C1756.3,-145.83 1524.93,-72.16 1416.4,-37.6"/>
<polygon fill="black" stroke="black" points="1417.69,-34.33 1407.1,-34.64 1415.57,-41 1417.69,-34.33"/>
</g>
<!-- rr/fibonacci/_action/cancel_goalReply&#45;&gt;/minimal_action_client -->
<g id="edge8" class="edge">
<title>rr/fibonacci/_action/cancel_goalReply&#45;&gt;/minimal_action_client</title>
<path fill="none" stroke="black" d="M1524.92,-216.39C1491.87,-248.19 1421.61,-315.79 1383.64,-352.33"/>
<polygon fill="black" stroke="black" points="1381.48,-349.56 1376.7,-359.01 1386.33,-354.6 1381.48,-349.56"/>
</g>
<!-- rq/fibonacci/_action/send_goalRequest&#45;&gt;/minimal_action_server -->
<g id="edge9" class="edge">
<title>rq/fibonacci/_action/send_goalRequest&#45;&gt;/minimal_action_server</title>
<path fill="none" stroke="black" d="M1191.86,-179.72C1224.64,-148.01 1294.5,-80.43 1332.35,-43.81"/>
<polygon fill="black" stroke="black" points="1334.52,-46.59 1339.27,-37.12 1329.65,-41.56 1334.52,-46.59"/>
</g>
<!-- rt/fibonacci/_action/feedback&#45;&gt;/minimal_action_client -->
<g id="edge3" class="edge">
<title>rt/fibonacci/_action/feedback&#45;&gt;/minimal_action_client</title>
<path fill="none" stroke="black" d="M880.69,-216.39C980.4,-249.94 1198.55,-323.35 1301.76,-358.07"/>
<polygon fill="black" stroke="black" points="1300.54,-361.36 1311.13,-361.23 1302.77,-354.72 1300.54,-361.36"/>
</g>
<!-- rr/fibonacci/_action/get_resultReply&#45;&gt;/minimal_action_client -->
<g id="edge6" class="edge">
<title>rr/fibonacci/_action/get_resultReply&#45;&gt;/minimal_action_client</title>
<path fill="none" stroke="black" d="M577.01,-216.47C746.29,-251.27 1122.98,-328.69 1283.37,-361.66"/>
<polygon fill="black" stroke="black" points="1282.55,-365.07 1293.05,-363.65 1283.96,-358.21 1282.55,-365.07"/>
</g>
<!-- rq/fibonacci/_action/get_resultRequest&#45;&gt;/minimal_action_server -->
<g id="edge12" class="edge">
<title>rq/fibonacci/_action/get_resultRequest&#45;&gt;/minimal_action_server</title>
<path fill="none" stroke="black" d="M186.02,-179.54C222.35,-168.97 270.59,-155.94 314,-147.5 656.35,-80.97 1068.91,-42.19 1256.41,-26.78"/>
<polygon fill="black" stroke="black" points="1256.42,-30.29 1266.1,-25.99 1255.85,-23.32 1256.42,-30.29"/>
</g>
</g>
</svg>
