<?xml version="1.0" encoding="UTF-8" standalone="no"?>
<!DOCTYPE svg PUBLIC "-//W3C//DTD SVG 1.1//EN"
 "http://www.w3.org/Graphics/SVG/1.1/DTD/svg11.dtd">
<!-- Generated by graphviz version 9.0.0 (20230911.1827)
 -->
<!-- Title: rosgraph Pages: 1 -->
<svg width="4621pt" height="1661pt"
 viewBox="0.00 0.00 4621.00 1660.50" xmlns="http://www.w3.org/2000/svg" xmlns:xlink="http://www.w3.org/1999/xlink">
<g id="graph0" class="graph" transform="scale(1 1) rotate(0) translate(72 1588.5)">
<title>rosgraph</title>
<polygon fill="white" stroke="none" points="-72,72 -72,-1588.5 4549,-1588.5 4549,72 -72,72"/>
<g id="clust1" class="cluster">
<title>cluster_0</title>
<polygon fill="lightskyblue" stroke="black" stroke-width="2" points="3089,-368 3089,-444.5 3587,-444.5 3587,-368 3089,-368"/>
<text text-anchor="middle" x="3338" y="-375.2" font-family="Times,serif" font-size="14.00">/footstep_generator</text>
</g>
<g id="clust2" class="cluster">
<title>cluster_1</title>
<polygon fill="lightskyblue" stroke="black" stroke-width="2" points="2515,-368 2515,-444.5 2961,-444.5 2961,-368 2515,-368"/>
<text text-anchor="middle" x="2738" y="-375.2" font-family="Times,serif" font-size="14.00">/gait_selection</text>
</g>
<g id="clust3" class="cluster">
<title>cluster_2</title>
<polygon fill="#ff83fa" stroke="black" stroke-width="2" points="8,-8 8,-84.5 4469,-84.5 4469,-8 8,-8"/>
<text text-anchor="middle" x="2238.5" y="-15.2" font-family="Times,serif" font-size="14.00">/joint_trajectory_controller/follow_joint_trajectory</text>
</g>
<!-- /mujoco_writer -->
<g id="node1" class="node">
<title>/mujoco_writer</title>
<ellipse fill="limegreen" stroke="black" cx="1431" cy="-598.5" rx="68.24" ry="18"/>
<text text-anchor="middle" x="1431" y="-593.45" font-family="Times,serif" font-size="14.00">/mujoco_writer</text>
</g>
<!-- rt/mujoco_input -->
<g id="node10" class="node">
<title>rt/mujoco_input</title>
<polygon fill="gold" stroke="black" points="1482.88,-796.5 1379.12,-796.5 1379.12,-760.5 1482.88,-760.5 1482.88,-796.5"/>
<text text-anchor="middle" x="1431" y="-773.45" font-family="Times,serif" font-size="14.00">rt/mujoco_input</text>
</g>
<!-- /mujoco_writer&#45;&gt;rt/mujoco_input -->
<g id="edge1" class="edge">
<title>/mujoco_writer&#45;&gt;rt/mujoco_input</title>
<path fill="none" stroke="black" d="M1431,-616.89C1431,-647.6 1431,-711.69 1431,-748.96"/>
<polygon fill="black" stroke="black" points="1427.5,-748.52 1431,-758.52 1434.5,-748.52 1427.5,-748.52"/>
</g>
<!-- /mujoco_sim -->
<g id="node2" class="node">
<title>/mujoco_sim</title>
<ellipse fill="limegreen" stroke="black" cx="1431" cy="-958.5" rx="60.05" ry="18"/>
<text text-anchor="middle" x="1431" y="-953.45" font-family="Times,serif" font-size="14.00">/mujoco_sim</text>
</g>
<!-- rt/mujoco_sensor_output -->
<g id="node7" class="node">
<title>rt/mujoco_sensor_output</title>
<polygon fill="gold" stroke="black" points="1506.88,-1156.5 1355.12,-1156.5 1355.12,-1120.5 1506.88,-1120.5 1506.88,-1156.5"/>
<text text-anchor="middle" x="1431" y="-1133.45" font-family="Times,serif" font-size="14.00">rt/mujoco_sensor_output</text>
</g>
<!-- /mujoco_sim&#45;&gt;rt/mujoco_sensor_output -->
<g id="edge4" class="edge">
<title>/mujoco_sim&#45;&gt;rt/mujoco_sensor_output</title>
<path fill="none" stroke="black" d="M1431,-976.89C1431,-1007.6 1431,-1071.69 1431,-1108.96"/>
<polygon fill="black" stroke="black" points="1427.5,-1108.52 1431,-1118.52 1434.5,-1108.52 1427.5,-1108.52"/>
</g>
<!-- /gait_selection_node -->
<g id="node3" class="node">
<title>/gait_selection_node</title>
<ellipse fill="limegreen" stroke="black" cx="2250" cy="-238.5" rx="87.18" ry="18"/>
<text text-anchor="middle" x="2250" y="-233.45" font-family="Times,serif" font-size="14.00">/gait_selection_node</text>
</g>
<!-- rt/trajectory_reset_gate -->
<g id="node6" class="node">
<title>rt/trajectory_reset_gate</title>
<polygon fill="gold" stroke="black" points="1977.62,-436.5 1836.38,-436.5 1836.38,-400.5 1977.62,-400.5 1977.62,-436.5"/>
<text text-anchor="middle" x="1907" y="-413.45" font-family="Times,serif" font-size="14.00">rt/trajectory_reset_gate</text>
</g>
<!-- /gait_selection_node&#45;&gt;rt/trajectory_reset_gate -->
<g id="edge6" class="edge">
<title>/gait_selection_node&#45;&gt;rt/trajectory_reset_gate</title>
<path fill="none" stroke="black" d="M2218.65,-255.77C2157.18,-287.67 2020.7,-358.5 1950.52,-394.91"/>
<polygon fill="black" stroke="black" points="1949.27,-391.62 1942.01,-399.33 1952.5,-397.83 1949.27,-391.62"/>
</g>
<!-- rt/mujoco_reset_trajectory -->
<g id="node12" class="node">
<title>rt/mujoco_reset_trajectory</title>
<polygon fill="gold" stroke="black" points="1349,-436.5 1189,-436.5 1189,-400.5 1349,-400.5 1349,-436.5"/>
<text text-anchor="middle" x="1269" y="-413.45" font-family="Times,serif" font-size="14.00">rt/mujoco_reset_trajectory</text>
</g>
<!-- /gait_selection_node&#45;&gt;rt/mujoco_reset_trajectory -->
<g id="edge8" class="edge">
<title>/gait_selection_node&#45;&gt;rt/mujoco_reset_trajectory</title>
<path fill="none" stroke="black" d="M2173.01,-247.31C2025.76,-263.15 1694.61,-303.18 1422,-368 1390.09,-375.59 1355.24,-386.64 1326.88,-396.37"/>
<polygon fill="black" stroke="black" points="1326.07,-392.95 1317.77,-399.53 1328.37,-399.56 1326.07,-392.95"/>
</g>
<!-- rt/joint_trajectory_controller/joint_trajectory -->
<g id="node13" class="node">
<title>rt/joint_trajectory_controller/joint_trajectory</title>
<polygon fill="gold" stroke="black" points="2378.75,-436.5 2121.25,-436.5 2121.25,-400.5 2378.75,-400.5 2378.75,-436.5"/>
<text text-anchor="middle" x="2250" y="-413.45" font-family="Times,serif" font-size="14.00">rt/joint_trajectory_controller/joint_trajectory</text>
</g>
<!-- /gait_selection_node&#45;&gt;rt/joint_trajectory_controller/joint_trajectory -->
<g id="edge7" class="edge">
<title>/gait_selection_node&#45;&gt;rt/joint_trajectory_controller/joint_trajectory</title>
<path fill="none" stroke="black" d="M2250,-256.89C2250,-287.6 2250,-351.69 2250,-388.96"/>
<polygon fill="black" stroke="black" points="2246.5,-388.52 2250,-398.52 2253.5,-388.52 2246.5,-388.52"/>
</g>
<!-- rr/gait_selectionReply -->
<g id="node18" class="node">
<title>rr/gait_selectionReply</title>
<polygon fill="gold" stroke="black" points="2953,-436.5 2817,-436.5 2817,-400.5 2953,-400.5 2953,-436.5"/>
<text text-anchor="middle" x="2885" y="-413.45" font-family="Times,serif" font-size="14.00">rr/gait_selectionReply</text>
</g>
<!-- /gait_selection_node&#45;&gt;rr/gait_selectionReply -->
<g id="edge10" class="edge">
<title>/gait_selection_node&#45;&gt;rr/gait_selectionReply</title>
<path fill="none" stroke="black" d="M2306.86,-252.58C2399.37,-274.24 2587.93,-319.94 2745,-368 2772.72,-376.48 2803.09,-387.06 2828.45,-396.26"/>
<polygon fill="black" stroke="black" points="2826.97,-399.45 2837.56,-399.59 2829.37,-392.87 2826.97,-399.45"/>
</g>
<!-- rq/joint_trajectory_controller/follow_joint_trajectory/_action/send_goalRequest -->
<g id="node22" class="node">
<title>rq/joint_trajectory_controller/follow_joint_trajectory/_action/send_goalRequest</title>
<polygon fill="gold" stroke="black" points="3343,-76.5 2895,-76.5 2895,-40.5 3343,-40.5 3343,-76.5"/>
<text text-anchor="middle" x="3119" y="-53.45" font-family="Times,serif" font-size="14.00">rq/joint_trajectory_controller/follow_joint_trajectory/_action/send_goalRequest</text>
</g>
<!-- /gait_selection_node&#45;&gt;rq/joint_trajectory_controller/follow_joint_trajectory/_action/send_goalRequest -->
<g id="edge13" class="edge">
<title>/gait_selection_node&#45;&gt;rq/joint_trajectory_controller/follow_joint_trajectory/_action/send_goalRequest</title>
<path fill="none" stroke="black" d="M2310.32,-225.14C2458.67,-194.76 2842.31,-116.18 3022.64,-79.24"/>
<polygon fill="black" stroke="black" points="3023.12,-82.71 3032.21,-77.28 3021.72,-75.85 3023.12,-82.71"/>
</g>
<!-- rq/joint_trajectory_controller/follow_joint_trajectory/_action/get_resultRequest -->
<g id="node23" class="node">
<title>rq/joint_trajectory_controller/follow_joint_trajectory/_action/get_resultRequest</title>
<polygon fill="gold" stroke="black" points="2751.25,-76.5 2304.75,-76.5 2304.75,-40.5 2751.25,-40.5 2751.25,-76.5"/>
<text text-anchor="middle" x="2528" y="-53.45" font-family="Times,serif" font-size="14.00">rq/joint_trajectory_controller/follow_joint_trajectory/_action/get_resultRequest</text>
</g>
<!-- /gait_selection_node&#45;&gt;rq/joint_trajectory_controller/follow_joint_trajectory/_action/get_resultRequest -->
<g id="edge12" class="edge">
<title>/gait_selection_node&#45;&gt;rq/joint_trajectory_controller/follow_joint_trajectory/_action/get_resultRequest</title>
<path fill="none" stroke="black" d="M2275.65,-221.08C2325.22,-189.34 2434.32,-119.48 2491.46,-82.89"/>
<polygon fill="black" stroke="black" points="2493.03,-86.05 2499.56,-77.71 2489.25,-80.15 2493.03,-86.05"/>
</g>
<!-- rq/joint_trajectory_controller/follow_joint_trajectory/_action/cancel_goalRequest -->
<g id="node26" class="node">
<title>rq/joint_trajectory_controller/follow_joint_trajectory/_action/cancel_goalRequest</title>
<polygon fill="gold" stroke="black" points="1050.88,-76.5 593.12,-76.5 593.12,-40.5 1050.88,-40.5 1050.88,-76.5"/>
<text text-anchor="middle" x="822" y="-53.45" font-family="Times,serif" font-size="14.00">rq/joint_trajectory_controller/follow_joint_trajectory/_action/cancel_goalRequest</text>
</g>
<!-- /gait_selection_node&#45;&gt;rq/joint_trajectory_controller/follow_joint_trajectory/_action/cancel_goalRequest -->
<g id="edge18" class="edge">
<title>/gait_selection_node&#45;&gt;rq/joint_trajectory_controller/follow_joint_trajectory/_action/cancel_goalRequest</title>
<path fill="none" stroke="black" d="M2176.95,-228.39C1953.78,-200.58 1277.61,-116.29 973.29,-78.36"/>
<polygon fill="black" stroke="black" points="974.03,-74.92 963.68,-77.16 973.17,-81.87 974.03,-74.92"/>
</g>
<!-- /mujoco_reader -->
<g id="node4" class="node">
<title>/mujoco_reader</title>
<ellipse fill="limegreen" stroke="black" cx="1431" cy="-1318.5" rx="69.26" ry="18"/>
<text text-anchor="middle" x="1431" y="-1313.45" font-family="Times,serif" font-size="14.00">/mujoco_reader</text>
</g>
<!-- rt/lower_imu -->
<g id="node8" class="node">
<title>rt/lower_imu</title>
<polygon fill="gold" stroke="black" points="1126.62,-1516.5 1039.38,-1516.5 1039.38,-1480.5 1126.62,-1480.5 1126.62,-1516.5"/>
<text text-anchor="middle" x="1083" y="-1493.45" font-family="Times,serif" font-size="14.00">rt/lower_imu</text>
</g>
<!-- /mujoco_reader&#45;&gt;rt/lower_imu -->
<g id="edge20" class="edge">
<title>/mujoco_reader&#45;&gt;rt/lower_imu</title>
<path fill="none" stroke="black" d="M1400.73,-1334.98C1339.1,-1366.51 1198.85,-1438.24 1127.09,-1474.95"/>
<polygon fill="black" stroke="black" points="1125.67,-1471.74 1118.36,-1479.41 1128.86,-1477.97 1125.67,-1471.74"/>
</g>
<!-- rt/joint_states -->
<g id="node9" class="node">
<title>rt/joint_states</title>
<polygon fill="gold" stroke="black" points="1359.75,-1516.5 1270.25,-1516.5 1270.25,-1480.5 1359.75,-1480.5 1359.75,-1516.5"/>
<text text-anchor="middle" x="1315" y="-1493.45" font-family="Times,serif" font-size="14.00">rt/joint_states</text>
</g>
<!-- /mujoco_reader&#45;&gt;rt/joint_states -->
<g id="edge19" class="edge">
<title>/mujoco_reader&#45;&gt;rt/joint_states</title>
<path fill="none" stroke="black" d="M1419.88,-1336.57C1399.58,-1367.72 1356.39,-1433.99 1332.25,-1471.04"/>
<polygon fill="black" stroke="black" points="1329.61,-1468.67 1327.09,-1478.95 1335.48,-1472.49 1329.61,-1468.67"/>
</g>
<!-- rt/upper_imu -->
<g id="node11" class="node">
<title>rt/upper_imu</title>
<polygon fill="gold" stroke="black" points="1590.62,-1516.5 1503.38,-1516.5 1503.38,-1480.5 1590.62,-1480.5 1590.62,-1516.5"/>
<text text-anchor="middle" x="1547" y="-1493.45" font-family="Times,serif" font-size="14.00">rt/upper_imu</text>
</g>
<!-- /mujoco_reader&#45;&gt;rt/upper_imu -->
<g id="edge22" class="edge">
<title>/mujoco_reader&#45;&gt;rt/upper_imu</title>
<path fill="none" stroke="black" d="M1442.12,-1336.57C1462.42,-1367.72 1505.61,-1433.99 1529.75,-1471.04"/>
<polygon fill="black" stroke="black" points="1526.52,-1472.49 1534.91,-1478.95 1532.39,-1468.67 1526.52,-1472.49"/>
</g>
<!-- rt/march/pressure_sole_data -->
<g id="node14" class="node">
<title>rt/march/pressure_sole_data</title>
<polygon fill="gold" stroke="black" points="1903.5,-1516.5 1734.5,-1516.5 1734.5,-1480.5 1903.5,-1480.5 1903.5,-1516.5"/>
<text text-anchor="middle" x="1819" y="-1493.45" font-family="Times,serif" font-size="14.00">rt/march/pressure_sole_data</text>
</g>
<!-- /mujoco_reader&#45;&gt;rt/march/pressure_sole_data -->
<g id="edge21" class="edge">
<title>/mujoco_reader&#45;&gt;rt/march/pressure_sole_data</title>
<path fill="none" stroke="black" d="M1464.08,-1334.68C1532.66,-1366.14 1690.58,-1438.58 1770.61,-1475.3"/>
<polygon fill="black" stroke="black" points="1768.98,-1478.4 1779.53,-1479.39 1771.9,-1472.04 1768.98,-1478.4"/>
</g>
<!-- /TestSetupGaitSelectionNode -->
<g id="node5" class="node">
<title>/TestSetupGaitSelectionNode</title>
<ellipse fill="limegreen" stroke="black" cx="2885" cy="-238.5" rx="120.45" ry="18"/>
<text text-anchor="middle" x="2885" y="-233.45" font-family="Times,serif" font-size="14.00">/TestSetupGaitSelectionNode</text>
</g>
<!-- /TestSetupGaitSelectionNode&#45;&gt;rt/joint_trajectory_controller/joint_trajectory -->
<g id="edge24" class="edge">
<title>/TestSetupGaitSelectionNode&#45;&gt;rt/joint_trajectory_controller/joint_trajectory</title>
<path fill="none" stroke="black" d="M2830.03,-254.91C2715.57,-286.99 2451.6,-360.99 2323.03,-397.03"/>
<polygon fill="black" stroke="black" points="2322.28,-393.6 2313.59,-399.67 2324.17,-400.34 2322.28,-393.6"/>
</g>
<!-- rr/footstep_generatorReply -->
<g id="node16" class="node">
<title>rr/footstep_generatorReply</title>
<polygon fill="gold" stroke="black" points="3579.12,-436.5 3416.88,-436.5 3416.88,-400.5 3579.12,-400.5 3579.12,-436.5"/>
<text text-anchor="middle" x="3498" y="-413.45" font-family="Times,serif" font-size="14.00">rr/footstep_generatorReply</text>
</g>
<!-- /TestSetupGaitSelectionNode&#45;&gt;rr/footstep_generatorReply -->
<g id="edge27" class="edge">
<title>/TestSetupGaitSelectionNode&#45;&gt;rr/footstep_generatorReply</title>
<path fill="none" stroke="black" d="M2942.23,-254.69C3029.44,-278.01 3200.7,-324.52 3345,-368 3374.73,-376.96 3407.51,-387.48 3435.08,-396.51"/>
<polygon fill="black" stroke="black" points="3433.73,-399.75 3444.33,-399.55 3435.92,-393.1 3433.73,-399.75"/>
</g>
<!-- /TestSetupGaitSelectionNode&#45;&gt;rr/gait_selectionReply -->
<g id="edge25" class="edge">
<title>/TestSetupGaitSelectionNode&#45;&gt;rr/gait_selectionReply</title>
<path fill="none" stroke="black" d="M2885,-256.89C2885,-287.6 2885,-351.69 2885,-388.96"/>
<polygon fill="black" stroke="black" points="2881.5,-388.52 2885,-398.52 2888.5,-388.52 2881.5,-388.52"/>
</g>
<!-- rt/mujoco_sensor_output&#45;&gt;/mujoco_reader -->
<g id="edge23" class="edge">
<title>rt/mujoco_sensor_output&#45;&gt;/mujoco_reader</title>
<path fill="none" stroke="black" d="M1431,-1156.89C1431,-1187.6 1431,-1251.69 1431,-1288.96"/>
<polygon fill="black" stroke="black" points="1427.5,-1288.52 1431,-1298.52 1434.5,-1288.52 1427.5,-1288.52"/>
</g>
<!-- rt/mujoco_input&#45;&gt;/mujoco_sim -->
<g id="edge5" class="edge">
<title>rt/mujoco_input&#45;&gt;/mujoco_sim</title>
<path fill="none" stroke="black" d="M1431,-796.89C1431,-827.6 1431,-891.69 1431,-928.96"/>
<polygon fill="black" stroke="black" points="1427.5,-928.52 1431,-938.52 1434.5,-928.52 1427.5,-928.52"/>
</g>
<!-- rt/mujoco_reset_trajectory&#45;&gt;/mujoco_writer -->
<g id="edge2" class="edge">
<title>rt/mujoco_reset_trajectory&#45;&gt;/mujoco_writer</title>
<path fill="none" stroke="black" d="M1284.83,-436.89C1313.65,-468.56 1374.78,-535.73 1408.13,-572.37"/>
<polygon fill="black" stroke="black" points="1405.24,-574.4 1414.56,-579.44 1410.42,-569.69 1405.24,-574.4"/>
</g>
<!-- rt/joint_trajectory_controller/state -->
<g id="node15" class="node">
<title>rt/joint_trajectory_controller/state</title>
<polygon fill="gold" stroke="black" points="1692.5,-436.5 1493.5,-436.5 1493.5,-400.5 1692.5,-400.5 1692.5,-436.5"/>
<text text-anchor="middle" x="1593" y="-413.45" font-family="Times,serif" font-size="14.00">rt/joint_trajectory_controller/state</text>
</g>
<!-- rt/joint_trajectory_controller/state&#45;&gt;/mujoco_writer -->
<g id="edge3" class="edge">
<title>rt/joint_trajectory_controller/state&#45;&gt;/mujoco_writer</title>
<path fill="none" stroke="black" d="M1577.17,-436.89C1548.35,-468.56 1487.22,-535.73 1453.87,-572.37"/>
<polygon fill="black" stroke="black" points="1451.58,-569.69 1447.44,-579.44 1456.76,-574.4 1451.58,-569.69"/>
</g>
<!-- rq/footstep_generatorRequest -->
<g id="node17" class="node">
<title>rq/footstep_generatorRequest</title>
<polygon fill="gold" stroke="black" points="3272.88,-436.5 3097.12,-436.5 3097.12,-400.5 3272.88,-400.5 3272.88,-436.5"/>
<text text-anchor="middle" x="3185" y="-413.45" font-family="Times,serif" font-size="14.00">rq/footstep_generatorRequest</text>
</g>
<!-- rq/footstep_generatorRequest&#45;&gt;/TestSetupGaitSelectionNode -->
<g id="edge28" class="edge">
<title>rq/footstep_generatorRequest&#45;&gt;/TestSetupGaitSelectionNode</title>
<path fill="none" stroke="black" d="M3155.82,-400.18C3101.25,-367.81 2983.81,-298.12 2923.09,-262.1"/>
<polygon fill="black" stroke="black" points="2925.18,-259.27 2914.8,-257.18 2921.61,-265.29 2925.18,-259.27"/>
</g>
<!-- rq/gait_selectionRequest -->
<g id="node19" class="node">
<title>rq/gait_selectionRequest</title>
<polygon fill="gold" stroke="black" points="2672.75,-436.5 2523.25,-436.5 2523.25,-400.5 2672.75,-400.5 2672.75,-436.5"/>
<text text-anchor="middle" x="2598" y="-413.45" font-family="Times,serif" font-size="14.00">rq/gait_selectionRequest</text>
</g>
<!-- rq/gait_selectionRequest&#45;&gt;/gait_selection_node -->
<g id="edge9" class="edge">
<title>rq/gait_selectionRequest&#45;&gt;/gait_selection_node</title>
<path fill="none" stroke="black" d="M2564.03,-400.12C2499.91,-367.33 2361.26,-296.41 2291.65,-260.8"/>
<polygon fill="black" stroke="black" points="2293.34,-257.74 2282.84,-256.3 2290.15,-263.97 2293.34,-257.74"/>
</g>
<!-- rq/gait_selectionRequest&#45;&gt;/TestSetupGaitSelectionNode -->
<g id="edge26" class="edge">
<title>rq/gait_selectionRequest&#45;&gt;/TestSetupGaitSelectionNode</title>
<path fill="none" stroke="black" d="M2625.92,-400.18C2678.02,-367.87 2790.01,-298.41 2848.2,-262.32"/>
<polygon fill="black" stroke="black" points="2849.8,-265.45 2856.45,-257.2 2846.11,-259.5 2849.8,-265.45"/>
</g>
<!-- rr/joint_trajectory_controller/follow_joint_trajectory/_action/send_goalReply -->
<g id="node20" class="node">
<title>rr/joint_trajectory_controller/follow_joint_trajectory/_action/send_goalReply</title>
<polygon fill="gold" stroke="black" points="4461.25,-76.5 4026.75,-76.5 4026.75,-40.5 4461.25,-40.5 4461.25,-76.5"/>
<text text-anchor="middle" x="4244" y="-53.45" font-family="Times,serif" font-size="14.00">rr/joint_trajectory_controller/follow_joint_trajectory/_action/send_goalReply</text>
</g>
<!-- rr/joint_trajectory_controller/follow_joint_trajectory/_action/send_goalReply&#45;&gt;/gait_selection_node -->
<g id="edge14" class="edge">
<title>rr/joint_trajectory_controller/follow_joint_trajectory/_action/send_goalReply&#45;&gt;/gait_selection_node</title>
<path fill="none" stroke="black" d="M4048.26,-76.97C3625.87,-114.68 2642.61,-202.45 2340.15,-229.45"/>
<polygon fill="black" stroke="black" points="2339.98,-225.95 2330.33,-230.33 2340.6,-232.93 2339.98,-225.95"/>
</g>
<!-- rt/joint_trajectory_controller/follow_joint_trajectory/_action/feedback -->
<g id="node21" class="node">
<title>rt/joint_trajectory_controller/follow_joint_trajectory/_action/feedback</title>
<polygon fill="gold" stroke="black" points="3882.75,-76.5 3487.25,-76.5 3487.25,-40.5 3882.75,-40.5 3882.75,-76.5"/>
<text text-anchor="middle" x="3685" y="-53.45" font-family="Times,serif" font-size="14.00">rt/joint_trajectory_controller/follow_joint_trajectory/_action/feedback</text>
</g>
<!-- rt/joint_trajectory_controller/follow_joint_trajectory/_action/feedback&#45;&gt;/gait_selection_node -->
<g id="edge17" class="edge">
<title>rt/joint_trajectory_controller/follow_joint_trajectory/_action/feedback&#45;&gt;/gait_selection_node</title>
<path fill="none" stroke="black" d="M3544.14,-76.97C3248.85,-113.6 2572.69,-197.47 2334.74,-226.99"/>
<polygon fill="black" stroke="black" points="2334.4,-223.5 2324.91,-228.21 2335.26,-230.45 2334.4,-223.5"/>
</g>
<!-- rt/joint_trajectory_controller/follow_joint_trajectory/_action/status -->
<g id="node24" class="node">
<title>rt/joint_trajectory_controller/follow_joint_trajectory/_action/status</title>
<polygon fill="gold" stroke="black" points="2160.75,-76.5 1783.25,-76.5 1783.25,-40.5 2160.75,-40.5 2160.75,-76.5"/>
<text text-anchor="middle" x="1972" y="-53.45" font-family="Times,serif" font-size="14.00">rt/joint_trajectory_controller/follow_joint_trajectory/_action/status</text>
</g>
<!-- rt/joint_trajectory_controller/follow_joint_trajectory/_action/status&#45;&gt;/gait_selection_node -->
<g id="edge15" class="edge">
<title>rt/joint_trajectory_controller/follow_joint_trajectory/_action/status&#45;&gt;/gait_selection_node</title>
<path fill="none" stroke="black" d="M1999.16,-76.89C2049.81,-109.32 2158.63,-179 2214.82,-214.98"/>
<polygon fill="black" stroke="black" points="2212.77,-217.82 2223.07,-220.26 2216.54,-211.92 2212.77,-217.82"/>
</g>
<!-- rr/joint_trajectory_controller/follow_joint_trajectory/_action/cancel_goalReply -->
<g id="node25" class="node">
<title>rr/joint_trajectory_controller/follow_joint_trajectory/_action/cancel_goalReply</title>
<polygon fill="gold" stroke="black" points="1639.12,-76.5 1194.88,-76.5 1194.88,-40.5 1639.12,-40.5 1639.12,-76.5"/>
<text text-anchor="middle" x="1417" y="-53.45" font-family="Times,serif" font-size="14.00">rr/joint_trajectory_controller/follow_joint_trajectory/_action/cancel_goalReply</text>
</g>
<!-- rr/joint_trajectory_controller/follow_joint_trajectory/_action/cancel_goalReply&#45;&gt;/gait_selection_node -->
<g id="edge16" class="edge">
<title>rr/joint_trajectory_controller/follow_joint_trajectory/_action/cancel_goalReply&#45;&gt;/gait_selection_node</title>
<path fill="none" stroke="black" d="M1498.77,-76.97C1662.13,-111.88 2026.33,-189.7 2179.73,-222.48"/>
<polygon fill="black" stroke="black" points="2178.85,-225.88 2189.36,-224.54 2180.32,-219.03 2178.85,-225.88"/>
</g>
<!-- rr/joint_trajectory_controller/follow_joint_trajectory/_action/get_resultReply -->
<g id="node27" class="node">
<title>rr/joint_trajectory_controller/follow_joint_trajectory/_action/get_resultReply</title>
<polygon fill="gold" stroke="black" points="449.5,-76.5 16.5,-76.5 16.5,-40.5 449.5,-40.5 449.5,-76.5"/>
<text text-anchor="middle" x="233" y="-53.45" font-family="Times,serif" font-size="14.00">rr/joint_trajectory_controller/follow_joint_trajectory/_action/get_resultReply</text>
</g>
<!-- rr/joint_trajectory_controller/follow_joint_trajectory/_action/get_resultReply&#45;&gt;/gait_selection_node -->
<g id="edge11" class="edge">
<title>rr/joint_trajectory_controller/follow_joint_trajectory/_action/get_resultReply&#45;&gt;/gait_selection_node</title>
<path fill="none" stroke="black" d="M430.99,-76.97C858.75,-114.72 1855.15,-202.65 2159.86,-229.55"/>
<polygon fill="black" stroke="black" points="2159.49,-233.03 2169.76,-230.42 2160.11,-226.05 2159.49,-233.03"/>
</g>
</g>
</svg>
