<?xml version="1.0" encoding="UTF-8" standalone="no"?>
<!DOCTYPE svg PUBLIC "-//W3C//DTD SVG 1.1//EN"
 "http://www.w3.org/Graphics/SVG/1.1/DTD/svg11.dtd">
<!-- Generated by graphviz version 10.0.1 (20240210.2158)
 -->
<!-- Title: rosgraph Pages: 1 -->
<svg width="2853pt" height="540pt"
 viewBox="0.00 0.00 2853.00 540.00" xmlns="http://www.w3.org/2000/svg" xmlns:xlink="http://www.w3.org/1999/xlink">
<g id="graph0" class="graph" transform="scale(1 1) rotate(0) translate(72 468)">
<title>rosgraph</title>
<polygon fill="white" stroke="none" points="-72,72 -72,-468 2781,-468 2781,72 -72,72"/>
<g id="clust1" class="cluster">
<title>cluster_0</title>
<polygon fill="#ff83fa" stroke="black" stroke-width="2" points="8,-147.5 8,-224 2701,-224 2701,-147.5 8,-147.5"/>
<text text-anchor="middle" x="1354.5" y="-154.7" font-family="Times,serif" font-size="14.00">/fibonacci</text>
</g>
<!-- /minimal_action_client -->
<g id="node1" class="node">
<title>/minimal_action_client</title>
<ellipse fill="limegreen" stroke="black" cx="1340" cy="-378" rx="97.41" ry="18"/>
<text text-anchor="middle" x="1340" y="-372.95" font-family="Times,serif" font-size="14.00">/minimal_action_client</text>
</g>
<!-- rq/fibonacci/_action/send_goalRequest -->
<g id="node5" class="node">
<title>rq/fibonacci/_action/send_goalRequest</title>
<polygon fill="gold" stroke="black" points="917.38,-216 690.62,-216 690.62,-180 917.38,-180 917.38,-216"/>
<text text-anchor="middle" x="804" y="-192.95" font-family="Times,serif" font-size="14.00">rq/fibonacci/_action/send_goalRequest</text>
</g>
<!-- /minimal_action_client&#45;&gt;rq/fibonacci/_action/send_goalRequest -->
<g id="edge2" class="edge">
<title>/minimal_action_client&#45;&gt;rq/fibonacci/_action/send_goalRequest</title>
<path fill="none" stroke="black" d="M1293.97,-361.71C1198,-329.84 976.45,-256.27 867.22,-219.99"/>
<polygon fill="black" stroke="black" points="868.4,-216.7 857.81,-216.87 866.19,-223.34 868.4,-216.7"/>
</g>
<!-- rq/fibonacci/_action/get_resultRequest -->
<g id="node8" class="node">
<title>rq/fibonacci/_action/get_resultRequest</title>
<polygon fill="gold" stroke="black" points="1954.62,-216 1729.38,-216 1729.38,-180 1954.62,-180 1954.62,-216"/>
<text text-anchor="middle" x="1842" y="-192.95" font-family="Times,serif" font-size="14.00">rq/fibonacci/_action/get_resultRequest</text>
</g>
<!-- /minimal_action_client&#45;&gt;rq/fibonacci/_action/get_resultRequest -->
<g id="edge4" class="edge">
<title>/minimal_action_client&#45;&gt;rq/fibonacci/_action/get_resultRequest</title>
<path fill="none" stroke="black" d="M1383.82,-361.46C1473.89,-329.52 1679.96,-256.46 1782.2,-220.2"/>
<polygon fill="black" stroke="black" points="1783.27,-223.54 1791.53,-216.9 1780.93,-216.94 1783.27,-223.54"/>
</g>
<!-- rq/fibonacci/_action/cancel_goalRequest -->
<g id="node9" class="node">
<title>rq/fibonacci/_action/cancel_goalRequest</title>
<polygon fill="gold" stroke="black" points="2335.25,-216 2098.75,-216 2098.75,-180 2335.25,-180 2335.25,-216"/>
<text text-anchor="middle" x="2217" y="-192.95" font-family="Times,serif" font-size="14.00">rq/fibonacci/_action/cancel_goalRequest</text>
</g>
<!-- /minimal_action_client&#45;&gt;rq/fibonacci/_action/cancel_goalRequest -->
<g id="edge7" class="edge">
<title>/minimal_action_client&#45;&gt;rq/fibonacci/_action/cancel_goalRequest</title>
<path fill="none" stroke="black" d="M1403.99,-364.01C1555.91,-333.18 1939.11,-255.4 2119.83,-218.72"/>
<polygon fill="black" stroke="black" points="2120.32,-222.19 2129.43,-216.77 2118.93,-215.33 2120.32,-222.19"/>
</g>
<!-- /minimal_action_server -->
<g id="node2" class="node">
<title>/minimal_action_server</title>
<ellipse fill="limegreen" stroke="black" cx="1340" cy="-18" rx="99.46" ry="18"/>
<text text-anchor="middle" x="1340" y="-12.95" font-family="Times,serif" font-size="14.00">/minimal_action_server</text>
</g>
<!-- rr/fibonacci/_action/get_resultReply -->
<g id="node3" class="node">
<title>rr/fibonacci/_action/get_resultReply</title>
<polygon fill="gold" stroke="black" points="227.88,-216 16.12,-216 16.12,-180 227.88,-180 227.88,-216"/>
<text text-anchor="middle" x="122" y="-192.95" font-family="Times,serif" font-size="14.00">rr/fibonacci/_action/get_resultReply</text>
</g>
<!-- /minimal_action_server&#45;&gt;rr/fibonacci/_action/get_resultReply -->
<g id="edge12" class="edge">
<title>/minimal_action_server&#45;&gt;rr/fibonacci/_action/get_resultReply</title>
<path fill="none" stroke="black" d="M1249.2,-25.66C1067.6,-39.98 647.22,-78.17 300,-147.5 262.27,-155.03 220.82,-166.37 187.42,-176.3"/>
<polygon fill="black" stroke="black" points="186.44,-172.94 177.87,-179.17 188.46,-179.64 186.44,-172.94"/>
</g>
<!-- rt/fibonacci/_action/feedback -->
<g id="node4" class="node">
<title>rt/fibonacci/_action/feedback</title>
<polygon fill="gold" stroke="black" points="546.12,-216 371.88,-216 371.88,-180 546.12,-180 546.12,-216"/>
<text text-anchor="middle" x="459" y="-192.95" font-family="Times,serif" font-size="14.00">rt/fibonacci/_action/feedback</text>
</g>
<!-- /minimal_action_server&#45;&gt;rt/fibonacci/_action/feedback -->
<g id="edge15" class="edge">
<title>/minimal_action_server&#45;&gt;rt/fibonacci/_action/feedback</title>
<path fill="none" stroke="black" d="M1262.52,-29.59C1129.75,-48.46 850.67,-91.25 619,-147.5 586.03,-155.5 549.88,-166.49 520.3,-176.09"/>
<polygon fill="black" stroke="black" points="519.57,-172.64 511.15,-179.08 521.74,-179.3 519.57,-172.64"/>
</g>
<!-- rr/fibonacci/_action/cancel_goalReply -->
<g id="node6" class="node">
<title>rr/fibonacci/_action/cancel_goalReply</title>
<polygon fill="gold" stroke="black" points="1284.5,-216 1061.5,-216 1061.5,-180 1284.5,-180 1284.5,-216"/>
<text text-anchor="middle" x="1173" y="-192.95" font-family="Times,serif" font-size="14.00">rr/fibonacci/_action/cancel_goalReply</text>
</g>
<!-- /minimal_action_server&#45;&gt;rr/fibonacci/_action/cancel_goalReply -->
<g id="edge16" class="edge">
<title>/minimal_action_server&#45;&gt;rr/fibonacci/_action/cancel_goalReply</title>
<path fill="none" stroke="black" d="M1323.99,-36.07C1294.51,-67.48 1231.52,-134.62 1196.95,-171.48"/>
<polygon fill="black" stroke="black" points="1194.53,-168.93 1190.25,-178.62 1199.64,-173.72 1194.53,-168.93"/>
</g>
<!-- rt/fibonacci/_action/status -->
<g id="node7" class="node">
<title>rt/fibonacci/_action/status</title>
<polygon fill="gold" stroke="black" points="1585.12,-216 1428.88,-216 1428.88,-180 1585.12,-180 1585.12,-216"/>
<text text-anchor="middle" x="1507" y="-192.95" font-family="Times,serif" font-size="14.00">rt/fibonacci/_action/status</text>
</g>
<!-- /minimal_action_server&#45;&gt;rt/fibonacci/_action/status -->
<g id="edge9" class="edge">
<title>/minimal_action_server&#45;&gt;rt/fibonacci/_action/status</title>
<path fill="none" stroke="black" d="M1356.01,-36.07C1385.49,-67.48 1448.48,-134.62 1483.05,-171.48"/>
<polygon fill="black" stroke="black" points="1480.36,-173.72 1489.75,-178.62 1485.47,-168.93 1480.36,-173.72"/>
</g>
<!-- rr/fibonacci/_action/send_goalReply -->
<g id="node10" class="node">
<title>rr/fibonacci/_action/send_goalReply</title>
<polygon fill="gold" stroke="black" points="2692.62,-216 2479.38,-216 2479.38,-180 2692.62,-180 2692.62,-216"/>
<text text-anchor="middle" x="2586" y="-192.95" font-family="Times,serif" font-size="14.00">rr/fibonacci/_action/send_goalReply</text>
</g>
<!-- /minimal_action_server&#45;&gt;rr/fibonacci/_action/send_goalReply -->
<g id="edge10" class="edge">
<title>/minimal_action_server&#45;&gt;rr/fibonacci/_action/send_goalReply</title>
<path fill="none" stroke="black" d="M1431.36,-25.36C1616.69,-39.28 2049.59,-76.97 2407,-147.5 2445.11,-155.02 2486.98,-166.42 2520.65,-176.39"/>
<polygon fill="black" stroke="black" points="2519.24,-179.62 2529.82,-179.13 2521.25,-172.92 2519.24,-179.62"/>
</g>
<!-- rr/fibonacci/_action/get_resultReply&#45;&gt;/minimal_action_client -->
<g id="edge8" class="edge">
<title>rr/fibonacci/_action/get_resultReply&#45;&gt;/minimal_action_client</title>
<path fill="none" stroke="black" d="M228.22,-214.52C465.93,-249.26 1036.9,-332.7 1254.13,-364.45"/>
<polygon fill="black" stroke="black" points="1253.55,-367.9 1263.95,-365.89 1254.56,-360.98 1253.55,-367.9"/>
</g>
<!-- rt/fibonacci/_action/feedback&#45;&gt;/minimal_action_client -->
<g id="edge6" class="edge">
<title>rt/fibonacci/_action/feedback&#45;&gt;/minimal_action_client</title>
<path fill="none" stroke="black" d="M545.48,-216.47C718.08,-251.34 1102.62,-329.04 1265.16,-361.88"/>
<polygon fill="black" stroke="black" points="1264.03,-365.22 1274.53,-363.77 1265.42,-358.36 1264.03,-365.22"/>
</g>
<!-- rq/fibonacci/_action/send_goalRequest&#45;&gt;/minimal_action_server -->
<g id="edge11" class="edge">
<title>rq/fibonacci/_action/send_goalRequest&#45;&gt;/minimal_action_server</title>
<path fill="none" stroke="black" d="M856.51,-179.56C957.66,-145.97 1178.75,-72.55 1283.2,-37.86"/>
<polygon fill="black" stroke="black" points="1284.01,-41.28 1292.4,-34.81 1281.81,-34.64 1284.01,-41.28"/>
</g>
<!-- rr/fibonacci/_action/cancel_goalReply&#45;&gt;/minimal_action_client -->
<g id="edge1" class="edge">
<title>rr/fibonacci/_action/cancel_goalReply&#45;&gt;/minimal_action_client</title>
<path fill="none" stroke="black" d="M1189.32,-216.39C1218.95,-247.98 1281.72,-314.88 1316.16,-351.59"/>
<polygon fill="black" stroke="black" points="1313.43,-353.8 1322.83,-358.7 1318.54,-349.01 1313.43,-353.8"/>
</g>
<!-- rt/fibonacci/_action/status&#45;&gt;/minimal_action_client -->
<g id="edge3" class="edge">
<title>rt/fibonacci/_action/status&#45;&gt;/minimal_action_client</title>
<path fill="none" stroke="black" d="M1490.68,-216.39C1461.05,-247.98 1398.28,-314.88 1363.84,-351.59"/>
<polygon fill="black" stroke="black" points="1361.46,-349.01 1357.17,-358.7 1366.57,-353.8 1361.46,-349.01"/>
</g>
<!-- rq/fibonacci/_action/get_resultRequest&#45;&gt;/minimal_action_server -->
<g id="edge13" class="edge">
<title>rq/fibonacci/_action/get_resultRequest&#45;&gt;/minimal_action_server</title>
<path fill="none" stroke="black" d="M1792.93,-179.6C1698.59,-146.15 1492.55,-73.09 1394.26,-38.24"/>
<polygon fill="black" stroke="black" points="1395.69,-35.03 1385.1,-34.99 1393.35,-41.63 1395.69,-35.03"/>
</g>
<!-- rq/fibonacci/_action/cancel_goalRequest&#45;&gt;/minimal_action_server -->
<g id="edge14" class="edge">
<title>rq/fibonacci/_action/cancel_goalRequest&#45;&gt;/minimal_action_server</title>
<path fill="none" stroke="black" d="M2154.37,-179.5C2117.45,-169.49 2069.75,-157.05 2027,-147.5 1810.39,-99.09 1552.58,-54.25 1423.04,-32.6"/>
<polygon fill="black" stroke="black" points="1423.97,-29.21 1413.54,-31.02 1422.82,-36.11 1423.97,-29.21"/>
</g>
<!-- rr/fibonacci/_action/send_goalReply&#45;&gt;/minimal_action_client -->
<g id="edge5" class="edge">
<title>rr/fibonacci/_action/send_goalReply&#45;&gt;/minimal_action_client</title>
<path fill="none" stroke="black" d="M2478.96,-214.29C2236.32,-248.95 1648.39,-332.94 1426.61,-364.63"/>
<polygon fill="black" stroke="black" points="1426.28,-361.14 1416.88,-366.02 1427.27,-368.07 1426.28,-361.14"/>
</g>
</g>
</svg>
