<?xml version="1.0" encoding="UTF-8" standalone="no"?>
<!DOCTYPE svg PUBLIC "-//W3C//DTD SVG 1.1//EN"
 "http://www.w3.org/Graphics/SVG/1.1/DTD/svg11.dtd">
<!-- Generated by graphviz version 10.0.1 (20240210.2158)
 -->
<!-- Title: rosgraph Pages: 1 -->
<svg width="2318pt" height="1080pt"
 viewBox="0.00 0.00 2317.62 1080.00" xmlns="http://www.w3.org/2000/svg" xmlns:xlink="http://www.w3.org/1999/xlink">
<g id="graph0" class="graph" transform="scale(1 1) rotate(0) translate(72 1008)">
<title>rosgraph</title>
<polygon fill="white" stroke="none" points="-72,72 -72,-1008 2245.62,-1008 2245.62,72 -72,72"/>
<g id="clust1" class="cluster">
<title>cluster_0</title>
<polygon fill="lightskyblue" stroke="black" stroke-width="2" points="997.62,-687.5 997.62,-764 1643.62,-764 1643.62,-687.5 997.62,-687.5"/>
<text text-anchor="middle" x="1320.62" y="-694.7" font-family="Times,serif" font-size="14.00">/actuators/throttle/set_percentage</text>
</g>
<g id="clust2" class="cluster">
<title>cluster_1</title>
<polygon fill="lightskyblue" stroke="black" stroke-width="2" points="1771.62,-687.5 1771.62,-764 2165.62,-764 2165.62,-687.5 1771.62,-687.5"/>
<text text-anchor="middle" x="1968.62" y="-694.7" font-family="Times,serif" font-size="14.00">/set_color</text>
</g>
<g id="clust3" class="cluster">
<title>cluster_2</title>
<polygon fill="lightskyblue" stroke="black" stroke-width="2" points="391.62,-687.5 391.62,-764 869.62,-764 869.62,-687.5 391.62,-687.5"/>
<text text-anchor="middle" x="630.62" y="-694.7" font-family="Times,serif" font-size="14.00">/actuators/key/set</text>
</g>
<!-- /mechaship_detect_node -->
<g id="node1" class="node">
<title>/mechaship_detect_node</title>
<ellipse fill="limegreen" stroke="black" cx="1198.62" cy="-198" rx="102.53" ry="18"/>
<text text-anchor="middle" x="1198.62" y="-192.95" font-family="Times,serif" font-size="14.00">/mechaship_detect_node</text>
</g>
<!-- rt/DetectionArray -->
<g id="node7" class="node">
<title>rt/DetectionArray</title>
<polygon fill="gold" stroke="black" points="1254.62,-396 1142.62,-396 1142.62,-360 1254.62,-360 1254.62,-396"/>
<text text-anchor="middle" x="1198.62" y="-372.95" font-family="Times,serif" font-size="14.00">rt/DetectionArray</text>
</g>
<!-- /mechaship_detect_node&#45;&gt;rt/DetectionArray -->
<g id="edge1" class="edge">
<title>/mechaship_detect_node&#45;&gt;rt/DetectionArray</title>
<path fill="none" stroke="black" d="M1198.62,-216.39C1198.62,-247.1 1198.62,-311.19 1198.62,-348.46"/>
<polygon fill="black" stroke="black" points="1195.13,-348.02 1198.63,-358.02 1202.13,-348.02 1195.13,-348.02"/>
</g>
<!-- /mechaship_classify_sub_node -->
<g id="node2" class="node">
<title>/mechaship_classify_sub_node</title>
<ellipse fill="limegreen" stroke="black" cx="128.62" cy="-918" rx="126.08" ry="18"/>
<text text-anchor="middle" x="128.62" y="-912.95" font-family="Times,serif" font-size="14.00">/mechaship_classify_sub_node</text>
</g>
<!-- /mechaship_navigation2_node -->
<g id="node3" class="node">
<title>/mechaship_navigation2_node</title>
<ellipse fill="limegreen" stroke="black" cx="1130.62" cy="-558" rx="124.03" ry="18"/>
<text text-anchor="middle" x="1130.62" y="-552.95" font-family="Times,serif" font-size="14.00">/mechaship_navigation2_node</text>
</g>
<!-- rq/actuators/throttle/set_percentageRequest -->
<g id="node11" class="node">
<title>rq/actuators/throttle/set_percentageRequest</title>
<polygon fill="gold" stroke="black" points="1255.62,-756 1005.62,-756 1005.62,-720 1255.62,-720 1255.62,-756"/>
<text text-anchor="middle" x="1130.62" y="-732.95" font-family="Times,serif" font-size="14.00">rq/actuators/throttle/set_percentageRequest</text>
</g>
<!-- /mechaship_navigation2_node&#45;&gt;rq/actuators/throttle/set_percentageRequest -->
<g id="edge8" class="edge">
<title>/mechaship_navigation2_node&#45;&gt;rq/actuators/throttle/set_percentageRequest</title>
<path fill="none" stroke="black" d="M1130.62,-576.39C1130.62,-607.1 1130.62,-671.19 1130.62,-708.46"/>
<polygon fill="black" stroke="black" points="1127.13,-708.02 1130.63,-718.02 1134.13,-708.02 1127.13,-708.02"/>
</g>
<!-- rq/set_colorRequest -->
<g id="node13" class="node">
<title>rq/set_colorRequest</title>
<polygon fill="gold" stroke="black" points="1903.62,-756 1779.62,-756 1779.62,-720 1903.62,-720 1903.62,-756"/>
<text text-anchor="middle" x="1841.62" y="-732.95" font-family="Times,serif" font-size="14.00">rq/set_colorRequest</text>
</g>
<!-- /mechaship_navigation2_node&#45;&gt;rq/set_colorRequest -->
<g id="edge9" class="edge">
<title>/mechaship_navigation2_node&#45;&gt;rq/set_colorRequest</title>
<path fill="none" stroke="black" d="M1198.6,-573.38C1302.69,-595.75 1507.6,-641.14 1679.62,-687.5 1712,-696.22 1747.66,-706.99 1777.27,-716.26"/>
<polygon fill="black" stroke="black" points="1775.85,-719.48 1786.44,-719.14 1777.95,-712.8 1775.85,-719.48"/>
</g>
<!-- rq/actuators/key/setRequest -->
<g id="node16" class="node">
<title>rq/actuators/key/setRequest</title>
<polygon fill="gold" stroke="black" points="861.25,-756 696,-756 696,-720 861.25,-720 861.25,-756"/>
<text text-anchor="middle" x="778.62" y="-732.95" font-family="Times,serif" font-size="14.00">rq/actuators/key/setRequest</text>
</g>
<!-- /mechaship_navigation2_node&#45;&gt;rq/actuators/key/setRequest -->
<g id="edge12" class="edge">
<title>/mechaship_navigation2_node&#45;&gt;rq/actuators/key/setRequest</title>
<path fill="none" stroke="black" d="M1097.51,-575.75C1033.97,-607.87 894.92,-678.19 823.27,-714.42"/>
<polygon fill="black" stroke="black" points="821.9,-711.19 814.56,-718.83 825.06,-717.44 821.9,-711.19"/>
</g>
<!-- /mechaship_classify_node -->
<g id="node4" class="node">
<title>/mechaship_classify_node</title>
<ellipse fill="limegreen" stroke="black" cx="228.62" cy="-558" rx="108.67" ry="18"/>
<text text-anchor="middle" x="228.62" y="-552.95" font-family="Times,serif" font-size="14.00">/mechaship_classify_node</text>
</g>
<!-- rt/Buoy -->
<g id="node6" class="node">
<title>rt/Buoy</title>
<polygon fill="gold" stroke="black" points="57.25,-756 0,-756 0,-720 57.25,-720 57.25,-756"/>
<text text-anchor="middle" x="28.62" y="-732.95" font-family="Times,serif" font-size="14.00">rt/Buoy</text>
</g>
<!-- /mechaship_classify_node&#45;&gt;rt/Buoy -->
<g id="edge13" class="edge">
<title>/mechaship_classify_node&#45;&gt;rt/Buoy</title>
<path fill="none" stroke="black" d="M209.45,-576.07C173.92,-607.68 97.76,-675.47 56.52,-712.17"/>
<polygon fill="black" stroke="black" points="54.31,-709.45 49.17,-718.72 58.97,-714.68 54.31,-709.45"/>
</g>
<!-- rt/Wall -->
<g id="node10" class="node">
<title>rt/Wall</title>
<polygon fill="gold" stroke="black" points="255.75,-756 201.5,-756 201.5,-720 255.75,-720 255.75,-756"/>
<text text-anchor="middle" x="228.62" y="-732.95" font-family="Times,serif" font-size="14.00">rt/Wall</text>
</g>
<!-- /mechaship_classify_node&#45;&gt;rt/Wall -->
<g id="edge14" class="edge">
<title>/mechaship_classify_node&#45;&gt;rt/Wall</title>
<path fill="none" stroke="black" d="M228.62,-576.39C228.62,-607.1 228.62,-671.19 228.62,-708.46"/>
<polygon fill="black" stroke="black" points="225.13,-708.02 228.63,-718.02 232.13,-708.02 225.13,-708.02"/>
</g>
<!-- /mechaship_detect_sub_node -->
<g id="node5" class="node">
<title>/mechaship_detect_sub_node</title>
<ellipse fill="limegreen" stroke="black" cx="1518.62" cy="-558" rx="119.93" ry="18"/>
<text text-anchor="middle" x="1518.62" y="-552.95" font-family="Times,serif" font-size="14.00">/mechaship_detect_sub_node</text>
</g>
<!-- rt/Buoy&#45;&gt;/mechaship_classify_sub_node -->
<g id="edge4" class="edge">
<title>rt/Buoy&#45;&gt;/mechaship_classify_sub_node</title>
<path fill="none" stroke="black" d="M38.4,-756.39C55.92,-787.58 92.78,-853.19 113.56,-890.18"/>
<polygon fill="black" stroke="black" points="110.27,-891.48 118.22,-898.48 116.37,-888.05 110.27,-891.48"/>
</g>
<!-- rt/DetectionArray&#45;&gt;/mechaship_navigation2_node -->
<g id="edge6" class="edge">
<title>rt/DetectionArray&#45;&gt;/mechaship_navigation2_node</title>
<path fill="none" stroke="black" d="M1191.98,-396.39C1180.2,-427.23 1155.55,-491.74 1141.34,-528.94"/>
<polygon fill="black" stroke="black" points="1138.14,-527.53 1137.84,-538.12 1144.67,-530.03 1138.14,-527.53"/>
</g>
<!-- rt/DetectionArray&#45;&gt;/mechaship_detect_sub_node -->
<g id="edge17" class="edge">
<title>rt/DetectionArray&#45;&gt;/mechaship_detect_sub_node</title>
<path fill="none" stroke="black" d="M1229.89,-396.39C1288.41,-428.94 1414.37,-499.01 1478.84,-534.87"/>
<polygon fill="black" stroke="black" points="1476.87,-537.78 1487.31,-539.58 1480.28,-531.66 1476.87,-537.78"/>
</g>
<!-- rt/Image -->
<g id="node8" class="node">
<title>rt/Image</title>
<polygon fill="gold" stroke="black" points="1389.88,-36 1327.38,-36 1327.38,0 1389.88,0 1389.88,-36"/>
<text text-anchor="middle" x="1358.62" y="-12.95" font-family="Times,serif" font-size="14.00">rt/Image</text>
</g>
<!-- rt/Image&#45;&gt;/mechaship_detect_node -->
<g id="edge2" class="edge">
<title>rt/Image&#45;&gt;/mechaship_detect_node</title>
<path fill="none" stroke="black" d="M1342.99,-36.39C1314.6,-67.98 1254.46,-134.88 1221.47,-171.59"/>
<polygon fill="black" stroke="black" points="1219.18,-168.9 1215.1,-178.67 1224.39,-173.58 1219.18,-168.9"/>
</g>
<!-- rt/Image&#45;&gt;/mechaship_detect_sub_node -->
<g id="edge16" class="edge">
<title>rt/Image&#45;&gt;/mechaship_detect_sub_node</title>
<path fill="none" stroke="black" d="M1363.77,-36.29C1386.9,-114.07 1481.44,-431.95 1510.25,-528.84"/>
<polygon fill="black" stroke="black" points="1506.86,-529.74 1513.07,-538.32 1513.57,-527.74 1506.86,-529.74"/>
</g>
<!-- rt/scan -->
<g id="node9" class="node">
<title>rt/scan</title>
<polygon fill="gold" stroke="black" points="627.62,-396 573.62,-396 573.62,-360 627.62,-360 627.62,-396"/>
<text text-anchor="middle" x="600.62" y="-372.95" font-family="Times,serif" font-size="14.00">rt/scan</text>
</g>
<!-- rt/scan&#45;&gt;/mechaship_navigation2_node -->
<g id="edge5" class="edge">
<title>rt/scan&#45;&gt;/mechaship_navigation2_node</title>
<path fill="none" stroke="black" d="M628,-388.2C710.55,-415.92 958.31,-499.13 1072.2,-537.38"/>
<polygon fill="black" stroke="black" points="1070.76,-540.59 1081.36,-540.45 1072.99,-533.95 1070.76,-540.59"/>
</g>
<!-- rt/scan&#45;&gt;/mechaship_classify_node -->
<g id="edge15" class="edge">
<title>rt/scan&#45;&gt;/mechaship_classify_node</title>
<path fill="none" stroke="black" d="M573.27,-392.09C509.6,-422.55 351,-498.45 273.15,-535.69"/>
<polygon fill="black" stroke="black" points="272.05,-532.34 264.54,-539.82 275.07,-538.66 272.05,-532.34"/>
</g>
<!-- rt/Wall&#45;&gt;/mechaship_classify_sub_node -->
<g id="edge3" class="edge">
<title>rt/Wall&#45;&gt;/mechaship_classify_sub_node</title>
<path fill="none" stroke="black" d="M218.85,-756.39C201.33,-787.58 164.47,-853.19 143.69,-890.18"/>
<polygon fill="black" stroke="black" points="140.88,-888.05 139.03,-898.48 146.98,-891.48 140.88,-888.05"/>
</g>
<!-- rr/actuators/throttle/set_percentageReply -->
<g id="node12" class="node">
<title>rr/actuators/throttle/set_percentageReply</title>
<polygon fill="gold" stroke="black" points="1635.88,-756 1399.38,-756 1399.38,-720 1635.88,-720 1635.88,-756"/>
<text text-anchor="middle" x="1517.62" y="-732.95" font-family="Times,serif" font-size="14.00">rr/actuators/throttle/set_percentageReply</text>
</g>
<!-- rr/actuators/throttle/set_percentageReply&#45;&gt;/mechaship_navigation2_node -->
<g id="edge7" class="edge">
<title>rr/actuators/throttle/set_percentageReply&#45;&gt;/mechaship_navigation2_node</title>
<path fill="none" stroke="black" d="M1479.81,-719.61C1408.53,-686.82 1254.54,-615.99 1177.09,-580.37"/>
<polygon fill="black" stroke="black" points="1178.61,-577.22 1168.06,-576.22 1175.68,-583.58 1178.61,-577.22"/>
</g>
<!-- rr/set_colorReply -->
<g id="node14" class="node">
<title>rr/set_colorReply</title>
<polygon fill="gold" stroke="black" points="2157.88,-756 2047.38,-756 2047.38,-720 2157.88,-720 2157.88,-756"/>
<text text-anchor="middle" x="2102.62" y="-732.95" font-family="Times,serif" font-size="14.00">rr/set_colorReply</text>
</g>
<!-- rr/set_colorReply&#45;&gt;/mechaship_navigation2_node -->
<g id="edge10" class="edge">
<title>rr/set_colorReply&#45;&gt;/mechaship_navigation2_node</title>
<path fill="none" stroke="black" d="M2064.46,-719.57C2039.62,-708.87 2006.26,-695.69 1975.62,-687.5 1720.94,-619.4 1412.76,-583.93 1248.02,-568.6"/>
<polygon fill="black" stroke="black" points="1248.68,-565.15 1238.4,-567.72 1248.03,-572.12 1248.68,-565.15"/>
</g>
<!-- rr/actuators/key/setReply -->
<g id="node15" class="node">
<title>rr/actuators/key/setReply</title>
<polygon fill="gold" stroke="black" points="551.5,-756 399.75,-756 399.75,-720 551.5,-720 551.5,-756"/>
<text text-anchor="middle" x="475.62" y="-732.95" font-family="Times,serif" font-size="14.00">rr/actuators/key/setReply</text>
</g>
<!-- rr/actuators/key/setReply&#45;&gt;/mechaship_navigation2_node -->
<g id="edge11" class="edge">
<title>rr/actuators/key/setReply&#45;&gt;/mechaship_navigation2_node</title>
<path fill="none" stroke="black" d="M524.67,-719.58C553.35,-709.64 590.35,-697.27 623.62,-687.5 775.48,-642.93 955.55,-599.49 1055.04,-576.3"/>
<polygon fill="black" stroke="black" points="1055.76,-579.72 1064.71,-574.05 1054.17,-572.91 1055.76,-579.72"/>
</g>
</g>
</svg>
