<?xml version="1.0" encoding="UTF-8" standalone="no"?>
<!DOCTYPE svg PUBLIC "-//W3C//DTD SVG 1.1//EN"
 "http://www.w3.org/Graphics/SVG/1.1/DTD/svg11.dtd">
<!-- Generated by graphviz version 9.0.0 (20230911.1827)
 -->
<!-- Title: rosgraph Pages: 1 -->
<svg width="1526pt" height="540pt"
 viewBox="0.00 0.00 1525.87 540.00" xmlns="http://www.w3.org/2000/svg" xmlns:xlink="http://www.w3.org/1999/xlink">
<g id="graph0" class="graph" transform="scale(1 1) rotate(0) translate(72 468)">
<title>rosgraph</title>
<polygon fill="white" stroke="none" points="-72,72 -72,-468 1453.87,-468 1453.87,72 -72,72"/>
<g id="clust1" class="cluster">
<title>cluster_0</title>
<polygon fill="lightskyblue" stroke="black" stroke-width="2" points="20.74,-147.5 20.74,-224 470.74,-224 470.74,-147.5 20.74,-147.5"/>
<text text-anchor="middle" x="245.74" y="-154.7" font-family="Times,serif" font-size="14.00">/deliver_server</text>
</g>
<g id="clust2" class="cluster">
<title>cluster_1</title>
<polygon fill="lightskyblue" stroke="black" stroke-width="2" points="598.74,-147.5 598.74,-224 1090.74,-224 1090.74,-147.5 598.74,-147.5"/>
<text text-anchor="middle" x="844.74" y="-154.7" font-family="Times,serif" font-size="14.00">/poly_dust_service</text>
</g>
<!-- /poly_dust_service -->
<g id="node1" class="node">
<title>/poly_dust_service</title>
<ellipse fill="limegreen" stroke="black" cx="687.74" cy="-18" rx="80.52" ry="18"/>
<text text-anchor="middle" x="687.74" y="-12.95" font-family="Times,serif" font-size="14.00">/poly_dust_service</text>
</g>
<!-- rq/deliver_serverRequest -->
<g id="node9" class="node">
<title>rq/deliver_serverRequest</title>
<polygon fill="gold" stroke="black" points="180.61,-216 28.86,-216 28.86,-180 180.61,-180 180.61,-216"/>
<text text-anchor="middle" x="104.74" y="-192.95" font-family="Times,serif" font-size="14.00">rq/deliver_serverRequest</text>
</g>
<!-- /poly_dust_service&#45;&gt;rq/deliver_serverRequest -->
<g id="edge4" class="edge">
<title>/poly_dust_service&#45;&gt;rq/deliver_serverRequest</title>
<path fill="none" stroke="black" d="M639.29,-32.7C558.77,-55.61 392.45,-103.52 252.74,-147.5 224.12,-156.51 192.56,-166.99 165.97,-175.98"/>
<polygon fill="black" stroke="black" points="165.06,-172.59 156.71,-179.11 167.31,-179.22 165.06,-172.59"/>
</g>
<!-- rr/poly_dust_serviceReply -->
<g id="node11" class="node">
<title>rr/poly_dust_serviceReply</title>
<polygon fill="gold" stroke="black" points="766.36,-216 607.11,-216 607.11,-180 766.36,-180 766.36,-216"/>
<text text-anchor="middle" x="686.74" y="-192.95" font-family="Times,serif" font-size="14.00">rr/poly_dust_serviceReply</text>
</g>
<!-- /poly_dust_service&#45;&gt;rr/poly_dust_serviceReply -->
<g id="edge1" class="edge">
<title>/poly_dust_service&#45;&gt;rr/poly_dust_serviceReply</title>
<path fill="none" stroke="black" d="M687.64,-36.39C687.47,-67.1 687.11,-131.19 686.9,-168.46"/>
<polygon fill="black" stroke="black" points="683.4,-168 686.84,-178.02 690.4,-168.04 683.4,-168"/>
</g>
<!-- /deliver_client_async -->
<g id="node2" class="node">
<title>/deliver_client_async</title>
<ellipse fill="limegreen" stroke="black" cx="89.74" cy="-18" rx="89.74" ry="18"/>
<text text-anchor="middle" x="89.74" y="-12.95" font-family="Times,serif" font-size="14.00">/deliver_client_async</text>
</g>
<!-- /deliver_client_async&#45;&gt;rq/deliver_serverRequest -->
<g id="edge5" class="edge">
<title>/deliver_client_async&#45;&gt;rq/deliver_serverRequest</title>
<path fill="none" stroke="black" d="M91.2,-36.39C93.79,-67.1 99.19,-131.19 102.33,-168.46"/>
<polygon fill="black" stroke="black" points="98.81,-168.36 103.14,-178.03 105.79,-167.77 98.81,-168.36"/>
</g>
<!-- /watcher_subscriber -->
<g id="node3" class="node">
<title>/watcher_subscriber</title>
<ellipse fill="limegreen" stroke="black" cx="1296.74" cy="-378" rx="85.13" ry="18"/>
<text text-anchor="middle" x="1296.74" y="-372.95" font-family="Times,serif" font-size="14.00">/watcher_subscriber</text>
</g>
<!-- /watcher_publisher -->
<g id="node4" class="node">
<title>/watcher_publisher</title>
<ellipse fill="limegreen" stroke="black" cx="1296.74" cy="-18" rx="81.55" ry="18"/>
<text text-anchor="middle" x="1296.74" y="-12.95" font-family="Times,serif" font-size="14.00">/watcher_publisher</text>
</g>
<!-- rt/solar_panel_watcher -->
<g id="node7" class="node">
<title>rt/solar_panel_watcher</title>
<polygon fill="gold" stroke="black" points="1366.61,-216 1226.86,-216 1226.86,-180 1366.61,-180 1366.61,-216"/>
<text text-anchor="middle" x="1296.74" y="-192.95" font-family="Times,serif" font-size="14.00">rt/solar_panel_watcher</text>
</g>
<!-- /watcher_publisher&#45;&gt;rt/solar_panel_watcher -->
<g id="edge8" class="edge">
<title>/watcher_publisher&#45;&gt;rt/solar_panel_watcher</title>
<path fill="none" stroke="black" d="M1296.74,-36.39C1296.74,-67.1 1296.74,-131.19 1296.74,-168.46"/>
<polygon fill="black" stroke="black" points="1293.24,-168.02 1296.74,-178.02 1300.24,-168.02 1293.24,-168.02"/>
</g>
<!-- /deliver_service -->
<g id="node5" class="node">
<title>/deliver_service</title>
<ellipse fill="limegreen" stroke="black" cx="393.74" cy="-18" rx="69.78" ry="18"/>
<text text-anchor="middle" x="393.74" y="-12.95" font-family="Times,serif" font-size="14.00">/deliver_service</text>
</g>
<!-- rr/deliver_serverReply -->
<g id="node8" class="node">
<title>rr/deliver_serverReply</title>
<polygon fill="gold" stroke="black" points="462.86,-216 324.61,-216 324.61,-180 462.86,-180 462.86,-216"/>
<text text-anchor="middle" x="393.74" y="-192.95" font-family="Times,serif" font-size="14.00">rr/deliver_serverReply</text>
</g>
<!-- /deliver_service&#45;&gt;rr/deliver_serverReply -->
<g id="edge9" class="edge">
<title>/deliver_service&#45;&gt;rr/deliver_serverReply</title>
<path fill="none" stroke="black" d="M393.74,-36.39C393.74,-67.1 393.74,-131.19 393.74,-168.46"/>
<polygon fill="black" stroke="black" points="390.24,-168.02 393.74,-178.02 397.24,-168.02 390.24,-168.02"/>
</g>
<!-- /poly_dust_client -->
<g id="node6" class="node">
<title>/poly_dust_client</title>
<ellipse fill="limegreen" stroke="black" cx="991.74" cy="-18" rx="74.89" ry="18"/>
<text text-anchor="middle" x="991.74" y="-12.95" font-family="Times,serif" font-size="14.00">/poly_dust_client</text>
</g>
<!-- rq/poly_dust_serviceRequest -->
<g id="node10" class="node">
<title>rq/poly_dust_serviceRequest</title>
<polygon fill="gold" stroke="black" points="1083.11,-216 910.36,-216 910.36,-180 1083.11,-180 1083.11,-216"/>
<text text-anchor="middle" x="996.74" y="-192.95" font-family="Times,serif" font-size="14.00">rq/poly_dust_serviceRequest</text>
</g>
<!-- /poly_dust_client&#45;&gt;rq/poly_dust_serviceRequest -->
<g id="edge12" class="edge">
<title>/poly_dust_client&#45;&gt;rq/poly_dust_serviceRequest</title>
<path fill="none" stroke="black" d="M992.23,-36.39C993.09,-67.1 994.89,-131.19 995.94,-168.46"/>
<polygon fill="black" stroke="black" points="992.42,-168.13 996.2,-178.02 999.42,-167.93 992.42,-168.13"/>
</g>
<!-- rt/solar_panel_watcher&#45;&gt;/watcher_subscriber -->
<g id="edge7" class="edge">
<title>rt/solar_panel_watcher&#45;&gt;/watcher_subscriber</title>
<path fill="none" stroke="black" d="M1296.74,-216.39C1296.74,-247.1 1296.74,-311.19 1296.74,-348.46"/>
<polygon fill="black" stroke="black" points="1293.24,-348.02 1296.74,-358.02 1300.24,-348.02 1293.24,-348.02"/>
</g>
<!-- rr/deliver_serverReply&#45;&gt;/poly_dust_service -->
<g id="edge3" class="edge">
<title>rr/deliver_serverReply&#45;&gt;/poly_dust_service</title>
<path fill="none" stroke="black" d="M422.53,-179.57C476.24,-147.05 591.61,-77.2 650.9,-41.3"/>
<polygon fill="black" stroke="black" points="652.57,-44.38 659.31,-36.21 648.94,-38.4 652.57,-44.38"/>
</g>
<!-- rr/deliver_serverReply&#45;&gt;/deliver_client_async -->
<g id="edge6" class="edge">
<title>rr/deliver_serverReply&#45;&gt;/deliver_client_async</title>
<path fill="none" stroke="black" d="M363.97,-179.57C308.32,-146.98 188.64,-76.91 127.45,-41.08"/>
<polygon fill="black" stroke="black" points="129.5,-38.22 119.1,-36.19 125.96,-44.26 129.5,-38.22"/>
</g>
<!-- rq/deliver_serverRequest&#45;&gt;/deliver_service -->
<g id="edge10" class="edge">
<title>rq/deliver_serverRequest&#45;&gt;/deliver_service</title>
<path fill="none" stroke="black" d="M132.74,-179.76C185.56,-147.22 299.83,-76.84 358.06,-40.97"/>
<polygon fill="black" stroke="black" points="359.61,-44.13 366.29,-35.9 355.94,-38.17 359.61,-44.13"/>
</g>
<!-- rq/poly_dust_serviceRequest&#45;&gt;/poly_dust_service -->
<g id="edge2" class="edge">
<title>rq/poly_dust_serviceRequest&#45;&gt;/poly_dust_service</title>
<path fill="none" stroke="black" d="M966.41,-179.53C909.72,-146.88 787.85,-76.67 725.77,-40.91"/>
<polygon fill="black" stroke="black" points="727.7,-37.98 717.29,-36.02 724.21,-44.05 727.7,-37.98"/>
</g>
<!-- rr/poly_dust_serviceReply&#45;&gt;/poly_dust_client -->
<g id="edge11" class="edge">
<title>rr/poly_dust_serviceReply&#45;&gt;/poly_dust_client</title>
<path fill="none" stroke="black" d="M716.29,-179.76C772.15,-147.15 893.13,-76.55 954.46,-40.75"/>
<polygon fill="black" stroke="black" points="955.95,-43.94 962.83,-35.87 952.42,-37.89 955.95,-43.94"/>
</g>
</g>
</svg>
