<?xml version="1.0" encoding="UTF-8" standalone="no"?>
<!DOCTYPE svg PUBLIC "-//W3C//DTD SVG 1.1//EN"
 "http://www.w3.org/Graphics/SVG/1.1/DTD/svg11.dtd">
<!-- Generated by graphviz version 9.0.0 (20230911.1827)
 -->
<!-- Title: rosgraph Pages: 1 -->
<svg width="2670pt" height="1080pt"
 viewBox="0.00 0.00 2669.56 1080.00" xmlns="http://www.w3.org/2000/svg" xmlns:xlink="http://www.w3.org/1999/xlink">
<g id="graph0" class="graph" transform="scale(1 1) rotate(0) translate(72 1008)">
<title>rosgraph</title>
<polygon fill="white" stroke="none" points="-72,72 -72,-1008 2597.56,-1008 2597.56,72 -72,72"/>
<g id="clust1" class="cluster">
<title>cluster_0</title>
<polygon fill="lightskyblue" stroke="black" stroke-width="2" points="291.62,-327.5 291.62,-404 769.62,-404 769.62,-327.5 291.62,-327.5"/>
<text text-anchor="middle" x="530.62" y="-334.7" font-family="Times,serif" font-size="14.00">/actuators/key/set</text>
</g>
<g id="clust2" class="cluster">
<title>cluster_1</title>
<polygon fill="lightskyblue" stroke="black" stroke-width="2" points="897.62,-327.5 897.62,-404 1543.62,-404 1543.62,-327.5 897.62,-327.5"/>
<text text-anchor="middle" x="1220.62" y="-334.7" font-family="Times,serif" font-size="14.00">/actuators/throttle/set_percentage</text>
</g>
<g id="clust3" class="cluster">
<title>cluster_2</title>
<polygon fill="lightskyblue" stroke="black" stroke-width="2" points="1671.62,-327.5 1671.62,-404 2065.62,-404 2065.62,-327.5 1671.62,-327.5"/>
<text text-anchor="middle" x="1868.62" y="-334.7" font-family="Times,serif" font-size="14.00">/set_color</text>
</g>
<!-- /mechaship_classify_node -->
<g id="node1" class="node">
<title>/mechaship_classify_node</title>
<ellipse fill="limegreen" stroke="black" cx="128.62" cy="-558" rx="108.67" ry="18"/>
<text text-anchor="middle" x="128.62" y="-552.95" font-family="Times,serif" font-size="14.00">/mechaship_classify_node</text>
</g>
<!-- rt/Buoy -->
<g id="node7" class="node">
<title>rt/Buoy</title>
<polygon fill="gold" stroke="black" points="57.25,-756 0,-756 0,-720 57.25,-720 57.25,-756"/>
<text text-anchor="middle" x="28.62" y="-732.95" font-family="Times,serif" font-size="14.00">rt/Buoy</text>
</g>
<!-- /mechaship_classify_node&#45;&gt;rt/Buoy -->
<g id="edge2" class="edge">
<title>/mechaship_classify_node&#45;&gt;rt/Buoy</title>
<path fill="none" stroke="black" d="M118.85,-576.39C101.38,-607.5 64.66,-672.86 43.85,-709.89"/>
<polygon fill="black" stroke="black" points="41.02,-707.79 39.18,-718.22 47.13,-711.21 41.02,-707.79"/>
</g>
<!-- rt/Wall -->
<g id="node9" class="node">
<title>rt/Wall</title>
<polygon fill="gold" stroke="black" points="255.75,-756 201.5,-756 201.5,-720 255.75,-720 255.75,-756"/>
<text text-anchor="middle" x="228.62" y="-732.95" font-family="Times,serif" font-size="14.00">rt/Wall</text>
</g>
<!-- /mechaship_classify_node&#45;&gt;rt/Wall -->
<g id="edge1" class="edge">
<title>/mechaship_classify_node&#45;&gt;rt/Wall</title>
<path fill="none" stroke="black" d="M138.4,-576.39C155.87,-607.5 192.59,-672.86 213.4,-709.89"/>
<polygon fill="black" stroke="black" points="210.12,-711.21 218.07,-718.22 216.23,-707.79 210.12,-711.21"/>
</g>
<!-- /mechaship_detect_sub_node -->
<g id="node2" class="node">
<title>/mechaship_detect_sub_node</title>
<ellipse fill="limegreen" stroke="black" cx="2405.62" cy="-558" rx="119.93" ry="18"/>
<text text-anchor="middle" x="2405.62" y="-552.95" font-family="Times,serif" font-size="14.00">/mechaship_detect_sub_node</text>
</g>
<!-- /mechaship_navigation2_node -->
<g id="node3" class="node">
<title>/mechaship_navigation2_node</title>
<ellipse fill="limegreen" stroke="black" cx="1216.62" cy="-558" rx="124.03" ry="18"/>
<text text-anchor="middle" x="1216.62" y="-552.95" font-family="Times,serif" font-size="14.00">/mechaship_navigation2_node</text>
</g>
<!-- rq/actuators/key/setRequest -->
<g id="node11" class="node">
<title>rq/actuators/key/setRequest</title>
<polygon fill="gold" stroke="black" points="761.25,-396 596,-396 596,-360 761.25,-360 761.25,-396"/>
<text text-anchor="middle" x="678.62" y="-372.95" font-family="Times,serif" font-size="14.00">rq/actuators/key/setRequest</text>
</g>
<!-- /mechaship_navigation2_node&#45;&gt;rq/actuators/key/setRequest -->
<g id="edge8" class="edge">
<title>/mechaship_navigation2_node&#45;&gt;rq/actuators/key/setRequest</title>
<path fill="none" stroke="black" d="M1168.52,-541.09C1071.19,-508.88 850.91,-436 742.01,-399.97"/>
<polygon fill="black" stroke="black" points="743.22,-396.69 732.63,-396.87 741.02,-403.33 743.22,-396.69"/>
</g>
<!-- rq/actuators/throttle/set_percentageRequest -->
<g id="node13" class="node">
<title>rq/actuators/throttle/set_percentageRequest</title>
<polygon fill="gold" stroke="black" points="1535.62,-396 1285.62,-396 1285.62,-360 1535.62,-360 1535.62,-396"/>
<text text-anchor="middle" x="1410.62" y="-372.95" font-family="Times,serif" font-size="14.00">rq/actuators/throttle/set_percentageRequest</text>
</g>
<!-- /mechaship_navigation2_node&#45;&gt;rq/actuators/throttle/set_percentageRequest -->
<g id="edge10" class="edge">
<title>/mechaship_navigation2_node&#45;&gt;rq/actuators/throttle/set_percentageRequest</title>
<path fill="none" stroke="black" d="M1235.37,-539.8C1269.78,-508.23 1343.16,-440.9 1383.19,-404.17"/>
<polygon fill="black" stroke="black" points="1385.55,-406.75 1390.55,-397.41 1380.82,-401.6 1385.55,-406.75"/>
</g>
<!-- rq/set_colorRequest -->
<g id="node16" class="node">
<title>rq/set_colorRequest</title>
<polygon fill="gold" stroke="black" points="1803.62,-396 1679.62,-396 1679.62,-360 1803.62,-360 1803.62,-396"/>
<text text-anchor="middle" x="1741.62" y="-372.95" font-family="Times,serif" font-size="14.00">rq/set_colorRequest</text>
</g>
<!-- /mechaship_navigation2_node&#45;&gt;rq/set_colorRequest -->
<g id="edge12" class="edge">
<title>/mechaship_navigation2_node&#45;&gt;rq/set_colorRequest</title>
<path fill="none" stroke="black" d="M1263.94,-540.96C1359.02,-508.72 1573.23,-436.09 1679.47,-400.07"/>
<polygon fill="black" stroke="black" points="1680.55,-403.4 1688.9,-396.88 1678.3,-396.77 1680.55,-403.4"/>
</g>
<!-- /mechaship_classify_sub_node -->
<g id="node4" class="node">
<title>/mechaship_classify_sub_node</title>
<ellipse fill="limegreen" stroke="black" cx="128.62" cy="-918" rx="126.08" ry="18"/>
<text text-anchor="middle" x="128.62" y="-912.95" font-family="Times,serif" font-size="14.00">/mechaship_classify_sub_node</text>
</g>
<!-- /mechaship_detect_node -->
<g id="node5" class="node">
<title>/mechaship_detect_node</title>
<ellipse fill="limegreen" stroke="black" cx="2233.62" cy="-198" rx="102.53" ry="18"/>
<text text-anchor="middle" x="2233.62" y="-192.95" font-family="Times,serif" font-size="14.00">/mechaship_detect_node</text>
</g>
<!-- rt/DetectionArray -->
<g id="node8" class="node">
<title>rt/DetectionArray</title>
<polygon fill="gold" stroke="black" points="2313.62,-396 2201.62,-396 2201.62,-360 2313.62,-360 2313.62,-396"/>
<text text-anchor="middle" x="2257.62" y="-372.95" font-family="Times,serif" font-size="14.00">rt/DetectionArray</text>
</g>
<!-- /mechaship_detect_node&#45;&gt;rt/DetectionArray -->
<g id="edge16" class="edge">
<title>/mechaship_detect_node&#45;&gt;rt/DetectionArray</title>
<path fill="none" stroke="black" d="M2235.97,-216.39C2240.11,-247.1 2248.75,-311.19 2253.78,-348.46"/>
<polygon fill="black" stroke="black" points="2250.26,-348.6 2255.07,-358.04 2257.2,-347.66 2250.26,-348.6"/>
</g>
<!-- rt/scan -->
<g id="node6" class="node">
<title>rt/scan</title>
<polygon fill="gold" stroke="black" points="155.62,-396 101.62,-396 101.62,-360 155.62,-360 155.62,-396"/>
<text text-anchor="middle" x="128.62" y="-372.95" font-family="Times,serif" font-size="14.00">rt/scan</text>
</g>
<!-- rt/scan&#45;&gt;/mechaship_classify_node -->
<g id="edge3" class="edge">
<title>rt/scan&#45;&gt;/mechaship_classify_node</title>
<path fill="none" stroke="black" d="M128.62,-396.39C128.62,-427.1 128.62,-491.19 128.62,-528.46"/>
<polygon fill="black" stroke="black" points="125.13,-528.02 128.63,-538.02 132.13,-528.02 125.13,-528.02"/>
</g>
<!-- rt/scan&#45;&gt;/mechaship_navigation2_node -->
<g id="edge7" class="edge">
<title>rt/scan&#45;&gt;/mechaship_navigation2_node</title>
<path fill="none" stroke="black" d="M155.82,-384.65C181.5,-389.92 221.11,-397.86 255.62,-404 571.21,-460.16 946.89,-517.12 1120.23,-542.84"/>
<polygon fill="black" stroke="black" points="1119.7,-546.3 1130.11,-544.31 1120.73,-539.38 1119.7,-546.3"/>
</g>
<!-- rt/Buoy&#45;&gt;/mechaship_classify_sub_node -->
<g id="edge15" class="edge">
<title>rt/Buoy&#45;&gt;/mechaship_classify_sub_node</title>
<path fill="none" stroke="black" d="M38.4,-756.39C55.92,-787.58 92.78,-853.19 113.56,-890.18"/>
<polygon fill="black" stroke="black" points="110.27,-891.48 118.22,-898.48 116.37,-888.05 110.27,-891.48"/>
</g>
<!-- rt/DetectionArray&#45;&gt;/mechaship_detect_sub_node -->
<g id="edge4" class="edge">
<title>rt/DetectionArray&#45;&gt;/mechaship_detect_sub_node</title>
<path fill="none" stroke="black" d="M2272.09,-396.39C2298.24,-427.84 2353.51,-494.32 2384.11,-531.12"/>
<polygon fill="black" stroke="black" points="2381.27,-533.18 2390.36,-538.64 2386.65,-528.71 2381.27,-533.18"/>
</g>
<!-- rt/DetectionArray&#45;&gt;/mechaship_navigation2_node -->
<g id="edge6" class="edge">
<title>rt/DetectionArray&#45;&gt;/mechaship_navigation2_node</title>
<path fill="none" stroke="black" d="M2201.29,-388.63C2030.04,-417.92 1514.65,-506.04 1305.89,-541.74"/>
<polygon fill="black" stroke="black" points="1305.44,-538.26 1296.17,-543.4 1306.62,-545.16 1305.44,-538.26"/>
</g>
<!-- rt/Wall&#45;&gt;/mechaship_classify_sub_node -->
<g id="edge14" class="edge">
<title>rt/Wall&#45;&gt;/mechaship_classify_sub_node</title>
<path fill="none" stroke="black" d="M218.85,-756.39C201.33,-787.58 164.47,-853.19 143.69,-890.18"/>
<polygon fill="black" stroke="black" points="140.88,-888.05 139.03,-898.48 146.98,-891.48 140.88,-888.05"/>
</g>
<!-- rt/Image -->
<g id="node10" class="node">
<title>rt/Image</title>
<polygon fill="gold" stroke="black" points="2424.88,-36 2362.38,-36 2362.38,0 2424.88,0 2424.88,-36"/>
<text text-anchor="middle" x="2393.62" y="-12.95" font-family="Times,serif" font-size="14.00">rt/Image</text>
</g>
<!-- rt/Image&#45;&gt;/mechaship_detect_sub_node -->
<g id="edge5" class="edge">
<title>rt/Image&#45;&gt;/mechaship_detect_sub_node</title>
<path fill="none" stroke="black" d="M2395.78,-36.35C2399.31,-65.83 2406.19,-127.56 2408.62,-180 2414.67,-309.95 2409.52,-465.36 2406.91,-528.37"/>
<polygon fill="black" stroke="black" points="2403.42,-528.05 2406.5,-538.19 2410.42,-528.35 2403.42,-528.05"/>
</g>
<!-- rt/Image&#45;&gt;/mechaship_detect_node -->
<g id="edge17" class="edge">
<title>rt/Image&#45;&gt;/mechaship_detect_node</title>
<path fill="none" stroke="black" d="M2377.99,-36.39C2349.6,-67.98 2289.46,-134.88 2256.47,-171.59"/>
<polygon fill="black" stroke="black" points="2254.18,-168.9 2250.1,-178.67 2259.39,-173.58 2254.18,-168.9"/>
</g>
<!-- rr/actuators/key/setReply -->
<g id="node12" class="node">
<title>rr/actuators/key/setReply</title>
<polygon fill="gold" stroke="black" points="451.5,-396 299.75,-396 299.75,-360 451.5,-360 451.5,-396"/>
<text text-anchor="middle" x="375.62" y="-372.95" font-family="Times,serif" font-size="14.00">rr/actuators/key/setReply</text>
</g>
<!-- rr/actuators/key/setReply&#45;&gt;/mechaship_navigation2_node -->
<g id="edge9" class="edge">
<title>rr/actuators/key/setReply&#45;&gt;/mechaship_navigation2_node</title>
<path fill="none" stroke="black" d="M451.74,-395.11C610.63,-428.74 976.2,-506.11 1137.59,-540.27"/>
<polygon fill="black" stroke="black" points="1136.4,-543.6 1146.91,-542.24 1137.85,-536.75 1136.4,-543.6"/>
</g>
<!-- rr/actuators/throttle/set_percentageReply -->
<g id="node14" class="node">
<title>rr/actuators/throttle/set_percentageReply</title>
<polygon fill="gold" stroke="black" points="1141.88,-396 905.38,-396 905.38,-360 1141.88,-360 1141.88,-396"/>
<text text-anchor="middle" x="1023.62" y="-372.95" font-family="Times,serif" font-size="14.00">rr/actuators/throttle/set_percentageReply</text>
</g>
<!-- rr/actuators/throttle/set_percentageReply&#45;&gt;/mechaship_navigation2_node -->
<g id="edge11" class="edge">
<title>rr/actuators/throttle/set_percentageReply&#45;&gt;/mechaship_navigation2_node</title>
<path fill="none" stroke="black" d="M1042.48,-396.39C1076.87,-428.11 1149.89,-495.45 1189.57,-532.05"/>
<polygon fill="black" stroke="black" points="1187.14,-534.57 1196.86,-538.77 1191.88,-529.42 1187.14,-534.57"/>
</g>
<!-- rr/set_colorReply -->
<g id="node15" class="node">
<title>rr/set_colorReply</title>
<polygon fill="gold" stroke="black" points="2057.88,-396 1947.38,-396 1947.38,-360 2057.88,-360 2057.88,-396"/>
<text text-anchor="middle" x="2002.62" y="-372.95" font-family="Times,serif" font-size="14.00">rr/set_colorReply</text>
</g>
<!-- rr/set_colorReply&#45;&gt;/mechaship_navigation2_node -->
<g id="edge13" class="edge">
<title>rr/set_colorReply&#45;&gt;/mechaship_navigation2_node</title>
<path fill="none" stroke="black" d="M1947.04,-391.59C1808.93,-422.87 1449.96,-504.16 1292.52,-539.81"/>
<polygon fill="black" stroke="black" points="1291.99,-536.34 1283.01,-541.97 1293.54,-543.17 1291.99,-536.34"/>
</g>
</g>
</svg>
