<?xml version="1.0" encoding="UTF-8" standalone="no"?>
<!DOCTYPE svg PUBLIC "-//W3C//DTD SVG 1.1//EN"
 "http://www.w3.org/Graphics/SVG/1.1/DTD/svg11.dtd">
<!-- Generated by graphviz version 10.0.1 (20240210.2158)
 -->
<!-- Title: rosgraph Pages: 1 -->
<svg width="819pt" height="900pt"
 viewBox="0.00 0.00 818.99 900.00" xmlns="http://www.w3.org/2000/svg" xmlns:xlink="http://www.w3.org/1999/xlink">
<g id="graph0" class="graph" transform="scale(1 1) rotate(0) translate(72 828)">
<title>rosgraph</title>
<polygon fill="white" stroke="none" points="-72,72 -72,-828 746.99,-828 746.99,72 -72,72"/>
<g id="clust1" class="cluster">
<title>cluster_0</title>
<polygon fill="lightskyblue" stroke="black" stroke-width="2" points="194.38,-327.5 194.38,-404 612.38,-404 612.38,-327.5 194.38,-327.5"/>
<text text-anchor="middle" x="403.38" y="-334.7" font-family="Times,serif" font-size="14.00">/registration</text>
</g>
<!-- /vision_node -->
<g id="node1" class="node">
<title>/vision_node</title>
<ellipse fill="limegreen" stroke="black" cx="406.38" cy="-198" rx="58.52" ry="18"/>
<text text-anchor="middle" x="406.38" y="-192.95" font-family="Times,serif" font-size="14.00">/vision_node</text>
</g>
<!-- rt/move -->
<g id="node3" class="node">
<title>rt/move</title>
<polygon fill="gold" stroke="black" points="58.75,-396 0,-396 0,-360 58.75,-360 58.75,-396"/>
<text text-anchor="middle" x="29.38" y="-372.95" font-family="Times,serif" font-size="14.00">rt/move</text>
</g>
<!-- /vision_node&#45;&gt;rt/move -->
<g id="edge1" class="edge">
<title>/vision_node&#45;&gt;rt/move</title>
<path fill="none" stroke="black" d="M375.52,-213.57C307.5,-245.68 144.69,-322.55 69.14,-358.22"/>
<polygon fill="black" stroke="black" points="68,-354.9 60.45,-362.33 70.98,-361.22 68,-354.9"/>
</g>
<!-- rr/registrationReply -->
<g id="node7" class="node">
<title>rr/registrationReply</title>
<polygon fill="gold" stroke="black" points="604.62,-396 482.12,-396 482.12,-360 604.62,-360 604.62,-396"/>
<text text-anchor="middle" x="543.38" y="-372.95" font-family="Times,serif" font-size="14.00">rr/registrationReply</text>
</g>
<!-- /vision_node&#45;&gt;rr/registrationReply -->
<g id="edge5" class="edge">
<title>/vision_node&#45;&gt;rr/registrationReply</title>
<path fill="none" stroke="black" d="M419.26,-215.75C443.21,-246.86 494.73,-313.79 523.28,-350.89"/>
<polygon fill="black" stroke="black" points="520.22,-352.66 529.09,-358.45 525.77,-348.39 520.22,-352.66"/>
</g>
<!-- /collector_node -->
<g id="node2" class="node">
<title>/collector_node</title>
<ellipse fill="limegreen" stroke="black" cx="403.38" cy="-558" rx="68.24" ry="18"/>
<text text-anchor="middle" x="403.38" y="-552.95" font-family="Times,serif" font-size="14.00">/collector_node</text>
</g>
<!-- rt/finish -->
<g id="node5" class="node">
<title>rt/finish</title>
<polygon fill="gold" stroke="black" points="574.75,-756 516,-756 516,-720 574.75,-720 574.75,-756"/>
<text text-anchor="middle" x="545.38" y="-732.95" font-family="Times,serif" font-size="14.00">rt/finish</text>
</g>
<!-- /collector_node&#45;&gt;rt/finish -->
<g id="edge6" class="edge">
<title>/collector_node&#45;&gt;rt/finish</title>
<path fill="none" stroke="black" d="M416.99,-576.07C441.95,-607.35 495.16,-674.06 524.64,-711.01"/>
<polygon fill="black" stroke="black" points="521.68,-712.9 530.65,-718.54 527.15,-708.54 521.68,-712.9"/>
</g>
<!-- rq/registrationRequest -->
<g id="node6" class="node">
<title>rq/registrationRequest</title>
<polygon fill="gold" stroke="black" points="338.38,-396 202.38,-396 202.38,-360 338.38,-360 338.38,-396"/>
<text text-anchor="middle" x="270.38" y="-372.95" font-family="Times,serif" font-size="14.00">rq/registrationRequest</text>
</g>
<!-- /collector_node&#45;&gt;rq/registrationRequest -->
<g id="edge9" class="edge">
<title>/collector_node&#45;&gt;rq/registrationRequest</title>
<path fill="none" stroke="black" d="M390.72,-540.06C367.51,-509 317.99,-442.72 290.25,-405.6"/>
<polygon fill="black" stroke="black" points="293.07,-403.52 284.28,-397.6 287.46,-407.71 293.07,-403.52"/>
</g>
<!-- rt/move&#45;&gt;/collector_node -->
<g id="edge7" class="edge">
<title>rt/move&#45;&gt;/collector_node</title>
<path fill="none" stroke="black" d="M59.03,-393.12C125.12,-424.57 284.65,-500.5 361.12,-536.89"/>
<polygon fill="black" stroke="black" points="359.44,-539.97 369.97,-541.1 362.45,-533.65 359.44,-539.97"/>
</g>
<!-- rt/vision -->
<g id="node4" class="node">
<title>rt/vision</title>
<polygon fill="gold" stroke="black" points="436.88,-36 375.88,-36 375.88,0 436.88,0 436.88,-36"/>
<text text-anchor="middle" x="406.38" y="-12.95" font-family="Times,serif" font-size="14.00">rt/vision</text>
</g>
<!-- rt/vision&#45;&gt;/vision_node -->
<g id="edge2" class="edge">
<title>rt/vision&#45;&gt;/vision_node</title>
<path fill="none" stroke="black" d="M406.38,-36.39C406.38,-67.1 406.38,-131.19 406.38,-168.46"/>
<polygon fill="black" stroke="black" points="402.88,-168.02 406.38,-178.02 409.88,-168.02 402.88,-168.02"/>
</g>
<!-- rt/finish&#45;&gt;/vision_node -->
<g id="edge3" class="edge">
<title>rt/finish&#45;&gt;/vision_node</title>
<path fill="none" stroke="black" d="M558.41,-719.66C601.14,-660.52 729.78,-462.89 648.38,-327.5 608.83,-261.72 523,-227.81 464.94,-211.73"/>
<polygon fill="black" stroke="black" points="466.1,-208.42 455.54,-209.23 464.3,-215.19 466.1,-208.42"/>
</g>
<!-- rq/registrationRequest&#45;&gt;/vision_node -->
<g id="edge4" class="edge">
<title>rq/registrationRequest&#45;&gt;/vision_node</title>
<path fill="none" stroke="black" d="M283.63,-359.65C307.66,-328.2 358.49,-261.67 386.62,-224.86"/>
<polygon fill="black" stroke="black" points="389.37,-227.02 392.66,-216.95 383.81,-222.77 389.37,-227.02"/>
</g>
<!-- rr/registrationReply&#45;&gt;/collector_node -->
<g id="edge8" class="edge">
<title>rr/registrationReply&#45;&gt;/collector_node</title>
<path fill="none" stroke="black" d="M529.7,-396.39C504.9,-427.92 452.41,-494.66 423.51,-531.4"/>
<polygon fill="black" stroke="black" points="421.07,-528.85 417.63,-538.87 426.57,-533.17 421.07,-528.85"/>
</g>
</g>
</svg>
