<?xml version="1.0" encoding="UTF-8" standalone="no"?>
<!DOCTYPE svg PUBLIC "-//W3C//DTD SVG 1.1//EN"
 "http://www.w3.org/Graphics/SVG/1.1/DTD/svg11.dtd">
<!-- Generated by graphviz version 9.0.0 (20230911.1827)
 -->
<!-- Title: rosgraph Pages: 1 -->
<svg width="1454pt" height="1260pt"
 viewBox="0.00 0.00 1453.75 1260.00" xmlns="http://www.w3.org/2000/svg" xmlns:xlink="http://www.w3.org/1999/xlink">
<g id="graph0" class="graph" transform="scale(1 1) rotate(0) translate(72 1188)">
<title>rosgraph</title>
<polygon fill="white" stroke="none" points="-72,72 -72,-1188 1381.75,-1188 1381.75,72 -72,72"/>
<!-- /plotter_node -->
<g id="node1" class="node">
<title>/plotter_node</title>
<ellipse fill="limegreen" stroke="black" cx="191" cy="-198" rx="60.05" ry="18"/>
<text text-anchor="middle" x="191" y="-192.95" font-family="Times,serif" font-size="14.00">/plotter_node</text>
</g>
<!-- /client_node -->
<g id="node2" class="node">
<title>/client_node</title>
<ellipse fill="limegreen" stroke="black" cx="927" cy="-198" rx="56.47" ry="18"/>
<text text-anchor="middle" x="927" y="-192.95" font-family="Times,serif" font-size="14.00">/client_node</text>
</g>
<!-- rt/IsClientConnected -->
<g id="node10" class="node">
<title>rt/IsClientConnected</title>
<polygon fill="gold" stroke="black" points="980.25,-396 851.75,-396 851.75,-360 980.25,-360 980.25,-396"/>
<text text-anchor="middle" x="916" y="-372.95" font-family="Times,serif" font-size="14.00">rt/IsClientConnected</text>
</g>
<!-- /client_node&#45;&gt;rt/IsClientConnected -->
<g id="edge3" class="edge">
<title>/client_node&#45;&gt;rt/IsClientConnected</title>
<path fill="none" stroke="black" d="M925.93,-216.39C924.03,-247.1 920.07,-311.19 917.76,-348.46"/>
<polygon fill="black" stroke="black" points="914.3,-347.83 917.17,-358.03 921.28,-348.26 914.3,-347.83"/>
</g>
<!-- rt/IsClientRaceOn -->
<g id="node15" class="node">
<title>rt/IsClientRaceOn</title>
<polygon fill="gold" stroke="black" points="1238.12,-396 1123.88,-396 1123.88,-360 1238.12,-360 1238.12,-396"/>
<text text-anchor="middle" x="1181" y="-372.95" font-family="Times,serif" font-size="14.00">rt/IsClientRaceOn</text>
</g>
<!-- /client_node&#45;&gt;rt/IsClientRaceOn -->
<g id="edge2" class="edge">
<title>/client_node&#45;&gt;rt/IsClientRaceOn</title>
<path fill="none" stroke="black" d="M949.54,-214.8C994.23,-246.12 1094.29,-316.24 1147.01,-353.18"/>
<polygon fill="black" stroke="black" points="1144.85,-355.94 1155.04,-358.81 1148.86,-350.2 1144.85,-355.94"/>
</g>
<!-- /driver -->
<g id="node3" class="node">
<title>/driver</title>
<ellipse fill="limegreen" stroke="black" cx="504" cy="-558" rx="35.49" ry="18"/>
<text text-anchor="middle" x="504" y="-552.95" font-family="Times,serif" font-size="14.00">/driver</text>
</g>
<!-- rt/motorSpeed -->
<g id="node16" class="node">
<title>rt/motorSpeed</title>
<polygon fill="gold" stroke="black" points="94,-756 0,-756 0,-720 94,-720 94,-756"/>
<text text-anchor="middle" x="47" y="-732.95" font-family="Times,serif" font-size="14.00">rt/motorSpeed</text>
</g>
<!-- /driver&#45;&gt;rt/motorSpeed -->
<g id="edge5" class="edge">
<title>/driver&#45;&gt;rt/motorSpeed</title>
<path fill="none" stroke="black" d="M476.44,-569.73C402.88,-598.39 200.79,-677.1 102.35,-715.44"/>
<polygon fill="black" stroke="black" points="101.19,-712.14 93.14,-719.03 103.73,-718.66 101.19,-712.14"/>
</g>
<!-- rt/LidarBrain -->
<g id="node17" class="node">
<title>rt/LidarBrain</title>
<polygon fill="gold" stroke="black" points="845.62,-756 758.38,-756 758.38,-720 845.62,-720 845.62,-756"/>
<text text-anchor="middle" x="802" y="-732.95" font-family="Times,serif" font-size="14.00">rt/LidarBrain</text>
</g>
<!-- /driver&#45;&gt;rt/LidarBrain -->
<g id="edge7" class="edge">
<title>/driver&#45;&gt;rt/LidarBrain</title>
<path fill="none" stroke="black" d="M526.4,-572.38C576.89,-602.54 700.11,-676.14 763.28,-713.87"/>
<polygon fill="black" stroke="black" points="761.2,-716.71 771.58,-718.83 764.79,-710.7 761.2,-716.71"/>
</g>
<!-- rt/servoSteer -->
<g id="node19" class="node">
<title>rt/servoSteer</title>
<polygon fill="gold" stroke="black" points="323.5,-756 238.5,-756 238.5,-720 323.5,-720 323.5,-756"/>
<text text-anchor="middle" x="281" y="-732.95" font-family="Times,serif" font-size="14.00">rt/servoSteer</text>
</g>
<!-- /driver&#45;&gt;rt/servoSteer -->
<g id="edge6" class="edge">
<title>/driver&#45;&gt;rt/servoSteer</title>
<path fill="none" stroke="black" d="M485.75,-573.57C447.52,-604.08 358.69,-674.99 311.59,-712.59"/>
<polygon fill="black" stroke="black" points="309.57,-709.72 303.93,-718.69 313.93,-715.19 309.57,-709.72"/>
</g>
<!-- /motor -->
<g id="node4" class="node">
<title>/motor</title>
<ellipse fill="limegreen" stroke="black" cx="47" cy="-918" rx="36" ry="18"/>
<text text-anchor="middle" x="47" y="-912.95" font-family="Times,serif" font-size="14.00">/motor</text>
</g>
<!-- /communication_node -->
<g id="node5" class="node">
<title>/communication_node</title>
<ellipse fill="limegreen" stroke="black" cx="1105" cy="-558" rx="94.34" ry="18"/>
<text text-anchor="middle" x="1105" y="-552.95" font-family="Times,serif" font-size="14.00">/communication_node</text>
</g>
<!-- rt/IsRaceOn -->
<g id="node13" class="node">
<title>rt/IsRaceOn</title>
<polygon fill="gold" stroke="black" points="1070.62,-756 989.38,-756 989.38,-720 1070.62,-720 1070.62,-756"/>
<text text-anchor="middle" x="1030" y="-732.95" font-family="Times,serif" font-size="14.00">rt/IsRaceOn</text>
</g>
<!-- /communication_node&#45;&gt;rt/IsRaceOn -->
<g id="edge11" class="edge">
<title>/communication_node&#45;&gt;rt/IsRaceOn</title>
<path fill="none" stroke="black" d="M1097.67,-576.39C1084.68,-607.23 1057.5,-671.74 1041.82,-708.94"/>
<polygon fill="black" stroke="black" points="1038.6,-707.57 1037.95,-718.14 1045.05,-710.29 1038.6,-707.57"/>
</g>
<!-- rt/IsConnected -->
<g id="node14" class="node">
<title>rt/IsConnected</title>
<polygon fill="gold" stroke="black" points="1309.75,-756 1214.25,-756 1214.25,-720 1309.75,-720 1309.75,-756"/>
<text text-anchor="middle" x="1262" y="-732.95" font-family="Times,serif" font-size="14.00">rt/IsConnected</text>
</g>
<!-- /communication_node&#45;&gt;rt/IsConnected -->
<g id="edge12" class="edge">
<title>/communication_node&#45;&gt;rt/IsConnected</title>
<path fill="none" stroke="black" d="M1120.05,-576.07C1147.76,-607.48 1206.98,-674.62 1239.49,-711.48"/>
<polygon fill="black" stroke="black" points="1236.52,-713.4 1245.76,-718.59 1241.77,-708.77 1236.52,-713.4"/>
</g>
<!-- /brain_node -->
<g id="node6" class="node">
<title>/brain_node</title>
<ellipse fill="limegreen" stroke="black" cx="921" cy="-918" rx="54.93" ry="18"/>
<text text-anchor="middle" x="921" y="-912.95" font-family="Times,serif" font-size="14.00">/brain_node</text>
</g>
<!-- rt/BrainDrivingCommand -->
<g id="node9" class="node">
<title>rt/BrainDrivingCommand</title>
<polygon fill="gold" stroke="black" points="755.88,-1116 598.12,-1116 598.12,-1080 755.88,-1080 755.88,-1116"/>
<text text-anchor="middle" x="677" y="-1092.95" font-family="Times,serif" font-size="14.00">rt/BrainDrivingCommand</text>
</g>
<!-- /brain_node&#45;&gt;rt/BrainDrivingCommand -->
<g id="edge15" class="edge">
<title>/brain_node&#45;&gt;rt/BrainDrivingCommand</title>
<path fill="none" stroke="black" d="M899.35,-934.8C856.5,-966.05 760.69,-1035.95 709.96,-1072.95"/>
<polygon fill="black" stroke="black" points="707.98,-1070.07 701.97,-1078.79 712.11,-1075.72 707.98,-1070.07"/>
</g>
<!-- /lidar_preprocessing_node -->
<g id="node7" class="node">
<title>/lidar_preprocessing_node</title>
<ellipse fill="limegreen" stroke="black" cx="504" cy="-198" rx="108.67" ry="18"/>
<text text-anchor="middle" x="504" y="-192.95" font-family="Times,serif" font-size="14.00">/lidar_preprocessing_node</text>
</g>
<!-- rt/LidarScanPreprocessed -->
<g id="node12" class="node">
<title>rt/LidarScanPreprocessed</title>
<polygon fill="gold" stroke="black" points="581.38,-396 426.62,-396 426.62,-360 581.38,-360 581.38,-396"/>
<text text-anchor="middle" x="504" y="-372.95" font-family="Times,serif" font-size="14.00">rt/LidarScanPreprocessed</text>
</g>
<!-- /lidar_preprocessing_node&#45;&gt;rt/LidarScanPreprocessed -->
<g id="edge19" class="edge">
<title>/lidar_preprocessing_node&#45;&gt;rt/LidarScanPreprocessed</title>
<path fill="none" stroke="black" d="M504,-216.39C504,-247.1 504,-311.19 504,-348.46"/>
<polygon fill="black" stroke="black" points="500.5,-348.02 504,-358.02 507.5,-348.02 500.5,-348.02"/>
</g>
<!-- /servo -->
<g id="node8" class="node">
<title>/servo</title>
<ellipse fill="limegreen" stroke="black" cx="281" cy="-918" rx="33.44" ry="18"/>
<text text-anchor="middle" x="281" y="-912.95" font-family="Times,serif" font-size="14.00">/servo</text>
</g>
<!-- rt/BrainDrivingCommand&#45;&gt;/driver -->
<g id="edge8" class="edge">
<title>rt/BrainDrivingCommand&#45;&gt;/driver</title>
<path fill="none" stroke="black" d="M671.45,-1079.74C646.43,-1001.93 544.02,-683.44 512.97,-586.88"/>
<polygon fill="black" stroke="black" points="516.32,-585.88 509.93,-577.43 509.66,-588.02 516.32,-585.88"/>
</g>
<!-- rt/IsClientConnected&#45;&gt;/communication_node -->
<g id="edge13" class="edge">
<title>rt/IsClientConnected&#45;&gt;/communication_node</title>
<path fill="none" stroke="black" d="M934.47,-396.39C968.23,-428.19 1040.01,-495.79 1078.81,-532.33"/>
<polygon fill="black" stroke="black" points="1076.23,-534.71 1085.91,-539.02 1081.03,-529.62 1076.23,-534.71"/>
</g>
<!-- rt/IsAppRaceOn -->
<g id="node11" class="node">
<title>rt/IsAppRaceOn</title>
<polygon fill="gold" stroke="black" points="979.25,-36 874.75,-36 874.75,0 979.25,0 979.25,-36"/>
<text text-anchor="middle" x="927" y="-12.95" font-family="Times,serif" font-size="14.00">rt/IsAppRaceOn</text>
</g>
<!-- rt/IsAppRaceOn&#45;&gt;/client_node -->
<g id="edge4" class="edge">
<title>rt/IsAppRaceOn&#45;&gt;/client_node</title>
<path fill="none" stroke="black" d="M927,-36.39C927,-67.1 927,-131.19 927,-168.46"/>
<polygon fill="black" stroke="black" points="923.5,-168.02 927,-178.02 930.5,-168.02 923.5,-168.02"/>
</g>
<!-- rt/LidarScanPreprocessed&#45;&gt;/driver -->
<g id="edge9" class="edge">
<title>rt/LidarScanPreprocessed&#45;&gt;/driver</title>
<path fill="none" stroke="black" d="M504,-396.39C504,-427.1 504,-491.19 504,-528.46"/>
<polygon fill="black" stroke="black" points="500.5,-528.02 504,-538.02 507.5,-528.02 500.5,-528.02"/>
</g>
<!-- rt/IsRaceOn&#45;&gt;/brain_node -->
<g id="edge16" class="edge">
<title>rt/IsRaceOn&#45;&gt;/brain_node</title>
<path fill="none" stroke="black" d="M1019.35,-756.39C1000.2,-787.66 959.87,-853.53 937.25,-890.46"/>
<polygon fill="black" stroke="black" points="934.4,-888.41 932.16,-898.77 940.37,-892.07 934.4,-888.41"/>
</g>
<!-- rt/IsConnected&#45;&gt;/brain_node -->
<g id="edge18" class="edge">
<title>rt/IsConnected&#45;&gt;/brain_node</title>
<path fill="none" stroke="black" d="M1228.68,-756.39C1165.05,-789.61 1026.59,-861.88 959.28,-897.02"/>
<polygon fill="black" stroke="black" points="957.69,-893.9 950.45,-901.63 960.93,-900.1 957.69,-893.9"/>
</g>
<!-- rt/IsClientRaceOn&#45;&gt;/communication_node -->
<g id="edge14" class="edge">
<title>rt/IsClientRaceOn&#45;&gt;/communication_node</title>
<path fill="none" stroke="black" d="M1173.57,-396.39C1160.37,-427.31 1132.72,-492.08 1116.86,-529.23"/>
<polygon fill="black" stroke="black" points="1113.65,-527.84 1112.94,-538.41 1120.08,-530.59 1113.65,-527.84"/>
</g>
<!-- rt/motorSpeed&#45;&gt;/motor -->
<g id="edge10" class="edge">
<title>rt/motorSpeed&#45;&gt;/motor</title>
<path fill="none" stroke="black" d="M47,-756.39C47,-787.1 47,-851.19 47,-888.46"/>
<polygon fill="black" stroke="black" points="43.5,-888.02 47,-898.02 50.5,-888.02 43.5,-888.02"/>
</g>
<!-- rt/LidarBrain&#45;&gt;/brain_node -->
<g id="edge17" class="edge">
<title>rt/LidarBrain&#45;&gt;/brain_node</title>
<path fill="none" stroke="black" d="M813.63,-756.39C834.62,-787.79 878.95,-854.1 903.58,-890.94"/>
<polygon fill="black" stroke="black" points="900.37,-892.43 908.83,-898.8 906.19,-888.54 900.37,-892.43"/>
</g>
<!-- rt/scan -->
<g id="node18" class="node">
<title>rt/scan</title>
<polygon fill="gold" stroke="black" points="375,-36 321,-36 321,0 375,0 375,-36"/>
<text text-anchor="middle" x="348" y="-12.95" font-family="Times,serif" font-size="14.00">rt/scan</text>
</g>
<!-- rt/scan&#45;&gt;/plotter_node -->
<g id="edge1" class="edge">
<title>rt/scan&#45;&gt;/plotter_node</title>
<path fill="none" stroke="black" d="M332.66,-36.39C304.78,-68 245.68,-135 213.33,-171.69"/>
<polygon fill="black" stroke="black" points="210.7,-169.37 206.71,-179.18 215.95,-174 210.7,-169.37"/>
</g>
<!-- rt/scan&#45;&gt;/lidar_preprocessing_node -->
<g id="edge20" class="edge">
<title>rt/scan&#45;&gt;/lidar_preprocessing_node</title>
<path fill="none" stroke="black" d="M363.24,-36.39C390.92,-67.98 449.56,-134.88 481.73,-171.59"/>
<polygon fill="black" stroke="black" points="478.7,-173.45 487.93,-178.66 483.97,-168.83 478.7,-173.45"/>
</g>
<!-- rt/servoSteer&#45;&gt;/servo -->
<g id="edge21" class="edge">
<title>rt/servoSteer&#45;&gt;/servo</title>
<path fill="none" stroke="black" d="M281,-756.39C281,-787.1 281,-851.19 281,-888.46"/>
<polygon fill="black" stroke="black" points="277.5,-888.02 281,-898.02 284.5,-888.02 277.5,-888.02"/>
</g>
</g>
</svg>
