<?xml version="1.0" encoding="UTF-8" standalone="no"?>
<!DOCTYPE svg PUBLIC "-//W3C//DTD SVG 1.1//EN"
 "http://www.w3.org/Graphics/SVG/1.1/DTD/svg11.dtd">
<!-- Generated by graphviz version 10.0.1 (20240210.2158)
 -->
<!-- Title: rosgraph Pages: 1 -->
<svg width="4791pt" height="1080pt"
 viewBox="0.00 0.00 4791.00 1080.00" xmlns="http://www.w3.org/2000/svg" xmlns:xlink="http://www.w3.org/1999/xlink">
<g id="graph0" class="graph" transform="scale(1 1) rotate(0) translate(72 1008)">
<title>rosgraph</title>
<polygon fill="white" stroke="none" points="-72,72 -72,-1008 4719,-1008 4719,72 -72,72"/>
<!-- /camera -->
<g id="node1" class="node">
<title>/camera</title>
<ellipse fill="limegreen" stroke="black" cx="2971" cy="-18" rx="40.6" ry="18"/>
<text text-anchor="middle" x="2971" y="-12.95" font-family="Times,serif" font-size="14.00">/camera</text>
</g>
<!-- rt/camera_sensor_settings -->
<g id="node7" class="node">
<title>rt/camera_sensor_settings</title>
<polygon fill="gold" stroke="black" points="2463.5,-216 2306.5,-216 2306.5,-180 2463.5,-180 2463.5,-216"/>
<text text-anchor="middle" x="2385" y="-192.95" font-family="Times,serif" font-size="14.00">rt/camera_sensor_settings</text>
</g>
<!-- /camera&#45;&gt;rt/camera_sensor_settings -->
<g id="edge3" class="edge">
<title>/camera&#45;&gt;rt/camera_sensor_settings</title>
<path fill="none" stroke="black" d="M2938.24,-28.95C2845.38,-57.16 2579.01,-138.07 2452.84,-176.39"/>
<polygon fill="black" stroke="black" points="2452.17,-172.94 2443.62,-179.19 2454.2,-179.64 2452.17,-172.94"/>
</g>
<!-- rt/keep_alive -->
<g id="node9" class="node">
<title>rt/keep_alive</title>
<polygon fill="gold" stroke="black" points="4400.25,-936 4313.75,-936 4313.75,-900 4400.25,-900 4400.25,-936"/>
<text text-anchor="middle" x="4357" y="-912.95" font-family="Times,serif" font-size="14.00">rt/keep_alive</text>
</g>
<!-- /camera&#45;&gt;rt/keep_alive -->
<g id="edge2" class="edge">
<title>/camera&#45;&gt;rt/keep_alive</title>
<path fill="none" stroke="black" d="M3012.01,-18.75C3269.04,-18.25 4647,-31.67 4647,-377 4647,-377 4647,-377 4647,-559 4647,-716.25 4475.98,-843.1 4396.6,-893.51"/>
<polygon fill="black" stroke="black" points="4394.85,-890.49 4388.23,-898.76 4398.56,-896.42 4394.85,-890.49"/>
</g>
<!-- rt/camera_frame -->
<g id="node16" class="node">
<title>rt/camera_frame</title>
<polygon fill="gold" stroke="black" points="2162.38,-216 2055.62,-216 2055.62,-180 2162.38,-180 2162.38,-216"/>
<text text-anchor="middle" x="2109" y="-192.95" font-family="Times,serif" font-size="14.00">rt/camera_frame</text>
</g>
<!-- /camera&#45;&gt;rt/camera_frame -->
<g id="edge1" class="edge">
<title>/camera&#45;&gt;rt/camera_frame</title>
<path fill="none" stroke="black" d="M2934.79,-26.48C2802.51,-53.79 2344.34,-148.4 2173.7,-183.64"/>
<polygon fill="black" stroke="black" points="2173.21,-180.17 2164.13,-185.62 2174.63,-187.02 2173.21,-180.17"/>
</g>
<!-- /gui -->
<g id="node2" class="node">
<title>/gui</title>
<ellipse fill="limegreen" stroke="black" cx="2189" cy="-378" rx="27" ry="18"/>
<text text-anchor="middle" x="2189" y="-372.95" font-family="Times,serif" font-size="14.00">/gui</text>
</g>
<!-- rt/log_level -->
<g id="node8" class="node">
<title>rt/log_level</title>
<polygon fill="gold" stroke="black" points="3240.12,-576 3161.88,-576 3161.88,-540 3240.12,-540 3240.12,-576"/>
<text text-anchor="middle" x="3201" y="-552.95" font-family="Times,serif" font-size="14.00">rt/log_level</text>
</g>
<!-- /gui&#45;&gt;rt/log_level -->
<g id="edge12" class="edge">
<title>/gui&#45;&gt;rt/log_level</title>
<path fill="none" stroke="black" d="M2215.03,-383.58C2349.74,-407.27 2968.39,-516.09 3150.46,-548.11"/>
<polygon fill="black" stroke="black" points="3149.61,-551.52 3160.07,-549.8 3150.83,-544.62 3149.61,-551.52"/>
</g>
<!-- rt/set_period -->
<g id="node10" class="node">
<title>rt/set_period</title>
<polygon fill="gold" stroke="black" points="2780.12,-576 2695.88,-576 2695.88,-540 2780.12,-540 2780.12,-576"/>
<text text-anchor="middle" x="2738" y="-552.95" font-family="Times,serif" font-size="14.00">rt/set_period</text>
</g>
<!-- /gui&#45;&gt;rt/set_period -->
<g id="edge9" class="edge">
<title>/gui&#45;&gt;rt/set_period</title>
<path fill="none" stroke="black" d="M2212.94,-386.76C2295.31,-413.47 2568.33,-501.99 2684.71,-539.72"/>
<polygon fill="black" stroke="black" points="2683.43,-542.99 2694.03,-542.74 2685.59,-536.33 2683.43,-542.99"/>
</g>
<!-- rt/telemetry_data_log_enable -->
<g id="node13" class="node">
<title>rt/telemetry_data_log_enable</title>
<polygon fill="gold" stroke="black" points="3559.5,-576 3384.5,-576 3384.5,-540 3559.5,-540 3559.5,-576"/>
<text text-anchor="middle" x="3472" y="-552.95" font-family="Times,serif" font-size="14.00">rt/telemetry_data_log_enable</text>
</g>
<!-- /gui&#45;&gt;rt/telemetry_data_log_enable -->
<g id="edge8" class="edge">
<title>/gui&#45;&gt;rt/telemetry_data_log_enable</title>
<path fill="none" stroke="black" d="M2215.5,-382.68C2364.69,-403.38 3102.7,-505.76 3372.77,-543.23"/>
<polygon fill="black" stroke="black" points="3372.23,-546.69 3382.61,-544.6 3373.19,-539.76 3372.23,-546.69"/>
</g>
<!-- rt/play_buzzer -->
<g id="node18" class="node">
<title>rt/play_buzzer</title>
<polygon fill="gold" stroke="black" points="1472,-576 1378,-576 1378,-540 1472,-540 1472,-576"/>
<text text-anchor="middle" x="1425" y="-552.95" font-family="Times,serif" font-size="14.00">rt/play_buzzer</text>
</g>
<!-- /gui&#45;&gt;rt/play_buzzer -->
<g id="edge11" class="edge">
<title>/gui&#45;&gt;rt/play_buzzer</title>
<path fill="none" stroke="black" d="M2163.58,-384.92C2056.29,-409.92 1638.88,-507.17 1483.61,-543.35"/>
<polygon fill="black" stroke="black" points="1482.87,-539.92 1473.93,-545.6 1484.46,-546.74 1482.87,-539.92"/>
</g>
<!-- rt/enable_read -->
<g id="node19" class="node">
<title>rt/enable_read</title>
<polygon fill="gold" stroke="black" points="3017.62,-576 2924.38,-576 2924.38,-540 3017.62,-540 3017.62,-576"/>
<text text-anchor="middle" x="2971" y="-552.95" font-family="Times,serif" font-size="14.00">rt/enable_read</text>
</g>
<!-- /gui&#45;&gt;rt/enable_read -->
<g id="edge10" class="edge">
<title>/gui&#45;&gt;rt/enable_read</title>
<path fill="none" stroke="black" d="M2214.13,-384.72C2323.02,-409.51 2755.61,-507.97 2913.2,-543.84"/>
<polygon fill="black" stroke="black" points="2912.05,-547.17 2922.58,-545.98 2913.61,-540.35 2912.05,-547.17"/>
</g>
<!-- rt/motors -->
<g id="node23" class="node">
<title>rt/motors</title>
<polygon fill="gold" stroke="black" points="1682.12,-576 1615.88,-576 1615.88,-540 1682.12,-540 1682.12,-576"/>
<text text-anchor="middle" x="1649" y="-552.95" font-family="Times,serif" font-size="14.00">rt/motors</text>
</g>
<!-- /gui&#45;&gt;rt/motors -->
<g id="edge13" class="edge">
<title>/gui&#45;&gt;rt/motors</title>
<path fill="none" stroke="black" d="M2165.1,-386.88C2081.63,-414.39 1802.24,-506.49 1693.16,-542.44"/>
<polygon fill="black" stroke="black" points="1692.37,-539.02 1683.97,-545.47 1694.57,-545.67 1692.37,-539.02"/>
</g>
<!-- /ups_reading -->
<g id="node3" class="node">
<title>/ups_reading</title>
<ellipse fill="limegreen" stroke="black" cx="3086" cy="-738" rx="58.52" ry="18"/>
<text text-anchor="middle" x="3086" y="-732.95" font-family="Times,serif" font-size="14.00">/ups_reading</text>
</g>
<!-- rt/ups_sensor_settings -->
<g id="node12" class="node">
<title>rt/ups_sensor_settings</title>
<polygon fill="gold" stroke="black" points="2670,-936 2534,-936 2534,-900 2670,-900 2670,-936"/>
<text text-anchor="middle" x="2602" y="-912.95" font-family="Times,serif" font-size="14.00">rt/ups_sensor_settings</text>
</g>
<!-- /ups_reading&#45;&gt;rt/ups_sensor_settings -->
<g id="edge27" class="edge">
<title>/ups_reading&#45;&gt;rt/ups_sensor_settings</title>
<path fill="none" stroke="black" d="M3049.62,-752.38C2966.26,-783.04 2760.86,-858.58 2659.91,-895.7"/>
<polygon fill="black" stroke="black" points="2658.9,-892.35 2650.72,-899.08 2661.31,-898.92 2658.9,-892.35"/>
</g>
<!-- rt/read_ups_battery -->
<g id="node15" class="node">
<title>rt/read_ups_battery</title>
<polygon fill="gold" stroke="black" points="3560.5,-936 3439.5,-936 3439.5,-900 3560.5,-900 3560.5,-936"/>
<text text-anchor="middle" x="3500" y="-912.95" font-family="Times,serif" font-size="14.00">rt/read_ups_battery</text>
</g>
<!-- /ups_reading&#45;&gt;rt/read_ups_battery -->
<g id="edge28" class="edge">
<title>/ups_reading&#45;&gt;rt/read_ups_battery</title>
<path fill="none" stroke="black" d="M3119.18,-753.27C3191.31,-784.28 3362.81,-858.02 3448.88,-895.02"/>
<polygon fill="black" stroke="black" points="3447.48,-898.23 3458.05,-898.96 3450.25,-891.8 3447.48,-898.23"/>
</g>
<!-- rt/read_ups_charging -->
<g id="node22" class="node">
<title>rt/read_ups_charging</title>
<polygon fill="gold" stroke="black" points="3984.38,-936 3853.62,-936 3853.62,-900 3984.38,-900 3984.38,-936"/>
<text text-anchor="middle" x="3919" y="-912.95" font-family="Times,serif" font-size="14.00">rt/read_ups_charging</text>
</g>
<!-- /ups_reading&#45;&gt;rt/read_ups_charging -->
<g id="edge29" class="edge">
<title>/ups_reading&#45;&gt;rt/read_ups_charging</title>
<path fill="none" stroke="black" d="M3133.17,-749.08C3270.76,-778.48 3672.57,-864.34 3842.11,-900.57"/>
<polygon fill="black" stroke="black" points="3841.19,-903.95 3851.7,-902.62 3842.65,-897.11 3841.19,-903.95"/>
</g>
<!-- /serial_interface -->
<g id="node4" class="node">
<title>/serial_interface</title>
<ellipse fill="limegreen" stroke="black" cx="1612" cy="-738" rx="70.29" ry="18"/>
<text text-anchor="middle" x="1612" y="-732.95" font-family="Times,serif" font-size="14.00">/serial_interface</text>
</g>
<!-- rt/read_encoders -->
<g id="node6" class="node">
<title>rt/read_encoders</title>
<polygon fill="gold" stroke="black" points="106,-936 0,-936 0,-900 106,-900 106,-936"/>
<text text-anchor="middle" x="53" y="-912.95" font-family="Times,serif" font-size="14.00">rt/read_encoders</text>
</g>
<!-- /serial_interface&#45;&gt;rt/read_encoders -->
<g id="edge34" class="edge">
<title>/serial_interface&#45;&gt;rt/read_encoders</title>
<path fill="none" stroke="black" d="M1548.71,-746.2C1350.12,-768.81 721.53,-840.41 201,-900 173.69,-903.13 143.55,-906.59 117.64,-909.56"/>
<polygon fill="black" stroke="black" points="117.47,-906.06 107.94,-910.68 118.27,-913.02 117.47,-906.06"/>
</g>
<!-- /serial_interface&#45;&gt;rt/keep_alive -->
<g id="edge37" class="edge">
<title>/serial_interface&#45;&gt;rt/keep_alive</title>
<path fill="none" stroke="black" d="M1679.51,-743.38C2062.2,-768.19 3954.12,-890.88 4301.99,-913.43"/>
<polygon fill="black" stroke="black" points="4301.75,-916.92 4311.96,-914.08 4302.21,-909.94 4301.75,-916.92"/>
</g>
<!-- rt/read_buzzer -->
<g id="node11" class="node">
<title>rt/read_buzzer</title>
<polygon fill="gold" stroke="black" points="367,-936 273,-936 273,-900 367,-900 367,-936"/>
<text text-anchor="middle" x="320" y="-912.95" font-family="Times,serif" font-size="14.00">rt/read_buzzer</text>
</g>
<!-- /serial_interface&#45;&gt;rt/read_buzzer -->
<g id="edge39" class="edge">
<title>/serial_interface&#45;&gt;rt/read_buzzer</title>
<path fill="none" stroke="black" d="M1551.42,-747.35C1333.79,-777.33 593.11,-879.37 378.63,-908.92"/>
<polygon fill="black" stroke="black" points="378.26,-905.44 368.84,-910.27 379.22,-912.37 378.26,-905.44"/>
</g>
<!-- rt/read_imu -->
<g id="node14" class="node">
<title>rt/read_imu</title>
<polygon fill="gold" stroke="black" points="642.88,-936 563.12,-936 563.12,-900 642.88,-900 642.88,-936"/>
<text text-anchor="middle" x="603" y="-912.95" font-family="Times,serif" font-size="14.00">rt/read_imu</text>
</g>
<!-- /serial_interface&#45;&gt;rt/read_imu -->
<g id="edge36" class="edge">
<title>/serial_interface&#45;&gt;rt/read_imu</title>
<path fill="none" stroke="black" d="M1555.23,-749.02C1376.32,-780.58 825.99,-877.66 654.55,-907.91"/>
<polygon fill="black" stroke="black" points="654.07,-904.44 644.83,-909.62 655.28,-911.33 654.07,-904.44"/>
</g>
<!-- rt/read_line_sensors -->
<g id="node17" class="node">
<title>rt/read_line_sensors</title>
<polygon fill="gold" stroke="black" points="938.38,-936 813.62,-936 813.62,-900 938.38,-900 938.38,-936"/>
<text text-anchor="middle" x="876" y="-912.95" font-family="Times,serif" font-size="14.00">rt/read_line_sensors</text>
</g>
<!-- /serial_interface&#45;&gt;rt/read_line_sensors -->
<g id="edge35" class="edge">
<title>/serial_interface&#45;&gt;rt/read_line_sensors</title>
<path fill="none" stroke="black" d="M1562.28,-751.03C1435.4,-781.71 1099.09,-863.05 949.51,-899.22"/>
<polygon fill="black" stroke="black" points="949.01,-895.74 940.11,-901.49 950.65,-902.55 949.01,-895.74"/>
</g>
<!-- rt/zumo_sensor_settings -->
<g id="node21" class="node">
<title>rt/zumo_sensor_settings</title>
<polygon fill="gold" stroke="black" points="1383,-936 1235,-936 1235,-900 1383,-900 1383,-936"/>
<text text-anchor="middle" x="1309" y="-912.95" font-family="Times,serif" font-size="14.00">rt/zumo_sensor_settings</text>
</g>
<!-- /serial_interface&#45;&gt;rt/zumo_sensor_settings -->
<g id="edge40" class="edge">
<title>/serial_interface&#45;&gt;rt/zumo_sensor_settings</title>
<path fill="none" stroke="black" d="M1584.84,-754.95C1531.04,-786.56 1410.73,-857.24 1348.29,-893.92"/>
<polygon fill="black" stroke="black" points="1346.57,-890.87 1339.73,-898.95 1350.12,-896.9 1346.57,-890.87"/>
</g>
<!-- rt/read_proximity_sensors -->
<g id="node24" class="node">
<title>rt/read_proximity_sensors</title>
<polygon fill="gold" stroke="black" points="1834.25,-936 1675.75,-936 1675.75,-900 1834.25,-900 1834.25,-936"/>
<text text-anchor="middle" x="1755" y="-912.95" font-family="Times,serif" font-size="14.00">rt/read_proximity_sensors</text>
</g>
<!-- /serial_interface&#45;&gt;rt/read_proximity_sensors -->
<g id="edge38" class="edge">
<title>/serial_interface&#45;&gt;rt/read_proximity_sensors</title>
<path fill="none" stroke="black" d="M1625.71,-756.07C1650.84,-787.35 1704.43,-854.06 1734.12,-891.01"/>
<polygon fill="black" stroke="black" points="1731.18,-892.94 1740.17,-898.54 1736.64,-888.55 1731.18,-892.94"/>
</g>
<!-- /wifi_stats -->
<g id="node5" class="node">
<title>/wifi_stats</title>
<ellipse fill="limegreen" stroke="black" cx="3338" cy="-738" rx="49.3" ry="18"/>
<text text-anchor="middle" x="3338" y="-732.95" font-family="Times,serif" font-size="14.00">/wifi_stats</text>
</g>
<!-- rt/wifi_stats -->
<g id="node20" class="node">
<title>rt/wifi_stats</title>
<polygon fill="gold" stroke="black" points="3132.25,-936 3051.75,-936 3051.75,-900 3132.25,-900 3132.25,-936"/>
<text text-anchor="middle" x="3092" y="-912.95" font-family="Times,serif" font-size="14.00">rt/wifi_stats</text>
</g>
<!-- /wifi_stats&#45;&gt;rt/wifi_stats -->
<g id="edge47" class="edge">
<title>/wifi_stats&#45;&gt;rt/wifi_stats</title>
<path fill="none" stroke="black" d="M3316.6,-754.48C3273.57,-785.62 3176.33,-855.98 3125.06,-893.08"/>
<polygon fill="black" stroke="black" points="3123.32,-890.02 3117.27,-898.71 3127.42,-895.69 3123.32,-890.02"/>
</g>
<!-- rt/read_encoders&#45;&gt;/gui -->
<g id="edge24" class="edge">
<title>rt/read_encoders&#45;&gt;/gui</title>
<path fill="none" stroke="black" d="M84.32,-899.58C195.23,-838.76 581.26,-634.38 926,-540 1396.64,-411.15 1994.73,-384.8 2150.52,-379.99"/>
<polygon fill="black" stroke="black" points="2150.38,-383.49 2160.28,-379.7 2150.18,-376.5 2150.38,-383.49"/>
</g>
<!-- rt/camera_sensor_settings&#45;&gt;/gui -->
<g id="edge23" class="edge">
<title>rt/camera_sensor_settings&#45;&gt;/gui</title>
<path fill="none" stroke="black" d="M2365.85,-216.39C2329.85,-249.09 2252.18,-319.63 2212.85,-355.34"/>
<polygon fill="black" stroke="black" points="2210.79,-352.48 2205.74,-361.8 2215.5,-357.67 2210.79,-352.48"/>
</g>
<!-- rt/log_level&#45;&gt;/camera -->
<g id="edge5" class="edge">
<title>rt/log_level&#45;&gt;/camera</title>
<path fill="none" stroke="black" d="M3197.33,-539.81C3185.29,-485.22 3144.06,-311.66 3080,-180 3054.97,-128.56 3015.31,-74.67 2991.36,-44.12"/>
<polygon fill="black" stroke="black" points="2994.36,-42.27 2985.41,-36.6 2988.87,-46.61 2994.36,-42.27"/>
</g>
<!-- rt/log_level&#45;&gt;/ups_reading -->
<g id="edge30" class="edge">
<title>rt/log_level&#45;&gt;/ups_reading</title>
<path fill="none" stroke="black" d="M3189.76,-576.39C3169.56,-607.66 3127,-673.53 3103.14,-710.46"/>
<polygon fill="black" stroke="black" points="3100.25,-708.49 3097.77,-718.79 3106.13,-712.29 3100.25,-708.49"/>
</g>
<!-- rt/log_level&#45;&gt;/serial_interface -->
<g id="edge42" class="edge">
<title>rt/log_level&#45;&gt;/serial_interface</title>
<path fill="none" stroke="black" d="M3161.5,-565.48C3140.33,-568.84 3113.78,-572.89 3090,-576 2554.77,-646.1 1907.66,-709.11 1688.66,-729.84"/>
<polygon fill="black" stroke="black" points="1688.45,-726.34 1678.82,-730.77 1689.11,-733.31 1688.45,-726.34"/>
</g>
<!-- rt/log_level&#45;&gt;/wifi_stats -->
<g id="edge48" class="edge">
<title>rt/log_level&#45;&gt;/wifi_stats</title>
<path fill="none" stroke="black" d="M3214.39,-576.39C3238.61,-607.87 3289.85,-674.43 3318.16,-711.22"/>
<polygon fill="black" stroke="black" points="3315.37,-713.33 3324.24,-719.12 3320.91,-709.06 3315.37,-713.33"/>
</g>
<!-- rt/keep_alive&#45;&gt;/gui -->
<g id="edge20" class="edge">
<title>rt/keep_alive&#45;&gt;/gui</title>
<path fill="none" stroke="black" d="M4342.18,-899.79C4287.66,-837.88 4090.31,-625.59 3876,-540 3561.59,-414.44 2449.09,-384.52 2227.54,-379.75"/>
<polygon fill="black" stroke="black" points="2227.81,-376.26 2217.74,-379.55 2227.66,-383.26 2227.81,-376.26"/>
</g>
<!-- rt/set_period&#45;&gt;/camera -->
<g id="edge6" class="edge">
<title>rt/set_period&#45;&gt;/camera</title>
<path fill="none" stroke="black" d="M2745.48,-539.74C2779.24,-461.77 2917.67,-142.14 2959.18,-46.29"/>
<polygon fill="black" stroke="black" points="2962.28,-47.95 2963.04,-37.38 2955.85,-45.16 2962.28,-47.95"/>
</g>
<!-- rt/set_period&#45;&gt;/ups_reading -->
<g id="edge31" class="edge">
<title>rt/set_period&#45;&gt;/ups_reading</title>
<path fill="none" stroke="black" d="M2772,-576.39C2836.91,-609.59 2978.12,-681.82 3046.85,-716.97"/>
<polygon fill="black" stroke="black" points="3044.99,-719.96 3055.49,-721.39 3048.18,-713.72 3044.99,-719.96"/>
</g>
<!-- rt/set_period&#45;&gt;/serial_interface -->
<g id="edge45" class="edge">
<title>rt/set_period&#45;&gt;/serial_interface</title>
<path fill="none" stroke="black" d="M2695.58,-565.71C2525.79,-592.55 1894.25,-692.38 1682.05,-725.93"/>
<polygon fill="black" stroke="black" points="1681.6,-722.45 1672.27,-727.47 1682.69,-729.37 1681.6,-722.45"/>
</g>
<!-- rt/read_buzzer&#45;&gt;/gui -->
<g id="edge14" class="edge">
<title>rt/read_buzzer&#45;&gt;/gui</title>
<path fill="none" stroke="black" d="M345.84,-899.55C437.46,-838.6 757.09,-633.86 1052,-540 1467.76,-407.68 2003.6,-383.93 2150.38,-379.83"/>
<polygon fill="black" stroke="black" points="2150.41,-383.33 2160.31,-379.57 2150.22,-376.33 2150.41,-383.33"/>
</g>
<!-- rt/ups_sensor_settings&#45;&gt;/gui -->
<g id="edge19" class="edge">
<title>rt/ups_sensor_settings&#45;&gt;/gui</title>
<path fill="none" stroke="black" d="M2588.61,-899.56C2527.89,-820.47 2278.39,-495.45 2207.73,-403.4"/>
<polygon fill="black" stroke="black" points="2210.7,-401.52 2201.84,-395.72 2205.15,-405.79 2210.7,-401.52"/>
</g>
<!-- rt/telemetry_data_log_enable&#45;&gt;/camera -->
<g id="edge4" class="edge">
<title>rt/telemetry_data_log_enable&#45;&gt;/camera</title>
<path fill="none" stroke="black" d="M3462.12,-539.74C3429.36,-483.5 3319.41,-302.08 3196,-180 3135.68,-120.33 3051.48,-66.35 3005.07,-38.62"/>
<polygon fill="black" stroke="black" points="3006.91,-35.64 2996.52,-33.56 3003.34,-41.66 3006.91,-35.64"/>
</g>
<!-- rt/telemetry_data_log_enable&#45;&gt;/ups_reading -->
<g id="edge33" class="edge">
<title>rt/telemetry_data_log_enable&#45;&gt;/ups_reading</title>
<path fill="none" stroke="black" d="M3434.29,-576.39C3361.72,-609.85 3203.19,-682.96 3127.64,-717.8"/>
<polygon fill="black" stroke="black" points="3126.54,-714.45 3118.92,-721.82 3129.47,-720.81 3126.54,-714.45"/>
</g>
<!-- rt/telemetry_data_log_enable&#45;&gt;/serial_interface -->
<g id="edge43" class="edge">
<title>rt/telemetry_data_log_enable&#45;&gt;/serial_interface</title>
<path fill="none" stroke="black" d="M3384.41,-568.49C3360.9,-570.99 3335.49,-573.64 3312,-576 2685.48,-638.95 1928.37,-708.27 1688.63,-730.06"/>
<polygon fill="black" stroke="black" points="1688.42,-726.56 1678.78,-730.95 1689.05,-733.53 1688.42,-726.56"/>
</g>
<!-- rt/telemetry_data_log_enable&#45;&gt;/wifi_stats -->
<g id="edge49" class="edge">
<title>rt/telemetry_data_log_enable&#45;&gt;/wifi_stats</title>
<path fill="none" stroke="black" d="M3458.91,-576.39C3435.21,-607.87 3385.1,-674.43 3357.41,-711.22"/>
<polygon fill="black" stroke="black" points="3354.69,-709.02 3351.47,-719.11 3360.28,-713.23 3354.69,-709.02"/>
</g>
<!-- rt/read_imu&#45;&gt;/gui -->
<g id="edge25" class="edge">
<title>rt/read_imu&#45;&gt;/gui</title>
<path fill="none" stroke="black" d="M621.39,-899.88C687.76,-839.16 923.55,-632.8 1159,-540 1524.68,-395.87 2011.17,-380.41 2150.34,-379.04"/>
<polygon fill="black" stroke="black" points="2150.12,-382.54 2160.1,-378.97 2150.07,-375.54 2150.12,-382.54"/>
</g>
<!-- rt/read_ups_battery&#45;&gt;/gui -->
<g id="edge26" class="edge">
<title>rt/read_ups_battery&#45;&gt;/gui</title>
<path fill="none" stroke="black" d="M3516.72,-899.64C3570.74,-841.51 3731.41,-651.12 3632,-540 3535.35,-431.97 2447.42,-388.09 2227.59,-380.3"/>
<polygon fill="black" stroke="black" points="2227.98,-376.81 2217.86,-379.96 2227.73,-383.81 2227.98,-376.81"/>
</g>
<!-- rt/camera_frame&#45;&gt;/gui -->
<g id="edge22" class="edge">
<title>rt/camera_frame&#45;&gt;/gui</title>
<path fill="none" stroke="black" d="M2116.82,-216.39C2130.84,-247.6 2160.37,-313.3 2176.99,-350.27"/>
<polygon fill="black" stroke="black" points="2173.59,-351.25 2180.88,-358.94 2179.98,-348.38 2173.59,-351.25"/>
</g>
<!-- rt/read_line_sensors&#45;&gt;/gui -->
<g id="edge15" class="edge">
<title>rt/read_line_sensors&#45;&gt;/gui</title>
<path fill="none" stroke="black" d="M886.91,-899.84C926.61,-838.99 1070.37,-632.26 1247,-540 1409.85,-454.94 1996,-396.55 2151.12,-382.35"/>
<polygon fill="black" stroke="black" points="2151.2,-385.86 2160.84,-381.47 2150.57,-378.89 2151.2,-385.86"/>
</g>
<!-- rt/play_buzzer&#45;&gt;/serial_interface -->
<g id="edge44" class="edge">
<title>rt/play_buzzer&#45;&gt;/serial_interface</title>
<path fill="none" stroke="black" d="M1443.27,-576.39C1476.76,-608.27 1548.06,-676.14 1586.38,-712.61"/>
<polygon fill="black" stroke="black" points="1583.72,-714.92 1593.38,-719.28 1588.55,-709.85 1583.72,-714.92"/>
</g>
<!-- rt/enable_read&#45;&gt;/camera -->
<g id="edge7" class="edge">
<title>rt/enable_read&#45;&gt;/camera</title>
<path fill="none" stroke="black" d="M2971,-539.5C2971,-461.47 2971,-144.75 2971,-47.53"/>
<polygon fill="black" stroke="black" points="2974.5,-47.8 2971,-37.8 2967.5,-47.8 2974.5,-47.8"/>
</g>
<!-- rt/enable_read&#45;&gt;/ups_reading -->
<g id="edge32" class="edge">
<title>rt/enable_read&#45;&gt;/ups_reading</title>
<path fill="none" stroke="black" d="M2982.24,-576.39C3002.44,-607.66 3045,-673.53 3068.86,-710.46"/>
<polygon fill="black" stroke="black" points="3065.87,-712.29 3074.23,-718.79 3071.75,-708.49 3065.87,-712.29"/>
</g>
<!-- rt/enable_read&#45;&gt;/serial_interface -->
<g id="edge46" class="edge">
<title>rt/enable_read&#45;&gt;/serial_interface</title>
<path fill="none" stroke="black" d="M2924.11,-565.84C2902.21,-569 2875.78,-572.76 2852,-576 2409.34,-636.35 1877.04,-703.72 1685.29,-727.82"/>
<polygon fill="black" stroke="black" points="1684.96,-724.33 1675.47,-729.05 1685.83,-731.28 1684.96,-724.33"/>
</g>
<!-- rt/wifi_stats&#45;&gt;/gui -->
<g id="edge21" class="edge">
<title>rt/wifi_stats&#45;&gt;/gui</title>
<path fill="none" stroke="black" d="M3062.79,-899.6C2926.65,-818.49 2355.22,-478.03 2218.49,-396.57"/>
<polygon fill="black" stroke="black" points="2220.38,-393.62 2210,-391.51 2216.8,-399.64 2220.38,-393.62"/>
</g>
<!-- rt/zumo_sensor_settings&#45;&gt;/gui -->
<g id="edge17" class="edge">
<title>rt/zumo_sensor_settings&#45;&gt;/gui</title>
<path fill="none" stroke="black" d="M1302.01,-899.81C1279.54,-841.42 1215.65,-648.32 1306,-540 1416.41,-407.63 1995.46,-383.81 2150.68,-379.78"/>
<polygon fill="black" stroke="black" points="2150.51,-383.28 2160.42,-379.54 2150.34,-376.29 2150.51,-383.28"/>
</g>
<!-- rt/read_ups_charging&#45;&gt;/gui -->
<g id="edge18" class="edge">
<title>rt/read_ups_charging&#45;&gt;/gui</title>
<path fill="none" stroke="black" d="M3917.21,-899.77C3909.86,-838.67 3876.13,-631.2 3750,-540 3622.58,-447.86 2455.42,-390.97 2227.49,-380.69"/>
<polygon fill="black" stroke="black" points="2227.83,-377.2 2217.68,-380.25 2227.52,-384.19 2227.83,-377.2"/>
</g>
<!-- rt/motors&#45;&gt;/serial_interface -->
<g id="edge41" class="edge">
<title>rt/motors&#45;&gt;/serial_interface</title>
<path fill="none" stroke="black" d="M1645.38,-576.39C1639,-607.1 1625.68,-671.19 1617.93,-708.46"/>
<polygon fill="black" stroke="black" points="1614.55,-707.55 1615.94,-718.06 1621.4,-708.98 1614.55,-707.55"/>
</g>
<!-- rt/read_proximity_sensors&#45;&gt;/gui -->
<g id="edge16" class="edge">
<title>rt/read_proximity_sensors&#45;&gt;/gui</title>
<path fill="none" stroke="black" d="M1769.1,-899.52C1833.03,-820.27 2095.72,-494.63 2169.59,-403.06"/>
<polygon fill="black" stroke="black" points="2172.21,-405.39 2175.76,-395.41 2166.76,-401 2172.21,-405.39"/>
</g>
</g>
</svg>
