<?xml version="1.0" encoding="UTF-8" standalone="no"?>
<!DOCTYPE svg PUBLIC "-//W3C//DTD SVG 1.1//EN"
 "http://www.w3.org/Graphics/SVG/1.1/DTD/svg11.dtd">
<!-- Generated by graphviz version 10.0.1 (20240210.2158)
 -->
<!-- Title: rosgraph Pages: 1 -->
<svg width="319pt" height="540pt"
 viewBox="0.00 0.00 319.38 540.00" xmlns="http://www.w3.org/2000/svg" xmlns:xlink="http://www.w3.org/1999/xlink">
<g id="graph0" class="graph" transform="scale(1 1) rotate(0) translate(72 468)">
<title>rosgraph</title>
<polygon fill="white" stroke="none" points="-72,72 -72,-468 247.38,-468 247.38,72 -72,72"/>
<!-- /minimal_subscriber -->
<g id="node1" class="node">
<title>/minimal_subscriber</title>
<ellipse fill="limegreen" stroke="black" cx="87.69" cy="-378" rx="87.69" ry="18"/>
<text text-anchor="middle" x="87.69" y="-372.95" font-family="Times,serif" font-size="14.00">/minimal_subscriber</text>
</g>
<!-- /minimal_publisher -->
<g id="node2" class="node">
<title>/minimal_publisher</title>
<ellipse fill="limegreen" stroke="black" cx="87.69" cy="-18" rx="84.11" ry="18"/>
<text text-anchor="middle" x="87.69" y="-12.95" font-family="Times,serif" font-size="14.00">/minimal_publisher</text>
</g>
<!-- rt/topic -->
<g id="node3" class="node">
<title>rt/topic</title>
<polygon fill="gold" stroke="black" points="115.19,-216 60.19,-216 60.19,-180 115.19,-180 115.19,-216"/>
<text text-anchor="middle" x="87.69" y="-192.95" font-family="Times,serif" font-size="14.00">rt/topic</text>
</g>
<!-- /minimal_publisher&#45;&gt;rt/topic -->
<g id="edge2" class="edge">
<title>/minimal_publisher&#45;&gt;rt/topic</title>
<path fill="none" stroke="black" d="M87.69,-36.39C87.69,-67.1 87.69,-131.19 87.69,-168.46"/>
<polygon fill="black" stroke="black" points="84.19,-168.02 87.69,-178.02 91.19,-168.02 84.19,-168.02"/>
</g>
<!-- rt/topic&#45;&gt;/minimal_subscriber -->
<g id="edge1" class="edge">
<title>rt/topic&#45;&gt;/minimal_subscriber</title>
<path fill="none" stroke="black" d="M87.69,-216.39C87.69,-247.1 87.69,-311.19 87.69,-348.46"/>
<polygon fill="black" stroke="black" points="84.19,-348.02 87.69,-358.02 91.19,-348.02 84.19,-348.02"/>
</g>
</g>
</svg>
