<?xml version="1.0" encoding="UTF-8" standalone="no"?>
<!DOCTYPE svg PUBLIC "-//W3C//DTD SVG 1.1//EN"
 "http://www.w3.org/Graphics/SVG/1.1/DTD/svg11.dtd">
<!-- Generated by graphviz version 9.0.0 (20230911.1827)
 -->
<!-- Title: rosgraph Pages: 1 -->
<svg width="8938pt" height="1260pt"
 viewBox="0.00 0.00 8937.75 1260.00" xmlns="http://www.w3.org/2000/svg" xmlns:xlink="http://www.w3.org/1999/xlink">
<g id="graph0" class="graph" transform="scale(1 1) rotate(0) translate(72 1188)">
<title>rosgraph</title>
<polygon fill="white" stroke="none" points="-72,72 -72,-1188 8865.75,-1188 8865.75,72 -72,72"/>
<!-- /marv_power_management -->
<g id="node1" class="node">
<title>/marv_power_management</title>
<ellipse fill="limegreen" stroke="black" cx="4954.75" cy="-918" rx="113.28" ry="18"/>
<text text-anchor="middle" x="4954.75" y="-912.95" font-family="Times,serif" font-size="14.00">/marv_power_management</text>
</g>
<!-- /marv_sbg_interface -->
<g id="node2" class="node">
<title>/marv_sbg_interface</title>
<ellipse fill="limegreen" stroke="black" cx="6551.75" cy="-198" rx="87.18" ry="18"/>
<text text-anchor="middle" x="6551.75" y="-192.95" font-family="Times,serif" font-size="14.00">/marv_sbg_interface</text>
</g>
<!-- rt/marv/nav/sbg_ins_status -->
<g id="node8" class="node">
<title>rt/marv/nav/sbg_ins_status</title>
<polygon fill="gold" stroke="black" points="3463.88,-396 3301.62,-396 3301.62,-360 3463.88,-360 3463.88,-396"/>
<text text-anchor="middle" x="3382.75" y="-372.95" font-family="Times,serif" font-size="14.00">rt/marv/nav/sbg_ins_status</text>
</g>
<!-- /marv_sbg_interface&#45;&gt;rt/marv/nav/sbg_ins_status -->
<g id="edge9" class="edge">
<title>/marv_sbg_interface&#45;&gt;rt/marv/nav/sbg_ins_status</title>
<path fill="none" stroke="black" d="M6466.17,-201.77C6108.01,-213.74 4694.28,-264.79 3535.75,-360 3516.18,-361.61 3495.23,-363.69 3475.32,-365.85"/>
<polygon fill="black" stroke="black" points="3475.12,-362.35 3465.56,-366.92 3475.88,-369.31 3475.12,-362.35"/>
</g>
<!-- rt/marv/nav/sbg_velocity -->
<g id="node9" class="node">
<title>rt/marv/nav/sbg_velocity</title>
<polygon fill="gold" stroke="black" points="5700,-396 5547.5,-396 5547.5,-360 5700,-360 5700,-396"/>
<text text-anchor="middle" x="5623.75" y="-372.95" font-family="Times,serif" font-size="14.00">rt/marv/nav/sbg_velocity</text>
</g>
<!-- /marv_sbg_interface&#45;&gt;rt/marv/nav/sbg_velocity -->
<g id="edge12" class="edge">
<title>/marv_sbg_interface&#45;&gt;rt/marv/nav/sbg_velocity</title>
<path fill="none" stroke="black" d="M6489.42,-210.96C6328.33,-241.85 5897.78,-324.44 5711.57,-360.15"/>
<polygon fill="black" stroke="black" points="5711.12,-356.68 5701.96,-362 5712.44,-363.55 5711.12,-356.68"/>
</g>
<!-- rt/marv/nav/sbg_time -->
<g id="node11" class="node">
<title>rt/marv/nav/sbg_time</title>
<polygon fill="gold" stroke="black" points="7410.62,-576 7276.88,-576 7276.88,-540 7410.62,-540 7410.62,-576"/>
<text text-anchor="middle" x="7343.75" y="-552.95" font-family="Times,serif" font-size="14.00">rt/marv/nav/sbg_time</text>
</g>
<!-- /marv_sbg_interface&#45;&gt;rt/marv/nav/sbg_time -->
<g id="edge14" class="edge">
<title>/marv_sbg_interface&#45;&gt;rt/marv/nav/sbg_time</title>
<path fill="none" stroke="black" d="M6518.85,-214.95C6454.29,-248.28 6322.09,-327.92 6379.75,-396 6408.56,-430.03 7040.1,-516.74 7265.06,-546.66"/>
<polygon fill="black" stroke="black" points="7264.54,-550.12 7274.91,-547.97 7265.46,-543.18 7264.54,-550.12"/>
</g>
<!-- rt/marv/nav/sbg_velocity_magnitude -->
<g id="node12" class="node">
<title>rt/marv/nav/sbg_velocity_magnitude</title>
<polygon fill="gold" stroke="black" points="7829.25,-576 7612.25,-576 7612.25,-540 7829.25,-540 7829.25,-576"/>
<text text-anchor="middle" x="7720.75" y="-552.95" font-family="Times,serif" font-size="14.00">rt/marv/nav/sbg_velocity_magnitude</text>
</g>
<!-- /marv_sbg_interface&#45;&gt;rt/marv/nav/sbg_velocity_magnitude -->
<g id="edge6" class="edge">
<title>/marv_sbg_interface&#45;&gt;rt/marv/nav/sbg_velocity_magnitude</title>
<path fill="none" stroke="black" d="M6634.79,-203.66C6898.34,-219.27 7703.03,-273.7 7778.75,-360 7822.05,-409.35 7773.04,-489.64 7742.12,-530.82"/>
<polygon fill="black" stroke="black" points="7739.54,-528.44 7736.2,-538.5 7745.08,-532.72 7739.54,-528.44"/>
</g>
<!-- rt/marv/nav/sbg_acceleration -->
<g id="node17" class="node">
<title>rt/marv/nav/sbg_acceleration</title>
<polygon fill="gold" stroke="black" points="6017.88,-396 5843.62,-396 5843.62,-360 6017.88,-360 6017.88,-396"/>
<text text-anchor="middle" x="5930.75" y="-372.95" font-family="Times,serif" font-size="14.00">rt/marv/nav/sbg_acceleration</text>
</g>
<!-- /marv_sbg_interface&#45;&gt;rt/marv/nav/sbg_acceleration -->
<g id="edge8" class="edge">
<title>/marv_sbg_interface&#45;&gt;rt/marv/nav/sbg_acceleration</title>
<path fill="none" stroke="black" d="M6502.24,-213.19C6392.79,-244.56 6129.9,-319.92 6002.44,-356.45"/>
<polygon fill="black" stroke="black" points="6001.75,-353.01 5993.11,-359.13 6003.68,-359.74 6001.75,-353.01"/>
</g>
<!-- rt/marv/nav/sbg_angular_velocity -->
<g id="node30" class="node">
<title>rt/marv/nav/sbg_angular_velocity</title>
<polygon fill="gold" stroke="black" points="6651.62,-396 6451.88,-396 6451.88,-360 6651.62,-360 6651.62,-396"/>
<text text-anchor="middle" x="6551.75" y="-372.95" font-family="Times,serif" font-size="14.00">rt/marv/nav/sbg_angular_velocity</text>
</g>
<!-- /marv_sbg_interface&#45;&gt;rt/marv/nav/sbg_angular_velocity -->
<g id="edge5" class="edge">
<title>/marv_sbg_interface&#45;&gt;rt/marv/nav/sbg_angular_velocity</title>
<path fill="none" stroke="black" d="M6551.75,-216.39C6551.75,-247.1 6551.75,-311.19 6551.75,-348.46"/>
<polygon fill="black" stroke="black" points="6548.25,-348.02 6551.75,-358.02 6555.25,-348.02 6548.25,-348.02"/>
</g>
<!-- rt/marv/nav/sbg_gps_pos_reliable_state -->
<g id="node31" class="node">
<title>rt/marv/nav/sbg_gps_pos_reliable_state</title>
<polygon fill="gold" stroke="black" points="7027.75,-396 6795.75,-396 6795.75,-360 7027.75,-360 7027.75,-396"/>
<text text-anchor="middle" x="6911.75" y="-372.95" font-family="Times,serif" font-size="14.00">rt/marv/nav/sbg_gps_pos_reliable_state</text>
</g>
<!-- /marv_sbg_interface&#45;&gt;rt/marv/nav/sbg_gps_pos_reliable_state -->
<g id="edge3" class="edge">
<title>/marv_sbg_interface&#45;&gt;rt/marv/nav/sbg_gps_pos_reliable_state</title>
<path fill="none" stroke="black" d="M6584.33,-215.11C6648.88,-247.03 6793.13,-318.35 6866.71,-354.73"/>
<polygon fill="black" stroke="black" points="6864.73,-357.66 6875.25,-358.95 6867.84,-351.38 6864.73,-357.66"/>
</g>
<!-- rt/marv/nav/sbg_pose -->
<g id="node32" class="node">
<title>rt/marv/nav/sbg_pose</title>
<polygon fill="gold" stroke="black" points="8222.62,-576 8088.88,-576 8088.88,-540 8222.62,-540 8222.62,-576"/>
<text text-anchor="middle" x="8155.75" y="-552.95" font-family="Times,serif" font-size="14.00">rt/marv/nav/sbg_pose</text>
</g>
<!-- /marv_sbg_interface&#45;&gt;rt/marv/nav/sbg_pose -->
<g id="edge2" class="edge">
<title>/marv_sbg_interface&#45;&gt;rt/marv/nav/sbg_pose</title>
<path fill="none" stroke="black" d="M6635.31,-203.32C6891.64,-217.44 7663.45,-266.83 7894.75,-360 7993.98,-399.97 8088.54,-487.84 8131.54,-531.43"/>
<polygon fill="black" stroke="black" points="8128.9,-533.73 8138.39,-538.45 8133.91,-528.84 8128.9,-533.73"/>
</g>
<!-- rt/marv/nav/sbg_time_synced_state -->
<g id="node35" class="node">
<title>rt/marv/nav/sbg_time_synced_state</title>
<polygon fill="gold" stroke="black" points="7381.5,-396 7172,-396 7172,-360 7381.5,-360 7381.5,-396"/>
<text text-anchor="middle" x="7276.75" y="-372.95" font-family="Times,serif" font-size="14.00">rt/marv/nav/sbg_time_synced_state</text>
</g>
<!-- /marv_sbg_interface&#45;&gt;rt/marv/nav/sbg_time_synced_state -->
<g id="edge13" class="edge">
<title>/marv_sbg_interface&#45;&gt;rt/marv/nav/sbg_time_synced_state</title>
<path fill="none" stroke="black" d="M6606.24,-212.38C6732.42,-243.36 7045.26,-320.17 7194.71,-356.86"/>
<polygon fill="black" stroke="black" points="7193.61,-360.19 7204.15,-359.18 7195.28,-353.39 7193.61,-360.19"/>
</g>
<!-- rt/marv/nav/sbg_current_pos -->
<g id="node43" class="node">
<title>rt/marv/nav/sbg_current_pos</title>
<polygon fill="gold" stroke="black" points="6856.12,-576 6683.38,-576 6683.38,-540 6856.12,-540 6856.12,-576"/>
<text text-anchor="middle" x="6769.75" y="-552.95" font-family="Times,serif" font-size="14.00">rt/marv/nav/sbg_current_pos</text>
</g>
<!-- /marv_sbg_interface&#45;&gt;rt/marv/nav/sbg_current_pos -->
<g id="edge4" class="edge">
<title>/marv_sbg_interface&#45;&gt;rt/marv/nav/sbg_current_pos</title>
<path fill="none" stroke="black" d="M6464.33,-198.25C6142.49,-196.98 5050.86,-206.42 5221.75,-396 5234,-409.58 6333.72,-515.44 6671.91,-547.7"/>
<polygon fill="black" stroke="black" points="6671.35,-551.16 6681.63,-548.63 6672.01,-544.19 6671.35,-551.16"/>
</g>
<!-- rt/marv/nav/sbg_ekf_status -->
<g id="node48" class="node">
<title>rt/marv/nav/sbg_ekf_status</title>
<polygon fill="gold" stroke="black" points="4823.62,-396 4659.88,-396 4659.88,-360 4823.62,-360 4823.62,-396"/>
<text text-anchor="middle" x="4741.75" y="-372.95" font-family="Times,serif" font-size="14.00">rt/marv/nav/sbg_ekf_status</text>
</g>
<!-- /marv_sbg_interface&#45;&gt;rt/marv/nav/sbg_ekf_status -->
<g id="edge11" class="edge">
<title>/marv_sbg_interface&#45;&gt;rt/marv/nav/sbg_ekf_status</title>
<path fill="none" stroke="black" d="M6474.27,-206.62C6182.75,-235.29 5152.42,-336.61 4835.32,-367.8"/>
<polygon fill="black" stroke="black" points="4835.01,-364.31 4825.4,-368.77 4835.7,-371.28 4835.01,-364.31"/>
</g>
<!-- rt/marv/nav/sbg_ref_pos_state -->
<g id="node52" class="node">
<title>rt/marv/nav/sbg_ref_pos_state</title>
<polygon fill="gold" stroke="black" points="7706.25,-396 7525.25,-396 7525.25,-360 7706.25,-360 7706.25,-396"/>
<text text-anchor="middle" x="7615.75" y="-372.95" font-family="Times,serif" font-size="14.00">rt/marv/nav/sbg_ref_pos_state</text>
</g>
<!-- /marv_sbg_interface&#45;&gt;rt/marv/nav/sbg_ref_pos_state -->
<g id="edge10" class="edge">
<title>/marv_sbg_interface&#45;&gt;rt/marv/nav/sbg_ref_pos_state</title>
<path fill="none" stroke="black" d="M6617.91,-210.07C6797.88,-240.18 7297.32,-323.73 7513.65,-359.92"/>
<polygon fill="black" stroke="black" points="7513.06,-363.37 7523.5,-361.57 7514.21,-356.46 7513.06,-363.37"/>
</g>
<!-- rt/marv/nav/sys_time -->
<g id="node53" class="node">
<title>rt/marv/nav/sys_time</title>
<polygon fill="gold" stroke="black" points="7132.88,-576 7000.62,-576 7000.62,-540 7132.88,-540 7132.88,-576"/>
<text text-anchor="middle" x="7066.75" y="-552.95" font-family="Times,serif" font-size="14.00">rt/marv/nav/sys_time</text>
</g>
<!-- /marv_sbg_interface&#45;&gt;rt/marv/nav/sys_time -->
<g id="edge7" class="edge">
<title>/marv_sbg_interface&#45;&gt;rt/marv/nav/sys_time</title>
<path fill="none" stroke="black" d="M6465.31,-200.95C6186.84,-208.75 5339.02,-245.04 5475.75,-396 5584.59,-516.16 6766.61,-522.16 6927.75,-540 6947.64,-542.2 6969.11,-544.75 6989.08,-547.18"/>
<polygon fill="black" stroke="black" points="6988.47,-550.63 6998.82,-548.38 6989.32,-543.69 6988.47,-550.63"/>
</g>
<!-- /marv_can_bridge -->
<g id="node3" class="node">
<title>/marv_can_bridge</title>
<ellipse fill="limegreen" stroke="black" cx="3069.75" cy="-558" rx="78.48" ry="18"/>
<text text-anchor="middle" x="3069.75" y="-552.95" font-family="Times,serif" font-size="14.00">/marv_can_bridge</text>
</g>
<!-- rt/marv/sys/status/start_scenario -->
<g id="node10" class="node">
<title>rt/marv/sys/status/start_scenario</title>
<polygon fill="gold" stroke="black" points="863.12,-756 672.38,-756 672.38,-720 863.12,-720 863.12,-756"/>
<text text-anchor="middle" x="767.75" y="-732.95" font-family="Times,serif" font-size="14.00">rt/marv/sys/status/start_scenario</text>
</g>
<!-- /marv_can_bridge&#45;&gt;rt/marv/sys/status/start_scenario -->
<g id="edge30" class="edge">
<title>/marv_can_bridge&#45;&gt;rt/marv/sys/status/start_scenario</title>
<path fill="none" stroke="black" d="M2995.04,-563.94C2720.51,-582.25 1741.64,-648.84 935.75,-720 915.92,-721.75 894.78,-723.77 874.43,-725.79"/>
<polygon fill="black" stroke="black" points="874.33,-722.28 864.72,-726.76 875.02,-729.25 874.33,-722.28"/>
</g>
<!-- rt/marv/sys/status/state_12V_auto -->
<g id="node13" class="node">
<title>rt/marv/sys/status/state_12V_auto</title>
<polygon fill="gold" stroke="black" points="1208,-756 1007.5,-756 1007.5,-720 1208,-720 1208,-756"/>
<text text-anchor="middle" x="1107.75" y="-732.95" font-family="Times,serif" font-size="14.00">rt/marv/sys/status/state_12V_auto</text>
</g>
<!-- /marv_can_bridge&#45;&gt;rt/marv/sys/status/state_12V_auto -->
<g id="edge31" class="edge">
<title>/marv_can_bridge&#45;&gt;rt/marv/sys/status/state_12V_auto</title>
<path fill="none" stroke="black" d="M2997.3,-565.3C2754.53,-586.48 1947.49,-657.24 1280.75,-720 1260.98,-721.86 1239.93,-723.89 1219.59,-725.87"/>
<polygon fill="black" stroke="black" points="1219.48,-722.37 1209.87,-726.83 1220.16,-729.33 1219.48,-722.37"/>
</g>
<!-- rt/marv/sys/status/heartbeat_tcu -->
<g id="node15" class="node">
<title>rt/marv/sys/status/heartbeat_tcu</title>
<polygon fill="gold" stroke="black" points="1541,-756 1352.5,-756 1352.5,-720 1541,-720 1541,-756"/>
<text text-anchor="middle" x="1446.75" y="-732.95" font-family="Times,serif" font-size="14.00">rt/marv/sys/status/heartbeat_tcu</text>
</g>
<!-- /marv_can_bridge&#45;&gt;rt/marv/sys/status/heartbeat_tcu -->
<g id="edge33" class="edge">
<title>/marv_can_bridge&#45;&gt;rt/marv/sys/status/heartbeat_tcu</title>
<path fill="none" stroke="black" d="M3000.01,-566.65C2744.62,-594.66 1859.34,-691.75 1552.47,-725.41"/>
<polygon fill="black" stroke="black" points="1552.42,-721.89 1542.86,-726.46 1553.19,-728.85 1552.42,-721.89"/>
</g>
<!-- rt/marv/sys/status/heartbeat_ncu -->
<g id="node18" class="node">
<title>rt/marv/sys/status/heartbeat_ncu</title>
<polygon fill="gold" stroke="black" points="191.5,-756 0,-756 0,-720 191.5,-720 191.5,-756"/>
<text text-anchor="middle" x="95.75" y="-732.95" font-family="Times,serif" font-size="14.00">rt/marv/sys/status/heartbeat_ncu</text>
</g>
<!-- /marv_can_bridge&#45;&gt;rt/marv/sys/status/heartbeat_ncu -->
<g id="edge34" class="edge">
<title>/marv_can_bridge&#45;&gt;rt/marv/sys/status/heartbeat_ncu</title>
<path fill="none" stroke="black" d="M2992.95,-562.18C2664.45,-576.03 1345.14,-634.3 263.75,-720 244.12,-721.56 223.21,-723.47 203.07,-725.44"/>
<polygon fill="black" stroke="black" points="202.75,-721.95 193.14,-726.42 203.44,-728.92 202.75,-721.95"/>
</g>
<!-- rt/marv/sys/ctrl/log_data -->
<g id="node19" class="node">
<title>rt/marv/sys/ctrl/log_data</title>
<polygon fill="gold" stroke="black" points="2124.5,-756 1975,-756 1975,-720 2124.5,-720 2124.5,-756"/>
<text text-anchor="middle" x="2049.75" y="-732.95" font-family="Times,serif" font-size="14.00">rt/marv/sys/ctrl/log_data</text>
</g>
<!-- /marv_can_bridge&#45;&gt;rt/marv/sys/ctrl/log_data -->
<g id="edge28" class="edge">
<title>/marv_can_bridge&#45;&gt;rt/marv/sys/ctrl/log_data</title>
<path fill="none" stroke="black" d="M3008.62,-569.67C2834.83,-600 2337.48,-686.79 2136.03,-721.94"/>
<polygon fill="black" stroke="black" points="2135.67,-718.45 2126.42,-723.62 2136.87,-725.35 2135.67,-718.45"/>
</g>
<!-- rt/marv/sys/status/heartbeat_rcu -->
<g id="node20" class="node">
<title>rt/marv/sys/status/heartbeat_rcu</title>
<polygon fill="gold" stroke="black" points="5369.38,-756 5180.12,-756 5180.12,-720 5369.38,-720 5369.38,-756"/>
<text text-anchor="middle" x="5274.75" y="-732.95" font-family="Times,serif" font-size="14.00">rt/marv/sys/status/heartbeat_rcu</text>
</g>
<!-- /marv_can_bridge&#45;&gt;rt/marv/sys/status/heartbeat_rcu -->
<g id="edge21" class="edge">
<title>/marv_can_bridge&#45;&gt;rt/marv/sys/status/heartbeat_rcu</title>
<path fill="none" stroke="black" d="M3143.83,-564.24C3409.69,-583.19 4340.7,-650.67 5107.75,-720 5127.37,-721.77 5148.28,-723.8 5168.42,-725.81"/>
<polygon fill="black" stroke="black" points="5168.04,-729.29 5178.34,-726.81 5168.74,-722.33 5168.04,-729.29"/>
</g>
<!-- rt/marv/sys/ctrl/radar_enable -->
<g id="node23" class="node">
<title>rt/marv/sys/ctrl/radar_enable</title>
<polygon fill="gold" stroke="black" points="2441.12,-756 2268.38,-756 2268.38,-720 2441.12,-720 2441.12,-756"/>
<text text-anchor="middle" x="2354.75" y="-732.95" font-family="Times,serif" font-size="14.00">rt/marv/sys/ctrl/radar_enable</text>
</g>
<!-- /marv_can_bridge&#45;&gt;rt/marv/sys/ctrl/radar_enable -->
<g id="edge22" class="edge">
<title>/marv_can_bridge&#45;&gt;rt/marv/sys/ctrl/radar_enable</title>
<path fill="none" stroke="black" d="M3018.04,-571.87C2894.97,-602.51 2583.92,-679.95 2435.7,-716.85"/>
<polygon fill="black" stroke="black" points="2435.21,-713.36 2426.35,-719.17 2436.9,-720.16 2435.21,-713.36"/>
</g>
<!-- rt/marv/sys/ctrl/scenario_config_state -->
<g id="node33" class="node">
<title>rt/marv/sys/ctrl/scenario_config_state</title>
<polygon fill="gold" stroke="black" points="2806.12,-756 2585.38,-756 2585.38,-720 2806.12,-720 2806.12,-756"/>
<text text-anchor="middle" x="2695.75" y="-732.95" font-family="Times,serif" font-size="14.00">rt/marv/sys/ctrl/scenario_config_state</text>
</g>
<!-- /marv_can_bridge&#45;&gt;rt/marv/sys/ctrl/scenario_config_state -->
<g id="edge29" class="edge">
<title>/marv_can_bridge&#45;&gt;rt/marv/sys/ctrl/scenario_config_state</title>
<path fill="none" stroke="black" d="M3036.89,-574.64C2970.41,-606.28 2819.77,-677.98 2742.85,-714.58"/>
<polygon fill="black" stroke="black" points="2741.4,-711.4 2733.87,-718.86 2744.41,-717.72 2741.4,-711.4"/>
</g>
<!-- rt/marv/sys/ctrl/acu_power -->
<g id="node36" class="node">
<title>rt/marv/sys/ctrl/acu_power</title>
<polygon fill="gold" stroke="black" points="5035.88,-756 4873.62,-756 4873.62,-720 5035.88,-720 5035.88,-756"/>
<text text-anchor="middle" x="4954.75" y="-732.95" font-family="Times,serif" font-size="14.00">rt/marv/sys/ctrl/acu_power</text>
</g>
<!-- /marv_can_bridge&#45;&gt;rt/marv/sys/ctrl/acu_power -->
<g id="edge32" class="edge">
<title>/marv_can_bridge&#45;&gt;rt/marv/sys/ctrl/acu_power</title>
<path fill="none" stroke="black" d="M3141.98,-565.25C3379.57,-585.89 4158.45,-654.37 4801.75,-720 4821.29,-721.99 4842.22,-724.24 4862.13,-726.44"/>
<polygon fill="black" stroke="black" points="4861.56,-729.9 4871.89,-727.52 4862.33,-722.94 4861.56,-729.9"/>
</g>
<!-- rt/marv/sys/status/heartbeat_ucu -->
<g id="node37" class="node">
<title>rt/marv/sys/status/heartbeat_ucu</title>
<polygon fill="gold" stroke="black" points="3431.5,-756 3240,-756 3240,-720 3431.5,-720 3431.5,-756"/>
<text text-anchor="middle" x="3335.75" y="-732.95" font-family="Times,serif" font-size="14.00">rt/marv/sys/status/heartbeat_ucu</text>
</g>
<!-- /marv_can_bridge&#45;&gt;rt/marv/sys/status/heartbeat_ucu -->
<g id="edge24" class="edge">
<title>/marv_can_bridge&#45;&gt;rt/marv/sys/status/heartbeat_ucu</title>
<path fill="none" stroke="black" d="M3094.3,-575.43C3141.62,-607.09 3245.6,-676.68 3300.39,-713.34"/>
<polygon fill="black" stroke="black" points="3298.18,-716.07 3308.44,-718.73 3302.08,-710.26 3298.18,-716.07"/>
</g>
<!-- rt/marv/sys/log/log1_ncu -->
<g id="node40" class="node">
<title>rt/marv/sys/log/log1_ncu</title>
<polygon fill="gold" stroke="black" points="5666,-756 5513.5,-756 5513.5,-720 5666,-720 5666,-756"/>
<text text-anchor="middle" x="5589.75" y="-732.95" font-family="Times,serif" font-size="14.00">rt/marv/sys/log/log1_ncu</text>
</g>
<!-- /marv_can_bridge&#45;&gt;rt/marv/sys/log/log1_ncu -->
<g id="edge36" class="edge">
<title>/marv_can_bridge&#45;&gt;rt/marv/sys/log/log1_ncu</title>
<path fill="none" stroke="black" d="M3145.89,-562.87C3441.27,-578.18 4539.77,-637.63 5441.75,-720 5461.13,-721.77 5481.9,-723.97 5501.57,-726.19"/>
<polygon fill="black" stroke="black" points="5501.17,-729.67 5511.5,-727.32 5501.96,-722.71 5501.17,-729.67"/>
</g>
<!-- rt/marv/sys/status/heartbeat_ocu -->
<g id="node44" class="node">
<title>rt/marv/sys/status/heartbeat_ocu</title>
<polygon fill="gold" stroke="black" points="3767.5,-756 3576,-756 3576,-720 3767.5,-720 3767.5,-756"/>
<text text-anchor="middle" x="3671.75" y="-732.95" font-family="Times,serif" font-size="14.00">rt/marv/sys/status/heartbeat_ocu</text>
</g>
<!-- /marv_can_bridge&#45;&gt;rt/marv/sys/status/heartbeat_ocu -->
<g id="edge23" class="edge">
<title>/marv_can_bridge&#45;&gt;rt/marv/sys/status/heartbeat_ocu</title>
<path fill="none" stroke="black" d="M3116.49,-572.82C3221.74,-603.94 3477.82,-679.66 3601.97,-716.37"/>
<polygon fill="black" stroke="black" points="3600.81,-719.67 3611.39,-719.15 3602.8,-712.96 3600.81,-719.67"/>
</g>
<!-- rt/marv/sys/ctrl/reset_scenario_handler -->
<g id="node45" class="node">
<title>rt/marv/sys/ctrl/reset_scenario_handler</title>
<polygon fill="gold" stroke="black" points="4139.5,-756 3912,-756 3912,-720 4139.5,-720 4139.5,-756"/>
<text text-anchor="middle" x="4025.75" y="-732.95" font-family="Times,serif" font-size="14.00">rt/marv/sys/ctrl/reset_scenario_handler</text>
</g>
<!-- /marv_can_bridge&#45;&gt;rt/marv/sys/ctrl/reset_scenario_handler -->
<g id="edge25" class="edge">
<title>/marv_can_bridge&#45;&gt;rt/marv/sys/ctrl/reset_scenario_handler</title>
<path fill="none" stroke="black" d="M3129.19,-570.07C3287.33,-599.51 3720,-680.07 3920.8,-717.46"/>
<polygon fill="black" stroke="black" points="3919.98,-720.87 3930.45,-719.26 3921.26,-713.98 3919.98,-720.87"/>
</g>
<!-- rt/marv/sys/log/log1_tcu -->
<g id="node47" class="node">
<title>rt/marv/sys/log/log1_tcu</title>
<polygon fill="gold" stroke="black" points="5959.5,-756 5810,-756 5810,-720 5959.5,-720 5959.5,-756"/>
<text text-anchor="middle" x="5884.75" y="-732.95" font-family="Times,serif" font-size="14.00">rt/marv/sys/log/log1_tcu</text>
</g>
<!-- /marv_can_bridge&#45;&gt;rt/marv/sys/log/log1_tcu -->
<g id="edge35" class="edge">
<title>/marv_can_bridge&#45;&gt;rt/marv/sys/log/log1_tcu</title>
<path fill="none" stroke="black" d="M3146.54,-562.09C3465.14,-575.24 4714.15,-630 5737.75,-720 5757.42,-721.73 5778.52,-723.95 5798.43,-726.22"/>
<polygon fill="black" stroke="black" points="5797.83,-729.67 5808.17,-727.34 5798.63,-722.72 5797.83,-729.67"/>
</g>
<!-- rt/marv/sys/log/log1_pdu -->
<g id="node49" class="node">
<title>rt/marv/sys/log/log1_pdu</title>
<polygon fill="gold" stroke="black" points="4436.38,-756 4283.12,-756 4283.12,-720 4436.38,-720 4436.38,-756"/>
<text text-anchor="middle" x="4359.75" y="-732.95" font-family="Times,serif" font-size="14.00">rt/marv/sys/log/log1_pdu</text>
</g>
<!-- /marv_can_bridge&#45;&gt;rt/marv/sys/log/log1_pdu -->
<g id="edge26" class="edge">
<title>/marv_can_bridge&#45;&gt;rt/marv/sys/log/log1_pdu</title>
<path fill="none" stroke="black" d="M3135.49,-568.07C3349.79,-597.64 4028.26,-691.26 4271.72,-724.85"/>
<polygon fill="black" stroke="black" points="4271.09,-728.3 4281.48,-726.2 4272.05,-721.37 4271.09,-728.3"/>
</g>
<!-- rt/marv/sys/status/heartbeat_pdu -->
<g id="node54" class="node">
<title>rt/marv/sys/status/heartbeat_pdu</title>
<polygon fill="gold" stroke="black" points="527.88,-756 335.62,-756 335.62,-720 527.88,-720 527.88,-756"/>
<text text-anchor="middle" x="431.75" y="-732.95" font-family="Times,serif" font-size="14.00">rt/marv/sys/status/heartbeat_pdu</text>
</g>
<!-- /marv_can_bridge&#45;&gt;rt/marv/sys/status/heartbeat_pdu -->
<g id="edge37" class="edge">
<title>/marv_can_bridge&#45;&gt;rt/marv/sys/status/heartbeat_pdu</title>
<path fill="none" stroke="black" d="M2993.91,-562.97C2691.65,-579 1543.62,-641.86 600.75,-720 580.91,-721.64 559.79,-723.6 539.43,-725.6"/>
<polygon fill="black" stroke="black" points="539.33,-722.09 529.72,-726.56 540.02,-729.06 539.33,-722.09"/>
</g>
<!-- rt/marv/sys/log/log2_tcu -->
<g id="node55" class="node">
<title>rt/marv/sys/log/log2_tcu</title>
<polygon fill="gold" stroke="black" points="4729.5,-756 4580,-756 4580,-720 4729.5,-720 4729.5,-756"/>
<text text-anchor="middle" x="4654.75" y="-732.95" font-family="Times,serif" font-size="14.00">rt/marv/sys/log/log2_tcu</text>
</g>
<!-- /marv_can_bridge&#45;&gt;rt/marv/sys/log/log2_tcu -->
<g id="edge27" class="edge">
<title>/marv_can_bridge&#45;&gt;rt/marv/sys/log/log2_tcu</title>
<path fill="none" stroke="black" d="M3139.4,-566.68C3347.42,-589.64 3982.37,-659.91 4508.75,-720 4528.04,-722.2 4548.75,-724.6 4568.35,-726.87"/>
<polygon fill="black" stroke="black" points="4567.89,-730.34 4578.23,-728.02 4568.7,-723.39 4567.89,-730.34"/>
</g>
<!-- /marv_logger -->
<g id="node4" class="node">
<title>/marv_logger</title>
<ellipse fill="limegreen" stroke="black" cx="2049.75" cy="-918" rx="61.08" ry="18"/>
<text text-anchor="middle" x="2049.75" y="-912.95" font-family="Times,serif" font-size="14.00">/marv_logger</text>
</g>
<!-- rt/marv/sys/status/logging_marker -->
<g id="node16" class="node">
<title>rt/marv/sys/status/logging_marker</title>
<polygon fill="gold" stroke="black" points="2005.12,-1116 1802.38,-1116 1802.38,-1080 2005.12,-1080 2005.12,-1116"/>
<text text-anchor="middle" x="1903.75" y="-1092.95" font-family="Times,serif" font-size="14.00">rt/marv/sys/status/logging_marker</text>
</g>
<!-- /marv_logger&#45;&gt;rt/marv/sys/status/logging_marker -->
<g id="edge51" class="edge">
<title>/marv_logger&#45;&gt;rt/marv/sys/status/logging_marker</title>
<path fill="none" stroke="black" d="M2036.01,-935.75C2010.49,-966.86 1955.6,-1033.79 1925.16,-1070.89"/>
<polygon fill="black" stroke="black" points="1922.58,-1068.52 1918.94,-1078.48 1927.99,-1072.96 1922.58,-1068.52"/>
</g>
<!-- rt/marv/sys/status/logging_state -->
<g id="node38" class="node">
<title>rt/marv/sys/status/logging_state</title>
<polygon fill="gold" stroke="black" points="2727,-1116 2538.5,-1116 2538.5,-1080 2727,-1080 2727,-1116"/>
<text text-anchor="middle" x="2632.75" y="-1092.95" font-family="Times,serif" font-size="14.00">rt/marv/sys/status/logging_state</text>
</g>
<!-- /marv_logger&#45;&gt;rt/marv/sys/status/logging_state -->
<g id="edge50" class="edge">
<title>/marv_logger&#45;&gt;rt/marv/sys/status/logging_state</title>
<path fill="none" stroke="black" d="M2091.21,-931.66C2190.58,-962 2443.09,-1039.09 2564.93,-1076.29"/>
<polygon fill="black" stroke="black" points="2563.57,-1079.54 2574.15,-1079.11 2565.61,-1072.84 2563.57,-1079.54"/>
</g>
<!-- /marv_status_sender -->
<g id="node5" class="node">
<title>/marv_status_sender</title>
<ellipse fill="limegreen" stroke="black" cx="7198.75" cy="-918" rx="87.18" ry="18"/>
<text text-anchor="middle" x="7198.75" y="-912.95" font-family="Times,serif" font-size="14.00">/marv_status_sender</text>
</g>
<!-- /marv_heartbeat_acu -->
<g id="node6" class="node">
<title>/marv_heartbeat_acu</title>
<ellipse fill="limegreen" stroke="black" cx="2741.75" cy="-198" rx="88.71" ry="18"/>
<text text-anchor="middle" x="2741.75" y="-192.95" font-family="Times,serif" font-size="14.00">/marv_heartbeat_acu</text>
</g>
<!-- rt/marv/sys/status/heartbeat_acu -->
<g id="node46" class="node">
<title>rt/marv/sys/status/heartbeat_acu</title>
<polygon fill="gold" stroke="black" points="2837.12,-396 2646.38,-396 2646.38,-360 2837.12,-360 2837.12,-396"/>
<text text-anchor="middle" x="2741.75" y="-372.95" font-family="Times,serif" font-size="14.00">rt/marv/sys/status/heartbeat_acu</text>
</g>
<!-- /marv_heartbeat_acu&#45;&gt;rt/marv/sys/status/heartbeat_acu -->
<g id="edge65" class="edge">
<title>/marv_heartbeat_acu&#45;&gt;rt/marv/sys/status/heartbeat_acu</title>
<path fill="none" stroke="black" d="M2741.75,-216.39C2741.75,-247.1 2741.75,-311.19 2741.75,-348.46"/>
<polygon fill="black" stroke="black" points="2738.25,-348.02 2741.75,-358.02 2745.25,-348.02 2738.25,-348.02"/>
</g>
<!-- /marv_scenario_starter -->
<g id="node7" class="node">
<title>/marv_scenario_starter</title>
<ellipse fill="limegreen" stroke="black" cx="1107.75" cy="-558" rx="95.88" ry="18"/>
<text text-anchor="middle" x="1107.75" y="-552.95" font-family="Times,serif" font-size="14.00">/marv_scenario_starter</text>
</g>
<!-- /marv_scenario_starter&#45;&gt;rt/marv/sys/status/start_scenario -->
<g id="edge69" class="edge">
<title>/marv_scenario_starter&#45;&gt;rt/marv/sys/status/start_scenario</title>
<path fill="none" stroke="black" d="M1076.37,-575.43C1015.39,-607.35 880.77,-677.83 811.22,-714.24"/>
<polygon fill="black" stroke="black" points="809.62,-711.13 802.39,-718.87 812.87,-717.33 809.62,-711.13"/>
</g>
<!-- /marv_scenario_starter&#45;&gt;rt/marv/sys/status/state_12V_auto -->
<g id="edge68" class="edge">
<title>/marv_scenario_starter&#45;&gt;rt/marv/sys/status/state_12V_auto</title>
<path fill="none" stroke="black" d="M1107.75,-576.39C1107.75,-607.1 1107.75,-671.19 1107.75,-708.46"/>
<polygon fill="black" stroke="black" points="1104.25,-708.02 1107.75,-718.02 1111.25,-708.02 1104.25,-708.02"/>
</g>
<!-- /marv_scenario_starter&#45;&gt;rt/marv/sys/status/heartbeat_tcu -->
<g id="edge70" class="edge">
<title>/marv_scenario_starter&#45;&gt;rt/marv/sys/status/heartbeat_tcu</title>
<path fill="none" stroke="black" d="M1139.03,-575.43C1199.84,-607.35 1334.07,-677.83 1403.4,-714.24"/>
<polygon fill="black" stroke="black" points="1401.73,-717.31 1412.21,-718.86 1404.98,-711.12 1401.73,-717.31"/>
</g>
<!-- /marv_scenario_starter&#45;&gt;rt/marv/sys/status/heartbeat_ncu -->
<g id="edge71" class="edge">
<title>/marv_scenario_starter&#45;&gt;rt/marv/sys/status/heartbeat_ncu</title>
<path fill="none" stroke="black" d="M1039.38,-571.03C866.62,-601.41 411.47,-681.47 202.91,-718.15"/>
<polygon fill="black" stroke="black" points="202.39,-714.69 193.14,-719.87 203.6,-721.58 202.39,-714.69"/>
</g>
<!-- /marv_scenario_starter&#45;&gt;rt/marv/sys/status/heartbeat_pdu -->
<g id="edge67" class="edge">
<title>/marv_scenario_starter&#45;&gt;rt/marv/sys/status/heartbeat_pdu</title>
<path fill="none" stroke="black" d="M1053.57,-573.27C934,-604.75 647.16,-680.28 508.87,-716.69"/>
<polygon fill="black" stroke="black" points="508.22,-713.25 499.44,-719.18 510,-720.02 508.22,-713.25"/>
</g>
<!-- rt/marv/nav/sbg_ins_status&#45;&gt;/marv_can_bridge -->
<g id="edge47" class="edge">
<title>rt/marv/nav/sbg_ins_status&#45;&gt;/marv_can_bridge</title>
<path fill="none" stroke="black" d="M3352.17,-396.39C3294.76,-429.04 3170.98,-499.43 3108.09,-535.19"/>
<polygon fill="black" stroke="black" points="3106.46,-532.1 3099.5,-540.08 3109.92,-538.18 3106.46,-532.1"/>
</g>
<!-- rt/marv/nav/sbg_time&#45;&gt;/marv_status_sender -->
<g id="edge59" class="edge">
<title>rt/marv/nav/sbg_time&#45;&gt;/marv_status_sender</title>
<path fill="none" stroke="black" d="M7336.76,-576.27C7313.45,-633.81 7238.3,-819.34 7209.83,-889.65"/>
<polygon fill="black" stroke="black" points="7206.75,-887.92 7206.24,-898.5 7213.24,-890.55 7206.75,-887.92"/>
</g>
<!-- rt/marv/nav/sbg_velocity_magnitude&#45;&gt;/marv_status_sender -->
<g id="edge58" class="edge">
<title>rt/marv/nav/sbg_velocity_magnitude&#45;&gt;/marv_status_sender</title>
<path fill="none" stroke="black" d="M7695.57,-576.27C7609.92,-635.01 7329.77,-827.14 7232.44,-893.9"/>
<polygon fill="black" stroke="black" points="7230.59,-890.92 7224.32,-899.46 7234.54,-896.7 7230.59,-890.92"/>
</g>
<!-- rt/marv/sys/ctrl/scenario_config -->
<g id="node14" class="node">
<title>rt/marv/sys/ctrl/scenario_config</title>
<polygon fill="gold" stroke="black" points="3797.38,-396 3608.12,-396 3608.12,-360 3797.38,-360 3797.38,-396"/>
<text text-anchor="middle" x="3702.75" y="-372.95" font-family="Times,serif" font-size="14.00">rt/marv/sys/ctrl/scenario_config</text>
</g>
<!-- rt/marv/sys/ctrl/scenario_config&#45;&gt;/marv_can_bridge -->
<g id="edge39" class="edge">
<title>rt/marv/sys/ctrl/scenario_config&#45;&gt;/marv_can_bridge</title>
<path fill="none" stroke="black" d="M3640.61,-396.47C3518.43,-430.83 3248.4,-506.76 3128.77,-540.4"/>
<polygon fill="black" stroke="black" points="3128.15,-536.94 3119.47,-543.02 3130.05,-543.68 3128.15,-536.94"/>
</g>
<!-- rt/marv/sys/status/logging_marker&#45;&gt;/marv_can_bridge -->
<g id="edge43" class="edge">
<title>rt/marv/sys/status/logging_marker&#45;&gt;/marv_can_bridge</title>
<path fill="none" stroke="black" d="M1896.72,-1079.66C1874.14,-1020.79 1810.08,-826.33 1902.75,-720 1973.88,-638.39 2725.61,-581.64 2983.5,-564.46"/>
<polygon fill="black" stroke="black" points="2983.41,-567.97 2993.16,-563.82 2982.95,-560.99 2983.41,-567.97"/>
</g>
<!-- rt/marv/sys/ctrl/log_data&#45;&gt;/marv_logger -->
<g id="edge52" class="edge">
<title>rt/marv/sys/ctrl/log_data&#45;&gt;/marv_logger</title>
<path fill="none" stroke="black" d="M2049.75,-756.39C2049.75,-787.1 2049.75,-851.19 2049.75,-888.46"/>
<polygon fill="black" stroke="black" points="2046.25,-888.02 2049.75,-898.02 2053.25,-888.02 2046.25,-888.02"/>
</g>
<!-- rt/marv/sys/ctrl/sound_buzzer -->
<g id="node21" class="node">
<title>rt/marv/sys/ctrl/sound_buzzer</title>
<polygon fill="gold" stroke="black" points="4119.75,-396 3941.75,-396 3941.75,-360 4119.75,-360 4119.75,-396"/>
<text text-anchor="middle" x="4030.75" y="-372.95" font-family="Times,serif" font-size="14.00">rt/marv/sys/ctrl/sound_buzzer</text>
</g>
<!-- rt/marv/sys/ctrl/sound_buzzer&#45;&gt;/marv_can_bridge -->
<g id="edge41" class="edge">
<title>rt/marv/sys/ctrl/sound_buzzer&#45;&gt;/marv_can_bridge</title>
<path fill="none" stroke="black" d="M3941.63,-395.51C3752.21,-430.59 3312.79,-511.98 3140.69,-543.86"/>
<polygon fill="black" stroke="black" points="3140.19,-540.39 3130.99,-545.66 3141.46,-547.28 3140.19,-540.39"/>
</g>
<!-- rt/marv/sys/ctrl/heartbeat_acu_state -->
<g id="node22" class="node">
<title>rt/marv/sys/ctrl/heartbeat_acu_state</title>
<polygon fill="gold" stroke="black" points="2846.5,-36 2637,-36 2637,0 2846.5,0 2846.5,-36"/>
<text text-anchor="middle" x="2741.75" y="-12.95" font-family="Times,serif" font-size="14.00">rt/marv/sys/ctrl/heartbeat_acu_state</text>
</g>
<!-- rt/marv/sys/ctrl/heartbeat_acu_state&#45;&gt;/marv_heartbeat_acu -->
<g id="edge66" class="edge">
<title>rt/marv/sys/ctrl/heartbeat_acu_state&#45;&gt;/marv_heartbeat_acu</title>
<path fill="none" stroke="black" d="M2741.75,-36.39C2741.75,-67.1 2741.75,-131.19 2741.75,-168.46"/>
<polygon fill="black" stroke="black" points="2738.25,-168.02 2741.75,-178.02 2745.25,-168.02 2738.25,-168.02"/>
</g>
<!-- rt/marv/sys/ctrl/scenario_sys_time -->
<g id="node24" class="node">
<title>rt/marv/sys/ctrl/scenario_sys_time</title>
<polygon fill="gold" stroke="black" points="4467.5,-396 4264,-396 4264,-360 4467.5,-360 4467.5,-396"/>
<text text-anchor="middle" x="4365.75" y="-372.95" font-family="Times,serif" font-size="14.00">rt/marv/sys/ctrl/scenario_sys_time</text>
</g>
<!-- rt/marv/sys/ctrl/scenario_sys_time&#45;&gt;/marv_can_bridge -->
<g id="edge48" class="edge">
<title>rt/marv/sys/ctrl/scenario_sys_time&#45;&gt;/marv_can_bridge</title>
<path fill="none" stroke="black" d="M4263.51,-393.04C4012.36,-427.54 3369.4,-515.84 3146.9,-546.4"/>
<polygon fill="black" stroke="black" points="3146.61,-542.91 3137.18,-547.74 3147.57,-549.84 3146.61,-542.91"/>
</g>
<!-- rt/marv/sys/status/radar_state -->
<g id="node25" class="node">
<title>rt/marv/sys/status/radar_state</title>
<polygon fill="gold" stroke="black" points="2179.25,-396 2004.25,-396 2004.25,-360 2179.25,-360 2179.25,-396"/>
<text text-anchor="middle" x="2091.75" y="-372.95" font-family="Times,serif" font-size="14.00">rt/marv/sys/status/radar_state</text>
</g>
<!-- rt/marv/sys/status/radar_state&#45;&gt;/marv_can_bridge -->
<g id="edge38" class="edge">
<title>rt/marv/sys/status/radar_state&#45;&gt;/marv_can_bridge</title>
<path fill="none" stroke="black" d="M2179.4,-394.95C2370.83,-429.79 2823.13,-512.11 2998.51,-544.03"/>
<polygon fill="black" stroke="black" points="2997.71,-547.45 3008.17,-545.79 2998.96,-540.56 2997.71,-547.45"/>
</g>
<!-- rt/marv/sys/status/mode -->
<g id="node26" class="node">
<title>rt/marv/sys/status/mode</title>
<polygon fill="gold" stroke="black" points="8287,-756 8140.5,-756 8140.5,-720 8287,-720 8287,-756"/>
<text text-anchor="middle" x="8213.75" y="-732.95" font-family="Times,serif" font-size="14.00">rt/marv/sys/status/mode</text>
</g>
<!-- rt/marv/sys/status/mode&#45;&gt;/marv_status_sender -->
<g id="edge64" class="edge">
<title>rt/marv/sys/status/mode&#45;&gt;/marv_status_sender</title>
<path fill="none" stroke="black" d="M8140.35,-751.87C7954.03,-784.55 7464.21,-870.45 7274.93,-903.64"/>
<polygon fill="black" stroke="black" points="7274.45,-900.17 7265.2,-905.35 7275.65,-907.07 7274.45,-900.17"/>
</g>
<!-- rt/marv/nav/sbg_ref_pos -->
<g id="node27" class="node">
<title>rt/marv/nav/sbg_ref_pos</title>
<polygon fill="gold" stroke="black" points="8550.5,-36 8401,-36 8401,0 8550.5,0 8550.5,-36"/>
<text text-anchor="middle" x="8475.75" y="-12.95" font-family="Times,serif" font-size="14.00">rt/marv/nav/sbg_ref_pos</text>
</g>
<!-- rt/marv/nav/sbg_ref_pos&#45;&gt;/marv_sbg_interface -->
<g id="edge17" class="edge">
<title>rt/marv/nav/sbg_ref_pos&#45;&gt;/marv_sbg_interface</title>
<path fill="none" stroke="black" d="M8400.62,-25.95C8098.02,-53.95 6969.05,-158.39 6641.42,-188.7"/>
<polygon fill="black" stroke="black" points="6641.25,-185.21 6631.61,-189.61 6641.89,-192.18 6641.25,-185.21"/>
</g>
<!-- rt/marv/nav/sbg_ref_pos&#45;&gt;/marv_status_sender -->
<g id="edge60" class="edge">
<title>rt/marv/nav/sbg_ref_pos&#45;&gt;/marv_status_sender</title>
<path fill="none" stroke="black" d="M8510.08,-36.48C8592.31,-81.08 8793.75,-207.62 8793.75,-377 8793.75,-377 8793.75,-377 8793.75,-559 8793.75,-867.31 7644.81,-910.16 7297.21,-916.07"/>
<polygon fill="black" stroke="black" points="7297.38,-912.56 7287.43,-916.23 7297.49,-919.56 7297.38,-912.56"/>
</g>
<!-- rt/sbg/ekf_euler -->
<g id="node28" class="node">
<title>rt/sbg/ekf_euler</title>
<polygon fill="gold" stroke="black" points="6237.5,-36 6136,-36 6136,0 6237.5,0 6237.5,-36"/>
<text text-anchor="middle" x="6186.75" y="-12.95" font-family="Times,serif" font-size="14.00">rt/sbg/ekf_euler</text>
</g>
<!-- rt/sbg/ekf_euler&#45;&gt;/marv_sbg_interface -->
<g id="edge20" class="edge">
<title>rt/sbg/ekf_euler&#45;&gt;/marv_sbg_interface</title>
<path fill="none" stroke="black" d="M6222.41,-36.39C6289.86,-69.28 6435.86,-140.49 6508.66,-175.99"/>
<polygon fill="black" stroke="black" points="6506.97,-179.06 6517.5,-180.3 6510.04,-172.77 6506.97,-179.06"/>
</g>
<!-- rt/sbg/ekf_nav -->
<g id="node29" class="node">
<title>rt/sbg/ekf_nav</title>
<polygon fill="gold" stroke="black" points="7938.75,-36 7844.75,-36 7844.75,0 7938.75,0 7938.75,-36"/>
<text text-anchor="middle" x="7891.75" y="-12.95" font-family="Times,serif" font-size="14.00">rt/sbg/ekf_nav</text>
</g>
<!-- rt/sbg/ekf_nav&#45;&gt;/marv_sbg_interface -->
<g id="edge15" class="edge">
<title>rt/sbg/ekf_nav&#45;&gt;/marv_sbg_interface</title>
<path fill="none" stroke="black" d="M7844.45,-25.28C7647.19,-51.49 6888.49,-152.27 6634.87,-185.96"/>
<polygon fill="black" stroke="black" points="6634.49,-182.48 6625.04,-187.26 6635.41,-189.42 6634.49,-182.48"/>
</g>
<!-- rt/sbg/ekf_nav&#45;&gt;/marv_status_sender -->
<g id="edge56" class="edge">
<title>rt/sbg/ekf_nav&#45;&gt;/marv_status_sender</title>
<path fill="none" stroke="black" d="M7939.01,-23.87C8082.56,-41.52 8503.75,-115.58 8503.75,-377 8503.75,-377 8503.75,-377 8503.75,-559 8503.75,-667.72 8452.16,-700.38 8358.75,-756 8179.16,-862.95 7539.76,-901.96 7295.01,-913.17"/>
<polygon fill="black" stroke="black" points="7295,-909.67 7285.17,-913.62 7295.32,-916.66 7295,-909.67"/>
</g>
<!-- rt/marv/nav/sbg_pose&#45;&gt;/marv_status_sender -->
<g id="edge55" class="edge">
<title>rt/marv/nav/sbg_pose&#45;&gt;/marv_status_sender</title>
<path fill="none" stroke="black" d="M8109.27,-576.39C7948.75,-636.44 7418.37,-834.84 7250.31,-897.71"/>
<polygon fill="black" stroke="black" points="7249.33,-894.34 7241.19,-901.12 7251.78,-900.9 7249.33,-894.34"/>
</g>
<!-- rt/marv/sys/ctrl/cmd_steering -->
<g id="node34" class="node">
<title>rt/marv/sys/ctrl/cmd_steering</title>
<polygon fill="gold" stroke="black" points="3158,-396 2981.5,-396 2981.5,-360 3158,-360 3158,-396"/>
<text text-anchor="middle" x="3069.75" y="-372.95" font-family="Times,serif" font-size="14.00">rt/marv/sys/ctrl/cmd_steering</text>
</g>
<!-- rt/marv/sys/ctrl/cmd_steering&#45;&gt;/marv_can_bridge -->
<g id="edge45" class="edge">
<title>rt/marv/sys/ctrl/cmd_steering&#45;&gt;/marv_can_bridge</title>
<path fill="none" stroke="black" d="M3069.75,-396.39C3069.75,-427.1 3069.75,-491.19 3069.75,-528.46"/>
<polygon fill="black" stroke="black" points="3066.25,-528.02 3069.75,-538.02 3073.25,-528.02 3066.25,-528.02"/>
</g>
<!-- rt/marv/sys/ctrl/acu_power&#45;&gt;/marv_power_management -->
<g id="edge1" class="edge">
<title>rt/marv/sys/ctrl/acu_power&#45;&gt;/marv_power_management</title>
<path fill="none" stroke="black" d="M4954.75,-756.39C4954.75,-787.1 4954.75,-851.19 4954.75,-888.46"/>
<polygon fill="black" stroke="black" points="4951.25,-888.02 4954.75,-898.02 4958.25,-888.02 4951.25,-888.02"/>
</g>
<!-- rt/marv/sys/status/logging_state&#45;&gt;/marv_can_bridge -->
<g id="edge42" class="edge">
<title>rt/marv/sys/status/logging_state&#45;&gt;/marv_can_bridge</title>
<path fill="none" stroke="black" d="M2646.77,-1079.74C2710.42,-1001.37 2972.36,-678.89 3048.75,-584.85"/>
<polygon fill="black" stroke="black" points="3051.41,-587.13 3055,-577.16 3045.97,-582.72 3051.41,-587.13"/>
</g>
<!-- rt/marv/sys/ctrl/formatted_notification_message -->
<g id="node39" class="node">
<title>rt/marv/sys/ctrl/formatted_notification_message</title>
<polygon fill="gold" stroke="black" points="1577,-396 1298.5,-396 1298.5,-360 1577,-360 1577,-396"/>
<text text-anchor="middle" x="1437.75" y="-372.95" font-family="Times,serif" font-size="14.00">rt/marv/sys/ctrl/formatted_notification_message</text>
</g>
<!-- rt/marv/sys/ctrl/formatted_notification_message&#45;&gt;/marv_can_bridge -->
<g id="edge44" class="edge">
<title>rt/marv/sys/ctrl/formatted_notification_message&#45;&gt;/marv_can_bridge</title>
<path fill="none" stroke="black" d="M1577.25,-394.21C1907.33,-430.22 2728.1,-519.74 2988.87,-548.18"/>
<polygon fill="black" stroke="black" points="2988.3,-551.64 2998.62,-549.24 2989.06,-544.68 2988.3,-551.64"/>
</g>
<!-- rt/marv/sys/ctrl/formatted_notification_message&#45;&gt;/marv_scenario_starter -->
<g id="edge72" class="edge">
<title>rt/marv/sys/ctrl/formatted_notification_message&#45;&gt;/marv_scenario_starter</title>
<path fill="none" stroke="black" d="M1405.51,-396.39C1345.01,-429.03 1214.6,-499.37 1148.27,-535.14"/>
<polygon fill="black" stroke="black" points="1146.67,-532.03 1139.53,-539.86 1149.99,-538.19 1146.67,-532.03"/>
</g>
<!-- rt/marv/sys/log/log1_ncu&#45;&gt;/marv_status_sender -->
<g id="edge53" class="edge">
<title>rt/marv/sys/log/log1_ncu&#45;&gt;/marv_status_sender</title>
<path fill="none" stroke="black" d="M5666.18,-747.85C5689.18,-750.49 5714.49,-753.38 5737.75,-756 6259.25,-814.68 6885.72,-882.98 7111.96,-907.58"/>
<polygon fill="black" stroke="black" points="7111.25,-911.02 7121.57,-908.62 7112.01,-904.06 7111.25,-911.02"/>
</g>
<!-- rt/marv/sys/ctrl/scenario_state -->
<g id="node41" class="node">
<title>rt/marv/sys/ctrl/scenario_state</title>
<polygon fill="gold" stroke="black" points="2502.5,-396 2323,-396 2323,-360 2502.5,-360 2502.5,-396"/>
<text text-anchor="middle" x="2412.75" y="-372.95" font-family="Times,serif" font-size="14.00">rt/marv/sys/ctrl/scenario_state</text>
</g>
<!-- rt/marv/sys/ctrl/scenario_state&#45;&gt;/marv_can_bridge -->
<g id="edge46" class="edge">
<title>rt/marv/sys/ctrl/scenario_state&#45;&gt;/marv_can_bridge</title>
<path fill="none" stroke="black" d="M2477.24,-396.47C2604.5,-430.95 2886.28,-507.29 3009.78,-540.75"/>
<polygon fill="black" stroke="black" points="3008.5,-544.03 3019.06,-543.27 3010.33,-537.27 3008.5,-544.03"/>
</g>
<!-- rt/marv/sys/ctrl/scenario_state&#45;&gt;/marv_status_sender -->
<g id="edge63" class="edge">
<title>rt/marv/sys/ctrl/scenario_state&#45;&gt;/marv_status_sender</title>
<path fill="none" stroke="black" d="M2502.71,-388.62C2526.15,-391.08 2551.39,-393.68 2574.75,-396 4110.37,-548.53 4501.66,-519.43 6031.75,-720 6447.81,-774.54 6942.73,-867.43 7125.91,-902.78"/>
<polygon fill="black" stroke="black" points="7125.03,-906.17 7135.51,-904.63 7126.36,-899.3 7125.03,-906.17"/>
</g>
<!-- rt/marv/sys/ctrl/scenario_state&#45;&gt;/marv_scenario_starter -->
<g id="edge73" class="edge">
<title>rt/marv/sys/ctrl/scenario_state&#45;&gt;/marv_scenario_starter</title>
<path fill="none" stroke="black" d="M2322.54,-391.3C2082.57,-424.04 1430.78,-512.94 1194.65,-545.15"/>
<polygon fill="black" stroke="black" points="1194.32,-541.66 1184.89,-546.48 1195.27,-548.6 1194.32,-541.66"/>
</g>
<!-- rt/sbg/utc_time -->
<g id="node42" class="node">
<title>rt/sbg/utc_time</title>
<polygon fill="gold" stroke="black" points="6480,-36 6381.5,-36 6381.5,0 6480,0 6480,-36"/>
<text text-anchor="middle" x="6430.75" y="-12.95" font-family="Times,serif" font-size="14.00">rt/sbg/utc_time</text>
</g>
<!-- rt/sbg/utc_time&#45;&gt;/marv_sbg_interface -->
<g id="edge18" class="edge">
<title>rt/sbg/utc_time&#45;&gt;/marv_sbg_interface</title>
<path fill="none" stroke="black" d="M6442.57,-36.39C6463.86,-67.71 6508.76,-133.76 6533.84,-170.65"/>
<polygon fill="black" stroke="black" points="6530.69,-172.25 6539.21,-178.55 6536.48,-168.31 6530.69,-172.25"/>
</g>
<!-- rt/marv/nav/sbg_current_pos&#45;&gt;/marv_status_sender -->
<g id="edge61" class="edge">
<title>rt/marv/nav/sbg_current_pos&#45;&gt;/marv_status_sender</title>
<path fill="none" stroke="black" d="M6790.44,-576.27C6860.55,-634.77 7089.21,-825.59 7170.09,-893.08"/>
<polygon fill="black" stroke="black" points="7167.68,-895.63 7177.6,-899.35 7172.17,-890.26 7167.68,-895.63"/>
</g>
<!-- rt/marv/sys/status/heartbeat_acu&#45;&gt;/marv_can_bridge -->
<g id="edge49" class="edge">
<title>rt/marv/sys/status/heartbeat_acu&#45;&gt;/marv_can_bridge</title>
<path fill="none" stroke="black" d="M2773.8,-396.39C2834.24,-429.19 2964.87,-500.08 3030.47,-535.69"/>
<polygon fill="black" stroke="black" points="3028.64,-538.67 3039.09,-540.36 3031.97,-532.52 3028.64,-538.67"/>
</g>
<!-- rt/marv/sys/log/log1_tcu&#45;&gt;/marv_status_sender -->
<g id="edge62" class="edge">
<title>rt/marv/sys/log/log1_tcu&#45;&gt;/marv_status_sender</title>
<path fill="none" stroke="black" d="M5959.64,-749.14C6188.37,-780.13 6876.78,-873.38 7115.86,-905.77"/>
<polygon fill="black" stroke="black" points="7115.37,-909.24 7125.75,-907.11 7116.31,-902.3 7115.37,-909.24"/>
</g>
<!-- rt/marv/nav/sbg_ekf_status&#45;&gt;/marv_can_bridge -->
<g id="edge40" class="edge">
<title>rt/marv/nav/sbg_ekf_status&#45;&gt;/marv_can_bridge</title>
<path fill="none" stroke="black" d="M4659.41,-387.77C4374.8,-418.07 3434.64,-518.15 3151.28,-548.32"/>
<polygon fill="black" stroke="black" points="3150.96,-544.83 3141.39,-549.37 3151.7,-551.8 3150.96,-544.83"/>
</g>
<!-- rt/marv/nav/sbg_ekf_status&#45;&gt;/marv_status_sender -->
<g id="edge54" class="edge">
<title>rt/marv/nav/sbg_ekf_status&#45;&gt;/marv_status_sender</title>
<path fill="none" stroke="black" d="M4823.83,-384.43C5101.51,-403.3 6004.06,-468.75 6285.75,-540 6638.67,-629.27 7034.09,-829.72 7158.84,-895.58"/>
<polygon fill="black" stroke="black" points="7156.9,-898.52 7167.38,-900.1 7160.18,-892.33 7156.9,-898.52"/>
</g>
<!-- rt/sbg/ekf_quat -->
<g id="node50" class="node">
<title>rt/sbg/ekf_quat</title>
<polygon fill="gold" stroke="black" points="6721.62,-36 6623.88,-36 6623.88,0 6721.62,0 6721.62,-36"/>
<text text-anchor="middle" x="6672.75" y="-12.95" font-family="Times,serif" font-size="14.00">rt/sbg/ekf_quat</text>
</g>
<!-- rt/sbg/ekf_quat&#45;&gt;/marv_sbg_interface -->
<g id="edge16" class="edge">
<title>rt/sbg/ekf_quat&#45;&gt;/marv_sbg_interface</title>
<path fill="none" stroke="black" d="M6660.93,-36.39C6639.64,-67.71 6594.74,-133.76 6569.66,-170.65"/>
<polygon fill="black" stroke="black" points="6567.02,-168.31 6564.29,-178.55 6572.81,-172.25 6567.02,-168.31"/>
</g>
<!-- rt/sbg/imu_data -->
<g id="node51" class="node">
<title>rt/sbg/imu_data</title>
<polygon fill="gold" stroke="black" points="6967.5,-36 6866,-36 6866,0 6967.5,0 6967.5,-36"/>
<text text-anchor="middle" x="6916.75" y="-12.95" font-family="Times,serif" font-size="14.00">rt/sbg/imu_data</text>
</g>
<!-- rt/sbg/imu_data&#45;&gt;/marv_sbg_interface -->
<g id="edge19" class="edge">
<title>rt/sbg/imu_data&#45;&gt;/marv_sbg_interface</title>
<path fill="none" stroke="black" d="M6881.09,-36.39C6813.64,-69.28 6667.64,-140.49 6594.84,-175.99"/>
<polygon fill="black" stroke="black" points="6593.46,-172.77 6586,-180.3 6596.53,-179.06 6593.46,-172.77"/>
</g>
<!-- rt/marv/nav/sys_time&#45;&gt;/marv_status_sender -->
<g id="edge57" class="edge">
<title>rt/marv/nav/sys_time&#45;&gt;/marv_status_sender</title>
<path fill="none" stroke="black" d="M7073.12,-576.27C7094.29,-633.69 7162.46,-818.58 7188.5,-889.21"/>
<polygon fill="black" stroke="black" points="7185.18,-890.31 7191.92,-898.49 7191.75,-887.89 7185.18,-890.31"/>
</g>
</g>
</svg>
