<?xml version="1.0" encoding="UTF-8" standalone="no"?>
<!DOCTYPE svg PUBLIC "-//W3C//DTD SVG 1.1//EN"
 "http://www.w3.org/Graphics/SVG/1.1/DTD/svg11.dtd">
<!-- Generated by graphviz version 9.0.0 (20230911.1827)
 -->
<!-- Title: rosgraph Pages: 1 -->
<svg width="7863pt" height="720pt"
 viewBox="0.00 0.00 7863.00 720.00" xmlns="http://www.w3.org/2000/svg" xmlns:xlink="http://www.w3.org/1999/xlink">
<g id="graph0" class="graph" transform="scale(1 1) rotate(0) translate(72 648)">
<title>rosgraph</title>
<polygon fill="white" stroke="none" points="-72,72 -72,-648 7791,-648 7791,72 -72,72"/>
<g id="clust1" class="cluster">
<title>cluster_0</title>
<polygon fill="lightskyblue" stroke="black" stroke-width="2" points="3138,-327.5 3138,-404 3650,-404 3650,-327.5 3138,-327.5"/>
<text text-anchor="middle" x="3394" y="-334.7" font-family="Times,serif" font-size="14.00">/drone/set_trajectory</text>
</g>
<g id="clust2" class="cluster">
<title>cluster_1</title>
<polygon fill="lightskyblue" stroke="black" stroke-width="2" points="3778,-327.5 3778,-404 4268,-404 4268,-327.5 3778,-327.5"/>
<text text-anchor="middle" x="4023" y="-334.7" font-family="Times,serif" font-size="14.00">/drone/set_attitude</text>
</g>
<g id="clust3" class="cluster">
<title>cluster_2</title>
<polygon fill="lightskyblue" stroke="black" stroke-width="2" points="823,-327.5 823,-404 1351,-404 1351,-327.5 823,-327.5"/>
<text text-anchor="middle" x="1087" y="-334.7" font-family="Times,serif" font-size="14.00">/drone/enable_failsafe</text>
</g>
<g id="clust4" class="cluster">
<title>cluster_3</title>
<polygon fill="lightskyblue" stroke="black" stroke-width="2" points="1479,-327.5 1479,-404 1890,-404 1890,-327.5 1479,-327.5"/>
<text text-anchor="middle" x="1684.5" y="-334.7" font-family="Times,serif" font-size="14.00">/drone/land</text>
</g>
<g id="clust5" class="cluster">
<title>cluster_4</title>
<polygon fill="lightskyblue" stroke="black" stroke-width="2" points="2018,-327.5 2018,-404 2443,-404 2443,-327.5 2018,-327.5"/>
<text text-anchor="middle" x="2230.5" y="-334.7" font-family="Times,serif" font-size="14.00">/drone/ready</text>
</g>
<g id="clust6" class="cluster">
<title>cluster_5</title>
<polygon fill="lightskyblue" stroke="black" stroke-width="2" points="8,-327.5 8,-404 448,-404 448,-327.5 8,-327.5"/>
<text text-anchor="middle" x="228" y="-334.7" font-family="Times,serif" font-size="14.00">/drone/picture</text>
</g>
<g id="clust7" class="cluster">
<title>cluster_6</title>
<polygon fill="lightskyblue" stroke="black" stroke-width="2" points="2570,-327.5 2570,-404 3010,-404 3010,-327.5 2570,-327.5"/>
<text text-anchor="middle" x="2790" y="-334.7" font-family="Times,serif" font-size="14.00">/drone/disarm</text>
</g>
<g id="clust8" class="cluster">
<title>cluster_7</title>
<polygon fill="lightskyblue" stroke="black" stroke-width="2" points="4396,-327.5 4396,-404 4804,-404 4804,-327.5 4396,-327.5"/>
<text text-anchor="middle" x="4600" y="-334.7" font-family="Times,serif" font-size="14.00">/drone/arm</text>
</g>
<g id="clust9" class="cluster">
<title>cluster_8</title>
<polygon fill="lightskyblue" stroke="black" stroke-width="2" points="4932,-327.5 4932,-404 5508,-404 5508,-327.5 4932,-327.5"/>
<text text-anchor="middle" x="5220" y="-334.7" font-family="Times,serif" font-size="14.00">/drone/set_vehicle_control</text>
</g>
<g id="clust10" class="cluster">
<title>cluster_9</title>
<polygon fill="lightskyblue" stroke="black" stroke-width="2" points="5636,-327.5 5636,-404 6162,-404 6162,-327.5 5636,-327.5"/>
<text text-anchor="middle" x="5899" y="-334.7" font-family="Times,serif" font-size="14.00">/drone/move_position</text>
</g>
<g id="clust11" class="cluster">
<title>cluster_10</title>
<polygon fill="lightskyblue" stroke="black" stroke-width="2" points="7197,-147.5 7197,-224 7711,-224 7711,-147.5 7197,-147.5"/>
<text text-anchor="middle" x="7454" y="-154.7" font-family="Times,serif" font-size="14.00">/drone/control_relais</text>
</g>
<!-- /camera_controller -->
<g id="node1" class="node">
<title>/camera_controller</title>
<ellipse fill="limegreen" stroke="black" cx="231" cy="-198" rx="81.04" ry="18"/>
<text text-anchor="middle" x="231" y="-192.95" font-family="Times,serif" font-size="14.00">/camera_controller</text>
</g>
<!-- rr/drone/pictureReply -->
<g id="node26" class="node">
<title>rr/drone/pictureReply</title>
<polygon fill="gold" stroke="black" points="439.5,-396 306.5,-396 306.5,-360 439.5,-360 439.5,-396"/>
<text text-anchor="middle" x="373" y="-372.95" font-family="Times,serif" font-size="14.00">rr/drone/pictureReply</text>
</g>
<!-- /camera_controller&#45;&gt;rr/drone/pictureReply -->
<g id="edge2" class="edge">
<title>/camera_controller&#45;&gt;rr/drone/pictureReply</title>
<path fill="none" stroke="black" d="M244.62,-216.07C269.57,-247.35 322.79,-314.06 352.27,-351.01"/>
<polygon fill="black" stroke="black" points="349.3,-352.9 358.27,-358.54 354.77,-348.54 349.3,-352.9"/>
</g>
<!-- /api_listener -->
<g id="node2" class="node">
<title>/api_listener</title>
<ellipse fill="limegreen" stroke="black" cx="2227" cy="-558" rx="56.47" ry="18"/>
<text text-anchor="middle" x="2227" y="-552.95" font-family="Times,serif" font-size="14.00">/api_listener</text>
</g>
<!-- rq/drone/enable_failsafeRequest -->
<g id="node21" class="node">
<title>rq/drone/enable_failsafeRequest</title>
<polygon fill="gold" stroke="black" points="1021.38,-396 830.62,-396 830.62,-360 1021.38,-360 1021.38,-396"/>
<text text-anchor="middle" x="926" y="-372.95" font-family="Times,serif" font-size="14.00">rq/drone/enable_failsafeRequest</text>
</g>
<!-- /api_listener&#45;&gt;rq/drone/enable_failsafeRequest -->
<g id="edge7" class="edge">
<title>/api_listener&#45;&gt;rq/drone/enable_failsafeRequest</title>
<path fill="none" stroke="black" d="M2175.25,-550.29C2014.61,-529.4 1510.2,-463.37 1093,-404 1073.62,-401.24 1052.99,-398.22 1033.08,-395.27"/>
<polygon fill="black" stroke="black" points="1033.69,-391.82 1023.28,-393.81 1032.65,-398.74 1033.69,-391.82"/>
</g>
<!-- rq/drone/landRequest -->
<g id="node22" class="node">
<title>rq/drone/landRequest</title>
<polygon fill="gold" stroke="black" points="1882.12,-396 1749.88,-396 1749.88,-360 1882.12,-360 1882.12,-396"/>
<text text-anchor="middle" x="1816" y="-372.95" font-family="Times,serif" font-size="14.00">rq/drone/landRequest</text>
</g>
<!-- /api_listener&#45;&gt;rq/drone/landRequest -->
<g id="edge18" class="edge">
<title>/api_listener&#45;&gt;rq/drone/landRequest</title>
<path fill="none" stroke="black" d="M2194.52,-542.94C2123.17,-512.03 1952.26,-438.01 1866.66,-400.94"/>
<polygon fill="black" stroke="black" points="1868.11,-397.76 1857.55,-396.99 1865.33,-404.18 1868.11,-397.76"/>
</g>
<!-- rq/drone/readyRequest -->
<g id="node24" class="node">
<title>rq/drone/readyRequest</title>
<polygon fill="gold" stroke="black" points="2434.5,-396 2295.5,-396 2295.5,-360 2434.5,-360 2434.5,-396"/>
<text text-anchor="middle" x="2365" y="-372.95" font-family="Times,serif" font-size="14.00">rq/drone/readyRequest</text>
</g>
<!-- /api_listener&#45;&gt;rq/drone/readyRequest -->
<g id="edge9" class="edge">
<title>/api_listener&#45;&gt;rq/drone/readyRequest</title>
<path fill="none" stroke="black" d="M2240.13,-540.06C2264.32,-508.87 2316.03,-442.16 2344.74,-405.13"/>
<polygon fill="black" stroke="black" points="2347.23,-407.64 2350.59,-397.59 2341.7,-403.35 2347.23,-407.64"/>
</g>
<!-- rq/drone/pictureRequest -->
<g id="node27" class="node">
<title>rq/drone/pictureRequest</title>
<polygon fill="gold" stroke="black" points="162.25,-396 15.75,-396 15.75,-360 162.25,-360 162.25,-396"/>
<text text-anchor="middle" x="89" y="-372.95" font-family="Times,serif" font-size="14.00">rq/drone/pictureRequest</text>
</g>
<!-- /api_listener&#45;&gt;rq/drone/pictureRequest -->
<g id="edge15" class="edge">
<title>/api_listener&#45;&gt;rq/drone/pictureRequest</title>
<path fill="none" stroke="black" d="M2171.33,-554.65C1935.84,-544.3 998.51,-499.04 234,-404 214.41,-401.57 193.44,-398.32 173.7,-394.98"/>
<polygon fill="black" stroke="black" points="174.51,-391.57 164.06,-393.32 173.32,-398.47 174.51,-391.57"/>
</g>
<!-- rq/drone/disarmRequest -->
<g id="node28" class="node">
<title>rq/drone/disarmRequest</title>
<polygon fill="gold" stroke="black" points="3002.25,-396 2855.75,-396 2855.75,-360 3002.25,-360 3002.25,-396"/>
<text text-anchor="middle" x="2929" y="-372.95" font-family="Times,serif" font-size="14.00">rq/drone/disarmRequest</text>
</g>
<!-- /api_listener&#45;&gt;rq/drone/disarmRequest -->
<g id="edge13" class="edge">
<title>/api_listener&#45;&gt;rq/drone/disarmRequest</title>
<path fill="none" stroke="black" d="M2270.27,-546.03C2385.38,-516.84 2700.48,-436.94 2849.24,-399.22"/>
<polygon fill="black" stroke="black" points="2849.79,-402.7 2858.62,-396.84 2848.07,-395.91 2849.79,-402.7"/>
</g>
<!-- rq/drone/armRequest -->
<g id="node31" class="node">
<title>rq/drone/armRequest</title>
<polygon fill="gold" stroke="black" points="4534.38,-396 4403.62,-396 4403.62,-360 4534.38,-360 4534.38,-396"/>
<text text-anchor="middle" x="4469" y="-372.95" font-family="Times,serif" font-size="14.00">rq/drone/armRequest</text>
</g>
<!-- /api_listener&#45;&gt;rq/drone/armRequest -->
<g id="edge6" class="edge">
<title>/api_listener&#45;&gt;rq/drone/armRequest</title>
<path fill="none" stroke="black" d="M2282.91,-554.46C2524.69,-543.15 3504.1,-493.93 4304,-404 4332.85,-400.76 4364.39,-396.22 4392.1,-391.91"/>
<polygon fill="black" stroke="black" points="4392.49,-395.39 4401.82,-390.37 4391.4,-388.47 4392.49,-395.39"/>
</g>
<!-- rq/drone/move_positionRequest -->
<g id="node35" class="node">
<title>rq/drone/move_positionRequest</title>
<polygon fill="gold" stroke="black" points="5834,-396 5644,-396 5644,-360 5834,-360 5834,-396"/>
<text text-anchor="middle" x="5739" y="-372.95" font-family="Times,serif" font-size="14.00">rq/drone/move_positionRequest</text>
</g>
<!-- /api_listener&#45;&gt;rq/drone/move_positionRequest -->
<g id="edge11" class="edge">
<title>/api_listener&#45;&gt;rq/drone/move_positionRequest</title>
<path fill="none" stroke="black" d="M2283.64,-556.11C2604.42,-550.73 4225.6,-518.73 5544,-404 5572.82,-401.49 5603.93,-397.91 5632.65,-394.23"/>
<polygon fill="black" stroke="black" points="5632.99,-397.71 5642.45,-392.96 5632.08,-390.77 5632.99,-397.71"/>
</g>
<!-- /test_controller -->
<g id="node3" class="node">
<title>/test_controller</title>
<ellipse fill="limegreen" stroke="black" cx="4325" cy="-198" rx="66.71" ry="18"/>
<text text-anchor="middle" x="4325" y="-192.95" font-family="Times,serif" font-size="14.00">/test_controller</text>
</g>
<!-- rq/drone/set_trajectoryRequest -->
<g id="node16" class="node">
<title>rq/drone/set_trajectoryRequest</title>
<polygon fill="gold" stroke="black" points="3642.25,-396 3459.75,-396 3459.75,-360 3642.25,-360 3642.25,-396"/>
<text text-anchor="middle" x="3551" y="-372.95" font-family="Times,serif" font-size="14.00">rq/drone/set_trajectoryRequest</text>
</g>
<!-- /test_controller&#45;&gt;rq/drone/set_trajectoryRequest -->
<g id="edge19" class="edge">
<title>/test_controller&#45;&gt;rq/drone/set_trajectoryRequest</title>
<path fill="none" stroke="black" d="M4273.38,-209.71C4171.52,-231 3937.53,-280.63 3742,-327.5 3703.98,-336.61 3661.89,-347.44 3626.92,-356.64"/>
<polygon fill="black" stroke="black" points="3626.07,-353.25 3617.29,-359.18 3627.85,-360.02 3626.07,-353.25"/>
</g>
<!-- rq/drone/set_attitudeRequest -->
<g id="node19" class="node">
<title>rq/drone/set_attitudeRequest</title>
<polygon fill="gold" stroke="black" points="3957.62,-396 3786.38,-396 3786.38,-360 3957.62,-360 3957.62,-396"/>
<text text-anchor="middle" x="3872" y="-372.95" font-family="Times,serif" font-size="14.00">rq/drone/set_attitudeRequest</text>
</g>
<!-- /test_controller&#45;&gt;rq/drone/set_attitudeRequest -->
<g id="edge23" class="edge">
<title>/test_controller&#45;&gt;rq/drone/set_attitudeRequest</title>
<path fill="none" stroke="black" d="M4288.31,-213.42C4208.89,-244.62 4020.65,-318.59 3926.95,-355.41"/>
<polygon fill="black" stroke="black" points="3925.72,-352.13 3917.69,-359.05 3928.28,-358.65 3925.72,-352.13"/>
</g>
<!-- /test_controller&#45;&gt;rq/drone/armRequest -->
<g id="edge22" class="edge">
<title>/test_controller&#45;&gt;rq/drone/armRequest</title>
<path fill="none" stroke="black" d="M4338.81,-216.07C4364.12,-247.35 4418.08,-314.06 4447.97,-351.01"/>
<polygon fill="black" stroke="black" points="4445.06,-352.97 4454.07,-358.55 4450.5,-348.57 4445.06,-352.97"/>
</g>
<!-- rq/drone/set_vehicle_controlRequest -->
<g id="node33" class="node">
<title>rq/drone/set_vehicle_controlRequest</title>
<polygon fill="gold" stroke="black" points="5154.38,-396 4939.62,-396 4939.62,-360 5154.38,-360 5154.38,-396"/>
<text text-anchor="middle" x="5047" y="-372.95" font-family="Times,serif" font-size="14.00">rq/drone/set_vehicle_controlRequest</text>
</g>
<!-- /test_controller&#45;&gt;rq/drone/set_vehicle_controlRequest -->
<g id="edge26" class="edge">
<title>/test_controller&#45;&gt;rq/drone/set_vehicle_controlRequest</title>
<path fill="none" stroke="black" d="M4373.21,-210.89C4494.59,-240.81 4813.84,-319.52 4965.18,-356.83"/>
<polygon fill="black" stroke="black" points="4964.2,-360.19 4974.75,-359.19 4965.88,-353.4 4964.2,-360.19"/>
</g>
<!-- /drone_status -->
<g id="node4" class="node">
<title>/drone_status</title>
<ellipse fill="limegreen" stroke="black" cx="6345" cy="-198" rx="60.05" ry="18"/>
<text text-anchor="middle" x="6345" y="-192.95" font-family="Times,serif" font-size="14.00">/drone_status</text>
</g>
<!-- rt/drone/status -->
<g id="node11" class="node">
<title>rt/drone/status</title>
<polygon fill="gold" stroke="black" points="6391.62,-396 6298.38,-396 6298.38,-360 6391.62,-360 6391.62,-396"/>
<text text-anchor="middle" x="6345" y="-372.95" font-family="Times,serif" font-size="14.00">rt/drone/status</text>
</g>
<!-- /drone_status&#45;&gt;rt/drone/status -->
<g id="edge27" class="edge">
<title>/drone_status&#45;&gt;rt/drone/status</title>
<path fill="none" stroke="black" d="M6345,-216.39C6345,-247.1 6345,-311.19 6345,-348.46"/>
<polygon fill="black" stroke="black" points="6341.5,-348.02 6345,-358.02 6348.5,-348.02 6341.5,-348.02"/>
</g>
<!-- /failsafe -->
<g id="node5" class="node">
<title>/failsafe</title>
<ellipse fill="limegreen" stroke="black" cx="926" cy="-198" rx="40.6" ry="18"/>
<text text-anchor="middle" x="926" y="-192.95" font-family="Times,serif" font-size="14.00">/failsafe</text>
</g>
<!-- rt/drone/failsafe -->
<g id="node14" class="node">
<title>rt/drone/failsafe</title>
<polygon fill="gold" stroke="black" points="686.12,-396 583.88,-396 583.88,-360 686.12,-360 686.12,-396"/>
<text text-anchor="middle" x="635" y="-372.95" font-family="Times,serif" font-size="14.00">rt/drone/failsafe</text>
</g>
<!-- /failsafe&#45;&gt;rt/drone/failsafe -->
<g id="edge35" class="edge">
<title>/failsafe&#45;&gt;rt/drone/failsafe</title>
<path fill="none" stroke="black" d="M903.17,-212.97C853.29,-243.48 734.17,-316.34 672.87,-353.84"/>
<polygon fill="black" stroke="black" points="671.19,-350.76 664.48,-358.97 674.84,-356.73 671.19,-350.76"/>
</g>
<!-- rr/drone/enable_failsafeReply -->
<g id="node20" class="node">
<title>rr/drone/enable_failsafeReply</title>
<polygon fill="gold" stroke="black" points="1342.62,-396 1165.38,-396 1165.38,-360 1342.62,-360 1342.62,-396"/>
<text text-anchor="middle" x="1254" y="-372.95" font-family="Times,serif" font-size="14.00">rr/drone/enable_failsafeReply</text>
</g>
<!-- /failsafe&#45;&gt;rr/drone/enable_failsafeReply -->
<g id="edge36" class="edge">
<title>/failsafe&#45;&gt;rr/drone/enable_failsafeReply</title>
<path fill="none" stroke="black" d="M950.92,-212.53C1006.81,-242.85 1142.64,-316.57 1211.9,-354.15"/>
<polygon fill="black" stroke="black" points="1210.23,-357.23 1220.69,-358.92 1213.57,-351.07 1210.23,-357.23"/>
</g>
<!-- /relais_controller -->
<g id="node6" class="node">
<title>/relais_controller</title>
<ellipse fill="limegreen" stroke="black" cx="7458" cy="-18" rx="73.87" ry="18"/>
<text text-anchor="middle" x="7458" y="-12.95" font-family="Times,serif" font-size="14.00">/relais_controller</text>
</g>
<!-- rr/drone/control_relaisReply -->
<g id="node36" class="node">
<title>rr/drone/control_relaisReply</title>
<polygon fill="gold" stroke="black" points="7702.88,-216 7533.12,-216 7533.12,-180 7702.88,-180 7702.88,-216"/>
<text text-anchor="middle" x="7618" y="-192.95" font-family="Times,serif" font-size="14.00">rr/drone/control_relaisReply</text>
</g>
<!-- /relais_controller&#45;&gt;rr/drone/control_relaisReply -->
<g id="edge38" class="edge">
<title>/relais_controller&#45;&gt;rr/drone/control_relaisReply</title>
<path fill="none" stroke="black" d="M7473.34,-36.07C7501.58,-67.48 7561.93,-134.62 7595.06,-171.48"/>
<polygon fill="black" stroke="black" points="7592.17,-173.5 7601.46,-178.6 7597.38,-168.82 7592.17,-173.5"/>
</g>
<!-- rt/drone/control_mode -->
<g id="node7" class="node">
<title>rt/drone/control_mode</title>
<polygon fill="gold" stroke="black" points="5588.12,-36 5449.88,-36 5449.88,0 5588.12,0 5588.12,-36"/>
<text text-anchor="middle" x="5519" y="-12.95" font-family="Times,serif" font-size="14.00">rt/drone/control_mode</text>
</g>
<!-- rt/drone/control_mode&#45;&gt;/drone_status -->
<g id="edge34" class="edge">
<title>rt/drone/control_mode&#45;&gt;/drone_status</title>
<path fill="none" stroke="black" d="M5588.36,-33.95C5747.7,-68.28 6137.58,-152.3 6286.17,-184.32"/>
<polygon fill="black" stroke="black" points="6285.29,-187.71 6295.8,-186.4 6286.77,-180.87 6285.29,-187.71"/>
</g>
<!-- rt/drone/route_status -->
<g id="node8" class="node">
<title>rt/drone/route_status</title>
<polygon fill="gold" stroke="black" points="5859.88,-36 5732.12,-36 5732.12,0 5859.88,0 5859.88,-36"/>
<text text-anchor="middle" x="5796" y="-12.95" font-family="Times,serif" font-size="14.00">rt/drone/route_status</text>
</g>
<!-- rt/drone/route_status&#45;&gt;/drone_status -->
<g id="edge30" class="edge">
<title>rt/drone/route_status&#45;&gt;/drone_status</title>
<path fill="none" stroke="black" d="M5849.89,-36.47C5956.11,-70.91 6191.16,-147.12 6294.54,-180.64"/>
<polygon fill="black" stroke="black" points="6293.27,-183.91 6303.86,-183.66 6295.43,-177.25 6293.27,-183.91"/>
</g>
<!-- rt/drone/arm_status -->
<g id="node9" class="node">
<title>rt/drone/arm_status</title>
<polygon fill="gold" stroke="black" points="6125.88,-36 6004.12,-36 6004.12,0 6125.88,0 6125.88,-36"/>
<text text-anchor="middle" x="6065" y="-12.95" font-family="Times,serif" font-size="14.00">rt/drone/arm_status</text>
</g>
<!-- rt/drone/arm_status&#45;&gt;/drone_status -->
<g id="edge32" class="edge">
<title>rt/drone/arm_status&#45;&gt;/drone_status</title>
<path fill="none" stroke="black" d="M6092.36,-36.39C6143.76,-69.07 6254.65,-139.56 6310.86,-175.29"/>
<polygon fill="black" stroke="black" points="6308.77,-178.11 6319.09,-180.53 6312.52,-172.21 6308.77,-178.11"/>
</g>
<!-- rt/fmu/out/battery_status -->
<g id="node10" class="node">
<title>rt/fmu/out/battery_status</title>
<polygon fill="gold" stroke="black" points="6420.12,-36 6269.88,-36 6269.88,0 6420.12,0 6420.12,-36"/>
<text text-anchor="middle" x="6345" y="-12.95" font-family="Times,serif" font-size="14.00">rt/fmu/out/battery_status</text>
</g>
<!-- rt/fmu/out/battery_status&#45;&gt;/drone_status -->
<g id="edge29" class="edge">
<title>rt/fmu/out/battery_status&#45;&gt;/drone_status</title>
<path fill="none" stroke="black" d="M6345,-36.39C6345,-67.1 6345,-131.19 6345,-168.46"/>
<polygon fill="black" stroke="black" points="6341.5,-168.02 6345,-178.02 6348.5,-168.02 6341.5,-168.02"/>
</g>
<!-- rt/drone/status&#45;&gt;/api_listener -->
<g id="edge3" class="edge">
<title>rt/drone/status&#45;&gt;/api_listener</title>
<path fill="none" stroke="black" d="M6297.88,-388.62C6269.15,-394.08 6231.6,-400.51 6198,-404 5396.66,-487.22 2752.4,-545.94 2294.77,-555.6"/>
<polygon fill="black" stroke="black" points="2294.87,-552.09 2284.95,-555.8 2295.02,-559.09 2294.87,-552.09"/>
</g>
<!-- rt/drone/height -->
<g id="node12" class="node">
<title>rt/drone/height</title>
<polygon fill="gold" stroke="black" points="6660.12,-36 6563.88,-36 6563.88,0 6660.12,0 6660.12,-36"/>
<text text-anchor="middle" x="6612" y="-12.95" font-family="Times,serif" font-size="14.00">rt/drone/height</text>
</g>
<!-- rt/drone/height&#45;&gt;/drone_status -->
<g id="edge33" class="edge">
<title>rt/drone/height&#45;&gt;/drone_status</title>
<path fill="none" stroke="black" d="M6585.91,-36.39C6537.12,-68.92 6432.12,-138.92 6378.3,-174.8"/>
<polygon fill="black" stroke="black" points="6376.51,-171.79 6370.13,-180.25 6380.39,-177.61 6376.51,-171.79"/>
</g>
<!-- rt/fmu/out/vehicle_odometry -->
<g id="node13" class="node">
<title>rt/fmu/out/vehicle_odometry</title>
<polygon fill="gold" stroke="black" points="6977.75,-36 6804.25,-36 6804.25,0 6977.75,0 6977.75,-36"/>
<text text-anchor="middle" x="6891" y="-12.95" font-family="Times,serif" font-size="14.00">rt/fmu/out/vehicle_odometry</text>
</g>
<!-- rt/fmu/out/vehicle_odometry&#45;&gt;/drone_status -->
<g id="edge28" class="edge">
<title>rt/fmu/out/vehicle_odometry&#45;&gt;/drone_status</title>
<path fill="none" stroke="black" d="M6837.65,-36.39C6732.15,-70.79 6498.17,-147.07 6395.24,-180.62"/>
<polygon fill="black" stroke="black" points="6394.39,-177.22 6385.96,-183.65 6396.56,-183.87 6394.39,-177.22"/>
</g>
<!-- rt/drone/failsafe&#45;&gt;/api_listener -->
<g id="edge4" class="edge">
<title>rt/drone/failsafe&#45;&gt;/api_listener</title>
<path fill="none" stroke="black" d="M686.6,-388.24C715.97,-393.31 753.47,-399.47 787,-404 1315.81,-475.52 1957.64,-533.62 2161.55,-551.39"/>
<polygon fill="black" stroke="black" points="2161.15,-554.87 2171.42,-552.25 2161.76,-547.89 2161.15,-554.87"/>
</g>
<!-- rt/fmu/out/cpuload -->
<g id="node15" class="node">
<title>rt/fmu/out/cpuload</title>
<polygon fill="gold" stroke="black" points="7240,-36 7122,-36 7122,0 7240,0 7240,-36"/>
<text text-anchor="middle" x="7181" y="-12.95" font-family="Times,serif" font-size="14.00">rt/fmu/out/cpuload</text>
</g>
<!-- rt/fmu/out/cpuload&#45;&gt;/drone_status -->
<g id="edge31" class="edge">
<title>rt/fmu/out/cpuload&#45;&gt;/drone_status</title>
<path fill="none" stroke="black" d="M7121.55,-31.66C6967.61,-64.44 6557.34,-151.79 6403.96,-184.45"/>
<polygon fill="black" stroke="black" points="6403.46,-180.97 6394.41,-186.48 6404.92,-187.82 6403.46,-180.97"/>
</g>
<!-- rr/drone/set_trajectoryReply -->
<g id="node17" class="node">
<title>rr/drone/set_trajectoryReply</title>
<polygon fill="gold" stroke="black" points="3315.5,-396 3146.5,-396 3146.5,-360 3315.5,-360 3315.5,-396"/>
<text text-anchor="middle" x="3231" y="-372.95" font-family="Times,serif" font-size="14.00">rr/drone/set_trajectoryReply</text>
</g>
<!-- rr/drone/set_trajectoryReply&#45;&gt;/test_controller -->
<g id="edge20" class="edge">
<title>rr/drone/set_trajectoryReply&#45;&gt;/test_controller</title>
<path fill="none" stroke="black" d="M3278.87,-359.59C3309.68,-348.96 3350.77,-335.86 3388,-327.5 3704.62,-256.41 4090.82,-218.5 4250.46,-204.91"/>
<polygon fill="black" stroke="black" points="4250.38,-208.43 4260.05,-204.1 4249.79,-201.45 4250.38,-208.43"/>
</g>
<!-- rr/drone/set_attitudeReply -->
<g id="node18" class="node">
<title>rr/drone/set_attitudeReply</title>
<polygon fill="gold" stroke="black" points="4259.88,-396 4102.12,-396 4102.12,-360 4259.88,-360 4259.88,-396"/>
<text text-anchor="middle" x="4181" y="-372.95" font-family="Times,serif" font-size="14.00">rr/drone/set_attitudeReply</text>
</g>
<!-- rr/drone/set_attitudeReply&#45;&gt;/test_controller -->
<g id="edge24" class="edge">
<title>rr/drone/set_attitudeReply&#45;&gt;/test_controller</title>
<path fill="none" stroke="black" d="M4194.98,-359.72C4220.41,-328.28 4274.39,-261.56 4304.17,-224.74"/>
<polygon fill="black" stroke="black" points="4306.67,-227.22 4310.24,-217.24 4301.23,-222.82 4306.67,-227.22"/>
</g>
<!-- rr/drone/enable_failsafeReply&#45;&gt;/api_listener -->
<g id="edge8" class="edge">
<title>rr/drone/enable_failsafeReply&#45;&gt;/api_listener</title>
<path fill="none" stroke="black" d="M1342.93,-395.27C1538.86,-431.11 2003.41,-516.1 2167.96,-546.2"/>
<polygon fill="black" stroke="black" points="2166.87,-549.56 2177.34,-547.91 2168.13,-542.67 2166.87,-549.56"/>
</g>
<!-- rq/drone/enable_failsafeRequest&#45;&gt;/failsafe -->
<g id="edge37" class="edge">
<title>rq/drone/enable_failsafeRequest&#45;&gt;/failsafe</title>
<path fill="none" stroke="black" d="M926,-359.54C926,-328.78 926,-264.68 926,-227.46"/>
<polygon fill="black" stroke="black" points="929.5,-227.9 926,-217.91 922.5,-227.91 929.5,-227.9"/>
</g>
<!-- rr/drone/landReply -->
<g id="node23" class="node">
<title>rr/drone/landReply</title>
<polygon fill="gold" stroke="black" points="1605.38,-396 1486.62,-396 1486.62,-360 1605.38,-360 1605.38,-396"/>
<text text-anchor="middle" x="1546" y="-372.95" font-family="Times,serif" font-size="14.00">rr/drone/landReply</text>
</g>
<!-- rr/drone/landReply&#45;&gt;/api_listener -->
<g id="edge17" class="edge">
<title>rr/drone/landReply&#45;&gt;/api_listener</title>
<path fill="none" stroke="black" d="M1605.84,-394.64C1737.06,-428.94 2048.36,-510.31 2173.52,-543.02"/>
<polygon fill="black" stroke="black" points="2172.31,-546.32 2182.87,-545.47 2174.08,-539.55 2172.31,-546.32"/>
</g>
<!-- rr/drone/readyReply -->
<g id="node25" class="node">
<title>rr/drone/readyReply</title>
<polygon fill="gold" stroke="black" points="2151.75,-396 2026.25,-396 2026.25,-360 2151.75,-360 2151.75,-396"/>
<text text-anchor="middle" x="2089" y="-372.95" font-family="Times,serif" font-size="14.00">rr/drone/readyReply</text>
</g>
<!-- rr/drone/readyReply&#45;&gt;/api_listener -->
<g id="edge10" class="edge">
<title>rr/drone/readyReply&#45;&gt;/api_listener</title>
<path fill="none" stroke="black" d="M2102.48,-396.39C2126.93,-427.92 2178.67,-494.66 2207.16,-531.4"/>
<polygon fill="black" stroke="black" points="2204.05,-533.11 2212.94,-538.86 2209.58,-528.82 2204.05,-533.11"/>
</g>
<!-- rr/drone/pictureReply&#45;&gt;/api_listener -->
<g id="edge16" class="edge">
<title>rr/drone/pictureReply&#45;&gt;/api_listener</title>
<path fill="none" stroke="black" d="M439.98,-392.29C462.76,-396.48 488.43,-400.84 512,-404 1150.83,-489.77 1930.21,-539.6 2160.15,-553.18"/>
<polygon fill="black" stroke="black" points="2159.95,-556.68 2170.13,-553.77 2160.36,-549.69 2159.95,-556.68"/>
</g>
<!-- rq/drone/pictureRequest&#45;&gt;/camera_controller -->
<g id="edge1" class="edge">
<title>rq/drone/pictureRequest&#45;&gt;/camera_controller</title>
<path fill="none" stroke="black" d="M102.78,-359.72C127.87,-328.28 181.09,-261.56 210.46,-224.74"/>
<polygon fill="black" stroke="black" points="212.94,-227.25 216.44,-217.25 207.47,-222.89 212.94,-227.25"/>
</g>
<!-- rr/drone/disarmReply -->
<g id="node29" class="node">
<title>rr/drone/disarmReply</title>
<polygon fill="gold" stroke="black" points="2711.5,-396 2578.5,-396 2578.5,-360 2711.5,-360 2711.5,-396"/>
<text text-anchor="middle" x="2645" y="-372.95" font-family="Times,serif" font-size="14.00">rr/drone/disarmReply</text>
</g>
<!-- rr/drone/disarmReply&#45;&gt;/api_listener -->
<g id="edge14" class="edge">
<title>rr/drone/disarmReply&#45;&gt;/api_listener</title>
<path fill="none" stroke="black" d="M2604.16,-396.39C2525.03,-430.09 2351.48,-503.99 2270.38,-538.53"/>
<polygon fill="black" stroke="black" points="2269.25,-535.2 2261.42,-542.34 2271.99,-541.64 2269.25,-535.2"/>
</g>
<!-- rr/drone/armReply -->
<g id="node30" class="node">
<title>rr/drone/armReply</title>
<polygon fill="gold" stroke="black" points="4795.62,-396 4678.38,-396 4678.38,-360 4795.62,-360 4795.62,-396"/>
<text text-anchor="middle" x="4737" y="-372.95" font-family="Times,serif" font-size="14.00">rr/drone/armReply</text>
</g>
<!-- rr/drone/armReply&#45;&gt;/api_listener -->
<g id="edge5" class="edge">
<title>rr/drone/armReply&#45;&gt;/api_listener</title>
<path fill="none" stroke="black" d="M4677.91,-391.89C4655.48,-396.36 4629.66,-400.99 4606,-404 3695.85,-519.66 2578.1,-549.74 2294.74,-555.72"/>
<polygon fill="black" stroke="black" points="2294.88,-552.22 2284.96,-555.93 2295.03,-559.22 2294.88,-552.22"/>
</g>
<!-- rr/drone/armReply&#45;&gt;/test_controller -->
<g id="edge21" class="edge">
<title>rr/drone/armReply&#45;&gt;/test_controller</title>
<path fill="none" stroke="black" d="M4696.68,-359.58C4619.3,-326.15 4450.48,-253.21 4369.74,-218.33"/>
<polygon fill="black" stroke="black" points="4371.38,-215.22 4360.81,-214.47 4368.6,-221.65 4371.38,-215.22"/>
</g>
<!-- rr/drone/set_vehicle_controlReply -->
<g id="node32" class="node">
<title>rr/drone/set_vehicle_controlReply</title>
<polygon fill="gold" stroke="black" points="5499.62,-396 5298.38,-396 5298.38,-360 5499.62,-360 5499.62,-396"/>
<text text-anchor="middle" x="5399" y="-372.95" font-family="Times,serif" font-size="14.00">rr/drone/set_vehicle_controlReply</text>
</g>
<!-- rr/drone/set_vehicle_controlReply&#45;&gt;/test_controller -->
<g id="edge25" class="edge">
<title>rr/drone/set_vehicle_controlReply&#45;&gt;/test_controller</title>
<path fill="none" stroke="black" d="M5345.32,-359.58C5311.4,-349.09 5266.48,-336.14 5226,-327.5 4921.85,-262.62 4552.79,-221.54 4398.42,-206.02"/>
<polygon fill="black" stroke="black" points="4399.04,-202.57 4388.74,-205.06 4398.34,-209.53 4399.04,-202.57"/>
</g>
<!-- rr/drone/move_positionReply -->
<g id="node34" class="node">
<title>rr/drone/move_positionReply</title>
<polygon fill="gold" stroke="black" points="6154.25,-396 5977.75,-396 5977.75,-360 6154.25,-360 6154.25,-396"/>
<text text-anchor="middle" x="6066" y="-372.95" font-family="Times,serif" font-size="14.00">rr/drone/move_positionReply</text>
</g>
<!-- rr/drone/move_positionReply&#45;&gt;/api_listener -->
<g id="edge12" class="edge">
<title>rr/drone/move_positionReply&#45;&gt;/api_listener</title>
<path fill="none" stroke="black" d="M5977.37,-394.68C5954.21,-398.28 5929.22,-401.71 5906,-404 4452.6,-547.3 2663.32,-556.68 2295.13,-557.04"/>
<polygon fill="black" stroke="black" points="2295.15,-553.54 2285.15,-557.05 2295.15,-560.54 2295.15,-553.54"/>
</g>
<!-- rq/drone/control_relaisRequest -->
<g id="node37" class="node">
<title>rq/drone/control_relaisRequest</title>
<polygon fill="gold" stroke="black" points="7388.62,-216 7205.38,-216 7205.38,-180 7388.62,-180 7388.62,-216"/>
<text text-anchor="middle" x="7297" y="-192.95" font-family="Times,serif" font-size="14.00">rq/drone/control_relaisRequest</text>
</g>
<!-- rq/drone/control_relaisRequest&#45;&gt;/relais_controller -->
<g id="edge39" class="edge">
<title>rq/drone/control_relaisRequest&#45;&gt;/relais_controller</title>
<path fill="none" stroke="black" d="M7312.63,-179.72C7341.19,-148.15 7401.92,-81 7435.14,-44.28"/>
<polygon fill="black" stroke="black" points="7437.44,-46.95 7441.55,-37.19 7432.24,-42.26 7437.44,-46.95"/>
</g>
</g>
</svg>
